<svg id="Grupo_1179676" data-name="Grupo 1179676" xmlns="http://www.w3.org/2000/svg" width="128.145" height="128.145" viewBox="0 0 128.145 128.145">
  <g id="Grupo_1179674" data-name="Grupo 1179674" transform="translate(2.067 2.067)">
    <g id="Grupo_1179645" data-name="Grupo 1179645" transform="translate(70.273 62.005)">
      <path id="Trazado_998215" data-name="Trazado 998215" d="M323.859,260.444l-3.224,3.224a2.084,2.084,0,0,1-1.447.6A5.345,5.345,0,0,1,315.4,262.7a5.259,5.259,0,0,1-1.426-2.563h-8.557A5.173,5.173,0,0,1,304,262.7a5.345,5.345,0,0,1-3.783,1.571,2.084,2.084,0,0,1-1.447-.6L291.1,256h-2.067v36l14.158-20.214a7.947,7.947,0,0,1,13.021,0L334.5,297.916V280.8a24.783,24.783,0,0,0-10.644-20.358Z" transform="translate(-289.032 -256)" fill="#8a2c8c"/>
    </g>
    <g id="Grupo_1179646" data-name="Grupo 1179646" transform="translate(0 53.738)">
      <path id="Trazado_998216" data-name="Trazado 998216" d="M10.325,222.968H30.043a8.244,8.244,0,0,0-1.116,4.134v4.134h-18.6a2.073,2.073,0,0,1-2.067-2.067v-4.134A2.073,2.073,0,0,1,10.325,222.968Z" transform="translate(-8.258 -222.968)" fill="#838f9b"/>
    </g>
    <g id="Grupo_1179647" data-name="Grupo 1179647" transform="translate(4.134 111.61)">
      <path id="Trazado_998217" data-name="Trazado 998217" d="M78.512,460.312A6.281,6.281,0,0,0,84.8,466.6H33.041a8.265,8.265,0,0,1-8.267-8.267v-4.134H81.406l-1.757,2.5A6.3,6.3,0,0,0,78.512,460.312Z" transform="translate(-24.774 -454.194)" fill="#969faa"/>
    </g>
    <g id="Grupo_1179648" data-name="Grupo 1179648" transform="translate(27.303 62.005)">
      <path id="Trazado_998218" data-name="Trazado 998218" d="M118.98,264.267v-4.134A4.146,4.146,0,0,1,123.114,256a4.164,4.164,0,0,1,4.134,4.134v4.134a16.419,16.419,0,0,0-8.267,2.211,14.886,14.886,0,0,0-1.633,1.075c.145-.124.289-.248.413-.372A4.042,4.042,0,0,0,118.98,264.267Z" transform="translate(-117.347 -256)" fill="#969faa"/>
    </g>
    <g id="Grupo_1179649" data-name="Grupo 1179649" transform="translate(37.203 57.872)">
      <path id="Trazado_998219" data-name="Trazado 998219" d="M173.438,251.885a4.146,4.146,0,0,0,4.134,4.134,4.164,4.164,0,0,0,4.134-4.134v-6.2a2.073,2.073,0,0,1,2.067-2.067h6.2v36.025l-3.72,5.312H156.9A16.537,16.537,0,0,0,165.17,254.1V243.618a4.146,4.146,0,0,1,4.134-4.134,4.164,4.164,0,0,1,4.134,4.134Z" transform="translate(-156.903 -239.484)" fill="#969faa"/>
    </g>
    <g id="Grupo_1179650" data-name="Grupo 1179650" transform="translate(4.134 62.005)">
      <path id="Trazado_998220" data-name="Trazado 998220" d="M57.844,297.337H24.774V256H41.309v8.267a4.146,4.146,0,0,0,4.134,4.134,4.08,4.08,0,0,0,2.315-.7,16.533,16.533,0,0,0,10.086,29.638Z" transform="translate(-24.774 -256)" fill="#969faa"/>
    </g>
    <g id="Grupo_1179651" data-name="Grupo 1179651" transform="translate(4.134 103.342)">
      <path id="Trazado_998221" data-name="Trazado 998221" d="M87.193,421.161l-5.787,8.268H24.774v-8.268H87.193Z" transform="translate(-24.774 -421.161)" fill="#aab2bd"/>
    </g>
    <g id="Grupo_1179652" data-name="Grupo 1179652" transform="translate(41.337 72.484)">
      <path id="Trazado_998222" data-name="Trazado 998222" d="M185.82,312.191h-12.4a4.164,4.164,0,0,0,4.134-4.134v-10.19A16.53,16.53,0,0,1,185.82,312.191Z" transform="translate(-173.419 -297.868)" fill="#d2e6bd"/>
    </g>
    <g id="Grupo_1179653" data-name="Grupo 1179653" transform="translate(28.936 90.383)">
      <path id="Trazado_998223" data-name="Trazado 998223" d="M134.205,369.383l6.2,10.748a16.559,16.559,0,0,1-16.535,0l6.2-10.748a4.106,4.106,0,0,0,4.134,0Z" transform="translate(-123.871 -369.383)" fill="#d2e6bd"/>
    </g>
    <g id="Grupo_1179654" data-name="Grupo 1179654" transform="translate(20.669 72.484)">
      <path id="Trazado_998224" data-name="Trazado 998224" d="M99.106,297.868l6.2,10.748a4.126,4.126,0,0,0-2.067,3.576h-12.4a16.489,16.489,0,0,1,6.449-13.1c.062-.042.124-.1.186-.145A14.9,14.9,0,0,1,99.106,297.868Z" transform="translate(-90.839 -297.868)" fill="#d2e6bd"/>
    </g>
    <g id="Grupo_1179655" data-name="Grupo 1179655" transform="translate(33.07 82.674)">
      <path id="Trazado_998225" data-name="Trazado 998225" d="M146.587,346.29a4.13,4.13,0,1,1-2.067-7.709,4.146,4.146,0,0,0,4.134,4.134A4.125,4.125,0,0,1,146.587,346.29Z" transform="translate(-140.387 -338.581)" fill="#ffc729"/>
    </g>
    <g id="Grupo_1179656" data-name="Grupo 1179656" transform="translate(39.27 86.808)">
      <path id="Trazado_998226" data-name="Trazado 998226" d="M167.228,355.1h12.4a16.529,16.529,0,0,1-8.268,14.323l-6.2-10.748A4.125,4.125,0,0,0,167.228,355.1Z" transform="translate(-165.161 -355.097)" fill="#d2e6bd"/>
    </g>
    <g id="Grupo_1179657" data-name="Grupo 1179657" transform="translate(20.669 86.808)">
      <path id="Trazado_998227" data-name="Trazado 998227" d="M105.307,358.673l-6.2,10.748A16.529,16.529,0,0,1,90.839,355.1h12.4A4.125,4.125,0,0,0,105.307,358.673Z" transform="translate(-90.839 -355.097)" fill="#d2e6bd"/>
    </g>
    <g id="Grupo_1179658" data-name="Grupo 1179658" transform="translate(28.936 70.273)">
      <path id="Trazado_998228" data-name="Trazado 998228" d="M132.138,289.032v12.4a4.122,4.122,0,0,0-2.067.558l-6.2-10.748A16.419,16.419,0,0,1,132.138,289.032Z" transform="translate(-123.871 -289.032)" fill="#d2e6bd"/>
    </g>
    <g id="Grupo_1179659" data-name="Grupo 1179659" transform="translate(57.872)">
      <path id="Trazado_998229" data-name="Trazado 998229" d="M247.751,33.06a8.231,8.231,0,0,0-7.048,3.968h-.02L239.877,33a22.055,22.055,0,0,1-.393-4.051A20.685,20.685,0,0,1,260.173,8.258h24.761a20.676,20.676,0,0,1,20.689,20.689A22.058,22.058,0,0,1,305.23,33l-.806,4.03H304.4a8.231,8.231,0,0,0-7.048-3.968h-4.134a4.146,4.146,0,0,0-4.134-4.134H268.42a8.226,8.226,0,0,1-7.151-4.134h-1.116a8.265,8.265,0,0,0-8.268,8.267Z" transform="translate(-239.484 -8.258)" fill="#0f1031"/>
    </g>
    <g id="Grupo_1179660" data-name="Grupo 1179660" transform="translate(111.61 24.802)">
      <path id="Trazado_998230" data-name="Trazado 998230" d="M458.328,107.355a8.23,8.23,0,0,1,7.048,3.968,8.079,8.079,0,0,1,1.219,4.3,8.256,8.256,0,0,1-8.267,8.267h-4.134V107.355Z" transform="translate(-454.194 -107.355)" fill="#f0d0b4"/>
    </g>
    <g id="Grupo_1179661" data-name="Grupo 1179661" transform="translate(70.273 16.535)">
      <path id="Trazado_998231" data-name="Trazado 998231" d="M309.7,99.125a10.671,10.671,0,0,0-9.28,5.374l-4.444,7.772-4.278-4.279a2.085,2.085,0,0,0-1.447-.6l-1.22.145V82.59a8.265,8.265,0,0,1,8.268-8.267h1.116a8.226,8.226,0,0,0,7.151,4.134h20.668a4.146,4.146,0,0,1,4.134,4.134v24.947a4.8,4.8,0,0,0-1.22-.145,2.085,2.085,0,0,0-1.447.6l-4.279,4.279-4.444-7.772a10.7,10.7,0,0,0-9.28-5.374Z" transform="translate(-289.032 -74.323)" fill="#f0d0b4"/>
    </g>
    <g id="Grupo_1179662" data-name="Grupo 1179662" transform="translate(57.872 24.802)">
      <path id="Trazado_998232" data-name="Trazado 998232" d="M239.484,115.622a8.026,8.026,0,0,1,1.219-4.3,8.231,8.231,0,0,1,7.048-3.968h4.134V123.89h-4.134a8.256,8.256,0,0,1-8.267-8.267Z" transform="translate(-239.484 -107.355)" fill="#f0d0b4"/>
    </g>
    <g id="Grupo_1179663" data-name="Grupo 1179663" transform="translate(77.217 41.337)">
      <path id="Trazado_998233" data-name="Trazado 998233" d="M330.5,198.221h-4.278a4.8,4.8,0,0,0,.145-1.219,2.086,2.086,0,0,0-.6-1.447l-8.991-8.991,4.444-7.772a10.7,10.7,0,0,1,18.56,0l4.444,7.772-8.991,8.991a2.085,2.085,0,0,0-.6,1.447,4.8,4.8,0,0,0,.145,1.219Z" transform="translate(-316.779 -173.419)" fill="#ccd1d9"/>
    </g>
    <g id="Grupo_1179664" data-name="Grupo 1179664" transform="translate(95.075 49.604)">
      <path id="Trazado_998234" data-name="Trazado 998234" d="M408.8,211.805a2.086,2.086,0,0,1-.6,1.447L398.153,223.3l-3.224,3.224a2.084,2.084,0,0,1-1.447.6,5.345,5.345,0,0,1-3.782-1.571,5.259,5.259,0,0,1-1.426-2.563,4.8,4.8,0,0,1-.145-1.219,2.085,2.085,0,0,1,.6-1.447l8.991-8.991L402,207.051a2.085,2.085,0,0,1,1.447-.6,4.805,4.805,0,0,1,1.22.145,5.26,5.26,0,0,1,2.563,1.426,5.345,5.345,0,0,1,1.571,3.782Z" transform="translate(-388.129 -206.452)" fill="#aab2bd"/>
    </g>
    <g id="Grupo_1179665" data-name="Grupo 1179665" transform="translate(66.139 49.604)">
      <path id="Trazado_998235" data-name="Trazado 998235" d="M293.185,221.767a4.8,4.8,0,0,1-.145,1.219,5.173,5.173,0,0,1-1.426,2.563,5.345,5.345,0,0,1-3.783,1.571,2.084,2.084,0,0,1-1.447-.6l-7.668-7.668-5.6-5.6a2.086,2.086,0,0,1-.6-1.447,5.345,5.345,0,0,1,1.571-3.782,5.26,5.26,0,0,1,2.563-1.426l1.22-.145a2.085,2.085,0,0,1,1.447.6l4.278,4.279,8.991,8.991A2.086,2.086,0,0,1,293.185,221.767Z" transform="translate(-272.516 -206.452)" fill="#aab2bd"/>
    </g>
    <g id="Grupo_1179666" data-name="Grupo 1179666" transform="translate(86.808 49.604)">
      <circle id="Elipse_13724" data-name="Elipse 13724" cx="4.134" cy="4.134" r="4.134" fill="#fcd770"/>
    </g>
    <g id="Grupo_1179667" data-name="Grupo 1179667" transform="translate(57.872 74.406)">
      <path id="Trazado_998236" data-name="Trazado 998236" d="M251.885,329.151l14.158-20.214a7.947,7.947,0,0,1,13.021,0l18.292,26.125v.021l7.131,10.169a6.293,6.293,0,0,1-5.147,9.9H245.767a6.293,6.293,0,0,1-5.146-9.9l1.757-2.5,5.787-8.268,3.72-5.312Z" transform="translate(-239.484 -305.548)" fill="#ccd1d9"/>
    </g>
    <g id="Grupo_1179668" data-name="Grupo 1179668" transform="translate(86.808 107.476)">
      <circle id="Elipse_13725" data-name="Elipse 13725" cx="4.134" cy="4.134" r="4.134" fill="#ff826e"/>
    </g>
    <g id="Grupo_1179669" data-name="Grupo 1179669" transform="translate(86.808 82.674)">
      <path id="Trazado_998237" data-name="Trazado 998237" d="M363.364,340.648v12.4a2.073,2.073,0,0,1-2.067,2.067h-4.134a2.073,2.073,0,0,1-2.067-2.067v-12.4a2.073,2.073,0,0,1,2.067-2.067H361.3A2.073,2.073,0,0,1,363.364,340.648Z" transform="translate(-355.097 -338.581)" fill="#ff826e"/>
    </g>
    <g id="Grupo_1179670" data-name="Grupo 1179670" transform="translate(20.669 49.604)">
      <path id="Trazado_998238" data-name="Trazado 998238" d="M99.106,206.452h41.337v.145a5.26,5.26,0,0,0-2.563,1.426,5.345,5.345,0,0,0-1.571,3.782,2.086,2.086,0,0,0,.6,1.447l5.6,5.6h-8.267a2.073,2.073,0,0,0-2.067,2.067v6.2a4.164,4.164,0,0,1-4.134,4.134,4.146,4.146,0,0,1-4.134-4.134v-8.267a4.164,4.164,0,0,0-4.134-4.134,4.146,4.146,0,0,0-4.134,4.134v20.669a4.164,4.164,0,0,1-4.134,4.134,4.146,4.146,0,0,1-4.134-4.134V222.987a4.164,4.164,0,0,0-4.134-4.134,4.146,4.146,0,0,0-4.134,4.134v4.134a4.042,4.042,0,0,1-1.219,2.914c-.124.124-.269.248-.413.372-.062.041-.124.1-.186.145a4.081,4.081,0,0,1-2.315.7,4.146,4.146,0,0,1-4.134-4.134v-12.4a8.287,8.287,0,0,1,8.267-8.267Z" transform="translate(-90.839 -206.452)" fill="#2c2e8c"/>
    </g>
    <g id="Grupo_1179671" data-name="Grupo 1179671" transform="translate(41.337 24.802)">
      <circle id="Elipse_13726" data-name="Elipse 13726" cx="4.134" cy="4.134" r="4.134" fill="#2c2e8c"/>
    </g>
    <g id="Grupo_1179672" data-name="Grupo 1179672" transform="translate(16.535 0)">
      <circle id="Elipse_13727" data-name="Elipse 13727" cx="10.334" cy="10.334" r="10.334" fill="#2c2e8c"/>
    </g>
    <g id="Grupo_1179673" data-name="Grupo 1179673" transform="translate(4.134 33.07)">
      <circle id="Elipse_13728" data-name="Elipse 13728" cx="6.201" cy="6.201" r="6.201" fill="#2c2e8c"/>
    </g>
  </g>
  <g id="Grupo_1179675" data-name="Grupo 1179675">
    <path id="Trazado_998239" data-name="Trazado 998239" d="M353.039,198.194a6.2,6.2,0,1,0,6.2,6.2A6.208,6.208,0,0,0,353.039,198.194Zm0,8.267a2.067,2.067,0,1,1,2.067-2.067A2.069,2.069,0,0,1,353.039,206.461Z" transform="translate(-260.031 -148.59)"/>
    <path id="Trazado_998240" data-name="Trazado 998240" d="M390.558,118.033l-2.673,2.672-2.673-2.672-2.922,2.922,2.672,2.673-2.672,2.673,2.922,2.923,2.673-2.673,2.673,2.673,2.923-2.923-2.673-2.673,2.673-2.673Z" transform="translate(-286.61 -88.491)"/>
    <path id="Trazado_998241" data-name="Trazado 998241" d="M324.493,118.033l-2.672,2.672-2.673-2.672-2.923,2.922,2.673,2.673-2.673,2.673,2.923,2.923,2.673-2.673,2.672,2.673,2.923-2.923-2.672-2.673,2.672-2.673Z" transform="translate(-237.08 -88.491)"/>
    <path id="Trazado_998242" data-name="Trazado 998242" d="M117.81,45.471a10.346,10.346,0,0,0,10.334-10.334,10.222,10.222,0,0,0-1.112-4.57l.67-3.353A22.75,22.75,0,0,0,105.391,0H80.626A22.752,22.752,0,0,0,58.314,27.216l.67,3.351a10.222,10.222,0,0,0-1.112,4.57A10.346,10.346,0,0,0,68.206,45.471h2.067V49.6H31a10.286,10.286,0,0,0-8.214,4.134H4.134A4.138,4.138,0,0,0,0,57.872v4.134a4.138,4.138,0,0,0,4.134,4.134V117.81a10.346,10.346,0,0,0,10.334,10.334H119.792A8.353,8.353,0,0,0,126.636,115l-6.759-9.654V88.874a26.87,26.87,0,0,0-9.607-20.54l8.4-8.4a4.106,4.106,0,0,0,1.211-2.923,7.4,7.4,0,0,0-4.134-6.614V45.471Zm0-4.134h-2.067V38.309l5.281-3.52-2.292-3.439-2.989,1.992V28.936h2.067a6.2,6.2,0,1,1,0,12.4ZM80.626,4.134h24.765a18.62,18.62,0,0,1,18.259,22.272l-.037.188a10.267,10.267,0,0,0-5.8-1.792h-2.447a6.192,6.192,0,0,0-5.82-4.134h-4.134a6.208,6.208,0,0,1-6.2-6.2V12.4H95.075v2.067a10.228,10.228,0,0,0,2.121,6.2H88.874a6.208,6.208,0,0,1-6.2-6.2V12.4H78.54v2.067a10.331,10.331,0,0,0,.263,2.249A10.348,10.348,0,0,0,70.481,24.8H68.206a10.282,10.282,0,0,0-5.8,1.79l-.037-.186A18.62,18.62,0,0,1,80.626,4.134ZM111.61,49.7a4.146,4.146,0,0,0-2.067,1.116l-2.366,2.366-3.1-5.419a12.749,12.749,0,0,0-22.14,0l-3.1,5.419-2.367-2.364A4.16,4.16,0,0,0,74.406,49.7V26.869a6.208,6.208,0,0,1,6.2-6.2h.054A10.293,10.293,0,0,0,88.874,24.8h20.668a2.069,2.069,0,0,1,2.067,2.067ZM96.286,64.072a4.177,4.177,0,0,0-1.116,2.067H90.844a4.16,4.16,0,0,0-1.116-2.067L81.866,56.21l3.656-6.4a8.621,8.621,0,0,1,14.968,0l3.656,6.4ZM90.941,74.638a10,10,0,0,0-6.13,4.039l-10.4,14.863V66.995l6.2,6.2a4.165,4.165,0,0,0,2.922,1.211,7.4,7.4,0,0,0,6.614-4.134h.8ZM61.757,111.61H8.267v-4.134H64.651ZM49.6,84.741V78.766a14.539,14.539,0,0,1,3.974,8.042H49.224A6.131,6.131,0,0,0,49.6,84.741ZM33.9,102.3l4.239-7.337a5.689,5.689,0,0,0,2.253,0l4.237,7.337a14.322,14.322,0,0,1-10.729,0Zm3.3-21.14-3.3-5.708a14.3,14.3,0,0,1,3.3-.878Zm11.008,19.067-4.239-7.339a6.163,6.163,0,0,0,1.145-1.945h8.456a14.447,14.447,0,0,1-5.361,9.284ZM39.27,90.941a2.062,2.062,0,0,1-1.443-3.54,6.221,6.221,0,0,0,2.916,2.916,2.052,2.052,0,0,1-1.474.624ZM37.2,70.395a18.438,18.438,0,0,0-4.134.963V68.206a2.067,2.067,0,0,1,4.134,0Zm-6.874,7.129,4.243,7.35a6.111,6.111,0,0,0-1.122,1.935H24.967A14.444,14.444,0,0,1,30.329,77.523ZM33.45,90.941a6.194,6.194,0,0,0,1.122,1.934l-4.245,7.35a14.455,14.455,0,0,1-5.362-9.284Zm34.095,12.4H50.937A18.534,18.534,0,0,0,49.6,73.456V64.072a2.067,2.067,0,0,1,4.134,0V72.34a6.2,6.2,0,1,0,12.4,0v-6.2h4.134V99.444Zm6.006-49.6L86.808,66.995a3.283,3.283,0,0,1-3.278,3.278L70.273,57.016A3.282,3.282,0,0,1,73.551,53.738Zm-5.345-12.4a6.2,6.2,0,0,1,0-12.4h2.067v4.406L67.286,31.35l-2.292,3.439,5.279,3.52v3.028Zm-43.4,18.6a6.208,6.208,0,0,1,6.2-6.2H66.937a7.323,7.323,0,0,0-.8,3.278,4.106,4.106,0,0,0,1.211,2.923l2.067,2.067H66.139a4.138,4.138,0,0,0-4.134,4.134v6.2a2.067,2.067,0,1,1-4.134,0V64.072a6.2,6.2,0,0,0-12.4,0V84.741a2.067,2.067,0,1,1-4.134,0V68.206a6.2,6.2,0,0,0-12.4,0V72.34a2.067,2.067,0,1,1-4.134,0ZM4.134,57.872H20.877a10.325,10.325,0,0,0-.209,2.067v2.067H4.134Zm16.535,8.267v6.2a6.192,6.192,0,0,0,3.584,5.6,18.524,18.524,0,0,0,3.35,25.4H8.267v-37.2Zm-6.2,57.872a6.208,6.208,0,0,1-6.2-6.2v-2.067H58.942a8.262,8.262,0,0,0,.076,8.267Zm109.543-4.219a4.225,4.225,0,0,1-4.219,4.219H66.224a4.219,4.219,0,0,1-3.456-6.639L88.2,81.045a5.87,5.87,0,0,1,9.619,0l25.431,36.327A4.208,4.208,0,0,1,124.011,119.792Zm-8.267-30.918v10.57l-14.538-20.77a10.007,10.007,0,0,0-6.13-4.039V70.273h.8a7.4,7.4,0,0,0,6.614,4.134,4.165,4.165,0,0,0,2.923-1.211l1.926-1.926a22.752,22.752,0,0,1,8.408,17.605Zm-13.257-18.6a3.283,3.283,0,0,1-3.278-3.278l13.257-13.257a3.282,3.282,0,0,1,3.278,3.278Z"/>
    <path id="Trazado_998243" data-name="Trazado 998243" d="M350.973,330.323a4.138,4.138,0,0,0-4.134,4.134v12.4a4.138,4.138,0,0,0,4.134,4.134h4.134a4.138,4.138,0,0,0,4.134-4.134v-12.4a4.138,4.138,0,0,0-4.134-4.134Zm4.134,16.535h-4.134v-12.4h4.134Z" transform="translate(-260.031 -247.649)"/>
    <path id="Trazado_998244" data-name="Trazado 998244" d="M353.039,429.419a6.2,6.2,0,1,0,6.2,6.2A6.208,6.208,0,0,0,353.039,429.419Zm0,8.268a2.067,2.067,0,1,1,2.067-2.067A2.068,2.068,0,0,1,353.039,437.687Z" transform="translate(-260.031 -321.943)"/>
    <path id="Trazado_998245" data-name="Trazado 998245" d="M24.783,148.664a8.267,8.267,0,1,0-8.267-8.268A8.276,8.276,0,0,0,24.783,148.664Zm0-12.4A4.134,4.134,0,1,1,20.65,140.4,4.138,4.138,0,0,1,24.783,136.263Z" transform="translate(-12.382 -99.059)"/>
    <path id="Trazado_998246" data-name="Trazado 998246" d="M78.466,24.8a12.4,12.4,0,1,0-12.4-12.4A12.414,12.414,0,0,0,78.466,24.8Zm0-20.669A8.267,8.267,0,1,1,70.2,12.4,8.276,8.276,0,0,1,78.466,4.134Z" transform="translate(-49.53)"/>
    <path id="Trazado_998247" data-name="Trazado 998247" d="M171.361,111.5a6.2,6.2,0,1,0-6.2-6.2A6.208,6.208,0,0,0,171.361,111.5Zm0-8.267a2.067,2.067,0,1,1-2.067,2.067A2.069,2.069,0,0,1,171.361,103.231Z" transform="translate(-123.824 -74.295)"/>
  </g>
</svg>
