<svg xmlns="http://www.w3.org/2000/svg" width="141.688" height="141.688" viewBox="0 0 141.688 141.688">
  <g id="Grupo_1180401" data-name="Grupo 1180401" transform="translate(-1083.156 -8839.176)">
    <path id="Trazado_997844" data-name="Trazado 997844" d="M244.125,276.866h6.142a2.039,2.039,0,0,0,0-4.078h-6.142a2.039,2.039,0,0,0,0,4.078Z" transform="translate(916.919 8648.94)" fill="#fff" fill-rule="evenodd"/>
    <path id="Trazado_997845" data-name="Trazado 997845" d="M242.086,274.827h6.142a2.04,2.04,0,0,1,2.039,2.039,2.039,2.039,0,0,0,0-4.078h-6.142A2.04,2.04,0,0,0,242.086,274.827Z" transform="translate(916.919 8648.94)" fill="#7e6e85" fill-rule="evenodd"/>
    <circle id="Elipse_13712" data-name="Elipse 13712" cx="4.078" cy="4.078" r="4.078" transform="translate(1148.909 8935.918)" fill="#6cac25"/>
    <path id="Trazado_997848" data-name="Trazado 997848" d="M217.841,310.53a4.078,4.078,0,1,1,5.4,5.4,4.079,4.079,0,0,0-5.4-5.4Z" transform="translate(931.43 8627.788)" fill="#d2e6bd" fill-rule="evenodd"/>
    <circle id="Elipse_13713" data-name="Elipse 13713" cx="4.078" cy="4.078" r="4.078" transform="translate(1173.379 8929.801)" fill="#fff"/>
    <path id="Trazado_997851" data-name="Trazado 997851" d="M278.783,295.294a4.079,4.079,0,1,1,5.4,5.4,4.079,4.079,0,0,0-5.4-5.4Z" transform="translate(894.956 8636.907)" fill="#7e6e85" fill-rule="evenodd"/>
    <path id="Trazado_997852" data-name="Trazado 997852" d="M318.554,323.4v-4.078a6.118,6.118,0,0,0-6.117-6.117H304.28a6.117,6.117,0,0,0-6.117,6.117v16.313a6.117,6.117,0,0,0,6.115,6.117h8.158a6.118,6.118,0,0,0,6.117-6.117V331.56a2.039,2.039,0,0,0-4.078,0v4.078a2.04,2.04,0,0,1-2.039,2.039H304.28a2.039,2.039,0,0,1-2.039-2.039V319.325a2.038,2.038,0,0,1,2.037-2.039h8.158a2.04,2.04,0,0,1,2.039,2.039V323.4a2.039,2.039,0,0,0,4.078,0Z" transform="translate(883.357 8624.749)" fill="#fff" fill-rule="evenodd"/>
    <rect id="Rectángulo_402033" data-name="Rectángulo 402033" width="141.688" height="141.688" rx="5" transform="translate(1083.156 8839.176)" fill="#6e2370"/>
    <circle id="Elipse_13711" data-name="Elipse 13711" cx="44.86" cy="44.86" r="44.86" transform="translate(1108.128 8858.433)" fill="#dcbfdc" opacity="0.57" style="mix-blend-mode: multiply;isolation: isolate"/>
    <path id="Trazado_997833" data-name="Trazado 997833" d="M167.334,122.1a44.863,44.863,0,1,1,39.836,79.879A44.865,44.865,0,0,0,167.334,122.1Z" transform="translate(961.657 8743.288)" fill="#dcbfdc" fill-rule="evenodd"/>
    <path id="Trazado_997834" data-name="Trazado 997834" d="M244.125,175.3h10.22a2.039,2.039,0,0,0,0-4.078h-10.22a2.039,2.039,0,0,0,0,4.078Z" transform="translate(916.919 8709.729)" fill="#fff" fill-rule="evenodd"/>
    <path id="Trazado_997835" data-name="Trazado 997835" d="M242.086,173.256h10.22a2.04,2.04,0,0,1,2.039,2.039,2.039,2.039,0,0,0,0-4.078h-10.22A2.04,2.04,0,0,0,242.086,173.256Z" transform="translate(916.919 8709.729)" fill="#7e6e85" fill-rule="evenodd"/>
    <path id="Trazado_997836" data-name="Trazado 997836" d="M244.125,215.923h10.22a2.039,2.039,0,0,0,0-4.078h-10.22a2.039,2.039,0,0,0,0,4.078Z" transform="translate(916.919 8685.414)" fill="#fff" fill-rule="evenodd"/>
    <path id="Trazado_997837" data-name="Trazado 997837" d="M242.086,213.884h10.22a2.04,2.04,0,0,1,2.039,2.039,2.039,2.039,0,0,0,0-4.078h-10.22A2.04,2.04,0,0,0,242.086,213.884Z" transform="translate(916.919 8685.414)" fill="#7e6e85" fill-rule="evenodd"/>
    <path id="Trazado_997838" data-name="Trazado 997838" d="M244.125,256.552h10.22a2.039,2.039,0,0,0,0-4.078h-10.22a2.039,2.039,0,0,0,0,4.078Z" transform="translate(916.919 8661.098)" fill="#fff" fill-rule="evenodd"/>
    <path id="Trazado_997839" data-name="Trazado 997839" d="M242.086,254.513h10.22a2.04,2.04,0,0,1,2.039,2.039,2.039,2.039,0,0,0,0-4.078h-10.22A2.04,2.04,0,0,0,242.086,254.513Z" transform="translate(916.919 8661.098)" fill="#7e6e85" fill-rule="evenodd"/>
    <path id="Trazado_997840" data-name="Trazado 997840" d="M244.125,195.609h6.142a2.039,2.039,0,0,0,0-4.078h-6.142a2.039,2.039,0,0,0,0,4.078Z" transform="translate(916.919 8697.572)" fill="#fff" fill-rule="evenodd"/>
    <path id="Trazado_997841" data-name="Trazado 997841" d="M242.086,193.57h6.142a2.04,2.04,0,0,1,2.039,2.039,2.039,2.039,0,0,0,0-4.078h-6.142A2.04,2.04,0,0,0,242.086,193.57Z" transform="translate(916.919 8697.572)" fill="#7e6e85" fill-rule="evenodd"/>
    <path id="Trazado_997842" data-name="Trazado 997842" d="M244.125,236.238h6.142a2.039,2.039,0,0,0,0-4.078h-6.142a2.039,2.039,0,0,0,0,4.078Z" transform="translate(916.919 8673.256)" fill="#fff" fill-rule="evenodd"/>
    <path id="Trazado_997843" data-name="Trazado 997843" d="M242.086,234.2h6.142a2.04,2.04,0,0,1,2.039,2.039,2.039,2.039,0,0,0,0-4.078h-6.142A2.04,2.04,0,0,0,242.086,234.2Z" transform="translate(916.919 8673.256)" fill="#7e6e85" fill-rule="evenodd"/>
    <path id="Trazado_997846" data-name="Trazado 997846" d="M200.706,208.755V158.663a8.151,8.151,0,0,1,2.39-5.768,8.157,8.157,0,0,1,11.533,0,8.151,8.151,0,0,1,2.39,5.768v50.092a12.234,12.234,0,1,1-16.313,0Z" transform="translate(944.125 8722.124)" fill="#cdbfdc" fill-rule="evenodd"/>
    <path id="Trazado_997847" data-name="Trazado 997847" d="M209.395,154.665a8.077,8.077,0,0,1,1.342-1.77,8.157,8.157,0,0,1,11.533,0,8.151,8.151,0,0,1,2.39,5.768v50.092a12.233,12.233,0,0,1-7.161,21.311,12.226,12.226,0,0,0-.995-17.232V162.741a8.152,8.152,0,0,0-2.39-5.769,8.63,8.63,0,0,0-4.719-2.308Z" transform="translate(936.484 8722.124)" fill="#636363" fill-rule="evenodd"/>
    <path id="Trazado_997849" data-name="Trazado 997849" d="M215.978,224.486a6.116,6.116,0,1,0,4.082.027V173.256a2.039,2.039,0,1,0-4.078,0s-.006,13.233-.008,26.465c0,10.387,0,20.772,0,24.765Zm2,3.742a2.039,2.039,0,1,1-2.039,2.039A2.04,2.04,0,0,1,217.98,228.228Z" transform="translate(935.007 8709.729)" fill="#482370" fill-rule="evenodd"/>
    <path id="Trazado_997850" data-name="Trazado 997850" d="M222.122,173.256a2.04,2.04,0,0,1,2.039,2.039v51.257a6.121,6.121,0,0,1,3.145,8.939,6.12,6.12,0,0,0-1.105-10.978V173.256a2.039,2.039,0,1,0-4.078,0Z" transform="translate(928.867 8709.729)" fill-rule="evenodd"/>
    <path id="Trazado_997853" data-name="Trazado 997853" d="M156.7,206.724a1.806,1.806,0,0,1,1.8,1.8v3.608a5.389,5.389,0,0,1-.792,2.818,5.408,5.408,0,0,0,2.6-4.622v-3.609a1.8,1.8,0,0,0-3.608,0ZM145.872,195.9h0a1.8,1.8,0,0,0-1.8,1.8v14.434a1.8,1.8,0,0,0,1.8,1.8h7.217a1.8,1.8,0,0,0,1.8-1.8h-7.217a1.8,1.8,0,0,1-1.8-1.8Zm-2.818-2.819a5.384,5.384,0,0,1,2.818-.79h7.217A5.413,5.413,0,0,1,158.5,197.7v3.608a1.806,1.806,0,0,0,1.8-1.8V195.9a5.413,5.413,0,0,0-5.413-5.413h-7.217A5.409,5.409,0,0,0,143.054,193.08Z" transform="translate(976.188 8698.197)" fill-rule="evenodd"/>
    <path id="Trazado_997854" data-name="Trazado 997854" d="M187.749,187.569a6.118,6.118,0,1,0-8,6.411,42.537,42.537,0,0,1-8.813,4.166,14.275,14.275,0,0,0-3.55-13.847s0-1.59,0-4.2h4a2.039,2.039,0,0,0,0-4.078h-4v-4.078h8.081a2.039,2.039,0,0,0,0-4.078h-8.081v-4.078h4a2.039,2.039,0,0,0,0-4.078h-4v-4.079h8.081a2.039,2.039,0,0,0,0-4.078h-8.081V147.47h4a2.039,2.039,0,0,0,0-4.078h-4v-4.078h8.081a2.039,2.039,0,0,0,0-4.078h-8.081v-.159a10.206,10.206,0,0,0-2.985-7.21,10.2,10.2,0,0,0-14.421,0,10.2,10.2,0,0,0-2.985,7.21v4.154a2.039,2.039,0,0,0,4.078,0v-4.154a6.118,6.118,0,0,1,1.792-4.327,6.119,6.119,0,0,1,8.65,0,6.116,6.116,0,0,1,1.792,4.327v50.092a2.034,2.034,0,0,0,.679,1.519,10.2,10.2,0,1,1-13.593,0,2.033,2.033,0,0,0,.679-1.519v-33.7a2.039,2.039,0,0,0-4.078,0V184.3a14.278,14.278,0,0,0-3.548,13.845,42.829,42.829,0,0,1,7.9-82.989,2.039,2.039,0,1,0-.55-4.041,46.908,46.908,0,0,0-4.806,92.018,14.27,14.27,0,0,0,22.4,0,46.908,46.908,0,0,0-4.806-92.018,2.039,2.039,0,0,0-.55,4.041,42.817,42.817,0,0,1,24.716,72.413Zm-32.56.936a6.116,6.116,0,1,0,4.082.026V137.275a2.039,2.039,0,1,0-4.078,0s-.006,13.233-.008,26.465c0,10.387,0,20.772,0,24.765Zm2,3.742a2.039,2.039,0,1,1-2.039,2.039A2.04,2.04,0,0,1,157.191,192.246Zm24.469-6.117a2.039,2.039,0,1,1-2.039,2.039A2.04,2.04,0,0,1,181.66,186.129Z" transform="translate(995.797 8745.711)" fill-rule="evenodd"/>
  </g>
</svg>
