<svg xmlns="http://www.w3.org/2000/svg" width="98" height="98" viewBox="0 0 98 98">
  <g id="Grupo_1180377" data-name="Grupo 1180377" transform="translate(-633.127 -3512.381)">
    <g id="Grupo_1180376" data-name="Grupo 1180376">
      <g id="Grupo_1102209" data-name="Grupo 1102209" transform="translate(-18.645 -3480.619)">
        <rect id="Rectángulo_403454" data-name="Rectángulo 403454" width="98" height="98" rx="18" transform="translate(651.771 6993)" fill="#fff"/>
      </g>
    </g>
    <g id="_452_Placeholder_Water_Park" data-name="452, Placeholder, Water, Park" transform="translate(442.715 3443.399)">
      <g id="Grupo_1179034" data-name="Grupo 1179034" transform="translate(205.924 84.32)">
        <g id="Grupo_1179033" data-name="Grupo 1179033">
          <path id="Trazado_996955" data-name="Trazado 996955" d="M217.54,169.244a2.791,2.791,0,1,1-2.791,2.791A2.791,2.791,0,0,1,217.54,169.244Z" transform="translate(-211.958 -142.386)" fill="#232470"/>
          <path id="Trazado_996956" data-name="Trazado 996956" d="M274.522,220.335v18.6a2.557,2.557,0,0,1-2.558,2.558h-59.07a2.557,2.557,0,0,1-2.558-2.558v-18.6a2.559,2.559,0,0,1,2.558-2.559h25.893c1.287,1.419,2.545,2.816,3.714,4.186,1.183-1.373,2.441-2.771,3.719-4.186h25.744a2.559,2.559,0,0,1,2.558,2.559Z" transform="translate(-208.941 -175.57)" fill="#2c2e8c"/>
          <path id="Trazado_996957" data-name="Trazado 996957" d="M385.9,111.887a3.488,3.488,0,1,1-3.488,3.488A3.489,3.489,0,0,1,385.9,111.887Z" transform="translate(-326.593 -103.169)" fill="#232470"/>
          <path id="Trazado_996958" data-name="Trazado 996958" d="M306.6,134.543a4.012,4.012,0,0,1-8.025,0c0-2.012,2.327-4.165,4-6.1C304.206,130.351,306.6,132.5,306.6,134.543Z" transform="translate(-269.276 -114.487)" fill="#232470"/>
          <path id="Trazado_996959" data-name="Trazado 996959" d="M273.218,88.732a17.853,17.853,0,0,1,17.852,17.851c0,7.524-7.318,15.492-14.061,22.96-1.278,1.415-2.535,2.813-3.719,4.186-1.169-1.37-2.428-2.767-3.714-4.186h0c-6.7-7.383-14.209-15.34-14.209-22.96a17.853,17.853,0,0,1,17.852-17.851Zm10.842,18a10.842,10.842,0,1,0-10.842,10.842A10.859,10.859,0,0,0,284.06,106.733Z" transform="translate(-239.73 -87.337)" fill="#6cac25"/>
          <path id="Trazado_996960" data-name="Trazado 996960" d="M398.432,157.321c0,.028,0,.057,0,.085a1.4,1.4,0,0,1-1.311,1.391l-.085,0a1.4,1.4,0,0,1-.081-2.789l.085,0a1.4,1.4,0,0,1,1.39,1.313Z" transform="translate(-335.644 -133.336)"/>
          <path id="Trazado_996961" data-name="Trazado 996961" d="M371.959,183.793c0,.028,0,.057,0,.085a1.4,1.4,0,0,1-1.312,1.391l-.083,0a1.4,1.4,0,0,1-.083-2.789l.085,0a1.4,1.4,0,0,1,1.39,1.313Z" transform="translate(-317.544 -151.436)"/>
          <path id="Trazado_996962" data-name="Trazado 996962" d="M367.547,95.552c0,.028,0,.057,0,.085a1.4,1.4,0,0,1-1.313,1.391l-.085,0a1.4,1.4,0,0,1-.081-2.789l.085,0A1.4,1.4,0,0,1,367.547,95.552Z" transform="translate(-314.527 -91.102)"/>
          <path id="Trazado_996963" data-name="Trazado 996963" d="M248.421,192.617c0,.028,0,.057,0,.085a1.4,1.4,0,0,1-1.312,1.392l-.083,0a1.4,1.4,0,0,1-.083-2.789l.085,0a1.4,1.4,0,0,1,1.39,1.313Z" transform="translate(-233.075 -157.47)"/>
          <path id="Trazado_996964" data-name="Trazado 996964" d="M235.185,117.612c0,.028,0,.057,0,.085a1.4,1.4,0,0,1-1.313,1.391l-.085,0a1.4,1.4,0,0,1-.081-2.789l.085,0A1.4,1.4,0,0,1,235.185,117.612Z" transform="translate(-224.025 -106.185)"/>
          <path id="Trazado_996965" data-name="Trazado 996965" d="M285.357,131.433A12.237,12.237,0,1,1,297.594,119.2,12.251,12.251,0,0,1,285.357,131.433Zm0-21.683A9.446,9.446,0,1,0,294.8,119.2,9.457,9.457,0,0,0,285.357,109.75Z" transform="translate(-251.869 -99.799)"/>
          <path id="Trazado_996966" data-name="Trazado 996966" d="M223.347,267.478a4.191,4.191,0,0,1-4.186-4.186,1.4,1.4,0,0,1,2.791,0,1.4,1.4,0,1,0,2.791,0,1.4,1.4,0,1,1,2.791,0A4.191,4.191,0,0,1,223.347,267.478Z" transform="translate(-214.975 -205.737)"/>
          <path id="Trazado_996967" data-name="Trazado 996967" d="M240.995,267.478a4.191,4.191,0,0,1-4.186-4.186,1.4,1.4,0,1,1,2.791,0,1.4,1.4,0,0,0,2.791,0,1.4,1.4,0,1,1,2.791,0A4.191,4.191,0,0,1,240.995,267.478Z" transform="translate(-227.041 -205.737)"/>
          <path id="Trazado_996968" data-name="Trazado 996968" d="M276.291,267.478a4.191,4.191,0,0,1-4.186-4.186,1.4,1.4,0,0,1,2.791,0,1.4,1.4,0,0,0,2.791,0,1.4,1.4,0,1,1,2.791,0A4.191,4.191,0,0,1,276.291,267.478Z" transform="translate(-251.175 -205.737)"/>
          <path id="Trazado_996969" data-name="Trazado 996969" d="M293.94,267.478a4.19,4.19,0,0,1-4.186-4.186,1.4,1.4,0,1,1,2.791,0,1.4,1.4,0,0,0,2.791,0,1.4,1.4,0,1,1,2.791,0A4.191,4.191,0,0,1,293.94,267.478Z" transform="translate(-263.242 -205.737)"/>
          <path id="Trazado_996970" data-name="Trazado 996970" d="M311.588,267.478a4.191,4.191,0,0,1-4.186-4.186,1.4,1.4,0,1,1,2.791,0,1.4,1.4,0,1,0,2.791,0,1.4,1.4,0,0,1,2.791,0A4.19,4.19,0,0,1,311.588,267.478Z" transform="translate(-275.309 -205.737)"/>
          <path id="Trazado_996971" data-name="Trazado 996971" d="M364.533,267.478a4.191,4.191,0,0,1-4.186-4.186,1.4,1.4,0,1,1,2.791,0,1.4,1.4,0,1,0,2.791,0,1.4,1.4,0,0,1,2.791,0A4.191,4.191,0,0,1,364.533,267.478Z" transform="translate(-311.51 -205.737)"/>
          <path id="Trazado_996972" data-name="Trazado 996972" d="M382.181,267.478A4.191,4.191,0,0,1,378,263.292a1.4,1.4,0,1,1,2.791,0,1.4,1.4,0,0,0,2.791,0,1.4,1.4,0,0,1,2.791,0A4.19,4.19,0,0,1,382.181,267.478Z" transform="translate(-323.577 -205.737)"/>
          <path id="Trazado_996973" data-name="Trazado 996973" d="M223.347,245.418a4.191,4.191,0,0,1-4.186-4.186,1.4,1.4,0,0,1,2.791,0,1.4,1.4,0,0,0,2.791,0,1.4,1.4,0,1,1,2.791,0A4.191,4.191,0,0,1,223.347,245.418Z" transform="translate(-214.975 -190.654)"/>
          <path id="Trazado_996974" data-name="Trazado 996974" d="M240.995,245.418a4.191,4.191,0,0,1-4.186-4.186,1.4,1.4,0,1,1,2.791,0,1.4,1.4,0,0,0,2.791,0,1.4,1.4,0,1,1,2.791,0A4.191,4.191,0,0,1,240.995,245.418Z" transform="translate(-227.041 -190.654)"/>
          <path id="Trazado_996975" data-name="Trazado 996975" d="M258.643,245.418a4.191,4.191,0,0,1-4.186-4.186,1.4,1.4,0,1,1,2.791,0,1.4,1.4,0,0,0,2.791,0,1.4,1.4,0,0,1,2.791,0A4.191,4.191,0,0,1,258.643,245.418Z" transform="translate(-239.108 -190.654)"/>
          <path id="Trazado_996976" data-name="Trazado 996976" d="M276.291,245.418a4.191,4.191,0,0,1-4.186-4.186,1.4,1.4,0,0,1,2.791,0,1.4,1.4,0,0,0,2.791,0,1.4,1.4,0,1,1,2.791,0A4.191,4.191,0,0,1,276.291,245.418Z" transform="translate(-251.175 -190.654)"/>
          <path id="Trazado_996977" data-name="Trazado 996977" d="M293.94,245.418a4.191,4.191,0,0,1-4.186-4.186,1.4,1.4,0,1,1,2.791,0,1.4,1.4,0,0,0,2.791,0,1.4,1.4,0,1,1,2.791,0A4.191,4.191,0,0,1,293.94,245.418Z" transform="translate(-263.242 -190.654)"/>
          <path id="Trazado_996978" data-name="Trazado 996978" d="M311.588,245.418a4.191,4.191,0,0,1-4.186-4.186,1.4,1.4,0,1,1,2.791,0,1.4,1.4,0,0,0,2.791,0,1.4,1.4,0,0,1,2.791,0A4.191,4.191,0,0,1,311.588,245.418Z" transform="translate(-275.309 -190.654)"/>
          <path id="Trazado_996979" data-name="Trazado 996979" d="M364.533,245.418a4.191,4.191,0,0,1-4.186-4.186,1.4,1.4,0,1,1,2.791,0,1.4,1.4,0,0,0,2.791,0,1.4,1.4,0,0,1,2.791,0A4.191,4.191,0,0,1,364.533,245.418Z" transform="translate(-311.51 -190.654)"/>
          <path id="Trazado_996980" data-name="Trazado 996980" d="M382.181,245.418A4.191,4.191,0,0,1,378,241.232a1.4,1.4,0,1,1,2.791,0,1.4,1.4,0,0,0,2.791,0,1.4,1.4,0,0,1,2.791,0A4.191,4.191,0,0,1,382.181,245.418Z" transform="translate(-323.577 -190.654)"/>
          <path id="Trazado_996981" data-name="Trazado 996981" d="M268.948,239.876h-59.07a3.958,3.958,0,0,1-3.953-3.953v-18.6a3.958,3.958,0,0,1,3.953-3.954h25.892a1.4,1.4,0,1,1,0,2.791H209.877a1.164,1.164,0,0,0-1.162,1.164v18.6a1.163,1.163,0,0,0,1.162,1.162h59.07a1.163,1.163,0,0,0,1.162-1.162v-18.6a1.164,1.164,0,0,0-1.162-1.164H243.2a1.4,1.4,0,1,1,0-2.791h25.744a3.958,3.958,0,0,1,3.953,3.954v18.6a3.958,3.958,0,0,1-3.953,3.953Z" transform="translate(-205.924 -172.553)"/>
          <path id="Trazado_996982" data-name="Trazado 996982" d="M270.274,132.108h0a1.4,1.4,0,0,1-1.058-.49c-1.169-1.369-2.443-2.783-3.651-4.116l-.036-.038-.768-.846c-6.786-7.465-13.8-15.184-13.8-23.053a19.247,19.247,0,0,1,38.495,0c0,7.928-7.15,15.845-14.064,23.5l-.356.395c-1.215,1.345-2.5,2.773-3.7,4.162a1.4,1.4,0,0,1-1.057.484Zm-2.718-6.558.037.04c.879.969,1.794,1.983,2.684,3,.893-1.014,1.8-2.026,2.68-2.994l.356-.395c6.56-7.264,13.344-14.776,13.344-21.63a16.457,16.457,0,0,0-32.913,0c0,6.79,6.648,14.1,13.077,21.175Z" transform="translate(-236.713 -84.32)"/>
          <path id="Trazado_996983" data-name="Trazado 996983" d="M299.574,136.933a5.414,5.414,0,0,1-5.408-5.407c0-2.2,1.749-4.136,3.441-6.009.316-.349.614-.68.893-1a1.4,1.4,0,0,1,1.057-.485h0a1.4,1.4,0,0,1,1.058.489c.3.352.629.713.977,1.1,1.587,1.745,3.386,3.724,3.386,5.912A5.413,5.413,0,0,1,299.574,136.933Zm-.016-9.412c-1.189,1.318-2.6,2.917-2.6,4.005a2.617,2.617,0,0,0,5.234,0C302.19,130.424,300.738,128.819,299.558,127.52Z" transform="translate(-266.259 -111.47)"/>
          <path id="Trazado_996984" data-name="Trazado 996984" d="M214.523,173.2a4.186,4.186,0,1,1,4.186-4.186A4.191,4.191,0,0,1,214.523,173.2Zm0-5.581a1.4,1.4,0,1,0,1.4,1.4A1.4,1.4,0,0,0,214.523,167.623Z" transform="translate(-208.941 -139.37)"/>
          <path id="Trazado_996985" data-name="Trazado 996985" d="M382.879,117.242a4.884,4.884,0,1,1,4.884-4.884A4.889,4.889,0,0,1,382.879,117.242Zm0-6.977a2.093,2.093,0,1,0,2.093,2.093A2.1,2.1,0,0,0,382.879,110.266Z" transform="translate(-323.577 -100.152)"/>
        </g>
      </g>
    </g>
  </g>
</svg>
