<svg xmlns="http://www.w3.org/2000/svg" width="98" height="98" viewBox="0 0 98 98">
  <g id="Grupo_1180378" data-name="Grupo 1180378" transform="translate(-903.127 -3512.381)">
    <g id="Grupo_1102512" data-name="Grupo 1102512" transform="translate(251.355 -3480.619)">
      <rect id="Rectángulo_403454" data-name="Rectángulo 403454" width="98" height="98" rx="18" transform="translate(651.771 6993)" fill="#fff"/>
    </g>
    <g id="Filled-Outline" transform="translate(807.817 3430.526)">
      <path id="Trazado_996986" data-name="Trazado 996986" d="M202.414,256.606v23.632a1.313,1.313,0,0,0,1.313,1.313h9.19a1.313,1.313,0,0,0,1.313-1.313v-1.313a2.626,2.626,0,0,1,5.251,0v1.313a1.313,1.313,0,0,0,1.313,1.313h9.19a1.313,1.313,0,0,0,1.313-1.313V256.606Z" transform="translate(-71.286 -123.807)" fill="#636363"/>
      <path id="Trazado_996987" data-name="Trazado 996987" d="M288.512,256.606v24.945h5.251a1.313,1.313,0,0,0,1.313-1.313V256.606Z" transform="translate(-135.065 -123.807)" fill="#636363"/>
      <path id="Trazado_996988" data-name="Trazado 996988" d="M227.737,330.323a7.877,7.877,0,0,1,7.877-7.877v2.626a2.626,2.626,0,0,0-2.626,2.626v1.313a1.313,1.313,0,0,1-1.313,1.313Z" transform="translate(-90.044 -172.579)" fill="#6e2370"/>
      <path id="Trazado_996989" data-name="Trazado 996989" d="M208.787,123.422V108.981a14.442,14.442,0,0,0-28.883,0v14.442a7.877,7.877,0,0,0-7.877,7.877v9.19H179.9v-3.939h28.883V131.3h14.442v-7.877Z" transform="translate(-48.775 -3.752)" fill="#636363"/>
      <path id="Trazado_996990" data-name="Trazado 996990" d="M198.662,239.16a1.313,1.313,0,0,1-1.313-1.313V232.6a1.313,1.313,0,0,1,2.626,0v5.252A1.313,1.313,0,0,1,198.662,239.16Z" transform="translate(-67.534 -105.048)" fill="#6e2370"/>
      <path id="Trazado_996991" data-name="Trazado 996991" d="M237.975,108.981a14.442,14.442,0,0,0-26.546-7.877h13.418a6.564,6.564,0,0,1,6.564,6.564v28.883h6.564Z" transform="translate(-77.964 -3.752)" fill="#636363"/>
      <rect id="Rectángulo_455445" data-name="Rectángulo 455445" width="15.755" height="15.755" rx="7.877" transform="translate(137.693 102.603)" fill="#fff"/>
      <circle id="Elipse_13693" data-name="Elipse 13693" cx="1.313" cy="1.313" r="1.313" transform="translate(140.318 105.229)" fill="#d2e6bd"/>
      <circle id="Elipse_13694" data-name="Elipse 13694" cx="1.313" cy="1.313" r="1.313" transform="translate(148.196 105.229)" fill="#d2e6bd"/>
      <path id="Trazado_996992" data-name="Trazado 996992" d="M222.107,138.242H211.6a9.19,9.19,0,0,1,0-18.38h10.5a9.19,9.19,0,0,1,0,18.38Zm-10.5-15.755a6.564,6.564,0,0,0,0,13.129h10.5a6.564,6.564,0,0,0,0-13.129Z" transform="translate(-71.286 -22.511)" fill="#928c98"/>
      <path id="Trazado_996993" data-name="Trazado 996993" d="M254.373,99.977a1.313,1.313,0,0,1-1.313-1.313V90.787a1.313,1.313,0,1,1,2.626,0v7.877A1.313,1.313,0,0,1,254.373,99.977Z" transform="translate(-108.803)" fill="#928c98"/>
      <path id="Trazado_996994" data-name="Trazado 996994" d="M254.373,236.343a1.313,1.313,0,0,1-1.313-1.313V202.208a1.313,1.313,0,1,1,2.626,0V235.03A1.313,1.313,0,0,1,254.373,236.343Z" transform="translate(-108.803 -82.538)" fill="#928c98"/>
      <path id="Trazado_996995" data-name="Trazado 996995" d="M217.607,180.637h5.252v7.877h-5.252Z" transform="translate(-82.54 -67.531)" fill="#a4a4a6"/>
      <path id="Trazado_996996" data-name="Trazado 996996" d="M278.383,180.637h5.251v7.877h-5.251Z" transform="translate(-127.562 -67.531)" fill="#a4a4a6"/>
      <path id="Trazado_996997" data-name="Trazado 996997" d="M240.492,168.069v2.626h-2.626v5.252h10.5v-5.252h-2.626v-2.626a2.626,2.626,0,1,0-5.251,0Z" transform="translate(-97.548 -56.276)"/>
      <path id="Trazado_996998" data-name="Trazado 996998" d="M198.662,251.541h28.883a1.313,1.313,0,0,1,1.313,1.313h0a1.313,1.313,0,0,1-1.313,1.313H198.662a1.313,1.313,0,0,1-1.313-1.313h0A1.313,1.313,0,0,1,198.662,251.541Z" transform="translate(-67.534 -120.055)" fill="#928c98"/>
      <path id="Trazado_996999" data-name="Trazado 996999" d="M217.607,195.831h5.252v3.938h-5.252Z" transform="translate(-82.54 -78.786)" fill="#482370"/>
      <path id="Trazado_997000" data-name="Trazado 997000" d="M278.383,195.831h5.251v3.938h-5.251Z" transform="translate(-127.562 -78.786)" fill="#482370"/>
      <path id="Trazado_997001" data-name="Trazado 997001" d="M237.866,195.831h10.5v2.626h-10.5Z" transform="translate(-97.548 -78.786)" fill="#cdbfdc"/>
      <path id="Trazado_997002" data-name="Trazado 997002" d="M260.75,170.694h-2.626v-5.251a2.626,2.626,0,0,1,2.626,2.626Z" transform="translate(-112.554 -56.276)" fill="#cdbfdc"/>
      <path id="Trazado_997003" data-name="Trazado 997003" d="M196.223,352.833v3.939H194.91a2.626,2.626,0,0,0-2.626,2.626v2.626h13.129v-9.19Z" transform="translate(-63.782 -195.089)" fill="#928c98"/>
      <path id="Trazado_997004" data-name="Trazado 997004" d="M282.508,352.833v3.939h1.313a2.626,2.626,0,0,1,2.626,2.626v2.626H273.318v-9.19Z" transform="translate(-123.81 -195.089)" fill="#928c98"/>
      <path id="Trazado_997005" data-name="Trazado 997005" d="M177.277,277.051a2.626,2.626,0,0,1-5.251,0V271.8H179.9v2.626A2.626,2.626,0,0,1,177.277,277.051Z" transform="translate(-48.775 -135.062)" fill="#928c98"/>
      <path id="Trazado_997006" data-name="Trazado 997006" d="M313.835,226.218h14.442v2.626H313.835Z" transform="translate(-153.823 -101.296)" fill="#636363"/>
      <path id="Trazado_997007" data-name="Trazado 997007" d="M288.512,352.833h5.251v3.939h-5.251Z" transform="translate(-135.065 -195.089)" fill="#89828f"/>
      <path id="Trazado_997008" data-name="Trazado 997008" d="M227.737,352.833h3.938v9.19h-3.938Z" transform="translate(-90.044 -195.089)" fill="#89828f"/>
      <path id="Trazado_997009" data-name="Trazado 997009" d="M192.284,271.8h2.626v2.626a2.626,2.626,0,0,1-2.626,2.626h0V271.8Z" transform="translate(-63.782 -135.062)" fill="#89828f"/>
      <path id="Trazado_997010" data-name="Trazado 997010" d="M111.251,307.252H187.4v10.5H111.251Z" transform="translate(-3.755 -161.324)" fill="#482370"/>
      <path id="Trazado_997011" data-name="Trazado 997011" d="M111.251,358.272l10.5-10.5h7.877l-10.5,10.5Z" transform="translate(-3.755 -191.338)" fill="#7e6e85"/>
      <path id="Trazado_997012" data-name="Trazado 997012" d="M170.9,347.769l10.5,10.5h-7.877l-6.564-6.564Z" transform="translate(-45.023 -191.338)" fill="#6cac25"/>
      <path id="Trazado_997013" data-name="Trazado 997013" d="M352.474,358.272l-10.5-10.5h-7.877l10.5,10.5Z" transform="translate(-168.83 -191.338)" fill="#7e6e85"/>
      <path id="Trazado_997014" data-name="Trazado 997014" d="M304.079,347.769l-10.5,10.5h7.877l6.564-6.564Z" transform="translate(-138.816 -191.338)" fill="#6cac25"/>
      <path id="Trazado_997015" data-name="Trazado 997015" d="M121.38,281.929h5.251v6.564H121.38Z" transform="translate(-11.258 -142.565)" fill="#371138"/>
      <circle id="Elipse_13695" data-name="Elipse 13695" cx="5.252" cy="5.252" r="5.252" transform="translate(107.496 130.173)" fill="#ffeeed"/>
      <path id="Trazado_997016" data-name="Trazado 997016" d="M374.61,281.929h5.252v6.564H374.61Z" transform="translate(-198.844 -142.565)" fill="#371138"/>
      <circle id="Elipse_13696" data-name="Elipse 13696" cx="5.252" cy="5.252" r="5.252" transform="translate(173.14 130.173)" fill="#ffeeed"/>
      <g id="Grupo_1179035" data-name="Grupo 1179035" transform="translate(107.496 145.928)">
        <path id="Trazado_997017" data-name="Trazado 997017" d="M222.672,317.755l10.5-10.5h7.877l-10.5,10.5Z" transform="translate(-193.789 -307.252)" fill="#371138"/>
        <path id="Trazado_997018" data-name="Trazado 997018" d="M283.447,317.755l10.5-10.5h7.877l-10.5,10.5Z" transform="translate(-238.809 -307.252)" fill="#371138"/>
        <path id="Trazado_997019" data-name="Trazado 997019" d="M111.251,317.755v-2.626l7.877-7.877h7.877l-10.5,10.5Z" transform="translate(-111.251 -307.252)" fill="#371138"/>
        <path id="Trazado_997020" data-name="Trazado 997020" d="M161.9,317.755l10.5-10.5h7.877l-10.5,10.5Z" transform="translate(-148.768 -307.252)" fill="#371138"/>
        <path id="Trazado_997021" data-name="Trazado 997021" d="M344.222,317.755l10.5-10.5h5.252v2.626l-7.877,7.877Z" transform="translate(-283.829 -307.252)" fill="#371138"/>
      </g>
      <path id="Trazado_997022" data-name="Trazado 997022" d="M334.093,148.184v3.939a9.19,9.19,0,0,0,18.381,0v-10.5a6.564,6.564,0,0,0-13.129,0v6.564a2.626,2.626,0,0,0-5.252,0Z" transform="translate(-168.83 -33.765)" fill="#928c98"/>
      <path id="Trazado_997023" data-name="Trazado 997023" d="M353.372,138.138a6.517,6.517,0,0,1,.8,3.139v10.5a9.19,9.19,0,0,1-14.242,7.677,9.19,9.19,0,0,0,16.867-5.051V143.9A6.565,6.565,0,0,0,353.372,138.138Z" transform="translate(-173.154 -36.049)" fill="#89828f"/>
      <path id="Trazado_997024" data-name="Trazado 997024" d="M344.222,175.572a2.626,2.626,0,0,1,2.626,2.626v1.313a1.313,1.313,0,1,1-2.626,0v-3.939Z" transform="translate(-176.333 -63.779)" fill="#89828f"/>
      <path id="Trazado_997025" data-name="Trazado 997025" d="M117.587,96.019l-5.979,10.462a2.626,2.626,0,0,0,2.276,3.929h11.957a2.626,2.626,0,0,0,2.279-3.929l-5.975-10.462a2.626,2.626,0,0,0-4.559,0Z" transform="translate(-3.763 -3.868)" fill="#482370"/>
      <path id="Trazado_997026" data-name="Trazado 997026" d="M122.1,107.97h-11.96a3.938,3.938,0,0,1-3.415-5.893L112.7,91.615a3.939,3.939,0,0,1,6.838,0l5.979,10.462a3.938,3.938,0,0,1-3.42,5.893Zm-5.979-15.714a1.289,1.289,0,0,0-1.139.657L109,103.375a1.313,1.313,0,0,0,1.136,1.969h11.957a1.313,1.313,0,0,0,1.149-1.969L117.26,92.918A1.288,1.288,0,0,0,116.119,92.257Z" transform="translate(-0.015 -0.116)" fill="#371138"/>
      <circle id="Elipse_13697" data-name="Elipse 13697" cx="1.313" cy="1.313" r="1.313" transform="translate(114.791 101.29)" fill="#371138"/>
      <path id="Trazado_997027" data-name="Trazado 997027" d="M140.7,114.984a1.313,1.313,0,0,1-1.313-1.313v-2.626a1.313,1.313,0,1,1,2.626,0v2.626A1.313,1.313,0,0,1,140.7,114.984Z" transform="translate(-24.6 -15.007)" fill="#371138"/>
      <circle id="Elipse_13698" data-name="Elipse 13698" cx="2.626" cy="2.626" r="2.626" transform="translate(110.122 132.799)" fill="#482370"/>
      <circle id="Elipse_13699" data-name="Elipse 13699" cx="2.626" cy="2.626" r="2.626" transform="translate(175.766 132.799)" fill="#482370"/>
      <path id="Trazado_997028" data-name="Trazado 997028" d="M161.324,128.881h13.129a10.514,10.514,0,0,0,10.5-10.5v-10.5c-.432-10.447-15.323-10.451-15.755,0v2.851a3.959,3.959,0,0,0-5.251,3.714v3.939h-2.626V105.249c.031-13.931-17.09-21.028-26.894-11.14a15.65,15.65,0,0,0-4.615,11.14V118.47a9.233,9.233,0,0,0-7.877,9.1V142.01a3.923,3.923,0,0,0,1.006,2.626h-6.257V140.7a6.565,6.565,0,1,0-7.877,0v3.938H107.5a1.313,1.313,0,0,0-1.313,1.313v10.5a1.313,1.313,0,0,0,1.313,1.313h7.334l-8.263,8.261a1.313,1.313,0,0,0,.929,2.242h7.877a1.314,1.314,0,0,0,.929-.384l5.635-5.637,5.636,5.637a1.4,1.4,0,0,0,.425.284,1.328,1.328,0,0,0,.5.1h13.129a1.313,1.313,0,0,0,1.313-1.313v-9.19H148.2v9.19a1.313,1.313,0,0,0,1.313,1.313h13.129a1.329,1.329,0,0,0,.5-.1,1.394,1.394,0,0,0,.425-.284l5.636-5.637,5.636,5.637a1.313,1.313,0,0,0,.929.384h7.877a1.313,1.313,0,0,0,.929-2.242l-8.263-8.261h7.334a1.313,1.313,0,0,0,1.313-1.313v-10.5a1.313,1.313,0,0,0-1.313-1.313h-1.313V140.7a6.565,6.565,0,1,0-7.877,0v3.938H161.324Zm5.252-14.442a1.313,1.313,0,0,1,2.626,0v1.313a1.313,1.313,0,1,0,2.626,0v-7.877a5.252,5.252,0,0,1,10.5,0v10.5c-.432,10.449-15.323,10.449-15.755,0Zm-2.3,6.564a10.5,10.5,0,0,0,3.235,5.252h-7.5a1.313,1.313,0,0,0-1.313,1.313v6.564H146.883V121h2.626a1.313,1.313,0,0,0,1.313,1.313h5.251A1.313,1.313,0,0,0,157.386,121v-7.877a1.164,1.164,0,0,0,0-.128,9.247,9.247,0,0,0,1.313-1.7v8.389A1.313,1.313,0,0,0,160.012,121ZM150.821,100a6.576,6.576,0,0,1,3.938,11.816v-5.251a5.252,5.252,0,0,0-5.251-5.252h-7.877a5.252,5.252,0,0,0-5.251,5.252v5.251a6.593,6.593,0,0,1-.7-9.894A6.521,6.521,0,0,1,140.318,100Zm-6.564,13.129v-1.313a1.313,1.313,0,0,1,2.626,0v1.313Zm1.313-5.252a3.939,3.939,0,0,0-3.939,3.939v1.313a1.313,1.313,0,0,0-1.313-1.313h-1.313v-5.251a2.626,2.626,0,0,1,2.626-2.626h7.877a2.626,2.626,0,0,1,2.626,2.626v5.251h-1.313a1.313,1.313,0,0,0-1.313,1.313v-1.313A3.939,3.939,0,0,0,145.57,107.875Zm6.564,6.564h2.626v5.252h-2.626Zm-15.755,0h2.626v5.252H136.38Zm5.251,1.313h7.877v2.626h-7.877Zm16.247-15.07a9.172,9.172,0,0,0-7.057-3.31h-3.939V92.186A13.163,13.163,0,0,1,157.878,100.682Zm-21.591-4.715a13.023,13.023,0,0,1,7.969-3.774v5.179h-3.939a9.149,9.149,0,0,0-7.057,3.308A13.069,13.069,0,0,1,136.288,95.967Zm-11.724,31.6A6.594,6.594,0,0,1,131.128,121a1.313,1.313,0,0,0,1.313-1.313v-8.4a9.226,9.226,0,0,0,1.313,1.7,1.081,1.081,0,0,0,0,.13V121a1.313,1.313,0,0,0,1.313,1.313h5.252A1.313,1.313,0,0,0,141.631,121h2.626v13.129H132.441v-6.564a1.313,1.313,0,0,0-2.626,0v6.564h-5.251Zm7.877,27.571h-.77l7.877-7.877h4.165l-7.877,7.877Zm-1.313,4.708-2.083-2.083h2.083ZM118,155.139h-2.083l7.877-7.877h4.165l-7.877,7.877ZM129.815,140.7H128.5a1.313,1.313,0,0,0-1.313,1.313,1.313,1.313,0,1,1-2.626,0v-5.251h5.251Zm-.225,2.626h.225v1.313h-1.008A3.939,3.939,0,0,0,129.59,143.323Zm2.081,3.939h4.165l-7.877,7.877h-4.165Zm7.334-2.626h-6.564v-7.877h11.816v7.877Zm-26.258-13.129a3.939,3.939,0,1,1-3.939,3.939A3.939,3.939,0,0,1,112.748,131.507Zm-1.313,10.372a6.672,6.672,0,0,0,2.626,0v2.757h-2.626Zm-1.313,5.383H112.2l-3.4,3.4v-3.4Zm-1.313,7.877v-.77l7.108-7.108h4.165l-7.877,7.877Zm6.021,10.5h-4.165l7.877-7.877h4.165Zm11.046-7.334,2.878,2.88a3.938,3.938,0,0,0-1.531,2.626l-3.43-3.423Zm14.442,7.334h-10.5v-1.313a1.313,1.313,0,0,1,1.313-1.313h1.313a1.313,1.313,0,0,0,1.313-1.313v-3.939h6.564Zm1.313-10.5h-2.082l7.877-7.877h4.165l-7.877,7.877Zm17.837-7.877-7.877,7.877h-4.165l7.877-7.877Zm-4.708,18.38h-3.938v-7.877h6.564V161.7a1.313,1.313,0,0,0,1.313,1.313h1.313a1.313,1.313,0,0,1,1.313,1.313v1.313Zm20.463-18.38-7.877,7.877h-4.165l7.877-7.877Zm7.107,0v.77l-7.107,7.108h-4.165l7.877-7.877Zm-20.236,10.5-2.083,2.083v-2.083Zm1.822,6.054a3.94,3.94,0,0,0-1.531-2.626l2.878-2.885,2.083,2.083Zm12.394,1.823-7.877-7.877H172.6l7.877,7.877Zm2.626-10.5,3.4-3.4v3.4Zm-.543-23.632a3.939,3.939,0,1,1-3.939,3.939A3.939,3.939,0,0,1,178.392,131.507Zm-1.313,10.372a6.672,6.672,0,0,0,2.626,0v2.757h-2.626Zm-9.733,5.383-7.877,7.877H155.3l7.877-7.877Zm-12.586-2.626h-7.877v-7.877H158.7v7.877Zm-11.816-38.074a1.313,1.313,0,1,1-1.313-1.313A1.313,1.313,0,0,1,142.944,106.562Zm6.564,1.313a1.313,1.313,0,1,1,1.313-1.313A1.313,1.313,0,0,1,149.508,107.875Zm-39.387,0h11.957a3.938,3.938,0,0,0,3.42-5.893L119.524,91.52a3.938,3.938,0,0,0-6.838,0l-5.979,10.462a3.938,3.938,0,0,0,3.415,5.893Zm-1.139-4.6,5.982-10.457a1.313,1.313,0,0,1,2.279,0l5.979,10.457a1.313,1.313,0,0,1-1.149,1.969H110.122a1.313,1.313,0,0,1-1.136-1.969Zm8.43-.656a1.313,1.313,0,1,1-1.313-1.313,1.313,1.313,0,0,1,1.313,1.313v0Zm-2.626-3.939V96.059a1.313,1.313,0,0,1,2.626,0v2.626a1.311,1.311,0,0,1-2.622,0Z" transform="translate(0 -0.021)"/>
    </g>
  </g>
</svg>
