<svg xmlns="http://www.w3.org/2000/svg" width="98" height="98" viewBox="0 0 98 98">
  <g id="Grupo_1180380" data-name="Grupo 1180380" transform="translate(-633.127 -3933.381)">
    <g id="Grupo_1102209" data-name="Grupo 1102209" transform="translate(-18.645 -3059.619)">
      <rect id="Rectángulo_403454" data-name="Rectángulo 403454" width="98" height="98" rx="18" transform="translate(651.771 6993)" fill="#fff"/>
    </g>
    <g id="Grupo_1179056" data-name="Grupo 1179056" transform="translate(557.639 3883.337)">
      <g id="Grupo_1179055" data-name="Grupo 1179055" transform="translate(90.963 62.833)">
        <g id="Grupo_1179054" data-name="Grupo 1179054" transform="translate(0 0)">
          <g id="Grupo_1179044" data-name="Grupo 1179044" transform="translate(1.132 1.132)">
            <g id="Grupo_1179036" data-name="Grupo 1179036" transform="translate(42.418 54.865)">
              <path id="Trazado_997029" data-name="Trazado 997029" d="M314.326,328.469l5.6,15.293h-22.37l6.948-15.293Z" transform="translate(-297.551 -328.469)" fill="#d2e6bd"/>
            </g>
            <g id="Grupo_1179037" data-name="Grupo 1179037" transform="translate(46.297 42.735)">
              <path id="Trazado_997030" data-name="Trazado 997030" d="M328.85,283.057h-9.826l-3.069-12.13h8.458Z" transform="translate(-315.955 -270.927)" fill="#ffeeed"/>
            </g>
            <g id="Grupo_1179038" data-name="Grupo 1179038" transform="translate(15.825 42.735)">
              <path id="Trazado_997031" data-name="Trazado 997031" d="M201.873,270.927l3.069,12.13-6.948,15.293H183.8l-12.4-15.293h0l7-9.8,8.211,16.148a1.526,1.526,0,0,0,2.721,0l9.4-18.478h3.148Z" transform="translate(-171.4 -270.927)" fill="#636363"/>
            </g>
            <g id="Grupo_1179039" data-name="Grupo 1179039" transform="translate(5.595 42.735)">
              <path id="Trazado_997032" data-name="Trazado 997032" d="M138.916,270.927l1.184,2.33-7,9.8h-10.23l4.438-12.13Z" transform="translate(-122.873 -270.927)" fill="#d2e6bd"/>
            </g>
            <g id="Grupo_1179040" data-name="Grupo 1179040" transform="translate(0 54.865)">
              <path id="Trazado_997033" data-name="Trazado 997033" d="M112.156,328.469l12.4,15.293H96.331l5.6-15.293Z" transform="translate(-96.331 -328.469)" fill="#ffeeed"/>
            </g>
            <g id="Grupo_1179041" data-name="Grupo 1179041" transform="translate(17.72 5.131)">
              <path id="Trazado_997034" data-name="Trazado 997034" d="M209.74,105.3v3.833a.232.232,0,0,1-.231.231h-2.3a.233.233,0,0,0-.229.188,12.069,12.069,0,0,1-1.838,4.433.233.233,0,0,0,.027.295l1.629,1.629a.232.232,0,0,1,0,.328l-2.71,2.71a.232.232,0,0,1-.328,0l-1.629-1.629a.233.233,0,0,0-.295-.027,12.068,12.068,0,0,1-4.434,1.838.233.233,0,0,0-.187.229v2.3a.232.232,0,0,1-.231.231H193.15a.232.232,0,0,1-.231-.231v-2.3a.233.233,0,0,0-.187-.229,12.065,12.065,0,0,1-4.434-1.838.233.233,0,0,0-.295.027l-1.629,1.629a.232.232,0,0,1-.328,0l-2.71-2.71a.232.232,0,0,1,0-.328l1.629-1.629a.233.233,0,0,0,.027-.295,12.066,12.066,0,0,1-1.838-4.433.233.233,0,0,0-.229-.188h-2.3a.232.232,0,0,1-.231-.231V105.3a.232.232,0,0,1,.231-.232h2.3a.233.233,0,0,0,.229-.187,12.062,12.062,0,0,1,1.838-4.434.233.233,0,0,0-.027-.295l-1.629-1.629a.232.232,0,0,1,0-.328l2.71-2.71a.232.232,0,0,1,.328,0L188,97.114a.233.233,0,0,0,.295.027,12.061,12.061,0,0,1,4.434-1.838.234.234,0,0,0,.187-.229v-2.3a.232.232,0,0,1,.231-.232h3.833a.232.232,0,0,1,.231.232v2.3a.234.234,0,0,0,.187.229,12.064,12.064,0,0,1,4.434,1.838.233.233,0,0,0,.295-.027l1.629-1.629a.232.232,0,0,1,.328,0l2.71,2.71a.231.231,0,0,1,0,.328l-1.629,1.629a.233.233,0,0,0-.027.295,12.065,12.065,0,0,1,1.838,4.434.233.233,0,0,0,.229.187h2.3A.232.232,0,0,1,209.74,105.3Zm-7.2,1.916a7.47,7.47,0,1,0-7.47,7.47A7.47,7.47,0,0,0,202.537,107.215Z" transform="translate(-180.393 -92.542)" fill="#cdbfdc"/>
            </g>
            <g id="Grupo_1179042" data-name="Grupo 1179042" transform="translate(23.823 11.234)">
              <circle id="Elipse_13700" data-name="Elipse 13700" cx="7.47" cy="7.47" r="7.47" transform="matrix(0.16, -0.987, 0.987, 0.16, 0, 14.748)" fill="#482370"/>
            </g>
            <g id="Grupo_1179043" data-name="Grupo 1179043" transform="translate(12.477)">
              <path id="Trazado_997035" data-name="Trazado 997035" d="M186.191,110.936l-9.4,18.478a1.526,1.526,0,0,1-2.721,0l-8.211-16.148-1.184-2.33-6.967-13.7A19.957,19.957,0,0,1,174.8,68.21q.317-.009.635-.009t.635.009a19.957,19.957,0,0,1,17.088,29.025Zm3.918-21.014V86.089a.232.232,0,0,0-.231-.232h-2.3a.233.233,0,0,1-.229-.187,12.065,12.065,0,0,0-1.838-4.434.233.233,0,0,1,.027-.295l1.629-1.629a.231.231,0,0,0,0-.328l-2.71-2.71a.232.232,0,0,0-.328,0L182.5,77.9a.233.233,0,0,1-.295.027,12.064,12.064,0,0,0-4.434-1.838.234.234,0,0,1-.187-.229v-2.3a.232.232,0,0,0-.231-.232h-3.833a.232.232,0,0,0-.231.232v2.3a.234.234,0,0,1-.187.229,12.061,12.061,0,0,0-4.434,1.838.233.233,0,0,1-.295-.027l-1.629-1.629a.232.232,0,0,0-.328,0l-2.71,2.71a.232.232,0,0,0,0,.328l1.629,1.629a.233.233,0,0,1,.027.295,12.062,12.062,0,0,0-1.838,4.434.233.233,0,0,1-.229.187h-2.3a.232.232,0,0,0-.231.232v3.833a.232.232,0,0,0,.231.231h2.3a.233.233,0,0,1,.229.188,12.066,12.066,0,0,0,1.838,4.433.233.233,0,0,1-.027.295L163.7,96.7a.232.232,0,0,0,0,.328l2.71,2.71a.232.232,0,0,0,.328,0l1.629-1.629a.233.233,0,0,1,.295-.027,12.065,12.065,0,0,0,4.434,1.838.233.233,0,0,1,.187.229v2.3a.232.232,0,0,0,.231.231h3.833a.232.232,0,0,0,.231-.231v-2.3a.233.233,0,0,1,.187-.229A12.068,12.068,0,0,0,182.2,98.08a.233.233,0,0,1,.295.027l1.629,1.629a.232.232,0,0,0,.328,0l2.71-2.71a.232.232,0,0,0,0-.328l-1.629-1.629a.233.233,0,0,1-.027-.295,12.069,12.069,0,0,0,1.838-4.433.233.233,0,0,1,.229-.188h2.3A.232.232,0,0,0,190.109,89.922Z" transform="translate(-155.518 -68.201)" fill="#482370"/>
            </g>
          </g>
          <g id="Grupo_1179053" data-name="Grupo 1179053">
            <g id="Grupo_1179045" data-name="Grupo 1179045" transform="translate(12.477)">
              <path id="Trazado_997036" data-name="Trazado 997036" d="M171.2,127.143a2.645,2.645,0,0,1-2.369-1.453l-8.211-16.148-1.184-2.33-6.967-13.7a21.39,21.39,0,0,1-1.868-5.269,20.835,20.835,0,0,1-.425-5.312,21.316,21.316,0,0,1,10.084-17.063,20.52,20.52,0,0,1,4.809-2.149,21.142,21.142,0,0,1,5.463-.875c.238-.007.455-.009.668-.009s.43,0,.665.009a21.151,21.151,0,0,1,5.465.875,20.518,20.518,0,0,1,4.809,2.149,21.315,21.315,0,0,1,10.084,17.063,20.837,20.837,0,0,1-.425,5.312,21.4,21.4,0,0,1-1.868,5.269l-6.967,13.7-9.4,18.478a2.645,2.645,0,0,1-2.369,1.453Zm0-62.047c-.192,0-.39,0-.6.008a18.584,18.584,0,0,0-15.505,9.156,18.819,18.819,0,0,0-.6,18.225l6.967,13.7,1.185,2.33,8.211,16.148a.395.395,0,0,0,.7,0l9.4-18.477h0l6.967-13.7a18.818,18.818,0,0,0-.6-18.225A18.585,18.585,0,0,0,171.8,65.1c-.212-.006-.41-.008-.6-.008Z" transform="translate(-150.15 -62.833)"/>
            </g>
            <g id="Grupo_1179046" data-name="Grupo 1179046" transform="translate(5.595 54.865)">
              <path id="Trazado_997037" data-name="Trazado 997037" d="M141.271,340.657a1.13,1.13,0,0,1-.879-.419l-12.065-14.874h-9.69a1.132,1.132,0,1,1,0-2.263h10.23a1.132,1.132,0,0,1,.879.419l12.4,15.293a1.132,1.132,0,0,1-.878,1.845Z" transform="translate(-117.505 -323.101)"/>
            </g>
            <g id="Grupo_1179047" data-name="Grupo 1179047" transform="translate(15.825 45.065)">
              <path id="Trazado_997038" data-name="Trazado 997038" d="M167.162,288.672a1.132,1.132,0,0,1-.92-1.789l7-9.8a1.132,1.132,0,1,1,1.842,1.315l-7,9.8a1.13,1.13,0,0,1-.922.474Z" transform="translate(-166.031 -276.609)"/>
            </g>
            <g id="Grupo_1179048" data-name="Grupo 1179048" transform="translate(0 42.735)">
              <path id="Trazado_997039" data-name="Trazado 997039" d="M156.882,295.244H92.094a1.131,1.131,0,0,1-1.063-1.52l5.588-15.275.007-.019,4.438-12.13a1.132,1.132,0,0,1,1.063-.743h11.605a1.132,1.132,0,0,1,0,2.263H102.918L98.759,279.19l-.007.019-5.039,13.772h61.55l-5.039-13.773-.007-.018-4.159-11.369H135.244a1.132,1.132,0,0,1,0-2.263h11.606a1.132,1.132,0,0,1,1.063.743l4.438,12.13.007.019,5.588,15.274a1.132,1.132,0,0,1-1.063,1.521Z" transform="translate(-90.963 -265.558)"/>
            </g>
            <g id="Grupo_1179049" data-name="Grupo 1179049" transform="translate(42.418 54.865)">
              <path id="Trazado_997040" data-name="Trazado 997040" d="M293.313,340.657a1.132,1.132,0,0,1-1.03-1.6l6.948-15.293a1.132,1.132,0,0,1,1.03-.664h9.826a1.132,1.132,0,1,1,0,2.263h-9.1l-6.647,14.629A1.132,1.132,0,0,1,293.313,340.657Z" transform="translate(-292.182 -323.101)"/>
            </g>
            <g id="Grupo_1179050" data-name="Grupo 1179050" transform="translate(46.297 42.735)">
              <path id="Trazado_997041" data-name="Trazado 997041" d="M314.785,279.953a1.132,1.132,0,0,1-1.1-.854l-3.069-12.13a1.131,1.131,0,1,1,2.194-.555l3.069,12.13a1.132,1.132,0,0,1-1.1,1.409Z" transform="translate(-310.585 -265.559)"/>
            </g>
            <g id="Grupo_1179051" data-name="Grupo 1179051" transform="translate(24.924 12.334)">
              <path id="Trazado_997042" data-name="Trazado 997042" d="M217.8,138.548a8.6,8.6,0,1,1,8.6-8.6,8.612,8.612,0,0,1-8.6,8.6Zm0-14.941a6.339,6.339,0,1,0,6.339,6.339,6.346,6.346,0,0,0-6.339-6.339Z" transform="translate(-209.195 -121.344)"/>
            </g>
            <g id="Grupo_1179052" data-name="Grupo 1179052" transform="translate(17.721 5.131)">
              <path id="Trazado_997043" data-name="Trazado 997043" d="M192.747,118.784h-3.833a1.365,1.365,0,0,1-1.363-1.363v-1.582a13.1,13.1,0,0,1-3.493-1.449l-1.12,1.12a1.365,1.365,0,0,1-1.928,0l-2.71-2.71a1.363,1.363,0,0,1,0-1.928l1.12-1.12a13.1,13.1,0,0,1-1.449-3.493h-1.581a1.365,1.365,0,0,1-1.363-1.363v-3.833a1.365,1.365,0,0,1,1.363-1.363h1.582a13.1,13.1,0,0,1,1.449-3.493l-1.12-1.12a1.363,1.363,0,0,1,0-1.928l2.71-2.71a1.363,1.363,0,0,1,1.928,0l1.12,1.12a13.1,13.1,0,0,1,3.493-1.449V88.538a1.365,1.365,0,0,1,1.363-1.364h3.833a1.365,1.365,0,0,1,1.363,1.364v1.581a13.1,13.1,0,0,1,3.493,1.449l1.12-1.12a1.363,1.363,0,0,1,1.928,0l2.71,2.71a1.365,1.365,0,0,1,0,1.928l-1.12,1.12A13.1,13.1,0,0,1,203.69,99.7h1.581a1.365,1.365,0,0,1,1.363,1.363V104.9a1.365,1.365,0,0,1-1.363,1.363H203.69a13.1,13.1,0,0,1-1.449,3.493l1.12,1.12a1.365,1.365,0,0,1,0,1.928l-2.71,2.71a1.365,1.365,0,0,1-1.928,0l-1.12-1.12a13.1,13.1,0,0,1-3.493,1.449v1.582a1.365,1.365,0,0,1-1.363,1.363Zm-2.933-2.263h2.033v-1.4a1.367,1.367,0,0,1,1.1-1.34,10.885,10.885,0,0,0,4.018-1.666,1.368,1.368,0,0,1,1.724.163l1,1,1.437-1.438-.993-.993a1.367,1.367,0,0,1-.166-1.727,10.883,10.883,0,0,0,1.666-4.018,1.366,1.366,0,0,1,1.339-1.1h1.4v-2.033h-1.4a1.366,1.366,0,0,1-1.339-1.1,10.886,10.886,0,0,0-1.666-4.018,1.368,1.368,0,0,1,.164-1.725l.995-.995-1.437-1.438-.993.993a1.369,1.369,0,0,1-1.727.166,10.885,10.885,0,0,0-4.019-1.666,1.369,1.369,0,0,1-1.1-1.34v-1.4h-2.033v1.4a1.368,1.368,0,0,1-1.1,1.339,10.891,10.891,0,0,0-4.023,1.667,1.368,1.368,0,0,1-1.725-.164l-1-.995-1.437,1.437.993.993a1.369,1.369,0,0,1,.166,1.727,10.887,10.887,0,0,0-1.666,4.019,1.366,1.366,0,0,1-1.339,1.1h-1.4V104h1.4a1.366,1.366,0,0,1,1.339,1.1,10.888,10.888,0,0,0,1.666,4.017,1.367,1.367,0,0,1-.166,1.727l-.993.993,1.437,1.437.993-.993a1.369,1.369,0,0,1,1.727-.166,10.889,10.889,0,0,0,4.018,1.666,1.367,1.367,0,0,1,1.1,1.34v1.4Zm-12.007-10.989v0Zm26.047,0v0Z" transform="translate(-175.025 -87.174)"/>
            </g>
          </g>
        </g>
      </g>
    </g>
  </g>
</svg>
