<svg xmlns="http://www.w3.org/2000/svg" width="98" height="98" viewBox="0 0 98 98">
  <g id="Grupo_1180381" data-name="Grupo 1180381" transform="translate(-903.127 -3933.381)">
    <g id="Grupo_1102512" data-name="Grupo 1102512" transform="translate(251.355 -3059.619)">
      <rect id="Rectángulo_403454" data-name="Rectángulo 403454" width="98" height="98" rx="18" transform="translate(651.771 6993)" fill="#fff"/>
    </g>
    <g id="Grupo_1179058" data-name="Grupo 1179058" transform="translate(841.951 3852.901)">
      <g id="Grupo_1179057" data-name="Grupo 1179057" transform="translate(73.307 88.991)">
        <path id="Trazado_997044" data-name="Trazado 997044" d="M78.464,181.389h4.351a3.117,3.117,0,0,1,3.111,3.106v20.111a3.116,3.116,0,0,1-3.111,3.106H78.464a3.117,3.117,0,0,1-3.111-3.106V184.495a3.116,3.116,0,0,1,3.111-3.106Z" transform="translate(-75.353 -146.99)" fill="#6cac25" fill-rule="evenodd"/>
        <path id="Trazado_997045" data-name="Trazado 997045" d="M243.206,181.389h4.351a3.117,3.117,0,0,1,3.111,3.106v20.111a3.116,3.116,0,0,1-3.111,3.106h-4.351a3.117,3.117,0,0,1-3.111-3.106V184.495a3.116,3.116,0,0,1,3.111-3.106Z" transform="translate(-177.383 -146.99)" fill="#6cac25" fill-rule="evenodd"/>
        <path id="Trazado_997046" data-name="Trazado 997046" d="M103.133,196.312H155.27v14.96H132.94l-3.025-3.192-.531-2.913-1.78-2.719-2.188,2.924-.6,4.176-2.967,1.724H103.133Z" transform="translate(-92.558 -156.233)" fill="#2c2e8c" fill-rule="evenodd"/>
        <path id="Trazado_997047" data-name="Trazado 997047" d="M114.262,108.709h15.95a3.087,3.087,0,0,1,3.131,3.019v26.509H111.131V111.73a3.087,3.087,0,0,1,3.131-3.021Z" transform="translate(-97.511 -101.977)" fill="#bfc0dc" fill-rule="evenodd"/>
        <path id="Trazado_997048" data-name="Trazado 997048" d="M133.348,186.277V188.6a3.087,3.087,0,0,1-3.131,3.019h-15.95a3.087,3.087,0,0,1-3.131-3.019v-2.321Z" transform="translate(-97.515 -150.018)" fill="#ffeeed" fill-rule="evenodd"/>
        <path id="Trazado_997049" data-name="Trazado 997049" d="M123.939,108.709H136.4V111a2.3,2.3,0,0,1-2.3,2.3h-7.871a2.3,2.3,0,0,1-2.3-2.3v-2.3Z" transform="translate(-105.443 -101.977)" fill="#a4a4a6" fill-rule="evenodd"/>
        <path id="Trazado_997050" data-name="Trazado 997050" d="M137.728,161.276a1.529,1.529,0,1,0,1.587,1.53A1.556,1.556,0,0,0,137.728,161.276Z" transform="translate(-113.004 -134.534)" fill="#fff" fill-rule="evenodd"/>
        <path id="Trazado_997051" data-name="Trazado 997051" d="M205.839,91.025l6.222,10.782,6.228,10.784h-24.9l6.222-10.784Z" transform="translate(-148.457 -91.025)" fill="#89828f" fill-rule="evenodd"/>
        <path id="Trazado_997052" data-name="Trazado 997052" d="M167.958,259.446a4.806,4.806,0,1,1-9.611-.1c.02-1.913,3.667-7.187,4.9-9.272,1.19,2.112,4.729,7.462,4.709,9.375Z" transform="translate(-126.754 -189.527)" fill="#2c2e8c" fill-rule="evenodd"/>
      </g>
      <path id="Trazado_997053" data-name="Trazado 997053" d="M100.137,163.01a1.259,1.259,0,0,1-1.979,1.557c-2.03-2.581-2.03-7.665,0-10.242a1.257,1.257,0,0,1,1.979,1.551,6.947,6.947,0,0,0,0,7.134Zm21.61,1.557a1.259,1.259,0,0,1-1.979-1.557,6.947,6.947,0,0,0,0-7.136,1.257,1.257,0,0,1,1.979-1.551C123.777,156.9,123.777,161.985,121.748,164.567Zm3.745,3.161a1.257,1.257,0,0,1-2.265-1.092,18.074,18.074,0,0,0,0-14.384,1.257,1.257,0,1,1,2.265-1.092,20.531,20.531,0,0,1,0,16.569Zm3.386,2.827a1.255,1.255,0,1,1-2.213-1.184c2.948-5.519,2.948-14.337,0-19.856a1.255,1.255,0,0,1,2.213-1.184c3.35,6.278,3.35,15.95,0,22.224ZM93.24,169.371a1.255,1.255,0,1,1-2.213,1.184c-3.351-6.278-3.351-15.944,0-22.224a1.255,1.255,0,1,1,2.213,1.184c-2.944,5.519-2.948,14.343,0,19.856Zm3.439-2.733a1.257,1.257,0,0,1-2.265,1.092,20.505,20.505,0,0,1,0-16.567,1.257,1.257,0,0,1,2.265,1.092,18.047,18.047,0,0,0,0,14.382Zm19.086-7.717a6.061,6.061,0,0,1-12.12-.117c.02-2.316,3.453-7.17,5.07-9.911a1.256,1.256,0,0,1,2.177.025c1.542,2.739,4.892,7.676,4.873,10Zm-3.581,2.474a3.522,3.522,0,0,0,1.07-2.494c.011-1.143-2.046-4.56-3.483-6.948-1.485,2.357-3.606,5.728-3.617,6.865a3.551,3.551,0,0,0,6.03,2.577Zm17.137-64.808a1.257,1.257,0,1,1,2.514,0v7.171a1.257,1.257,0,1,1-2.514,0Zm-.02,10.246a1.259,1.259,0,0,1,2.519,0v.322a1.259,1.259,0,1,1-2.519,0Zm2.479-18.452L138,99.147l6.222,10.782a1.259,1.259,0,0,1-1.087,1.888h-24.9a1.255,1.255,0,0,1-1.04-1.963l6.183-10.706L129.6,88.369a1.257,1.257,0,0,1,2.182.011Zm4.045,12.021-5.143-8.9-10.273,17.8h20.545l-5.13-8.889Zm-37.8,16.592a.273.273,0,1,0,0,.536A.273.273,0,1,0,98.03,116.993Zm-1.99-1.715a2.825,2.825,0,1,1,0,3.97A2.736,2.736,0,0,1,96.04,115.278Zm10.517-6.553a1.258,1.258,0,0,1-1.7,1.852,10.178,10.178,0,0,0-13.65,0,1.258,1.258,0,0,1-1.7-1.852,12.68,12.68,0,0,1,17.055,0Zm-2.075,2.177a1.258,1.258,0,0,1-1.613,1.932,7.613,7.613,0,0,0-9.68,0,1.258,1.258,0,0,1-1.613-1.932,10.129,10.129,0,0,1,12.905,0Zm-2.276,2.679a1.254,1.254,0,1,1-2.015,1.493,2.738,2.738,0,0,0-4.326,0,1.254,1.254,0,0,1-2.016-1.493,5.235,5.235,0,0,1,8.356,0Zm3.311-16.6v1.035a3.562,3.562,0,0,1-3.556,3.555H94.1a3.56,3.56,0,0,1-3.555-3.555V96.984a2.24,2.24,0,0,0-1.832.536,1.709,1.709,0,0,0-.531,1.223v25.247h19.7V98.744A1.823,1.823,0,0,0,106,96.984Zm-12.455,0v1.035A1.036,1.036,0,0,0,94.1,99.053h7.865A1.036,1.036,0,0,0,103,98.019V96.984ZM110.4,125.25l-.011,2.56h24.371V126.5a4.377,4.377,0,0,1,4.365-4.366h4.356a4.378,4.378,0,0,1,4.37,4.366v20.111a4.378,4.378,0,0,1-4.37,4.365h-4.356a4.377,4.377,0,0,1-4.365-4.365v-1.315h-21.07a1.254,1.254,0,0,1-.974-.459l-2.963-3.128a1.251,1.251,0,0,1-.331-.7l-.475-2.591-.664-1.015-.918,1.235-.556,3.851a1.258,1.258,0,0,1-.648.934l-2.933,1.7a1.226,1.226,0,0,1-.628.169v.005H85.14v1.315a4.378,4.378,0,0,1-4.371,4.365H76.414a4.377,4.377,0,0,1-4.365-4.365V126.5a4.377,4.377,0,0,1,4.365-4.366h4.356a4.378,4.378,0,0,1,4.37,4.366v1.315h.531l-.011-29.069a4.356,4.356,0,0,1,4.4-4.279H106a4.355,4.355,0,0,1,4.4,4.279V125.25Zm-1.046,5.082a4.451,4.451,0,0,1-3.35,1.52H90.059a4.45,4.45,0,0,1-3.351-1.52H85.143v12.441h17.123l2.143-1.245.506-3.519a1.311,1.311,0,0,1,.245-.632l2.188-2.922a1.257,1.257,0,0,1,2.06.067l1.785,2.719h-.005a1.229,1.229,0,0,1,.183.464l.464,2.544,2.391,2.524h20.534V130.332Zm-1.474-2.76V126.51h-19.7c0,.912-.133,1.648.531,2.285a1.927,1.927,0,0,0,1.346.536H106a1.827,1.827,0,0,0,1.879-1.76Zm35.6-2.928h-4.356a1.857,1.857,0,0,0-1.846,1.852v20.111a1.852,1.852,0,0,0,1.846,1.846h4.356a1.857,1.857,0,0,0,1.852-1.846V126.5A1.862,1.862,0,0,0,143.481,124.644Zm-62.712,0H76.414a1.857,1.857,0,0,0-1.846,1.852v20.111a1.852,1.852,0,0,0,1.846,1.846h4.356a1.857,1.857,0,0,0,1.852-1.846V126.5A1.864,1.864,0,0,0,80.769,124.644Z"/>
    </g>
  </g>
</svg>
