<svg xmlns="http://www.w3.org/2000/svg" width="98" height="98" viewBox="0 0 98 98">
  <g id="Grupo_1180382" data-name="Grupo 1180382" transform="translate(-1173.627 -3933.381)">
    <g id="Grupo_1102512" data-name="Grupo 1102512" transform="translate(521.855 -3059.619)">
      <rect id="Rectángulo_403454" data-name="Rectángulo 403454" width="98" height="98" rx="18" transform="translate(651.771 6993)" fill="#fff"/>
    </g>
    <g id="Grupo_1179060" data-name="Grupo 1179060" transform="translate(1086.184 3827.168)">
      <path id="Trazado_997054" data-name="Trazado 997054" d="M124.745,147.16a22.521,22.521,0,0,1,2.961-11.181,1.166,1.166,0,0,1,.159-.277,22.835,22.835,0,0,1,8.092-8.094,1.2,1.2,0,0,1,.28-.162,22.595,22.595,0,0,1,22.36,0,1.179,1.179,0,0,1,.277.159,22.838,22.838,0,0,1,8.094,8.095,1.157,1.157,0,0,1,.159.277,22.628,22.628,0,0,1-4.2,27.7v5.382q.971-.689,1.877-1.459a1.191,1.191,0,0,1,.081-1.66,25.655,25.655,0,1,0-34.921.018,1.191,1.191,0,0,1,.082,1.66q.895.76,1.857,1.441v-5.383a22.706,22.706,0,0,1-7.16-16.523Z" transform="translate(-10.973 -2.09)" fill="#cdbfdc"/>
      <g id="Grupo_1179059" data-name="Grupo 1179059" transform="translate(116.196 124.822)">
        <path id="Trazado_997055" data-name="Trazado 997055" d="M172.124,151.722h8.353v8.353h-8.353Z" transform="translate(-150.684 -141.021)" fill="#fff"/>
        <path id="Trazado_997056" data-name="Trazado 997056" d="M180.477,134a20.132,20.132,0,0,0-8.353-2.355v8.315h8.353Z" transform="translate(-150.684 -131.648)" fill="#fff"/>
        <path id="Trazado_997057" data-name="Trazado 997057" d="M140.221,160.075v-8.353h-5.96a20.142,20.142,0,0,0-2.355,8.353Z" transform="translate(-131.906 -141.021)" fill="#fff"/>
        <path id="Trazado_997058" data-name="Trazado 997058" d="M151.979,151.722h8.353v8.353h-8.353Z" transform="translate(-141.278 -141.021)" fill="#fff"/>
        <path id="Trazado_997059" data-name="Trazado 997059" d="M198.229,151.722h-5.96v8.353h8.315A20.134,20.134,0,0,0,198.229,151.722Z" transform="translate(-160.089 -141.021)" fill="#fff"/>
        <path id="Trazado_997060" data-name="Trazado 997060" d="M143.6,143.342v-4.457a20.42,20.42,0,0,0-4.457,4.457Z" transform="translate(-135.284 -135.027)" fill="#fff"/>
        <path id="Trazado_997061" data-name="Trazado 997061" d="M136.641,181.115a5.077,5.077,0,0,1,5.071-5.071h1.193a5.046,5.046,0,0,1,2.874.9,3.871,3.871,0,0,1,6.374-1.6,3.86,3.86,0,0,1,2.685-1.085h1.193a3.883,3.883,0,0,1,3.689,2.687,5.067,5.067,0,0,1,7.945,4.174v2.619a20.32,20.32,0,0,0,4.734-11.867h-8.314v1.193a1.193,1.193,0,1,1-2.387,0v-1.193h-8.353a1.193,1.193,0,0,1-2.386,0h-8.353v1.193a1.193,1.193,0,1,1-2.386,0v-1.193h-8.315a20.32,20.32,0,0,0,4.735,11.867Z" transform="translate(-131.906 -150.426)" fill="#fff"/>
        <path id="Trazado_997062" data-name="Trazado 997062" d="M192.269,138.885v4.457h4.457A20.432,20.432,0,0,0,192.269,138.885Z" transform="translate(-160.089 -135.027)" fill="#fff"/>
        <path id="Trazado_997063" data-name="Trazado 997063" d="M160.332,139.963v-8.315A20.142,20.142,0,0,0,151.979,134v5.961Z" transform="translate(-141.278 -131.648)" fill="#fff"/>
      </g>
      <path id="Trazado_997064" data-name="Trazado 997064" d="M111.892,219.039a6.583,6.583,0,0,0,8.911.011,8.929,8.929,0,0,1,12.236-.008,6.454,6.454,0,0,0,5.046,1.713v-4.137a1.194,1.194,0,0,1-1.193-1.193v-6.563a3.583,3.583,0,0,1,3.58-3.58H147.9a20.762,20.762,0,0,1,2.854-1.56,1.143,1.143,0,0,1,.283-.12c.257-.111.512-.224.771-.326v-2.169a1.194,1.194,0,0,1-1.193-1.193V185.295a2.685,2.685,0,0,0-5.369,0v4.474a1.193,1.193,0,1,1-2.387,0v-7.458a1.494,1.494,0,0,0-1.492-1.492h-1.193a1.494,1.494,0,0,0-1.492,1.492v18.2a1.193,1.193,0,1,1-2.386,0v-18.2a1.492,1.492,0,0,0-2.983,0v14.617a1.193,1.193,0,0,1-2.387,0V185.295a2.688,2.688,0,0,0-2.685-2.685h-1.193a2.688,2.688,0,0,0-2.685,2.685v28.936a1.193,1.193,0,1,1-2.387,0v-7.061a8.931,8.931,0,0,1-11.737-.43,6.584,6.584,0,0,0-8.909-.012,1.19,1.19,0,0,1-.833.337v11.275A8.951,8.951,0,0,1,111.892,219.039Zm30.966-19.127v-5.966a1.193,1.193,0,0,1,2.387,0v5.966a1.193,1.193,0,0,1-2.387,0Zm-10.739.6a1.194,1.194,0,0,1,1.194,1.193v9.546a1.193,1.193,0,0,1-2.387,0V201.7A1.194,1.194,0,0,1,132.118,200.509Z" transform="translate(-1.045 -29.784)" fill="#2c2e8c"/>
      <path id="Trazado_997065" data-name="Trazado 997065" d="M217.743,226.3c.562,2.493-.115,6.442-1.842,10.144l-.011.022a21.112,21.112,0,0,1-3.084,4.836,6.084,6.084,0,0,0,2.711-1.507,8.948,8.948,0,0,1,11.4-.7V227.825a1.19,1.19,0,0,1-.833-.339,6.527,6.527,0,0,0-5.726-1.624,1.188,1.188,0,0,1-1.26-.592,7.4,7.4,0,0,0-1.476.684,1.808,1.808,0,0,1,.122.349Z" transform="translate(-53.482 -50.537)" fill="#2c2e8c"/>
      <path id="Trazado_997066" data-name="Trazado 997066" d="M177.952,231.182h-4.561a1.2,1.2,0,0,0-1.194,1.193v6.563a1.193,1.193,0,0,1-1.193,1.193v4.137a6.681,6.681,0,0,0,.8-.122C173,239.687,175.166,234.225,177.952,231.182Z" transform="translate(-33.965 -53.298)" fill="#6e2370"/>
      <path id="Trazado_997067" data-name="Trazado 997067" d="M127.876,163.875a25.655,25.655,0,1,1,34.921-.018,1.191,1.191,0,0,0-.081,1.66c.007.009.012.019.02.026a1.193,1.193,0,0,0,1.686.061,28.041,28.041,0,1,0-38.171.02,1.193,1.193,0,0,0,1.686-.062c.008-.009.013-.018.02-.026A1.19,1.19,0,0,0,127.876,163.875Z" transform="translate(-8.883 0)"/>
      <path id="Trazado_997068" data-name="Trazado 997068" d="M109.2,181.658a8.931,8.931,0,0,0,11.737.43v7.062a1.193,1.193,0,1,0,2.387,0V160.214A2.688,2.688,0,0,1,126,157.529H127.2a2.688,2.688,0,0,1,2.685,2.685v11.634a1.193,1.193,0,0,0,2.387,0V157.23a1.492,1.492,0,1,1,2.983,0v18.2a1.193,1.193,0,0,0,2.386,0v-18.2a1.494,1.494,0,0,1,1.492-1.492h1.193a1.494,1.494,0,0,1,1.492,1.492v7.458a1.193,1.193,0,1,0,2.387,0v-4.474a2.685,2.685,0,1,1,5.369,0v14.617a1.193,1.193,0,0,0,2.387,0V166.3a22.626,22.626,0,0,0,4.2-27.7,1.167,1.167,0,0,0-.159-.277,22.841,22.841,0,0,0-8.094-8.095,1.168,1.168,0,0,0-.277-.159,22.592,22.592,0,0,0-22.359,0,1.189,1.189,0,0,0-.28.162,22.839,22.839,0,0,0-8.092,8.094,1.167,1.167,0,0,0-.159.277,22.622,22.622,0,0,0,4.2,27.7v12.72a8.265,8.265,0,0,0-1.173.932,6.582,6.582,0,0,1-8.911-.012,8.929,8.929,0,0,0-12.227,0,1.194,1.194,0,0,0,1.666,1.71A6.583,6.583,0,0,1,109.2,181.658Zm9.357-41.431h5.96v8.353H116.2A20.127,20.127,0,0,1,118.552,140.227Zm8.346,0h8.353v8.353H126.9Zm8.353-10.7v8.315H126.9v-5.96A20.127,20.127,0,0,1,135.251,129.525Zm2.386,0a20.139,20.139,0,0,1,8.353,2.355v5.961h-8.353Zm0,10.7h8.353v8.353h-8.353Zm10.739,0h5.96a20.142,20.142,0,0,1,2.355,8.353h-8.314Zm0-2.386v-4.457a20.432,20.432,0,0,1,4.457,4.457Zm-23.865-4.457v4.457h-4.457A20.42,20.42,0,0,1,124.512,133.383Zm0,17.583v1.193a1.193,1.193,0,1,0,2.386,0v-1.193h8.353a1.193,1.193,0,0,0,2.386,0h8.353v1.193a1.193,1.193,0,1,0,2.387,0v-1.193h8.314a20.32,20.32,0,0,1-4.734,11.867v-2.619a5.067,5.067,0,0,0-7.945-4.174,3.883,3.883,0,0,0-3.689-2.687h-1.193a3.863,3.863,0,0,0-2.685,1.085,3.871,3.871,0,0,0-6.374,1.6,5.046,5.046,0,0,0-2.874-.9H126a5.077,5.077,0,0,0-5.071,5.071v2.619a20.315,20.315,0,0,1-4.735-11.867Z" transform="translate(0 -4.703)"/>
      <path id="Trazado_997069" data-name="Trazado 997069" d="M225.73,224.183a6.528,6.528,0,0,1,5.726,1.624,1.193,1.193,0,1,0,1.666-1.709,8.825,8.825,0,0,0-7.839-2.259,1.193,1.193,0,0,0,.448,2.344Z" transform="translate(-58.854 -48.858)"/>
      <path id="Trazado_997070" data-name="Trazado 997070" d="M157.575,228.491a1.193,1.193,0,0,0,2.387,0v-9.546a1.193,1.193,0,0,0-2.387,0Z" transform="translate(-27.694 -47.027)"/>
      <path id="Trazado_997071" data-name="Trazado 997071" d="M182.345,210.363V204.4a1.193,1.193,0,0,0-2.387,0v5.966a1.193,1.193,0,0,0,2.387,0Z" transform="translate(-38.145 -40.234)"/>
      <path id="Trazado_997072" data-name="Trazado 997072" d="M197.927,225.965A8,8,0,0,0,200,232.5a8.286,8.286,0,0,0,7.011,2.007,15.876,15.876,0,0,0,1.522-7.522,1.675,1.675,0,0,1-1.425-.394,2,2,0,0,1-.327-1.93C204.76,224.2,201.237,224.634,197.927,225.965Zm8.3,3.283a1.194,1.194,0,0,1-1.194,1.193h-.6v.6a1.193,1.193,0,1,1-2.386,0v-.6h-.6a1.193,1.193,0,0,1,0-2.386h.6v-.6a1.193,1.193,0,1,1,2.386,0v.6h.6A1.194,1.194,0,0,1,206.227,229.248Z" transform="translate(-46.515 -50.171)" fill="#fff"/>
      <path id="Trazado_997073" data-name="Trazado 997073" d="M177.978,241.9c.046-.042.1-.078.14-.122l0,0a8.487,8.487,0,0,1,3.506-2.04c.045-.014.09-.032.135-.045.246-.069.5-.125.746-.174.023,0,.045-.012.068-.016a9.222,9.222,0,0,1,1.664-.151,9.087,9.087,0,0,1,3.174.573c.032.012.066.02.1.033.13.05.255.113.383.17a8.36,8.36,0,0,1,2.461,1.648l.007.005a5.834,5.834,0,0,0,.529.45c.074.056.152.107.228.16.111.077.226.151.343.221s.207.12.313.175c.087.045.178.085.268.126a6.44,6.44,0,0,0,1.085.382,11.611,11.611,0,0,0,.9-.8,16.461,16.461,0,0,0,2.425-3.161c-.035,0-.071,0-.106,0a10.172,10.172,0,0,1-7.319-2.807,9.985,9.985,0,0,1-2.827-7.035,14.235,14.235,0,0,0-2.954,2.216c-2.205,2.2-4.064,6.422-5.265,10.19Z" transform="translate(-37.22 -52.508)" fill="#fff"/>
      <path id="Trazado_997074" data-name="Trazado 997074" d="M149.708,222.018a20.619,20.619,0,0,0-2.854,1.56h-7.428a3.583,3.583,0,0,0-3.58,3.58v6.563a1.193,1.193,0,1,0,2.386,0v-6.563a1.2,1.2,0,0,1,1.194-1.193h4.561c-2.786,3.043-4.951,8.5-6.144,12.965a6.8,6.8,0,0,1-.8.122,6.454,6.454,0,0,1-5.046-1.713,8.929,8.929,0,0,0-12.236.008,6.583,6.583,0,0,1-8.911-.011,8.951,8.951,0,0,0-11.394-.7,8.183,8.183,0,0,0-.833.7,1.193,1.193,0,1,0,1.665,1.709,6.584,6.584,0,0,1,8.909.012,8.929,8.929,0,0,0,12.236-.007,6.579,6.579,0,0,1,8.9.006,8.918,8.918,0,0,0,8.784,2.017c.018,0,.036,0,.053-.009.067-.021.13-.052.2-.075.2-.067.4-.141.589-.222.1-.043.2-.086.3-.132.195-.091.384-.19.572-.3.086-.048.172-.094.255-.145.2-.121.39-.253.579-.391.065-.047.134-.091.2-.139a8.35,8.35,0,0,0,.71-.613,6.5,6.5,0,0,1,5.549-1.64c.039.006.079.009.118.015.06.011.118.028.177.041a6.483,6.483,0,0,1,1.557.528c.078.038.15.085.226.127.1.057.207.109.307.171a5.814,5.814,0,0,1,.965.758c.186.181.381.349.582.51.058.047.117.091.176.136q.23.177.473.335c.059.038.116.078.175.115.216.135.437.262.665.378l.04.018c.211.105.428.2.649.288.077.031.156.059.234.087.159.059.32.112.485.162.091.027.181.055.273.08.166.045.336.082.506.117.081.017.159.037.24.052l.011,0H156a8.861,8.861,0,0,0,7.705-2.283,6.579,6.579,0,0,1,8.9,0,1.193,1.193,0,1,0,1.665-1.709,8.2,8.2,0,0,0-.833-.7,8.948,8.948,0,0,0-11.4.7,6.084,6.084,0,0,1-2.711,1.507,21.1,21.1,0,0,0,3.084-4.836l.011-.022c1.727-3.7,2.4-7.651,1.842-10.144h0a7.609,7.609,0,0,1-2.725-3.393c-2.525-.874-6.8-.437-10.774,1.119-.259.1-.515.214-.771.326a1.137,1.137,0,0,0-.283.12ZM160.6,224.5a1.674,1.674,0,0,0,1.425.394,15.869,15.869,0,0,1-1.522,7.522,8.286,8.286,0,0,1-7.011-2.007,8,8,0,0,1-2.077-6.536c3.31-1.331,6.833-1.761,8.859-1.3A2,2,0,0,0,160.6,224.5Zm-11.622.562A9.984,9.984,0,0,0,151.8,232.1a10.169,10.169,0,0,0,7.319,2.807c.035,0,.071,0,.106,0a16.484,16.484,0,0,1-2.425,3.161,11.612,11.612,0,0,1-.9.8,6.487,6.487,0,0,1-1.085-.382c-.09-.041-.181-.081-.268-.126-.107-.055-.21-.114-.313-.175s-.231-.143-.343-.221c-.077-.052-.154-.1-.228-.16a5.832,5.832,0,0,1-.529-.45l-.006-.005a8.36,8.36,0,0,0-2.461-1.648c-.128-.057-.253-.119-.383-.17-.032-.013-.066-.021-.1-.033a9.087,9.087,0,0,0-3.174-.573,9.221,9.221,0,0,0-1.664.151c-.023,0-.045.012-.068.016-.251.049-.5.1-.746.174-.046.013-.09.031-.135.045a8.492,8.492,0,0,0-3.506,2.041l0,0c-.045.044-.094.08-.14.122,1.2-3.767,3.06-7.985,5.264-10.189A14.188,14.188,0,0,1,148.976,225.064Z" transform="translate(0 -48.081)"/>
      <path id="Trazado_997075" data-name="Trazado 997075" d="M207.114,229.614h-.6v-.6a1.193,1.193,0,1,0-2.386,0v.6h-.6a1.193,1.193,0,1,0,0,2.386h.6v.6a1.193,1.193,0,0,0,2.386,0V232h.6a1.193,1.193,0,1,0,0-2.386Z" transform="translate(-48.595 -51.73)"/>
    </g>
  </g>
</svg>
