<svg xmlns="http://www.w3.org/2000/svg" xmlns:xlink="http://www.w3.org/1999/xlink" width="51" height="44" viewBox="0 0 51 44">
  <defs>
    <clipPath id="clip-path">
      <rect id="Rectángulo_454752" data-name="Rectángulo 454752" width="30.662" height="33.162" fill="#fff"/>
    </clipPath>
  </defs>
  <g id="Grupo_1180377" data-name="Grupo 1180377" transform="translate(-249.271 -2060.7)">
    <path id="Polígono_12" data-name="Polígono 12" d="M38.25,0,51,22,38.25,44H12.75L0,22,12.75,0Z" transform="translate(249.271 2060.7)" fill="#241138"/>
    <g id="Grupo_1177226" data-name="Grupo 1177226" transform="translate(8.143 1271.254)">
      <g id="Grupo_1177225" data-name="Grupo 1177225" transform="translate(251.629 794)">
        <g id="Grupo_1177224" data-name="Grupo 1177224" transform="translate(0 0)" clip-path="url(#clip-path)">
          <path id="Trazado_994573" data-name="Trazado 994573" d="M30.261,666.9a2.886,2.886,0,0,0-3.085.111l-6.737,5.474H15.322l-1.094-1.173h4.021a2.389,2.389,0,0,0,2.563-2.185c0-1.488-1.354-2.117-2.563-2.117H16.741a7.474,7.474,0,0,1-3.349-.394,6.522,6.522,0,0,0-2.962-.7,6.322,6.322,0,0,0-4.536,1.857L0,673.575l6.567,6.9,2.188-3.3H19.839a4.488,4.488,0,0,0,2.993-1.121l7.5-7.654a.959.959,0,0,0-.075-1.5" transform="translate(0 -647.309)" fill="#fff"/>
          <path id="Trazado_994574" data-name="Trazado 994574" d="M426.347,3.464c-4.226-.708-6.249,1.365-4.128,4.777a14.792,14.792,0,0,1,1.264-1.288c-.667-1.281-.69-2.221,2.335-1.8a18.892,18.892,0,0,1,2.243-1.286c.569-1.4,1.257-2.127,1.649-2.127.27,0,.68.347,1.1,1.014a15.013,15.013,0,0,1,1.758-.436C430.7-1.2,427.886-.638,426.347,3.464" transform="translate(-409.595 0.003)" fill="#fff"/>
          <path id="Trazado_994575" data-name="Trazado 994575" d="M674.832,415.617c.441.21.879.4,1.311.568a10.485,10.485,0,0,0,.516-1.672,17.461,17.461,0,0,1-2.338-1.127,12.089,12.089,0,0,0,.511,2.232" transform="translate(-655.48 -401.836)" fill="#fff"/>
          <path id="Trazado_994576" data-name="Trazado 994576" d="M437.689,123.779c2.675-4.871-3.283-6.133-9.864-2.336-6.988,4.037-8.38,9.969-2.4,9.708a15.24,15.24,0,0,1-.478-1.732c-.865-.019-1.378-.232-1.5-.448-.505-.876,1.472-3.093,2.217-3.79,0,5.161,1.941,9.315,4.328,9.315,2.04,0,3.741-3.043,4.2-7.126a2.9,2.9,0,0,1-1.652-1.132c-.237,4.232-1.852,6.513-2.545,6.513-1.094,0-2.932-3.891-2.522-9.015a16.746,16.746,0,0,1,2.522-1.453,17.07,17.07,0,0,1,3.2,1.948,1.736,1.736,0,0,0,2.141,2.015c2.2,2.634,1.222,3.136-.291,3.172a14.9,14.9,0,0,1-.485,1.732c3.968.174,5.085-2.543,2.02-6.129a1.73,1.73,0,0,0-2.233-2.1,19.161,19.161,0,0,0-2.2-1.478c1.657-.507,4.856-1.041,4.363.7a2.9,2.9,0,0,1,1.181,1.638" transform="translate(-409.878 -115.891)" fill="#fff"/>
        </g>
      </g>
    </g>
  </g>
</svg>
