<svg xmlns="http://www.w3.org/2000/svg" width="92.648" height="120.312" viewBox="0 0 92.648 120.312">
  <g id="Grupo_1178201" data-name="Grupo 1178201" transform="translate(-317.432 -106.015) rotate(9)">
    <ellipse id="Elipse_13659" data-name="Elipse 13659" cx="34.34" cy="5.59" rx="34.34" ry="5.59" transform="translate(359.178 150.202)" fill="#d2e6bd" opacity="0.5"/>
    <g id="Grupo_1178180" data-name="Grupo 1178180">
      <path id="Trazado_995794" data-name="Trazado 995794" d="M361.693,73.891H346.064l15.629,20.057V149.1a6.694,6.694,0,0,0,6.694,6.694H420.2a6.694,6.694,0,0,0,6.693-6.694V73.891Z" fill="#cdbfdc"/>
      <path id="Trazado_995795" data-name="Trazado 995795" d="M361.693,73.891h-15.63l2.633,3.379h78.2V73.891Z" fill="#fff" opacity="0.5"/>
      <path id="Trazado_995796" data-name="Trazado 995796" d="M365.408,107.877V149.1a2.982,2.982,0,0,0,2.979,2.979H420.2a2.983,2.983,0,0,0,2.979-2.979V107.877Z" fill="#482370"/>
      <path id="Trazado_995797" data-name="Trazado 995797" d="M370.9,107.877V145.36a2.594,2.594,0,0,0,2.455,2.709h42.7a2.6,2.6,0,0,0,2.455-2.709V107.877Z" fill="#482370" opacity="0.57" style="mix-blend-mode: multiply;isolation: isolate"/>
      <circle id="Elipse_13660" data-name="Elipse 13660" cx="11.25" cy="11.25" r="11.25" transform="translate(399.27 62.64)" fill="#482370" opacity="0.5"/>
      <circle id="Elipse_13661" data-name="Elipse 13661" cx="3.632" cy="3.632" r="3.632" transform="translate(379.216 84.711)" fill="#482370" opacity="0.5"/>
      <circle id="Elipse_13662" data-name="Elipse 13662" cx="1.806" cy="1.806" r="1.806" transform="translate(399.614 90.169)" fill="#482370" opacity="0.5"/>
      <circle id="Elipse_13663" data-name="Elipse 13663" cx="8.713" cy="8.713" r="8.713" transform="translate(374.135 99.164)" fill="#482370" opacity="0.5"/>
      <circle id="Elipse_13664" data-name="Elipse 13664" cx="9.658" cy="9.658" r="9.658" transform="translate(357.96 50.641)" fill="#482370" opacity="0.5"/>
      <circle id="Elipse_13665" data-name="Elipse 13665" cx="2.229" cy="2.229" r="2.229" transform="translate(389.332 46.183)" fill="#482370" opacity="0.5"/>
      <rect id="Rectángulo_455013" data-name="Rectángulo 455013" width="13.403" height="1.857" transform="translate(409.778 88.343)" fill="#fff"/>
      <rect id="Rectángulo_455014" data-name="Rectángulo 455014" width="13.403" height="1.857" transform="translate(409.778 95.58)" fill="#fff"/>
      <rect id="Rectángulo_455015" data-name="Rectángulo 455015" width="13.403" height="1.857" transform="translate(409.778 102.817)" fill="#fff"/>
      <rect id="Rectángulo_455016" data-name="Rectángulo 455016" width="13.403" height="1.857" transform="translate(409.778 110.054)" fill="#fff"/>
      <rect id="Rectángulo_455017" data-name="Rectángulo 455017" width="13.403" height="1.857" transform="translate(409.778 117.291)" fill="#fff"/>
      <rect id="Rectángulo_455018" data-name="Rectángulo 455018" width="13.403" height="1.857" transform="translate(409.778 124.528)" fill="#fff"/>
      <rect id="Rectángulo_455019" data-name="Rectángulo 455019" width="13.403" height="1.857" transform="translate(409.778 131.765)" fill="#fff"/>
      <rect id="Rectángulo_455020" data-name="Rectángulo 455020" width="13.403" height="1.857" transform="translate(409.778 139.003)" fill="#fff"/>
      <path id="Trazado_995798" data-name="Trazado 995798" d="M403.226,73.891V149.1a6.694,6.694,0,0,1-6.694,6.694H420.2a6.693,6.693,0,0,0,6.693-6.694V73.891Z" fill="#fff" opacity="0.5"/>
    </g>
  </g>
</svg>
