<svg xmlns="http://www.w3.org/2000/svg" width="140.018" height="148.975" viewBox="0 0 140.018 148.975">
  <g id="Grupo_1178200" data-name="Grupo 1178200" transform="translate(-366.61 -118.954) rotate(-8)">
    <g id="Grupo_1178186" data-name="Grupo 1178186" transform="translate(341.411 180.26)">
      <g id="Grupo_1178183" data-name="Grupo 1178183" transform="translate(48.477)">
        <path id="Trazado_995799" data-name="Trazado 995799" d="M429.587,244.224V204.517h1.061a2.149,2.149,0,0,0,2.148-2.15h0a2.148,2.148,0,0,0-2.148-2.148H404.995a2.148,2.148,0,0,0-2.148,2.148h0a2.149,2.149,0,0,0,2.148,2.15h1.061V245.03a38.479,38.479,0,0,0-11.608,65.737,13.394,13.394,0,0,0,8.6,3.063h32.108a13.6,13.6,0,0,0,8.777-3.21,38.464,38.464,0,0,0-14.343-66.4Z" transform="translate(-380.627 -175.546)" fill="#482370"/>
        <path id="Trazado_995800" data-name="Trazado 995800" d="M383.8,271.735a34.477,34.477,0,0,0,12.412,26.521,7.972,7.972,0,0,0,5.115,1.8h34.032a8.185,8.185,0,0,0,5.277-1.928,34.515,34.515,0,0,0-7.08-57.375H403.068A34.659,34.659,0,0,0,383.8,271.735Z" transform="translate(-379.876 -165.974)" fill="#8a2c8c"/>
        <path id="Trazado_995801" data-name="Trazado 995801" d="M388.5,266.524a28.679,28.679,0,0,0,10.325,22.062,6.633,6.633,0,0,0,4.256,1.5h28.31a6.806,6.806,0,0,0,4.39-1.6,28.711,28.711,0,0,0-5.889-47.728H404.529A28.832,28.832,0,0,0,388.5,266.524Z" transform="translate(-378.767 -165.974)" fill="#6e2370"/>
        <g id="Grupo_1178182" data-name="Grupo 1178182" transform="translate(28.046 46.402)">
          <rect id="Rectángulo_455021" data-name="Rectángulo 455021" width="10.428" height="2.243" fill="#fff"/>
          <rect id="Rectángulo_455022" data-name="Rectángulo 455022" width="10.428" height="2.243" transform="translate(0 8.131)" fill="#fff"/>
          <rect id="Rectángulo_455023" data-name="Rectángulo 455023" width="10.428" height="2.243" transform="translate(0 16.262)" fill="#fff"/>
          <rect id="Rectángulo_455024" data-name="Rectángulo 455024" width="10.428" height="2.243" transform="translate(0 24.393)" fill="#fff"/>
          <rect id="Rectángulo_455025" data-name="Rectángulo 455025" width="10.428" height="2.243" transform="translate(0 32.524)" fill="#fff"/>
          <rect id="Rectángulo_455026" data-name="Rectángulo 455026" width="10.428" height="2.243" transform="translate(0 40.655)" fill="#fff"/>
          <rect id="Rectángulo_455027" data-name="Rectángulo 455027" width="10.428" height="2.243" transform="translate(0 48.786)" fill="#fff"/>
          <rect id="Rectángulo_455028" data-name="Rectángulo 455028" width="10.428" height="2.243" transform="translate(0 56.917)" fill="#fff"/>
          <rect id="Rectángulo_455029" data-name="Rectángulo 455029" width="10.428" height="2.243" transform="translate(0 65.048)" fill="#fff"/>
          <rect id="Rectángulo_455030" data-name="Rectángulo 455030" width="10.428" height="2.243" transform="translate(0 73.178)" fill="#fff"/>
          <rect id="Rectángulo_455031" data-name="Rectángulo 455031" width="10.428" height="2.243" transform="translate(0 81.309)" fill="#fff"/>
        </g>
        <circle id="Elipse_13667" data-name="Elipse 13667" cx="5.27" cy="5.27" r="5.27" transform="translate(37 69.506)" fill="#6e2370"/>
        <circle id="Elipse_13668" data-name="Elipse 13668" cx="2.805" cy="2.805" r="2.805" transform="translate(31.967 60.98)" fill="#6e2370"/>
        <circle id="Elipse_13669" data-name="Elipse 13669" cx="1.103" cy="1.103" r="1.103" transform="translate(42.05 57.56)" fill="#6e2370"/>
        <circle id="Elipse_13670" data-name="Elipse 13670" cx="4.264" cy="4.264" r="4.264" transform="translate(36.683 36.609)" fill="#6e2370"/>
        <circle id="Elipse_13671" data-name="Elipse 13671" cx="2.058" cy="2.058" r="2.058" transform="translate(41.094 48.371)" fill="#6e2370"/>
        <circle id="Elipse_13672" data-name="Elipse 13672" cx="7.278" cy="7.278" r="7.278" transform="translate(27.494 17.395)" fill="#6e2370"/>
        <circle id="Elipse_13673" data-name="Elipse 13673" cx="1.875" cy="1.875" r="1.875" transform="translate(42.38 16.356)" fill="#6e2370"/>
        <circle id="Elipse_13674" data-name="Elipse 13674" cx="3.087" cy="3.087" r="3.087" transform="translate(49.327 9.557)" fill="#6e2370"/>
        <circle id="Elipse_13675" data-name="Elipse 13675" cx="1.323" cy="1.323" r="1.323" transform="translate(29.626 9.998)" fill="#6e2370"/>
        <circle id="Elipse_13676" data-name="Elipse 13676" cx="1.323" cy="1.323" r="1.323" transform="translate(35.36)" fill="#6e2370"/>
        <path id="Trazado_995802" data-name="Trazado 995802" d="M389.693,281.232a38.487,38.487,0,0,1,25.427-36.2V204.517h-1.059a2.149,2.149,0,0,1-2.148-2.15h0a2.148,2.148,0,0,1,2.148-2.148h-9.066a2.148,2.148,0,0,0-2.148,2.148h0a2.149,2.149,0,0,0,2.148,2.15h1.061V245.03a38.479,38.479,0,0,0-11.608,65.737,13.394,13.394,0,0,0,8.6,3.063h9.066a13.394,13.394,0,0,1-8.6-3.063A38.389,38.389,0,0,1,389.693,281.232Z" transform="translate(-380.627 -175.546)" fill="#fff" opacity="0.5"/>
      </g>
      <g id="Grupo_1178185" data-name="Grupo 1178185" transform="translate(0 6.448)">
        <path id="Trazado_995803" data-name="Trazado 995803" d="M422.887,297.109l-26.515-45.924V206.107h.422a2.944,2.944,0,0,0,0-5.888H369.015a2.944,2.944,0,0,0,0,5.888h.42v45.078l-26.513,45.924a11.148,11.148,0,0,0,9.655,16.722h60.657A11.148,11.148,0,0,0,422.887,297.109Z" transform="translate(-341.411 -181.994)" fill="#a4a4a6"/>
        <path id="Trazado_995804" data-name="Trazado 995804" d="M345.759,285.023a6.942,6.942,0,0,0,6.013,10.414h60.657a6.943,6.943,0,0,0,6.013-10.414L404.164,260.3H360.035Z" transform="translate(-340.607 -167.806)" fill="#482370"/>
        <path id="Trazado_995805" data-name="Trazado 995805" d="M351.053,280.542a5.685,5.685,0,0,0,4.924,8.527h49.665a5.685,5.685,0,0,0,4.922-8.527L398.875,260.3H362.742Z" transform="translate(-339.316 -167.806)" fill="#482370" opacity="0.57" style="mix-blend-mode: multiply;isolation: isolate"/>
        <g id="Grupo_1178184" data-name="Grupo 1178184" transform="translate(31.065 39.954)">
          <rect id="Rectángulo_455032" data-name="Rectángulo 455032" width="10.428" height="2.243" fill="#fff"/>
          <rect id="Rectángulo_455033" data-name="Rectángulo 455033" width="10.428" height="2.243" transform="translate(0 8.131)" fill="#fff"/>
          <rect id="Rectángulo_455034" data-name="Rectángulo 455034" width="10.428" height="2.243" transform="translate(0 16.262)" fill="#fff"/>
          <rect id="Rectángulo_455035" data-name="Rectángulo 455035" width="10.428" height="2.243" transform="translate(0 24.393)" fill="#fff"/>
          <rect id="Rectángulo_455036" data-name="Rectángulo 455036" width="10.428" height="2.243" transform="translate(0 32.524)" fill="#fff"/>
          <rect id="Rectángulo_455037" data-name="Rectángulo 455037" width="10.428" height="2.243" transform="translate(0 40.655)" fill="#fff"/>
          <rect id="Rectángulo_455038" data-name="Rectángulo 455038" width="10.428" height="2.243" transform="translate(0 48.786)" fill="#fff"/>
          <rect id="Rectángulo_455039" data-name="Rectángulo 455039" width="10.428" height="2.243" transform="translate(0 56.917)" fill="#fff"/>
          <rect id="Rectángulo_455040" data-name="Rectángulo 455040" width="10.428" height="2.243" transform="translate(0 65.048)" fill="#fff"/>
          <rect id="Rectángulo_455041" data-name="Rectángulo 455041" width="10.428" height="2.243" transform="translate(0 73.178)" fill="#fff"/>
          <rect id="Rectángulo_455042" data-name="Rectángulo 455042" width="10.428" height="2.243" transform="translate(0 81.309)" fill="#fff"/>
        </g>
        <circle id="Elipse_13677" data-name="Elipse 13677" cx="6.622" cy="6.622" r="6.622" transform="translate(46.101 85.869)" fill="#482370" opacity="0.5"/>
        <circle id="Elipse_13678" data-name="Elipse 13678" cx="1.122" cy="1.122" r="1.122" transform="translate(44.98 80.608)" fill="#482370" opacity="0.5"/>
        <circle id="Elipse_13679" data-name="Elipse 13679" cx="3.505" cy="3.505" r="3.505" transform="translate(23.635 80.889)" fill="#482370" opacity="0.5"/>
        <circle id="Elipse_13680" data-name="Elipse 13680" cx="2.155" cy="2.155" r="2.155" transform="translate(45.068 55.183)" fill="#482370" opacity="0.5"/>
        <circle id="Elipse_13681" data-name="Elipse 13681" cx="0.937" cy="0.937" r="0.937" transform="translate(48.44 49.391)" fill="#482370" opacity="0.5"/>
        <circle id="Elipse_13682" data-name="Elipse 13682" cx="4.402" cy="4.402" r="4.402" transform="translate(31.876 24.617)" fill="#482370" opacity="0.5"/>
        <circle id="Elipse_13683" data-name="Elipse 13683" cx="6.589" cy="6.589" r="6.589" transform="translate(39.897 11.636)" fill="#482370" opacity="0.5"/>
        <circle id="Elipse_13684" data-name="Elipse 13684" cx="2.689" cy="2.689" r="2.689" transform="translate(46.688 31.657)" fill="#482370" opacity="0.5"/>
        <circle id="Elipse_13685" data-name="Elipse 13685" cx="3.785" cy="3.785" r="3.785" transform="translate(23.494)" fill="#482370" opacity="0.5"/>
        <path id="Trazado_995806" data-name="Trazado 995806" d="M354.152,297.109l26.515-45.924V206.107h-.422a2.944,2.944,0,0,1,0-5.888H369.015a2.944,2.944,0,0,0,0,5.888h.42v45.078l-26.513,45.924a11.148,11.148,0,0,0,9.655,16.722h11.231A11.148,11.148,0,0,1,354.152,297.109Z" transform="translate(-341.411 -181.994)" fill="#fff" opacity="0.5"/>
      </g>
    </g>
  </g>
</svg>
