<svg xmlns="http://www.w3.org/2000/svg" width="81.243" height="132.977" viewBox="0 0 81.243 132.977">
  <g id="Grupo_1178199" data-name="Grupo 1178199" transform="translate(-422.843 -264.332) rotate(-8)">
    <path id="Trazado_995807" data-name="Trazado 995807" d="M396.68,375.053H377a2.716,2.716,0,0,0-2.716,2.716h0a2.715,2.715,0,0,0,2.474,2.7v63.265a10.08,10.08,0,0,0,10.08,10.08h0a10.079,10.079,0,0,0,10.079-10.08V380.472a2.715,2.715,0,0,0,2.475-2.7h0A2.716,2.716,0,0,0,396.68,375.053Z" fill="#a4a4a6"/>
    <path id="Trazado_995808" data-name="Trazado 995808" d="M380.4,377.769h0a2.715,2.715,0,0,0,2.474,2.7v63.265c0,.188.006.374.016.559.471,8.626,13.545,8.626,14.017,0,.01-.185.015-.371.015-.559V380.472a2.715,2.715,0,0,0,2.475-2.7h0a2.716,2.716,0,0,0-2.716-2.716H383.115A2.716,2.716,0,0,0,380.4,377.769Z" fill="#fff" opacity="0.5"/>
    <path id="Trazado_995809" data-name="Trazado 995809" d="M379.617,405.45v38.287a7.225,7.225,0,1,0,14.45,0V405.45Z" fill="#cdbfdc"/>
    <path id="Trazado_995810" data-name="Trazado 995810" d="M401.55,331.424l-13.913,13.913a2.717,2.717,0,0,0,0,3.841h0a2.716,2.716,0,0,0,3.662.162l44.735,44.735a10.078,10.078,0,0,0,14.254,0h0a10.078,10.078,0,0,0,0-14.254l-44.735-44.735a2.716,2.716,0,0,0-.162-3.662h0A2.717,2.717,0,0,0,401.55,331.424Z" fill="#a4a4a6"/>
    <path id="Trazado_995811" data-name="Trazado 995811" d="M391.958,344.857h0a2.716,2.716,0,0,0,3.662.162l44.735,44.735q.2.2.406.385c6.433,5.765,15.678-3.479,9.912-9.912-.124-.138-.252-.274-.385-.406l-44.735-44.735a2.716,2.716,0,0,0-.162-3.662h0a2.717,2.717,0,0,0-3.841,0l-9.592,9.592A2.717,2.717,0,0,0,391.958,344.857Z" fill="#fff" opacity="0.5"/>
    <path id="Trazado_995812" data-name="Trazado 995812" d="M448.27,381.839l-16.855-16.856H410.979l27.074,27.074a7.225,7.225,0,1,0,10.217-10.218Z" fill="#482370"/>
    <path id="Trazado_995813" data-name="Trazado 995813" d="M389.822,445.05a7.233,7.233,0,0,1-7.224-7.225V405.45h-2.981v38.287a7.225,7.225,0,1,0,14.45,0v-.078A7.182,7.182,0,0,1,389.822,445.05Z" fill="#ffeeed"/>
    <path id="Trazado_995814" data-name="Trazado 995814" d="M449.374,383.275a7.159,7.159,0,0,1-1.639,2.544,7.232,7.232,0,0,1-10.217,0l-20.836-20.836h-5.7l27.074,27.074a7.22,7.22,0,0,0,11.321-8.782Z" fill="#482370" opacity="0.57" style="mix-blend-mode: multiply;isolation: isolate"/>
    <path id="Trazado_995815" data-name="Trazado 995815" d="M387.364,352.462l-2.128,3.687a2.457,2.457,0,0,0,.718,3.242h0a2.459,2.459,0,0,0,2.821,0h0a2.459,2.459,0,0,0,.718-3.242Z" fill="#482370"/>
    <path id="Trazado_995816" data-name="Trazado 995816" d="M387.495,362.747l-2.129,3.687a2.458,2.458,0,0,0,.719,3.242h0a2.454,2.454,0,0,0,2.82,0h0a2.458,2.458,0,0,0,.719-3.242Z" fill="#482370"/>
  </g>
</svg>
