<svg xmlns="http://www.w3.org/2000/svg" width="116" height="116" viewBox="0 0 116 116">
  <g id="Grupo_1180399" data-name="Grupo 1180399" transform="translate(-323.711 -5750)">
    <circle id="Elipse_11507" data-name="Elipse 11507" cx="58" cy="58" r="58" transform="translate(323.711 5750)" fill="#2c2e8c"/>
    <circle id="Elipse_13623" data-name="Elipse 13623" cx="44.5" cy="44.5" r="44.5" transform="translate(337.711 5764)" fill="#fff"/>
    <g id="Grupo_1179714" data-name="Grupo 1179714" transform="translate(351.025 5763.912)">
      <g id="Page-1" transform="translate(0 17.088)">
        <g id="_019---Trolley-Jack-Movement" data-name="019---Trolley-Jack-Movement">
          <path id="Shape" d="M38.09,59.4h.23a4.141,4.141,0,0,0,3.989-4.193V52.241a1.023,1.023,0,0,0-1.023-1.023H35.149a1.023,1.023,0,0,0-1.023,1.023v2.966A4.127,4.127,0,0,0,38.082,59.4Zm-1.918-4.193V53.264h4.091v1.943a2.1,2.1,0,0,1-2.033,2.148h-.115A2.1,2.1,0,0,1,36.172,55.207Z" transform="translate(-30.035 -47.127)" fill="#2c2e8c"/>
          <path id="Shape-2" data-name="Shape" d="M241.266,205.335a2.046,2.046,0,0,0-3.4,1.527v3.068h-22.5a2.046,2.046,0,0,0-2.046,2.046v4.091a2.046,2.046,0,0,0,2.046,2.046h22.5v3.068a2.046,2.046,0,0,0,2.046,2.046,2.1,2.1,0,0,0,1.406-.559l7.142-7.14a2.046,2.046,0,0,0,.657-1.506,2.011,2.011,0,0,0-.643-1.488Zm5.8,8.686a.581.581,0,0,0-.044.042l-7.115,7.117v-4.091a1.023,1.023,0,0,0-1.023-1.023H215.36v-4.091h23.524a1.023,1.023,0,0,0,1.023-1.023l-.044-4.131Z" transform="translate(-187.745 -182.315)" fill="#2c2e8c"/>
          <path id="Shape-3" data-name="Shape" d="M241.266,34.683a2.046,2.046,0,0,0-3.4,1.527v3.068h-22.5a2.046,2.046,0,0,0-2.046,2.046v4.091a2.046,2.046,0,0,0,2.046,2.046h22.5v3.068a2.046,2.046,0,0,0,2.046,2.046,2.1,2.1,0,0,0,1.406-.56l7.142-7.14a2.046,2.046,0,0,0,.657-1.506,2.011,2.011,0,0,0-.643-1.488Zm5.8,8.686a.584.584,0,0,0-.044.042l-7.115,7.118V46.437a1.023,1.023,0,0,0-1.023-1.023H215.36V41.324h23.524a1.023,1.023,0,0,0,1.023-1.023l-.044-4.131Z" transform="translate(-187.745 -32.119)" fill="#2c2e8c"/>
          <path id="Shape-4" data-name="Shape" d="M38.222,392.522a4.091,4.091,0,1,0,4.091,4.091A4.091,4.091,0,0,0,38.222,392.522Zm0,6.137a2.046,2.046,0,1,1,2.046-2.046A2.046,2.046,0,0,1,38.222,398.659Z" transform="translate(-30.04 -347.52)" fill="#2c2e8c"/>
          <path id="Shape-5" data-name="Shape" d="M60.344,72.318H55.23l1.534-2.046h.348A4.186,4.186,0,0,0,61.367,66.4v-.009a4.091,4.091,0,0,0-4.091-4.3H29.061l-5.537-5.537V50.84a3.068,3.068,0,0,0-3.068-3.068h-9.2V32.846a8.32,8.32,0,0,0,5.114-7.678V22.2a5.12,5.12,0,0,0-5.114-5.114H5.114A5.12,5.12,0,0,0,0,22.2v2.966a8.32,8.32,0,0,0,5.114,7.671V47.771A3.068,3.068,0,0,0,2.046,50.84v1.023a3.068,3.068,0,0,0,3.068,3.068V58.6A8.164,8.164,0,0,0,2.788,72.318H1.023a1.023,1.023,0,0,0,0,2.046H60.344a1.023,1.023,0,0,0,0-2.046Zm-58.3-47.15V22.2a3.068,3.068,0,0,1,3.068-3.068h6.137A3.068,3.068,0,0,1,14.319,22.2v2.966a6.192,6.192,0,0,1-5.991,6.239H8.046A6.2,6.2,0,0,1,2.046,25.168Zm5.114,8.221a7.97,7.97,0,0,0,.86.061h.329a7.89,7.89,0,0,0,.856-.06V47.771H7.159ZM4.091,51.863V50.84a1.023,1.023,0,0,1,1.023-1.023H20.456a1.023,1.023,0,0,1,1.023,1.023v6.137a1.023,1.023,0,0,0,.3.723l4.391,4.391H22.5a1.023,1.023,0,1,0,0,2.045H57.276a2.027,2.027,0,0,1,1.48.631,2.056,2.056,0,0,1,.566,1.526,2.172,2.172,0,0,1-2.209,1.934H18.41A1.023,1.023,0,0,1,17.387,67.2v-13.3a1.023,1.023,0,0,0-1.023-1.023H5.114a1.023,1.023,0,0,1-1.023-1.023Zm7.16,6.739V54.931h4.091v7.3A8.229,8.229,0,0,0,11.251,58.6ZM7.159,54.931H9.2V58.07A8.265,8.265,0,0,0,8.182,58a8.243,8.243,0,0,0-1.023.07V54.931ZM2.046,66.181a6.137,6.137,0,1,1,6.137,6.137A6.137,6.137,0,0,1,2.046,66.181Zm13.833,2.751a3.069,3.069,0,0,0,2.531,1.34H43.468L45,72.318H13.576a8.2,8.2,0,0,0,2.3-3.386Zm31.681,3.385-1.534-2.045h8.182l-1.534,2.046H47.559Z" transform="translate(0 -17.088)" fill="#2c2e8c"/>
        </g>
      </g>
    </g>
  </g>
</svg>
