<svg xmlns="http://www.w3.org/2000/svg" width="116" height="116" viewBox="0 0 116 116">
  <g id="Grupo_1180400" data-name="Grupo 1180400" transform="translate(-684.652 -5781.964)">
    <circle id="Elipse_11507" data-name="Elipse 11507" cx="58" cy="58" r="58" transform="translate(684.652 5781.964)" fill="#2c2e8c"/>
    <circle id="Elipse_13623" data-name="Elipse 13623" cx="44.5" cy="44.5" r="44.5" transform="translate(698.652 5795.964)" fill="#fff"/>
    <g id="Grupo_1179715" data-name="Grupo 1179715" transform="translate(682.296 5807.322)">
      <path id="Trazado_998481" data-name="Trazado 998481" d="M143.9,378.827a9.745,9.745,0,1,1,9.523-11.9,9.766,9.766,0,0,1-9.523,11.9Zm.02-16.934a7.186,7.186,0,1,0,7.007,5.6A7.208,7.208,0,0,0,143.921,361.893Z" transform="translate(-88.403 -313.543)" fill="#2c2e8c"/>
      <path id="Trazado_998482" data-name="Trazado 998482" d="M177.071,406.856a4.9,4.9,0,1,1,4.779-5.982,4.909,4.909,0,0,1-4.779,5.982Zm.005-7.243a2.341,2.341,0,1,0,2.279,1.826,2.357,2.357,0,0,0-2.279-1.826Z" transform="translate(-121.554 -346.42)" fill="#2c2e8c"/>
      <path id="Trazado_998483" data-name="Trazado 998483" d="M51.545,49.338a1.28,1.28,0,0,1-1.248-1L41.756,10.6,34.326,5.91A3.2,3.2,0,0,1,37.743.495h0l9.225,5.82a1.279,1.279,0,0,1,.565.8l8.978,39.677a1.288,1.288,0,0,1-1.21,1.561,7.249,7.249,0,0,0-3.156.836,1.277,1.277,0,0,1-.6.15ZM36.036,2.56a.645.645,0,0,0-.345,1.187l7.878,4.971a1.279,1.279,0,0,1,.565.8l8.32,36.768a9.873,9.873,0,0,1,1.246-.322L45.154,8.2,36.377,2.658h0A.632.632,0,0,0,36.036,2.56Z" transform="translate(0 0)" fill="#2c2e8c"/>
      <path id="Trazado_998484" data-name="Trazado 998484" d="M261.063,366.558a1.287,1.287,0,0,1-1.278-1.219,7.248,7.248,0,0,0-.171-1.254,7.15,7.15,0,0,0-.718-1.891,1.279,1.279,0,0,1,.837-1.868l20.951-4.741a5.123,5.123,0,0,1,6.126,3.867,1.279,1.279,0,0,1-.965,1.53l-24.5,5.544a1.292,1.292,0,0,1-.283.031Zm.75-4.079a9.845,9.845,0,0,1,.34,1.242l21.547-4.876a2.569,2.569,0,0,0-2.452-.764Z" transform="translate(-197.089 -310.134)" fill="#2c2e8c"/>
      <path id="Trazado_998485" data-name="Trazado 998485" d="M196.571,108.995a1.28,1.28,0,0,1-1.247-1L192.23,94.333a1.287,1.287,0,0,1,.965-1.53l22.87-5.178a1.279,1.279,0,0,1,1.53.965l3.094,13.665a1.279,1.279,0,0,1-.965,1.53l-22.87,5.178a1.284,1.284,0,0,1-.283.032Zm-1.563-13.979,2.529,11.17,20.374-4.613L215.382,90.4Z" transform="translate(-139.037 -76.424)" fill="#2c2e8c"/>
      <path id="Trazado_998486" data-name="Trazado 998486" d="M226.753,242.289a1.28,1.28,0,0,1-1.247-1l-3.094-13.665a1.287,1.287,0,0,1,.965-1.53l22.869-5.178a1.279,1.279,0,0,1,1.53.965l3.094,13.665a1.279,1.279,0,0,1-.965,1.53l-22.87,5.178a1.269,1.269,0,0,1-.283.032ZM225.19,228.31l2.529,11.17,20.374-4.613-2.529-11.17Z" transform="translate(-165.371 -192.722)" fill="#2c2e8c"/>
      <path id="Trazado_998487" data-name="Trazado 998487" d="M171.64,71.033a3.014,3.014,0,0,1-2.5-4.6,2.923,2.923,0,0,1,1.838-1.3l24.76-5.606a2.923,2.923,0,0,1,2.219.381,3,3,0,0,1-.9,5.446l-24.76,5.606a2.975,2.975,0,0,1-.655.074Zm24.748-9.022c-.015-.027-24.809,5.618-24.847,5.616a.376.376,0,0,0-.239.169.5.5,0,0,0,.14.618.376.376,0,0,0,.289.049l24.76-5.606h0a.383.383,0,0,0,.289-.458A.4.4,0,0,0,196.387,62.012Z" transform="translate(-118.517 -51.872)" fill="#2c2e8c"/>
      <path id="Trazado_998488" data-name="Trazado 998488" d="M241.952,337.258a1.279,1.279,0,0,1-1.12-.661,7.187,7.187,0,0,0-2.24-2.456,1.279,1.279,0,0,1-.548-1.227,1.33,1.33,0,0,1,1.13-1.119l24.768-5.608a2.987,2.987,0,0,1,1.319,5.826h0l-23.026,5.214a1.307,1.307,0,0,1-.283.031Zm.03-3.477q.305.36.575.749l22.138-5.013a.385.385,0,0,0,.29-.459.441.441,0,0,0-.189-.328.375.375,0,0,0-.289-.049Z" transform="translate(-179.026 -284.538)" fill="#2c2e8c"/>
      <path id="Trazado_998489" data-name="Trazado 998489" d="M201.915,204.4a2.994,2.994,0,0,1-.664-5.9l24.76-5.606a2.987,2.987,0,0,1,1.319,5.827h0l-24.76,5.606a2.968,2.968,0,0,1-.655.074Zm24.747-9.022c-.01-.029-24.812,5.62-24.847,5.616a.377.377,0,0,0-.239.169.5.5,0,0,0,.14.618.376.376,0,0,0,.289.049l24.76-5.606a.383.383,0,0,0,.289-.458C227.009,195.532,226.9,195.384,226.663,195.376Z" transform="translate(-144.944 -168.24)" fill="#2c2e8c"/>
    </g>
  </g>
</svg>
