<svg xmlns="http://www.w3.org/2000/svg" width="116" height="116" viewBox="0 0 116 116">
  <g id="Grupo_1180401" data-name="Grupo 1180401" transform="translate(-1158.711 -5750)">
    <circle id="Elipse_11507" data-name="Elipse 11507" cx="58" cy="58" r="58" transform="translate(1158.711 5750)" fill="#2c2e8c"/>
    <circle id="Elipse_13623" data-name="Elipse 13623" cx="44.5" cy="44.5" r="44.5" transform="translate(1172.711 5764)" fill="#fff"/>
    <g id="Forklift" transform="translate(1171.384 5760.052)">
      <path id="Trazado_998490" data-name="Trazado 998490" d="M78.833,69.249H64.989V23.455a1.065,1.065,0,0,0-1.065-1.065h-4.26A1.065,1.065,0,0,0,58.6,23.455V60.729h-4.26V51.144a1.065,1.065,0,0,0-1.065-1.065h-2.13V24.52a1.065,1.065,0,0,0-.312-.753l-7.455-7.455A1.065,1.065,0,0,0,42.624,16H20.26a1.065,1.065,0,0,0-1.065,1.065V50.079h-2.13A1.065,1.065,0,0,0,16,51.144v21.3a1.065,1.065,0,0,0,1.065,1.065h1.15a7.445,7.445,0,0,0,14.739,0h4.43a7.445,7.445,0,0,0,14.739,0h1.15a1.065,1.065,0,0,0,1.065-1.065V67.119H58.6v7.455a1.065,1.065,0,0,0,1.065,1.065h19.17A1.065,1.065,0,0,0,79.9,74.574v-4.26A1.065,1.065,0,0,0,78.833,69.249ZM21.325,18.13H42.181l6.833,6.831V50.079H21.325Zm4.26,59.639a5.325,5.325,0,1,1,5.325-5.325A5.325,5.325,0,0,1,25.585,77.768Zm19.17,0a5.325,5.325,0,1,1,5.325-5.325A5.325,5.325,0,0,1,44.754,77.768Zm7.455-6.39h-.085a7.445,7.445,0,0,0-14.739,0h-4.43a7.445,7.445,0,0,0-14.739,0H18.13V52.209H52.209Zm2.13-6.39v-2.13H58.6v2.13Zm23.429,8.52H60.729V24.52h2.13V70.314a1.065,1.065,0,0,0,1.065,1.065H77.768Z" fill="#2c2e8c"/>
      <path id="Trazado_998491" data-name="Trazado 998491" d="M95.117,53.272l-4.962-4.96A1.065,1.065,0,0,0,89.4,48H73.065A1.065,1.065,0,0,0,72,49.065V74.624a1.065,1.065,0,0,0,1.065,1.065h21.3a1.065,1.065,0,0,0,1.065-1.065v-20.6A1.065,1.065,0,0,0,95.117,53.272ZM74.13,73.559V50.13H88.962L93.3,54.465V66.111H91.17V63.975H89.04v6.39h2.13V68.241H93.3v5.318Z" transform="translate(-48.545 -27.74)" fill="#2c2e8c"/>
      <path id="Trazado_998492" data-name="Trazado 998492" d="M67.195,416a3.195,3.195,0,1,0,3.195,3.195h0A3.2,3.2,0,0,0,67.195,416Zm0,4.26a1.065,1.065,0,1,1,1.065-1.065A1.065,1.065,0,0,1,67.195,420.26Z" transform="translate(-41.61 -346.751)" fill="#2c2e8c"/>
      <path id="Trazado_998493" data-name="Trazado 998493" d="M211.195,416a3.195,3.195,0,1,0,3.195,3.195h0A3.2,3.2,0,0,0,211.195,416Zm0,4.26a1.065,1.065,0,1,1,1.065-1.065A1.065,1.065,0,0,1,211.195,420.26Z" transform="translate(-166.441 -346.751)" fill="#2c2e8c"/>
      <path id="Trazado_998494" data-name="Trazado 998494" d="M50.13,306.13H75.689v7.455h2.13v-8.52A1.065,1.065,0,0,0,76.754,304H49.065A1.065,1.065,0,0,0,48,305.065v8.52h2.13Z" transform="translate(-27.74 -249.661)" fill="#2c2e8c"/>
    </g>
  </g>
</svg>
