<svg id="Grupo_1179642" data-name="Grupo 1179642" xmlns="http://www.w3.org/2000/svg" width="122.289" height="119.211" viewBox="0 0 122.289 119.211">
  <g id="Grupo_1179638" data-name="Grupo 1179638" transform="translate(0.074 67.563)">
    <path id="Trazado_998189" data-name="Trazado 998189" d="M179.066,349.175a94.083,94.083,0,0,1-38.047-7.561l1.6-3.64a90.1,90.1,0,0,0,36.448,7.228,90.06,90.06,0,0,0,36.454-7.232l1.6,3.64A94.044,94.044,0,0,1,179.066,349.175Z" transform="translate(-117.996 -297.526)" fill="#ffeeed"/>
    <path id="Trazado_998190" data-name="Trazado 998190" d="M314.348,255.578c-.175-.188-17.835-18.98-50.391-22.216l.392-3.954c34.139,3.4,52.174,22.665,52.927,23.484Z" transform="translate(-195.135 -229.407)" fill="#ffeeed"/>
    <path id="Trazado_998191" data-name="Trazado 998191" d="M82.147,255.576l-2.93-2.685c.753-.819,18.788-20.088,52.927-23.484l.392,3.954C99.893,236.608,82.319,255.388,82.147,255.576Z" transform="translate(-79.217 -229.407)" fill="#ffeeed"/>
  </g>
  <path id="Trazado_998192" data-name="Trazado 998192" d="M226.834,261.669a23.842,23.842,0,1,1-33.121-21.995,12.523,12.523,0,0,0,18.557,0A23.906,23.906,0,0,1,226.834,261.669Z" transform="translate(-141.847 -168.286)" fill="#a4a4a6"/>
  <path id="Trazado_998193" data-name="Trazado 998193" d="M234.549,167.9a12.346,12.346,0,0,1-2.225,7.073,9.844,9.844,0,0,1-1.053,1.351,12.523,12.523,0,0,1-18.557,0,9.875,9.875,0,0,1-1.053-1.351,12.383,12.383,0,0,1-.993-12.478l11.325-23.783L233.317,162.5A12.383,12.383,0,0,1,234.549,167.9Z" transform="translate(-160.848 -104.938)" fill="#cdbfdc"/>
  <path id="Trazado_998194" data-name="Trazado 998194" d="M243.149,82.662v7.947h5.961a3.973,3.973,0,0,1,3.973,3.974v3.973H265V74.714H253.083v3.974a3.974,3.974,0,0,1-3.973,3.974Z" transform="translate(-182.005 -64.78)" fill="#636363"/>
  <g id="Grupo_1179639" data-name="Grupo 1179639" transform="translate(77.039 7.947)">
    <rect id="Rectángulo_455532" data-name="Rectángulo 455532" width="3.974" height="3.974" transform="translate(0 7.947)" fill="#7e6e85"/>
    <rect id="Rectángulo_455533" data-name="Rectángulo 455533" width="3.974" height="3.974" transform="translate(0 0)" fill="#7e6e85"/>
    <rect id="Rectángulo_455534" data-name="Rectángulo 455534" width="3.974" height="3.974" transform="translate(0 15.895)" fill="#7e6e85"/>
    <rect id="Rectángulo_455535" data-name="Rectángulo 455535" width="3.974" height="3.974" transform="translate(0 23.842)" fill="#7e6e85"/>
  </g>
  <path id="Trazado_998195" data-name="Trazado 998195" d="M234.991,278.635a11.931,11.931,0,0,1-11.921,11.921,2.173,2.173,0,0,1-.358-.02,5.4,5.4,0,0,0,.358-1.967,5.953,5.953,0,0,0-5.961-5.961,5.893,5.893,0,0,0-4.391,1.947,11.923,11.923,0,1,1,22.273-5.921Z" transform="translate(-161.926 -185.253)" fill="#ffeeed"/>
  <g id="Grupo_1179640" data-name="Grupo 1179640" transform="translate(49.223 59.305)">
    <path id="Trazado_998196" data-name="Trazado 998196" d="M223.07,315.342a5.4,5.4,0,0,1-.358,1.967,5.9,5.9,0,1,1,.358-1.967Z" transform="translate(-211.149 -271.33)" fill="#fff"/>
    <path id="Trazado_998197" data-name="Trazado 998197" d="M228.515,218.16a10.41,10.41,0,0,1-5.582-10.92l3.916.675a6.453,6.453,0,0,0,3.413,6.675Z" transform="translate(-218.455 -207.24)" fill="#fff"/>
  </g>
  <path id="Trazado_998198" data-name="Trazado 998198" d="M311.75,53.381,307.776,65.3h-5.961V81.2h5.961l3.974,11.921H319.7V53.381Z" transform="translate(-218.816 -51.394)" fill="#371138"/>
  <rect id="Rectángulo_455536" data-name="Rectángulo 455536" width="19.869" height="39.737" transform="translate(100.881 1.987)" fill="#89828f"/>
  <rect id="Rectángulo_455537" data-name="Rectángulo 455537" width="3.974" height="27.816" transform="translate(81.013 7.947)" fill="#7e6e85"/>
  <g id="Grupo_1179641" data-name="Grupo 1179641" transform="translate(93.037 3.973)">
    <path id="Trazado_998199" data-name="Trazado 998199" d="M332.526,67.291l-3.768-1.258,1.987-5.961a1.985,1.985,0,0,1,1.884-1.358h9.934v3.974h-8.5Z" transform="translate(-328.758 -58.714)" fill="#fff"/>
    <rect id="Rectángulo_455538" data-name="Rectángulo 455538" width="3.974" height="3.974" transform="translate(17.779 0)" fill="#fff"/>
  </g>
  <path id="Trazado_998200" data-name="Trazado 998200" d="M153.581,170.187a14.176,14.176,0,0,0-.3-11.733l-11.325-23.782a2.07,2.07,0,0,0-3.59,0l-11.324,23.78a14.289,14.289,0,0,0-.311,11.736c-32.16,4.153-47.08,21.915-47.715,22.695l3.075,2.515c.143-.174,13.784-16.374,42.565-20.929a25.785,25.785,0,0,0,.084,41.335,84.585,84.585,0,0,1-21.028-6.044l-1.6,3.64a94.083,94.083,0,0,0,38.047,7.561,94.037,94.037,0,0,0,38.053-7.565l-1.6-3.64a84.542,84.542,0,0,1-21.035,6.049,25.785,25.785,0,0,0,.085-41.336c28.781,4.555,42.422,20.755,42.565,20.929l3.075-2.515C200.673,192.1,185.748,174.337,153.581,170.187Zm-22.949-10.025,9.531-20.014,9.536,20.024a10.419,10.419,0,0,1-.858,10.513,7.9,7.9,0,0,1-.875,1.119,10.533,10.533,0,0,1-15.645-.039,8.029,8.029,0,0,1-.858-1.108A10.39,10.39,0,0,1,130.632,160.162Zm31.386,34.97a21.855,21.855,0,1,1-31.559-19.613l.015.013c.089.08.184.149.275.227.275.236.552.467.841.68.14.1.288.2.431.294.249.17.5.338.757.491.162.1.328.184.493.273.252.136.506.267.765.388.174.081.35.157.527.231.262.11.527.21.8.3.18.063.36.124.543.18.28.085.564.158.851.226.177.042.352.088.532.123.316.063.637.108.959.15.155.02.308.048.464.063.48.047.965.075,1.456.075s.975-.028,1.454-.075c.161-.016.317-.044.476-.065.316-.041.631-.085.942-.146.189-.037.374-.085.561-.13.272-.065.542-.133.808-.213.2-.061.4-.129.6-.2.24-.084.478-.174.713-.271.208-.086.414-.175.617-.27s.423-.209.632-.32.421-.224.626-.347c.189-.114.372-.238.557-.36.209-.139.419-.273.621-.424.178-.132.347-.279.52-.42.191-.156.387-.305.571-.472l.007-.006A21.892,21.892,0,0,1,162.018,195.132Z" transform="translate(-79.019 -101.75)"/>
  <path id="Trazado_998201" data-name="Trazado 998201" d="M239.8,75.864h5.961a1.988,1.988,0,0,1,1.987,1.987v3.973a1.986,1.986,0,0,0,1.987,1.987h11.921a1.986,1.986,0,0,0,1.987-1.987V79.838h2.541L269.708,90.4a1.985,1.985,0,0,0,1.884,1.358h27.816V87.785H281.526V52.021h17.882V48.048H271.592a1.984,1.984,0,0,0-1.884,1.358l-3.522,10.563h-2.541V57.982A1.986,1.986,0,0,0,261.657,56H249.736a1.985,1.985,0,0,0-1.987,1.987v3.974a1.988,1.988,0,0,1-1.987,1.987H239.8a1.986,1.986,0,0,0-1.987,1.987v7.947A1.986,1.986,0,0,0,239.8,75.864Zm23.842-11.921h3.973a1.985,1.985,0,0,0,1.884-1.358l3.522-10.563h4.529V87.785h-4.529L269.5,77.222a1.985,1.985,0,0,0-1.884-1.358h-3.973Zm-21.856,3.974h3.974a5.967,5.967,0,0,0,5.961-5.961V59.969h7.947v3.973H255.7v3.974h3.974V71.89H255.7v3.973h3.974v3.974h-7.947V77.851a5.967,5.967,0,0,0-5.961-5.961h-3.974Z" transform="translate(-178.658 -48.048)"/>
  <path id="Trazado_998202" data-name="Trazado 998202" d="M219.723,261.381a13.874,13.874,0,0,0-12.67,19.6,7.866,7.866,0,0,0-1.238,4.239,7.936,7.936,0,0,0,14.839,3.927,13.9,13.9,0,0,0-.931-27.769Zm-2.237,25.166a3.93,3.93,0,0,1-3.723,2.651,3.979,3.979,0,0,1-3.973-3.974,4,4,0,0,1,3.973-3.974,3.979,3.979,0,0,1,3.974,3.974A3.558,3.558,0,0,1,217.486,286.547Zm4.222-1.523a7.745,7.745,0,0,0-.1-.777c-.029-.234-.038-.474-.088-.7a7.618,7.618,0,0,0-.253-.813c-.074-.221-.128-.45-.221-.662a7.828,7.828,0,0,0-.393-.723c-.115-.2-.212-.418-.345-.61a8,8,0,0,0-.515-.624c-.152-.18-.288-.372-.456-.538a7.974,7.974,0,0,0-.624-.515c-.183-.148-.352-.311-.547-.443a7.955,7.955,0,0,0-.747-.406c-.2-.1-.386-.23-.595-.317a8.01,8.01,0,0,0-.949-.3c-.179-.05-.346-.124-.53-.162a7.711,7.711,0,0,0-3.341.047c-.18.041-.345.116-.521.168a7.937,7.937,0,0,0-1.131.414c-.051.025-.109.033-.159.058a9.936,9.936,0,1,1,11.51,6.9Z" transform="translate(-158.579 -181.907)"/>
  <path id="Trazado_998203" data-name="Trazado 998203" d="M228.515,218.16l1.746-3.57a6.452,6.452,0,0,1-3.413-6.675l-3.916-.675A10.411,10.411,0,0,0,228.515,218.16Z" transform="translate(-169.232 -147.935)"/>
</svg>
