<svg id="Grupo_1179644" data-name="Grupo 1179644" xmlns="http://www.w3.org/2000/svg" width="125.659" height="125.659" viewBox="0 0 125.659 125.659">
  <g id="Grupo_1179643" data-name="Grupo 1179643" transform="translate(2.026 2.198)">
    <path id="Trazado_998204" data-name="Trazado 998204" d="M184.2,340.185a7,7,0,0,0,7-7h0v-18.95a13.609,13.609,0,0,0-13.575-13.642H132.107a13.609,13.609,0,0,0-13.639,13.578v19.011a7,7,0,0,0,7,7.006H184.2Z" transform="translate(-112.863 -218.75)" fill="#371138"/>
    <path id="Trazado_998205" data-name="Trazado 998205" d="M134.476,95.531a6.486,6.486,0,0,0-9.172,0l0,0a38.035,38.035,0,0,0-11.046,24.294v2.312H135.37V96.645A6.4,6.4,0,0,0,134.476,95.531Z" transform="translate(-110.278 -91.749)" fill="#7e6e85"/>
    <path id="Trazado_998206" data-name="Trazado 998206" d="M266.384,95.531a6.486,6.486,0,0,0-10.066,1.115V122.63h21.11v-2.806A38.031,38.031,0,0,0,266.384,95.531Z" transform="translate(-197.455 -91.75)" fill="#7e6e85"/>
    <path id="Trazado_998207" data-name="Trazado 998207" d="M115.428,181.233l.149-22.179H111.6a7.617,7.617,0,0,0-7.635,7.6c0,.011,0,.022,0,.033V173.6a7.617,7.617,0,0,0,7.6,7.635h3.867Z" transform="translate(-103.96 -131.897)" fill="#6cac25"/>
    <path id="Trazado_998208" data-name="Trazado 998208" d="M302.8,173.6v-6.91a7.618,7.618,0,0,0-7.6-7.635h-4.016l.15,22.179h3.832a7.618,7.618,0,0,0,7.635-7.6Z" transform="translate(-218.853 -131.895)" fill="#6cac25"/>
    <path id="Trazado_998209" data-name="Trazado 998209" d="M185.134,159.663a30.42,30.42,0,0,0,9.516-22.18V119.11a30.524,30.524,0,0,0-61.047,0v18.374a30.425,30.425,0,0,0,9.517,22.181Z" transform="translate(-122.15 -88.762)" fill="#ff97a1"/>
    <path id="Trazado_998210" data-name="Trazado 998210" d="M175,248.793h8.934c9.338-.893,16.305-4.773,16.305-14.6,0-11.428-9.413-25.665-21.025-25.665S158.19,222.763,158.19,234.19c0,9.829,6.964,13.71,16.3,14.6Z" transform="translate(-137.238 -162.255)" fill="#ffeeed"/>
    <rect id="Rectángulo_455539" data-name="Rectángulo 455539" width="23.559" height="50.86" rx="10.901" transform="translate(98.047 70.577)" fill="#89828f"/>
    <path id="Trazado_998211" data-name="Trazado 998211" d="M346.6,369.609V355.4h-4.066a2.939,2.939,0,0,0-2.949,2.928v8.331a2.939,2.939,0,0,0,2.928,2.95h.021Z" transform="translate(-248.551 -252.385)" fill="#cdbfdc"/>
    <path id="Trazado_998212" data-name="Trazado 998212" d="M198.256,259.27a11.685,11.685,0,1,0-8.437,0Z" transform="translate(-152.064 -179.535)" fill="#cdbfdc"/>
    <path id="Trazado_998213" data-name="Trazado 998213" d="M205.915,256.025a4.215,4.215,0,0,0-4.215,4.215v38.449a6.992,6.992,0,0,0,6.993,6.993h46.279v-8.31H210.128V260.244a4.214,4.214,0,0,0-4.21-4.219Z" transform="translate(-163.938 -191.403)" fill="#7e6e85"/>
  </g>
  <path id="Trazado_998214" data-name="Trazado 998214" d="M108.376,136.634h1.909a32.549,32.549,0,0,0,3.934,13.136,2.027,2.027,0,1,0,3.547-1.964h0A28.556,28.556,0,0,1,114.22,134V115.624a28.5,28.5,0,1,1,56.993,0V134a28.224,28.224,0,0,1-6.072,17.623,31.6,31.6,0,0,0-1.878-5.776,2.027,2.027,0,0,0-3.72,1.609,24.943,24.943,0,0,1,2.175,9.751c0,7.853-4.887,11.249-12.759,12.377v-3.274a13.712,13.712,0,1,0-12.485,0v3.275c-9.586-1.376-12.748-5.958-12.748-12.379,0-10.64,8.764-23.632,18.991-23.632.145,0,.292,0,.438.007a2.027,2.027,0,0,0,.219-4.047c-.219-.012-.438-.013-.657-.013-12.769,0-23.044,15.145-23.044,27.685a16.79,16.79,0,0,0,1.793,7.881h-1.479A15.684,15.684,0,0,0,104.32,180.75V199.7a9.04,9.04,0,0,0,9.031,9.033h58.733a9.045,9.045,0,0,0,8.835-7.164h9.267a4.978,4.978,0,0,0,4.537,2.953H197.1a6.25,6.25,0,0,0,5.9,4.212h15.13a6.251,6.251,0,0,0,6.243-6.242v-4.256a2.027,2.027,0,0,0-4.054,0v4.256a2.191,2.191,0,0,1-2.189,2.189H203a2.192,2.192,0,0,1-2.188-2.175V160.06A2.191,2.191,0,0,1,203,157.871h15.13a2.191,2.191,0,0,1,2.188,2.189V189a2.027,2.027,0,1,0,4.054,0V160.06a6.25,6.25,0,0,0-6.243-6.242H203a6.25,6.25,0,0,0-6.242,6.242v26.2h-2.036a4.976,4.976,0,0,0-4.532,2.944h-9.077V180.75a15.684,15.684,0,0,0-15.666-15.666h-1.472a16.78,16.78,0,0,0,1.793-7.881c0-.068,0-.138-.006-.2a32.138,32.138,0,0,0,9.388-20.362h1.907a9.672,9.672,0,0,0,9.661-9.661v-6.915a9.645,9.645,0,0,0-4.076-7.868A40.048,40.048,0,0,0,171.1,87.619a8.452,8.452,0,0,0-6.02-2.5h0a8.457,8.457,0,0,0-5.936,2.419,32.6,32.6,0,0,0-32.893-.031,8.5,8.5,0,0,0-11.922.107,40.055,40.055,0,0,0-11.54,24.575,9.648,9.648,0,0,0-4.077,7.869v6.91A9.673,9.673,0,0,0,108.376,136.634Zm24.682,17.478a9.66,9.66,0,1,1,15.9,7.354v-7.354a6.242,6.242,0,0,0-12.485,0h0v7.347A9.72,9.72,0,0,1,133.058,154.112Zm39.025,50.568H113.35a4.982,4.982,0,0,1-4.977-4.977v-18.95a11.624,11.624,0,0,1,11.612-11.615h4.756c2.559,2.167,6.309,3.836,11.732,4.536v18.876a9.028,9.028,0,0,0,9.019,9.019h31.2A4.978,4.978,0,0,1,172.083,204.679ZM193.8,191.237a.912.912,0,0,1,.9-.922h2.057v10.153h-2.036a.912.912,0,0,1-.922-.9v-8.329ZM177.061,180.75v8.456h-2.3a2.027,2.027,0,1,0,0,4.053h14.989v4.256H145.493a4.971,4.971,0,0,1-4.966-4.966V154.112a2.189,2.189,0,0,1,4.378,0v37.12a2.027,2.027,0,0,0,2.027,2.027h4.307a2.027,2.027,0,1,0,0-4.053h-2.28V173.67c5.426-.7,9.179-2.369,11.739-4.536h4.752A11.624,11.624,0,0,1,177.061,180.75Zm5.605-53.777a5.614,5.614,0,0,1-5.607,5.608h-1.793V115.624c0-.392-.016-.78-.029-1.168h1.824a5.613,5.613,0,0,1,5.606,5.607ZM165.082,89.177h0a4.428,4.428,0,0,1,3.151,1.307A36,36,0,0,1,178.353,110.5a9.611,9.611,0,0,0-1.3-.1h-2.214a32.567,32.567,0,0,0-12.2-20.487A4.43,4.43,0,0,1,165.082,89.177Zm-62.314,37.795v-6.91a5.613,5.613,0,0,1,5.608-5.607h1.818c-.014.389-.029.777-.029,1.168v16.957h-1.79A5.614,5.614,0,0,1,102.768,126.972ZM117.2,90.485a4.444,4.444,0,0,1,5.555-.6,32.266,32.266,0,0,0-12.17,20.516h-2.207a9.62,9.62,0,0,0-1.3.1A35.994,35.994,0,0,1,117.2,90.485Zm18.086,33.34v2.419a2.027,2.027,0,0,1-4.054,0v-2.415a2.027,2.027,0,0,1,4.054,0Zm14.867,2.419v-2.415a2.027,2.027,0,1,1,4.053,0v2.415a2.027,2.027,0,0,1-4.053,0Zm-15.2-12.823a2.027,2.027,0,0,1,2.027-2.027h11.478a2.027,2.027,0,0,1,0,4.054H136.979a2.027,2.027,0,0,1-2.027-2.027v-.005Zm21.94-7.6a2.027,2.027,0,0,1-2.027,2.027H130.569a2.027,2.027,0,0,1,0-4.054h24.3a2.027,2.027,0,0,1,2.027,2.027h0Zm-5.811,28.124a2.027,2.027,0,0,1,2.838-.4,26.056,26.056,0,0,1,3.979,3.732,2.027,2.027,0,0,1-3.065,2.654h0a21.948,21.948,0,0,0-3.354-3.151A2.027,2.027,0,0,1,151.079,133.946Zm9.4,55.26h5.037a2.027,2.027,0,1,1,0,4.053H160.48a2.027,2.027,0,0,1,0-4.053Z" transform="translate(-98.715 -83.074)"/>
</svg>
