<svg xmlns="http://www.w3.org/2000/svg" width="141.688" height="141.688" viewBox="0 0 141.688 141.688">
  <g id="Grupo_1180399" data-name="Grupo 1180399" transform="translate(-375 -8839.176)">
    <rect id="Rectángulo_402033" data-name="Rectángulo 402033" width="141.688" height="141.688" rx="5" transform="translate(375 8839.176)" fill="#6e2370"/>
    <g id="Grupo_1179566" data-name="Grupo 1179566" transform="translate(404.576 8856.277)">
      <g id="Grupo_1179559" data-name="Grupo 1179559" transform="translate(0)">
        <path id="Trazado_997790" data-name="Trazado 997790" d="M202.547,109.549v7.166H116.559v-7.166a3.593,3.593,0,0,1,3.583-3.583h78.822A3.593,3.593,0,0,1,202.547,109.549Z" transform="translate(-116.559 -105.966)" fill="#371138"/>
      </g>
      <g id="Grupo_1179560" data-name="Grupo 1179560" transform="translate(0 68.074)">
        <path id="Trazado_997791" data-name="Trazado 997791" d="M202.547,257.966v35.828a3.593,3.593,0,0,1-3.583,3.583H120.142a3.593,3.593,0,0,1-3.583-3.583V257.966Z" transform="translate(-116.559 -257.966)" fill="#371138"/>
      </g>
      <g id="Grupo_1179561" data-name="Grupo 1179561" transform="translate(39.411 75.239)">
        <path id="Trazado_997792" data-name="Trazado 997792" d="M204.559,273.966H243.97v10.748H204.559Z" transform="translate(-204.559 -273.966)" fill="#ffeeed"/>
      </g>
      <g id="Grupo_1179562" data-name="Grupo 1179562" transform="translate(0 10.748)">
        <path id="Trazado_997793" data-name="Trazado 997793" d="M116.559,129.966h85.988v57.325H116.559Z" transform="translate(-116.559 -129.966)" fill="#7e6e85"/>
      </g>
      <g id="Grupo_1179563" data-name="Grupo 1179563" transform="translate(30.583 25.033)">
        <circle id="Elipse_13707" data-name="Elipse 13707" cx="12.487" cy="12.487" r="12.487" transform="translate(0 0)" fill="#89828f"/>
      </g>
      <g id="Grupo_1179564" data-name="Grupo 1179564" transform="translate(23.414 21.103)">
        <path id="Trazado_997794" data-name="Trazado 997794" d="M199.15,153.086A19.718,19.718,0,0,1,208,167.4a10.727,10.727,0,0,0-14.994,13.866,10.444,10.444,0,0,0,5.374,5.32,19.578,19.578,0,0,1-19.92,0,10.444,10.444,0,0,0,5.374-5.32A10.736,10.736,0,0,0,168.839,167.4a19.718,19.718,0,0,1,8.85-14.313c0,.125-.018.269-.018.394a10.748,10.748,0,1,0,21.5,0C199.168,153.355,199.15,153.211,199.15,153.086Z" transform="translate(-168.839 -153.086)" fill="#a4a4a6"/>
      </g>
      <g id="Grupo_1179565" data-name="Grupo 1179565" transform="translate(7.166 75.239)">
        <path id="Trazado_997795" data-name="Trazado 997795" d="M147.75,275.542l9.369,17.162a4.394,4.394,0,0,1,.52,2.06,4.281,4.281,0,0,1-4.281,4.281H136.84a4.281,4.281,0,0,1-4.281-4.281,4.394,4.394,0,0,1,.52-2.06l9.369-17.162a3.018,3.018,0,0,1,5.3,0Z" transform="translate(-132.559 -273.966)" fill="#ffeeed"/>
      </g>
    </g>
    <g id="Grupo_1179567" data-name="Grupo 1179567" transform="translate(402.785 8854.485)">
      <path id="Trazado_997796" data-name="Trazado 997796" d="M196.755,101.966H117.933a5.381,5.381,0,0,0-5.374,5.374V207.659a5.381,5.381,0,0,0,5.374,5.374h78.822a5.381,5.381,0,0,0,5.374-5.374V107.34A5.381,5.381,0,0,0,196.755,101.966Zm-78.822,3.583h78.822a1.793,1.793,0,0,1,1.791,1.791v5.374h-82.4V107.34A1.793,1.793,0,0,1,117.933,105.549ZM198.547,116.3V170.04h-82.4V116.3Zm-1.791,93.153H117.933a1.793,1.793,0,0,1-1.791-1.791V173.622h82.4v34.037A1.793,1.793,0,0,1,196.755,209.451Z" transform="translate(-112.559 -101.966)"/>
      <path id="Trazado_997797" data-name="Trazado 997797" d="M171.542,163.718a13.943,13.943,0,0,0-.12,1.741,14.221,14.221,0,0,0,7.228,12.431,8.911,8.911,0,0,1-2.746,2.49c-.274.158-.555.3-.838.426l-3.18,1.417,3,1.765a21.368,21.368,0,0,0,21.73,0l3-1.765-3.18-1.417a9.138,9.138,0,0,1-.835-.425,8.889,8.889,0,0,1-2.75-2.492,14.221,14.221,0,0,0,7.228-12.431,13.94,13.94,0,0,0-.12-1.741,8.83,8.83,0,0,1,4.489,1.093l3.042,1.7-.387-3.463a21.407,21.407,0,0,0-9.649-15.607l-2.861-1.861.111,3.755a8.848,8.848,0,0,1-1.084,4.179,14.176,14.176,0,0,0-15.732-.011,9.046,9.046,0,0,1-1.093-4.269l.106-3.654-2.861,1.861A21.421,21.421,0,0,0,164.4,163.05l-.387,3.463,3.042-1.7a8.835,8.835,0,0,1,4.489-1.093ZM175,165.459c0-.321.038-.645.068-.969a8.808,8.808,0,0,1,5.059,10.107A10.663,10.663,0,0,1,175,165.459Zm16.37,9.138a8.808,8.808,0,0,1,5.059-10.107c.03.324.068.648.068.969A10.663,10.663,0,0,1,191.375,174.6Zm-.041-18.31a8.747,8.747,0,0,1-11.155-.005,10.671,10.671,0,0,1,11.155.005Zm-17.758-3.954a12.542,12.542,0,0,0,24.356,0,17.816,17.816,0,0,1,5.012,8.09,12.59,12.59,0,0,0-13.719,5.931,12.55,12.55,0,0,0,2.793,15.875,17.921,17.921,0,0,1-12.526,0,12.55,12.55,0,0,0,2.793-15.875,12.6,12.6,0,0,0-13.719-5.931,17.778,17.778,0,0,1,5.009-8.09Z" transform="translate(-140.968 -126.048)"/>
      <path id="Trazado_997798" data-name="Trazado 997798" d="M147.111,272.472a4.807,4.807,0,0,0-8.441,0L129.3,289.646a6.071,6.071,0,0,0,5.331,8.982h16.515a6.075,6.075,0,0,0,5.331-8.984Zm4.036,22.574H134.632a2.491,2.491,0,0,1-2.186-3.685l9.367-17.174a1.227,1.227,0,0,1,2.153,0l9.367,17.172a2.491,2.491,0,0,1-2.187,3.685Z" transform="translate(-121.393 -194.727)"/>
      <circle id="Elipse_13708" data-name="Elipse 13708" cx="1.85" cy="1.85" r="1.85" transform="translate(19.425 93.425)"/>
      <path id="Trazado_997799" data-name="Trazado 997799" d="M156.559,285.966h3.583v7.166h-3.583Z" transform="translate(-136.853 -203.561)"/>
      <path id="Trazado_997800" data-name="Trazado 997800" d="M200.559,284.3h42.994V269.966H200.559Zm3.583-10.748H239.97v7.166H204.142Z" transform="translate(-161.148 -194.727)"/>
      <path id="Trazado_997801" data-name="Trazado 997801" d="M200.559,309.966h3.583v3.583h-3.583Z" transform="translate(-161.148 -216.813)"/>
      <path id="Trazado_997802" data-name="Trazado 997802" d="M216.559,309.966h35.828v3.583H216.559Z" transform="translate(-169.982 -216.813)"/>
      <path id="Trazado_997803" data-name="Trazado 997803" d="M200.559,325.966h42.994v3.583H200.559Z" transform="translate(-161.148 -225.647)"/>
      <path id="Trazado_997804" data-name="Trazado 997804" d="M128.559,157.966h3.583v3.583h-3.583Z" transform="translate(-121.393 -132.886)"/>
      <path id="Trazado_997805" data-name="Trazado 997805" d="M128.559,141.966h3.583v3.583h-3.583Z" transform="translate(-121.393 -124.052)"/>
      <path id="Trazado_997806" data-name="Trazado 997806" d="M128.559,173.966h3.583v3.583h-3.583Z" transform="translate(-121.393 -141.721)"/>
      <path id="Trazado_997807" data-name="Trazado 997807" d="M288.559,237.966h3.583v3.583h-3.583Z" transform="translate(-209.737 -177.058)"/>
      <path id="Trazado_997808" data-name="Trazado 997808" d="M288.559,205.966h3.583v3.583h-3.583Z" transform="translate(-209.737 -159.389)"/>
      <path id="Trazado_997809" data-name="Trazado 997809" d="M288.559,221.966h3.583v3.583h-3.583Z" transform="translate(-209.737 -168.224)"/>
    </g>
  </g>
</svg>
