<svg xmlns="http://www.w3.org/2000/svg" width="141.688" height="141.688" viewBox="0 0 141.688 141.688">
  <g id="Grupo_1180400" data-name="Grupo 1180400" transform="translate(-729.41 -8839.176)">
    <path id="Trazado_997817" data-name="Trazado 997817" d="M167.375,302.648a31.629,31.629,0,0,0,6.316,14.53v5.627H140.1V302.648Z" transform="translate(617.906 8630.845)" fill="#ffeeed"/>
    <path id="Trazado_997822" data-name="Trazado 997822" d="M271.711,282.682a6.719,6.719,0,1,0-6.719,6.719A6.719,6.719,0,0,0,271.711,282.682Zm-6.719,3.36a3.36,3.36,0,1,1,3.36-3.36A3.36,3.36,0,0,1,264.992,286.042Z" transform="translate(551.801 8645.771)"/>
    <path id="Trazado_997823" data-name="Trazado 997823" d="M288.929,289.079a10.1,10.1,0,0,1-5.039,8.725,1.679,1.679,0,0,0-.617,2.294h0l6.719,11.638a1.681,1.681,0,0,0,1.021.784,1.733,1.733,0,0,0,.434.056,1.68,1.68,0,0,0,.84-.227,27.006,27.006,0,0,0,13.44-23.27,1.68,1.68,0,0,0-1.68-1.68H290.609a1.68,1.68,0,0,0-1.68,1.68Zm13.378,1.68a23.662,23.662,0,0,1-10.275,17.791l-1.7-2.943-3.359-5.824a13.482,13.482,0,0,0,5.209-9.024Z" transform="translate(537.942 8639.375)"/>
    <path id="Trazado_997824" data-name="Trazado 997824" d="M234.364,297.8a10.1,10.1,0,0,1-5.04-8.725,1.68,1.68,0,0,0-1.68-1.68H214.207a1.68,1.68,0,0,0-1.68,1.68,27.006,27.006,0,0,0,13.438,23.273,1.677,1.677,0,0,0,.84.226,1.73,1.73,0,0,0,.433-.055,1.679,1.679,0,0,0,1.021-.785l6.719-11.641a1.679,1.679,0,0,0-.615-2.294Zm-8.14,10.751a23.664,23.664,0,0,1-10.277-17.8h10.124a13.484,13.484,0,0,0,5.207,9.025Z" transform="translate(577.39 8639.375)"/>
    <rect id="Rectángulo_402033" data-name="Rectángulo 402033" width="141.688" height="141.688" rx="5" transform="translate(729.41 8839.176)" fill="#6e2370"/>
    <rect id="Rectángulo_455525" data-name="Rectángulo 455525" width="47.033" height="73.91" rx="7.624" transform="translate(751.282 8886.46)" fill="#89828f"/>
    <path id="Trazado_997810" data-name="Trazado 997810" d="M218.793,199.267v67.19a3.369,3.369,0,0,1-3.359,3.359h-6.719a3.369,3.369,0,0,0,3.36-3.359v-67.19a3.37,3.37,0,0,0-3.36-3.36h6.719A3.369,3.369,0,0,1,218.793,199.267Z" transform="translate(579.522 8690.553)" fill="#371138"/>
    <path id="Trazado_997811" data-name="Trazado 997811" d="M269.709,142.537h33.6v20.157h-33.6Z" transform="translate(545.404 8720.406)" fill="#a4a4a6"/>
    <circle id="Elipse_13709" data-name="Elipse 13709" cx="31.916" cy="31.916" r="31.916" transform="translate(784.877 8896.538)" fill="#fff"/>
    <path id="Trazado_997812" data-name="Trazado 997812" d="M272.853,258.628a31.905,31.905,0,0,1-57.582,18.948,31.9,31.9,0,0,0,44.615-44.615A31.824,31.824,0,0,1,272.853,258.628Z" transform="translate(575.854 8669.825)" fill="#cdbfdc"/>
    <g id="Grupo_1179569" data-name="Grupo 1179569" transform="translate(791.597 8903.257)">
      <path id="Trazado_997813" data-name="Trazado 997813" d="M293.583,313.031l-6.719-11.641a11.718,11.718,0,0,0,5.879-10.18h13.438a25.208,25.208,0,0,1-12.6,21.82Z" transform="translate(-255.788 -266.015)" fill="#ffeeed"/>
      <path id="Trazado_997814" data-name="Trazado 997814" d="M244.93,237.405c4.2-1.7,8.013-3.376,12.6-3.376s8.4,1.68,12.6,3.376l-6.719,11.641a11.735,11.735,0,0,0-11.758,0Z" transform="translate(-232.332 -234.029)" fill="#ffeeed"/>
      <circle id="Elipse_13710" data-name="Elipse 13710" cx="5.039" cy="5.039" r="5.039" transform="translate(20.157 20.157)" fill="#ffeeed"/>
      <path id="Trazado_997815" data-name="Trazado 997815" d="M216.339,291.211h13.438a11.718,11.718,0,0,0,5.879,10.18l-6.719,11.641A25.207,25.207,0,0,1,216.339,291.211Z" transform="translate(-216.339 -266.015)" fill="#ffeeed"/>
    </g>
    <path id="Trazado_997816" data-name="Trazado 997816" d="M140.1,142.537h33.6v10.079H140.1Z" transform="translate(617.906 8720.406)" fill="#89828f"/>
    <path id="Trazado_997818" data-name="Trazado 997818" d="M151.532,165.41h23.517v13.438H151.532Z" transform="translate(611.509 8707.611)" fill="#7e6e85"/>
    <path id="Trazado_997819" data-name="Trazado 997819" d="M201.09,142.537h6.719v10.079H201.09Z" transform="translate(583.787 8720.406)" fill="#371138"/>
    <path id="Trazado_997820" data-name="Trazado 997820" d="M189.654,165.41h6.719v13.438h-6.719Z" transform="translate(590.185 8707.611)" fill="#fff"/>
    <path id="Trazado_997821" data-name="Trazado 997821" d="M156.892,244.751a16.8,16.8,0,1,1,16.764-17.839,31.506,31.506,0,0,0-6.215,14.11,16.706,16.706,0,0,1-10.549,3.729Z" transform="translate(617.907 8682.022)" fill="#636363"/>
    <path id="Trazado_997825" data-name="Trazado 997825" d="M248.062,247.754a1.68,1.68,0,0,0,1.023.783,1.642,1.642,0,0,0,.432.057,1.669,1.669,0,0,0,.84-.235,10.106,10.106,0,0,1,10.079,0,1.679,1.679,0,0,0,2.3-.61l0,0,6.719-11.638a1.68,1.68,0,0,0-.616-2.294,1.661,1.661,0,0,0-.211-.1l-.821-.336a31.964,31.964,0,0,0-12.409-3.158,31.959,31.959,0,0,0-12.405,3.165l-.821.336a1.68,1.68,0,0,0-.929,2.186,1.632,1.632,0,0,0,.1.211Zm7.334-14.177a26.583,26.583,0,0,1,10.18,2.52l-4.972,8.61a13.459,13.459,0,0,0-10.426,0l-4.965-8.6A26.587,26.587,0,0,1,255.4,233.576Z" transform="translate(561.397 8671.36)"/>
    <path id="Trazado_997826" data-name="Trazado 997826" d="M188.225,172.32a33.4,33.4,0,0,0-16.8,4.552v-9.591a5.055,5.055,0,0,0-5.04-5.04h-6.719V152.163h3.36a1.68,1.68,0,0,0,1.68-1.68V140.4a1.68,1.68,0,0,0-1.68-1.68h-33.6a1.68,1.68,0,0,0-1.68,1.68v10.079a1.68,1.68,0,0,0,1.68,1.68h3.36v10.079h-6.719a5.054,5.054,0,0,0-5.039,5.04v67.19a5.054,5.054,0,0,0,5.039,5.04h40.314a5.021,5.021,0,0,0,4.989-4.569,33.582,33.582,0,1,0,16.848-62.622ZM131.114,148.8v-6.719h30.236V148.8Zm25.2,3.359v10.079H136.153V152.163Zm11.758,82.309a1.68,1.68,0,0,1-1.68,1.68H126.074a1.68,1.68,0,0,1-1.68-1.68v-67.19a1.68,1.68,0,0,1,1.68-1.68h40.314a1.68,1.68,0,0,1,1.68,1.68v11.825a31.941,31.941,0,0,0-4,3.528,18.477,18.477,0,1,0-17.839,23.281,18.223,18.223,0,0,0,8.5-2.083c-.034.689-.1,1.377-.1,2.083,0,1.143.067,2.251.168,3.36H129.433a1.68,1.68,0,0,0-1.68,1.68v20.157a1.68,1.68,0,0,0,1.68,1.68h33.6a1.68,1.68,0,0,0,1.68-1.68v-1.243a36.332,36.332,0,0,0,3.359,2.855Zm-12.817-34.922a14.9,14.9,0,0,1-9.02,3.007,15.118,15.118,0,1,1,15.034-16.6,33.5,33.5,0,0,0-6.014,13.589Zm.051,13.085a33.35,33.35,0,0,0,6.047,13.354v3.444H131.114v-16.8Zm32.923,23.517a30.236,30.236,0,1,1,30.236-30.236A30.236,30.236,0,0,1,188.225,236.151Z" transform="translate(628.567 8722.538)"/>
    <path id="Trazado_997828" data-name="Trazado 997828" d="M301.172,138.725h-33.6a1.68,1.68,0,0,0-1.68,1.68v20.157a1.68,1.68,0,0,0,1.68,1.68h33.6a1.68,1.68,0,0,0,1.68-1.68V140.4A1.68,1.68,0,0,0,301.172,138.725Zm-1.68,20.157H269.256v-16.8h30.236Z" transform="translate(547.536 8722.538)"/>
    <path id="Trazado_997829" data-name="Trazado 997829" d="M281.146,153.973h3.359v3.36h-3.359Z" transform="translate(539.007 8714.009)"/>
    <path id="Trazado_997830" data-name="Trazado 997830" d="M296.394,153.973h16.8v3.36h-16.8Z" transform="translate(530.478 8714.009)"/>
    <path id="Trazado_997831" data-name="Trazado 997831" d="M281.146,169.222h23.517v3.359H281.146Z" transform="translate(539.007 8705.479)"/>
    <path id="Trazado_997832" data-name="Trazado 997832" d="M219.831,170.732l9.586-9.586h6.024v-3.359h-6.719a1.679,1.679,0,0,0-1.187.492l-10.079,10.079Z" transform="translate(574.633 8711.876)"/>
  </g>
</svg>
