<svg xmlns="http://www.w3.org/2000/svg" width="141.688" height="141.688" viewBox="0 0 141.688 141.688">
  <g id="Grupo_1180401" data-name="Grupo 1180401" transform="translate(-375 -9286.061)">
    <path id="Trazado_997871" data-name="Trazado 997871" d="M153.993,276.079v4.767H115.861V242.713h38.132Z" transform="translate(284.856 9116.573)" fill="#8a2c8c"/>
    <path id="Trazado_997872" data-name="Trazado 997872" d="M115.861,242.713h38.132V245.1H115.861Z" transform="translate(284.856 9116.573)" fill="#41c67d"/>
    <path id="Trazado_997885" data-name="Trazado 997885" d="M218.972,229.824V263.19H271.4V229.824Z" transform="translate(219.878 9124.695)" fill="#8a2c8c"/>
    <path id="Trazado_997886" data-name="Trazado 997886" d="M269.2,216.935H215.473c.048.081.105.155.15.238a9.592,9.592,0,0,1,1.144,4.528H269.2Z" transform="translate(222.083 9132.818)" fill="#0e7950"/>
    <path id="Trazado_997907" data-name="Trazado 997907" d="M228.505,234.591v-4.767h-9.533V263.19h9.533Z" transform="translate(219.878 9124.695)" fill="#6e2370"/>
    <path id="Trazado_997908" data-name="Trazado 997908" d="M225.156,217.173c-.045-.083-.1-.157-.15-.238h-9.533c.048.081.105.155.15.238a9.592,9.592,0,0,1,1.144,4.528H226.3A9.6,9.6,0,0,0,225.156,217.173Z" transform="translate(222.083 9132.818)" fill="#004237"/>
    <path id="Trazado_997937" data-name="Trazado 997937" d="M262.693,263.19H271.4V229.824H218.972v8.93A90.347,90.347,0,0,0,262.693,263.19Z" transform="translate(219.878 9124.695)" fill="#8a2c8c"/>
    <path id="Trazado_997938" data-name="Trazado 997938" d="M269.2,216.935H215.473c.048.081.105.155.15.238a9.592,9.592,0,0,1,1.144,4.528H269.2Z" transform="translate(222.083 9132.818)" fill="#371138"/>
    <path id="Trazado_997941" data-name="Trazado 997941" d="M210.709,245.1h1.7v-2.383h-3.854Q209.61,243.923,210.709,245.1Z" transform="translate(226.444 9116.573)" fill="#b3ffd2"/>
    <path id="Trazado_997956" data-name="Trazado 997956" d="M228.505,247.112V229.824h-9.533v8.93A90.857,90.857,0,0,0,228.505,247.112Z" transform="translate(219.878 9124.695)" fill="#6e2370"/>
    <path id="Trazado_997957" data-name="Trazado 997957" d="M225.156,217.173c-.045-.083-.1-.157-.15-.238h-9.533c.048.081.105.155.15.238a9.592,9.592,0,0,1,1.144,4.528H226.3A9.6,9.6,0,0,0,225.156,217.173Z" transform="translate(222.083 9132.818)" fill="#371138"/>
    <rect id="Rectángulo_455526" data-name="Rectángulo 455526" width="33.711" height="2.407" rx="1.204" transform="translate(447.964 9349.765)" fill="#57ff9b"/>
    <rect id="Rectángulo_455527" data-name="Rectángulo 455527" width="4.817" height="2.407" rx="1.204" transform="translate(484.082 9349.765)" fill="#57ff9b"/>
    <rect id="Rectángulo_402033" data-name="Rectángulo 402033" width="141.688" height="141.688" rx="5" transform="translate(375 9286.061)" fill="#6e2370"/>
    <path id="Trazado_997855" data-name="Trazado 997855" d="M157.349,157.257v7.15l-4.767,7.15H133.517l-4.767-7.15V152.491h28.6Z" transform="translate(276.734 9173.43)" fill="#96a1c3"/>
    <path id="Trazado_997856" data-name="Trazado 997856" d="M155.851,189.48l3.177-4.767H135.2l3.177,4.767Z" transform="translate(272.673 9153.124)" fill="#7989af"/>
    <path id="Trazado_997857" data-name="Trazado 997857" d="M131.133,184.713H128.75l3.177,4.767h2.383Z" transform="translate(276.734 9153.124)" fill="#586889"/>
    <path id="Trazado_997858" data-name="Trazado 997858" d="M137.341,197.6l1.589,2.383h2.383l-1.59-2.383Z" transform="translate(271.32 9145.001)" fill="#415372"/>
    <path id="Trazado_997859" data-name="Trazado 997859" d="M143.785,197.6l1.59,2.383h14.3l1.59-2.383Z" transform="translate(267.26 9145.001)" fill="#586889"/>
    <path id="Trazado_997860" data-name="Trazado 997860" d="M191.049,189.48h2.383l3.177-4.767h-2.383Z" transform="translate(237.475 9153.124)" fill="#586889"/>
    <path id="Trazado_997861" data-name="Trazado 997861" d="M186.75,199.985h2.383l1.589-2.383H188.34Z" transform="translate(240.184 9145.001)" fill="#415372"/>
    <path id="Trazado_997865" data-name="Trazado 997865" d="M148.084,171.824v4.767h4.766v7.15h4.767v-7.15h4.767v-4.767Z" transform="translate(264.55 9161.246)" fill="#415372"/>
    <path id="Trazado_997866" data-name="Trazado 997866" d="M160.972,197.6h4.767v2.383h-4.767Z" transform="translate(256.429 9145.001)" fill="#192b44"/>
    <path id="Trazado_997870" data-name="Trazado 997870" d="M153.993,213.579v4.767H115.861v-4.767a9.533,9.533,0,0,1,9.533-9.533H144.46A9.533,9.533,0,0,1,153.993,213.579Z" transform="translate(284.856 9140.94)" fill="#ccd3eb"/>
    <path id="Trazado_997874" data-name="Trazado 997874" d="M125.394,208.813H144.46a9.533,9.533,0,0,1,9.533,9.533v-4.767a9.533,9.533,0,0,0-9.533-9.533H125.394a9.533,9.533,0,0,0-9.533,9.533v4.767A9.533,9.533,0,0,1,125.394,208.813Z" transform="translate(284.856 9140.94)" fill="#dee3f3"/>
    <path id="Trazado_997881" data-name="Trazado 997881" d="M245.627,165.379H197.962v7.15l-4.767,7.15a9.533,9.533,0,0,1,8.239,4.767H255.16v-9.533A9.533,9.533,0,0,0,245.627,165.379Z" transform="translate(236.122 9165.308)" fill="#ccd3eb"/>
    <path id="Trazado_997883" data-name="Trazado 997883" d="M253.749,165.379H206.084v4.767h47.665a9.533,9.533,0,0,1,9.533,9.533v-4.767A9.533,9.533,0,0,0,253.749,165.379Z" transform="translate(228 9165.308)" fill="#dee3f3"/>
    <path id="Trazado_997905" data-name="Trazado 997905" d="M210.967,184.445a9.533,9.533,0,0,0-7.479-4.714c-.253-.021-.5-.053-.76-.053l4.767-7.15v-7.15h-9.533v7.15l-4.767,7.15a9.545,9.545,0,0,1,8.389,5c-.045-.083-.1-.157-.15-.238Z" transform="translate(236.122 9165.308)" fill="#2b3e5b"/>
    <path id="Trazado_997916" data-name="Trazado 997916" d="M245.627,165.379H197.962v7.15l-4.767,7.15a9.533,9.533,0,0,1,8.239,4.767H255.16v-9.533A9.533,9.533,0,0,0,245.627,165.379Z" transform="translate(236.122 9165.308)" fill="#dee3f3"/>
    <path id="Trazado_997917" data-name="Trazado 997917" d="M253.749,165.379H206.084v4.767h47.665a9.533,9.533,0,0,1,9.533,9.533v-4.767A9.533,9.533,0,0,0,253.749,165.379Z" transform="translate(228 9165.308)" fill="#f0f3ff"/>
    <path id="Trazado_997939" data-name="Trazado 997939" d="M194.963,218.346v-4.767a9.533,9.533,0,0,0-9.533-9.533h-4.557a90.778,90.778,0,0,0,10.248,14.3Z" transform="translate(243.887 9140.94)" fill="#dee3f3"/>
    <path id="Trazado_997942" data-name="Trazado 997942" d="M194.963,218.346v-4.767a9.533,9.533,0,0,0-9.533-9.533h-4.557c.937,1.618,1.906,3.213,2.943,4.767h1.614A9.533,9.533,0,0,1,194.963,218.346Z" transform="translate(243.887 9140.94)" fill="#f0f3ff"/>
    <path id="Trazado_997944" data-name="Trazado 997944" d="M178.628,184.713h-4.767v2.34c.408.813.813,1.628,1.242,2.426h5.115l3.177-4.767Z" transform="translate(248.306 9153.124)" fill="#96a1c3"/>
    <path id="Trazado_997945" data-name="Trazado 997945" d="M182.334,197.6h-5.115c.434.805.9,1.592,1.351,2.383h2.173Z" transform="translate(246.189 9145.001)" fill="#586889"/>
    <path id="Trazado_997946" data-name="Trazado 997946" d="M197.493,189.48l3.177-4.767Z" transform="translate(233.413 9153.124)" fill="#586889"/>
    <path id="Trazado_997947" data-name="Trazado 997947" d="M191.049,189.48h2.383l3.177-4.767h-2.383Z" transform="translate(237.475 9153.124)" fill="#586889"/>
    <path id="Trazado_997948" data-name="Trazado 997948" d="M193.2,199.985l1.589-2.383Z" transform="translate(236.122 9145.001)" fill="#586889"/>
    <path id="Trazado_997949" data-name="Trazado 997949" d="M188.34,197.6l-1.59,2.383h2.383l1.589-2.383Z" transform="translate(240.184 9145.001)" fill="#586889"/>
    <path id="Trazado_997953" data-name="Trazado 997953" d="M171.94,187.053v-2.34h-1.127Q171.359,185.892,171.94,187.053Z" transform="translate(250.227 9153.124)" fill="#586889"/>
    <path id="Trazado_997955" data-name="Trazado 997955" d="M203.817,192.568h7.15a9.533,9.533,0,0,0-7.479-4.714c-.253-.021-.5-.053-.76-.053l4.767-7.15v-2.383h-9.533v2.383L193.2,187.8a9.545,9.545,0,0,1,8.389,5c-.045-.083-.1-.157-.15-.238Z" transform="translate(236.122 9157.186)" fill="#7989af"/>
    <g id="Grupo_1179571" data-name="Grupo 1179571" transform="translate(428.364 9313.562)">
      <ellipse id="Elipse_13714" data-name="Elipse 13714" cx="0.994" cy="1.382" rx="0.994" ry="1.382" transform="translate(2.847 39.564) rotate(-45)" fill="#f6fafd"/>
      <ellipse id="Elipse_13715" data-name="Elipse 13715" cx="0.994" cy="1.382" rx="0.994" ry="1.382" transform="translate(55.825 49.216) rotate(-45)" fill="#f6fafd"/>
      <ellipse id="Elipse_13716" data-name="Elipse 13716" cx="0.984" cy="1.368" rx="0.984" ry="1.368" transform="translate(32.055 1.392) rotate(-45)" fill="#f6fafd"/>
      <ellipse id="Elipse_13717" data-name="Elipse 13717" cx="1.987" cy="2.764" rx="1.987" ry="2.764" transform="translate(42.727 21.242) rotate(-45)" fill="#f6fafd"/>
      <ellipse id="Elipse_13718" data-name="Elipse 13718" cx="1.987" cy="2.764" rx="1.987" ry="2.764" transform="translate(54.761 45.329) rotate(-45)" fill="#f6fafd"/>
      <ellipse id="Elipse_13719" data-name="Elipse 13719" cx="1.966" cy="2.736" rx="1.966" ry="2.736" transform="translate(0 35.669) rotate(-45)" fill="#f6fafd"/>
      <ellipse id="Elipse_13720" data-name="Elipse 13720" cx="3.972" cy="5.528" rx="3.972" ry="5.528" transform="translate(49 23.103) rotate(-45)" fill="#f6fafd"/>
    </g>
    <path id="Trazado_997959" data-name="Trazado 997959" d="M144.365,165.842l2.784-4.173a2.4,2.4,0,0,0,.4-1.322V148.429a2.383,2.383,0,0,0-2.383-2.383h-28.6a2.383,2.383,0,0,0-2.383,2.383v11.916a2.4,2.4,0,0,0,.4,1.322l2.784,4.173a11.9,11.9,0,0,0-7.951,11.187v11.916h4.767v-4.767h33.366v33.366H114.184V193.711h-4.767v30.983a11.93,11.93,0,0,0,11.916,11.916H140.4a11.93,11.93,0,0,0,11.916-11.916V177.029a11.9,11.9,0,0,0-7.951-11.187ZM118.95,150.813h23.833v8.818l-3.658,5.482H133.25v-4.767h4.767v-4.767h-14.3v4.767h4.766v4.767h-5.875l-3.658-5.482Zm-4.767,28.6v-2.383a7.15,7.15,0,0,1,7.15-7.15H140.4a7.15,7.15,0,0,1,7.15,7.15v2.383ZM140.4,231.844H121.333a7.15,7.15,0,0,1-7.15-7.15v-2.383h33.366v2.383A7.15,7.15,0,0,1,140.4,231.844Z" transform="translate(288.918 9177.491)"/>
    <path id="Trazado_997961" data-name="Trazado 997961" d="M268.316,126.683v-5h-4.767v4.767H244.483v-4.767h7.15a2.383,2.383,0,0,0,2.383-2.383v-9.533a2.383,2.383,0,0,0-2.383-2.383H232.567a2.383,2.383,0,0,0-2.383,2.383V119.3a2.383,2.383,0,0,0,2.383,2.383h7.15v4.767h-14.3v4.767h40.515a7.15,7.15,0,0,1,7.15,7.15v7.15h-42.9v4.766h42.9v28.6h4.767V138.362A11.939,11.939,0,0,0,268.316,126.683ZM234.95,112.146h14.3v4.767h-14.3Z" transform="translate(215.816 9201.858)"/>
  </g>
</svg>
