<svg xmlns="http://www.w3.org/2000/svg" xmlns:xlink="http://www.w3.org/1999/xlink" width="165.754" height="131.356" viewBox="0 0 165.754 131.356">
  <defs>
    <linearGradient id="linear-gradient" x1="1.127" y1="1.298" x2="0.238" y2="0.189" gradientUnits="objectBoundingBox">
      <stop offset="0" stop-color="#dae3fe"/>
      <stop offset="1" stop-color="#e9effd"/>
    </linearGradient>
    <linearGradient id="linear-gradient-2" x1="-0.04" y1="0.5" x2="1.04" y2="0.5" gradientUnits="objectBoundingBox">
      <stop offset="0" stop-color="#4f52ff"/>
      <stop offset="1" stop-color="#4042e2"/>
    </linearGradient>
    <linearGradient id="linear-gradient-3" x1="1.216" y1="-0.373" x2="0.354" y2="0.666" gradientUnits="objectBoundingBox">
      <stop offset="0" stop-color="#09005d"/>
      <stop offset="1" stop-color="#1a0f91"/>
    </linearGradient>
    <linearGradient id="linear-gradient-4" x1="0.664" y1="-20.343" x2="0.579" y2="-9.463" xlink:href="#linear-gradient-3"/>
    <linearGradient id="linear-gradient-5" x1="0" y1="0.5" x2="1" y2="0.5" xlink:href="#linear-gradient"/>
    <linearGradient id="linear-gradient-14" x1="-10.895" y1="-0.346" x2="-10.532" y2="0.297" xlink:href="#linear-gradient-3"/>
    <linearGradient id="linear-gradient-15" x1="-10.696" y1="-0.715" x2="-10.144" y2="0.362" gradientUnits="objectBoundingBox">
      <stop offset="0" stop-color="#febbba"/>
      <stop offset="1" stop-color="#ff928e"/>
    </linearGradient>
    <linearGradient id="linear-gradient-16" x1="-29.042" x2="-28.042" xlink:href="#linear-gradient-2"/>
    <linearGradient id="linear-gradient-17" x1="-26.841" y1="1.602" x2="-25.807" y2="-1.187" xlink:href="#linear-gradient-15"/>
    <linearGradient id="linear-gradient-18" x1="-23.309" x2="-22.309" xlink:href="#linear-gradient-2"/>
    <linearGradient id="linear-gradient-19" x1="-9.84" y1="1.698" x2="-9.376" y2="-1.193" xlink:href="#linear-gradient-15"/>
    <linearGradient id="linear-gradient-20" x1="3.32" y1="-0.24" x2="1.915" y2="0.145" gradientUnits="objectBoundingBox">
      <stop offset="0" stop-color="#ff928e"/>
      <stop offset="1" stop-color="#fe7062"/>
    </linearGradient>
    <linearGradient id="linear-gradient-21" x1="-8.658" y1="-0.331" x2="-9.643" y2="0.684" xlink:href="#linear-gradient-2"/>
    <linearGradient id="linear-gradient-22" x1="-35.731" y1="1.857" x2="-35.477" y2="0.807" xlink:href="#linear-gradient-15"/>
    <linearGradient id="linear-gradient-23" x1="-19.371" y1="0.5" x2="-18.371" y2="0.5" xlink:href="#linear-gradient-15"/>
    <linearGradient id="linear-gradient-24" x1="-25.641" y1="-0.76" x2="-24.108" y2="-3.014" xlink:href="#linear-gradient-15"/>
    <linearGradient id="linear-gradient-25" x1="-20.586" y1="-2.137" x2="-19.955" y2="-0.734" xlink:href="#linear-gradient-3"/>
    <linearGradient id="linear-gradient-26" x1="-95.459" y1="-3.171" x2="-89.666" y2="-10.312" xlink:href="#linear-gradient-15"/>
    <linearGradient id="linear-gradient-27" x1="-33.731" y1="-1.254" x2="-32.141" y2="1.753" xlink:href="#linear-gradient-15"/>
    <linearGradient id="linear-gradient-28" x1="0" y1="0.5" x2="1" y2="0.5" xlink:href="#linear-gradient-15"/>
    <linearGradient id="linear-gradient-29" x1="1.03" y1="-0.335" x2="0.542" y2="0.462" xlink:href="#linear-gradient-20"/>
    <linearGradient id="linear-gradient-30" x1="-270.021" y1="-0.166" x2="-288.064" y2="3.358" xlink:href="#linear-gradient-3"/>
    <linearGradient id="linear-gradient-31" x1="-338.677" y1="-0.086" x2="-361.438" y2="3.376" xlink:href="#linear-gradient-3"/>
    <linearGradient id="linear-gradient-32" x1="-298.604" y1="-0.015" x2="-318.822" y2="3.448" xlink:href="#linear-gradient-3"/>
    <linearGradient id="linear-gradient-33" x1="-199.591" y1="0.121" x2="-213.285" y2="3.397" xlink:href="#linear-gradient-3"/>
    <linearGradient id="linear-gradient-34" x1="-463.165" y1="0.174" x2="-495.167" y2="3.699" xlink:href="#linear-gradient-3"/>
    <linearGradient id="linear-gradient-35" x1="-290.846" y1="0.227" x2="-311.06" y2="3.744" xlink:href="#linear-gradient-3"/>
    <linearGradient id="linear-gradient-36" x1="-180.954" y1="-0.19" x2="-192.95" y2="2.95" xlink:href="#linear-gradient-3"/>
    <linearGradient id="linear-gradient-37" x1="0.964" y1="-0.014" x2="0.269" y2="0.795" xlink:href="#linear-gradient-20"/>
    <linearGradient id="linear-gradient-38" x1="-380.524" y1="-0.166" x2="-398.567" y2="3.358" xlink:href="#linear-gradient-3"/>
    <linearGradient id="linear-gradient-39" x1="-478.082" y1="-0.086" x2="-500.844" y2="3.376" xlink:href="#linear-gradient-3"/>
    <linearGradient id="linear-gradient-40" x1="-422.442" y1="-0.015" x2="-442.66" y2="3.448" xlink:href="#linear-gradient-3"/>
    <linearGradient id="linear-gradient-41" x1="-283.465" y1="0.121" x2="-297.159" y2="3.397" xlink:href="#linear-gradient-3"/>
    <linearGradient id="linear-gradient-42" x1="-659.205" y1="0.174" x2="-691.209" y2="3.699" xlink:href="#linear-gradient-3"/>
    <linearGradient id="linear-gradient-43" x1="-414.613" y1="0.227" x2="-434.826" y2="3.744" xlink:href="#linear-gradient-3"/>
    <linearGradient id="linear-gradient-44" x1="-254.425" y1="-0.19" x2="-266.421" y2="2.95" xlink:href="#linear-gradient-3"/>
    <linearGradient id="linear-gradient-45" x1="0.739" y1="-0.032" x2="0.313" y2="0.985" xlink:href="#linear-gradient-20"/>
    <linearGradient id="linear-gradient-46" x1="-342.647" y1="-0.167" x2="-363.56" y2="3.363" xlink:href="#linear-gradient-3"/>
    <linearGradient id="linear-gradient-47" x1="-430.423" y1="-0.086" x2="-456.736" y2="3.373" xlink:href="#linear-gradient-3"/>
    <linearGradient id="linear-gradient-48" x1="-380.142" y1="-0.016" x2="-403.545" y2="3.449" xlink:href="#linear-gradient-3"/>
    <linearGradient id="linear-gradient-49" x1="-254.888" y1="0.123" x2="-270.657" y2="3.383" xlink:href="#linear-gradient-3"/>
    <linearGradient id="linear-gradient-50" x1="-592.483" y1="0.176" x2="-629.373" y2="3.687" xlink:href="#linear-gradient-3"/>
    <linearGradient id="linear-gradient-51" x1="-372.546" y1="0.227" x2="-395.941" y2="3.745" xlink:href="#linear-gradient-3"/>
    <linearGradient id="linear-gradient-52" x1="-229.19" y1="-0.189" x2="-243.035" y2="2.944" xlink:href="#linear-gradient-3"/>
  </defs>
  <g id="Grupo_1180398" data-name="Grupo 1180398" transform="translate(-66.246 -4805.729)">
    <g id="Grupo_1177285" data-name="Grupo 1177285" transform="translate(66.246 4872)" opacity="0.37">
      <g id="Grupo_1177267" data-name="Grupo 1177267" transform="translate(43.778 0)">
        <path id="Polígono_14" data-name="Polígono 14" d="M20.92,0l6.973,12.785L20.92,25.569H6.973L0,12.785,6.973,0Z" transform="translate(0 39.516)" fill="#2c2e8c" opacity="0.36"/>
        <path id="Polígono_15" data-name="Polígono 15" d="M20.92,0l6.973,12.785L20.92,25.569H6.973L0,12.785,6.973,0Z" transform="translate(0 13.172)" fill="#2c2e8c" opacity="0.36"/>
        <g id="Grupo_1177266" data-name="Grupo 1177266" transform="translate(22.083)" opacity="0.36">
          <path id="Polígono_16" data-name="Polígono 16" d="M20.92,0l6.973,12.785L20.92,25.569H6.973L0,12.785,6.973,0Z" transform="translate(0 26.344)" fill="#2c2e8c" opacity="0.56"/>
          <path id="Polígono_17" data-name="Polígono 17" d="M20.92,0l6.973,12.785L20.92,25.569H6.973L0,12.785,6.973,0Z" transform="translate(0)" fill="#2c2e8c" opacity="0.56"/>
        </g>
      </g>
      <g id="Grupo_1177268" data-name="Grupo 1177268" transform="translate(0 0)">
        <path id="Polígono_14-2" data-name="Polígono 14" d="M20.92,0l6.973,12.785L20.92,25.569H6.973L0,12.785,6.973,0Z" transform="translate(0 39.516)" fill="#2c2e8c" opacity="0.36"/>
        <path id="Polígono_15-2" data-name="Polígono 15" d="M20.92,0l6.973,12.785L20.92,25.569H6.973L0,12.785,6.973,0Z" transform="translate(0 13.172)" fill="#2c2e8c" opacity="0.36"/>
        <g id="Grupo_1177266-2" data-name="Grupo 1177266" transform="translate(22.083)" opacity="0.36">
          <path id="Polígono_16-2" data-name="Polígono 16" d="M20.92,0l6.973,12.785L20.92,25.569H6.973L0,12.785,6.973,0Z" transform="translate(0 26.344)" fill="#2c2e8c" opacity="0.56"/>
          <path id="Polígono_17-2" data-name="Polígono 17" d="M20.92,0l6.973,12.785L20.92,25.569H6.973L0,12.785,6.973,0Z" transform="translate(0)" fill="#2c2e8c" opacity="0.56"/>
        </g>
      </g>
    </g>
    <g id="Grupo_1180397" data-name="Grupo 1180397" transform="translate(-263.319 -17.323)">
      <g id="Grupo_1180215" data-name="Grupo 1180215" transform="translate(-85.862 4368.052)">
        <path id="Trazado_999076" data-name="Trazado 999076" d="M576.733,575.245a46.8,46.8,0,0,1-7.176,5.987c-23.411,16.643-51.112,11.791-57,10.607-8.694-1.749-25.5-5.131-37.648-19.287-18.381-21.416-15.519-55.157-1.261-77.43,2.608-4.074,16.384-26.686,44.384-30.312,16.945-2.195,36.7,2.232,51,14.105C599.059,503.837,596.922,554.187,576.733,575.245Z" transform="translate(-13.549 -8.836)" fill="url(#linear-gradient)"/>
        <g id="Grupo_1180191" data-name="Grupo 1180191" transform="translate(447.822 455)">
          <path id="Trazado_999077" data-name="Trazado 999077" d="M475.8,478.6c-.686-3.937,10.039-10.562,6.985-18.474l-8-3.024s.844,10.655-1.895,14.525-4.471,1.34-3.985-1.507,4.993-9.861,3.319-13.006c0,0-1.345-2.481-4.165-.14s-8.849.119-10.721-1.972c0,0,.049,1.647-1.594,5.423s-3.568,7.459-.285,9.2,8.3,2.289,8.213,4.577-9.436,3.206-12.215-3.651c0,0-3.072,5.806-2.482,7.771s4.059,4.051,9.551,2.837,8.37-.126,8.3,1.591-16.518,2.851-18.429-2.9c0,0-1.01,12.2-.355,13.608s7.835,1.414,12.132-.252,8.61-.035,9.541,1.478-4.872.48-7.544,1.405-14.253-.163-14.253-.163,1.372.906,1.644,5.074,3.157,10.871,5.7,10.285,14.016-5.733,17.961-5.983,7.166.387,5.37,1.837-6.884,1.849-10.447,3.212-12.284,6-14.4,4.427c0,0,3.558,10.636,14.052,11.507a21.957,21.957,0,0,0,7.434-7.447c2.545-4.651,3.821-6.491,5.643-6.189s.033,3.5-1.628,6.352-5.388,9.576-7.857,10c0,0,15.872.388,17.982-10.234,1.979-9.961.94-11.19.8-11.3.539.388,16.937,12,22.953-9.714,0,0-2.758,4.57-6.313,4.194s-9.184,2.527-9.248-.013,12.844-1.144,15.237-6.045-.351-12.766-6.019-14.786a10.287,10.287,0,0,1-4.417,8.13c-4.529,3.126-11.483,6.11-10.023,2.017S507,481.229,507.545,477.6,497.1,467.177,497.1,467.177s-.144,1.917-2.939,7.774-7.18,11.941-7.937,10.3,2.386-5.41,5.067-8.886,4.044-9.008,2.272-10.525-8.3-4.777-8.3-4.777-2.086,8.207-2.669,12.014S476.484,482.534,475.8,478.6Zm13.972,20.758c-3.593,3.859-3.562-.6-2.891-3.6C487.388,493.475,493.363,495.5,489.77,499.356Zm-5.784-8.178c-2.319,2.607-4.089,2.245-3.9.315C480.52,487.059,486.3,488.57,483.986,491.177Zm-7.114-7.916c-1.166,1.495-2,1.76-2.739-.261S478.038,481.767,476.872,483.262Z" transform="translate(-447.822 -455)" fill="#bdd0fb"/>
        </g>
        <g id="Grupo_1180193" data-name="Grupo 1180193" transform="translate(454.628 457.718)">
          <ellipse id="Elipse_13767" data-name="Elipse 13767" cx="56.386" cy="60.863" rx="56.386" ry="60.863" transform="translate(0 112.662) rotate(-87.486)" fill="url(#linear-gradient-2)"/>
          <ellipse id="Elipse_13768" data-name="Elipse 13768" cx="47.758" cy="45.116" rx="47.758" ry="45.116" transform="translate(12.225 9.816)" fill="#fff" opacity="0.11"/>
          <g id="Grupo_1180192" data-name="Grupo 1180192" transform="translate(7.92 4.079)" opacity="0.68">
            <path id="Trazado_999078" data-name="Trazado 999078" d="M1649.938,662.528a170.265,170.265,0,0,1-2.449,29.714c-.444,2.449-.958,4.886-1.571,7.3a70.346,70.346,0,0,1-2.194,7.144,33.855,33.855,0,0,1-3.272,6.733,13.446,13.446,0,0,1-2.456,2.865,7,7,0,0,1-1.608,1.036,4.816,4.816,0,0,1-1.877.442,4.734,4.734,0,0,1-1.9-.349,6.571,6.571,0,0,1-1.645-.979,12.766,12.766,0,0,1-2.509-2.82,32.77,32.77,0,0,1-3.32-6.71,68.755,68.755,0,0,1-2.217-7.137c-.619-2.413-1.139-4.849-1.586-7.3-.893-4.9-1.5-9.842-1.913-14.8s-.612-9.934-.638-14.909c-.012-2.487.056-4.974.144-7.46s.23-4.969.413-7.45c.368-4.96.917-9.91,1.734-14.818.41-2.454.888-4.9,1.463-7.319a70.4,70.4,0,0,1,2.077-7.172c.418-1.174.874-2.335,1.395-3.469a25.346,25.346,0,0,1,1.786-3.291,12.268,12.268,0,0,1,2.454-2.838,6.271,6.271,0,0,1,1.623-.972,4.579,4.579,0,0,1,1.866-.331,4.948,4.948,0,0,1,1.844.432,7.2,7.2,0,0,1,1.6,1,13.681,13.681,0,0,1,2.507,2.789,33.587,33.587,0,0,1,3.439,6.632,68.037,68.037,0,0,1,2.357,7.086c.664,2.4,1.226,4.825,1.712,7.266A155.921,155.921,0,0,1,1649.938,662.528Zm-.736,0q.014-7.433-.591-14.85a143.114,143.114,0,0,0-1.937-14.731c-.458-2.434-.991-4.855-1.625-7.248a67.547,67.547,0,0,0-2.265-7.067,33.26,33.26,0,0,0-3.331-6.6,13.413,13.413,0,0,0-2.426-2.76,6.961,6.961,0,0,0-1.537-.983,4.6,4.6,0,0,0-1.755-.428,4.309,4.309,0,0,0-1.771.333,6.02,6.02,0,0,0-1.549.952,12,12,0,0,0-2.367,2.8,25.013,25.013,0,0,0-1.727,3.269c-.5,1.128-.943,2.285-1.345,3.454a70,70,0,0,0-1.986,7.152c-.546,2.416-.995,4.853-1.376,7.3-.76,4.9-1.254,9.834-1.566,14.78s-.425,9.9-.416,14.861q-.02,7.433.521,14.853c.371,4.941.94,9.869,1.791,14.749.426,2.439.925,4.866,1.521,7.268a68.233,68.233,0,0,0,2.145,7.1,32.319,32.319,0,0,0,3.218,6.637,12.357,12.357,0,0,0,2.4,2.744,6.17,6.17,0,0,0,1.536.932,4.239,4.239,0,0,0,1.737.33,4.417,4.417,0,0,0,1.719-.421,6.589,6.589,0,0,0,1.5-.988,13.029,13.029,0,0,0,2.352-2.791,33.4,33.4,0,0,0,3.171-6.663,69.854,69.854,0,0,0,2.12-7.106c.59-2.4,1.082-4.832,1.5-7.272.845-4.881,1.407-9.81,1.78-14.75S1649.2,667.484,1649.2,662.528Z" transform="translate(-1579.033 -607.334)" fill="#fff" style="mix-blend-mode: soft-light;isolation: isolate"/>
            <path id="Trazado_999079" data-name="Trazado 999079" d="M1095.115,656.29a72.5,72.5,0,0,1-2.572,18.987,61.129,61.129,0,0,1-7.944,17.411,50.143,50.143,0,0,1-6.067,7.43,42.573,42.573,0,0,1-7.469,6.013,36,36,0,0,1-8.714,3.984,32.593,32.593,0,0,1-18.949.008,36.017,36.017,0,0,1-8.721-3.978,42.6,42.6,0,0,1-7.479-6.008,50.178,50.178,0,0,1-6.079-7.428,61.218,61.218,0,0,1-7.965-17.418,68.965,68.965,0,0,1-1.928-9.414,70.794,70.794,0,0,1,.006-19.174,68.933,68.933,0,0,1,1.935-9.411,61.2,61.2,0,0,1,7.975-17.406,50.153,50.153,0,0,1,6.08-7.42,42.471,42.471,0,0,1,7.477-6,36.162,36.162,0,0,1,8.714-3.963,32.363,32.363,0,0,1,18.919.008,36.134,36.134,0,0,1,8.708,3.97,42.431,42.431,0,0,1,7.466,6,50.119,50.119,0,0,1,6.068,7.422,61.1,61.1,0,0,1,7.954,17.4A72.5,72.5,0,0,1,1095.115,656.29Zm-.844,0a71.7,71.7,0,0,0-2.469-18.782,60.862,60.862,0,0,0-7.691-17.292,49.6,49.6,0,0,0-5.93-7.408,41.431,41.431,0,0,0-7.336-6.014,35.438,35.438,0,0,0-8.6-3.977,31.561,31.561,0,0,0-18.731.008,35.417,35.417,0,0,0-8.6,3.984,41.4,41.4,0,0,0-7.325,6.019,49.575,49.575,0,0,0-5.919,7.41,60.774,60.774,0,0,0-7.67,17.286,69.426,69.426,0,0,0-1.844,9.3,72.347,72.347,0,0,0,.006,18.928,69.4,69.4,0,0,0,1.851,9.3,60.747,60.747,0,0,0,7.681,17.274,49.547,49.547,0,0,0,5.919,7.4,41.261,41.261,0,0,0,7.323,6.008,35.558,35.558,0,0,0,8.59,3.969,31.338,31.338,0,0,0,18.7.008,35.573,35.573,0,0,0,8.6-3.963,41.311,41.311,0,0,0,7.333-6,49.568,49.568,0,0,0,5.931-7.4,60.829,60.829,0,0,0,7.7-17.28A71.69,71.69,0,0,0,1094.271,656.29Z" transform="translate(-999.122 -601.096)" fill="#fff" style="mix-blend-mode: soft-light;isolation: isolate"/>
            <path id="Trazado_999080" data-name="Trazado 999080" d="M859.148,1313.49a.055.055,0,0,1,0-.111l12.685-.1,12.685-.058,25.37-.047,25.37.052,12.685.063,12.685.111a.037.037,0,0,1,0,.074l-12.685.111-12.685.063-25.37.052-25.37-.047-12.685-.058Z" transform="translate(-854.685 -1280.043)" fill="#fff" style="mix-blend-mode: soft-light;isolation: isolate"/>
            <path id="Trazado_999081" data-name="Trazado 999081" d="M1175.408,856.769a.056.056,0,0,1,.055-.055c3-.047,6-.068,9.006-.1l9.006-.058c3-.025,6-.022,9.006-.03l9.006-.017,18.012.052,9.006.063c3,.038,6,.06,9.006.111a.037.037,0,0,1,0,.075c-3,.051-6,.073-9.006.111l-9.006.063-18.012.052-9.006-.017c-3-.008-6-.005-9.006-.03l-9.006-.058c-3-.035-6-.055-9.006-.1A.055.055,0,0,1,1175.408,856.769Z" transform="translate(-1156.283 -844.624)" fill="#fff" style="mix-blend-mode: soft-light;isolation: isolate"/>
            <path id="Trazado_999082" data-name="Trazado 999082" d="M764.4,1770.154a.055.055,0,0,1,0-.111l13.787-.1,13.787-.058,27.574-.047,27.574.052,13.787.063,13.787.111a.037.037,0,0,1,0,.074l-13.787.111-13.787.064-27.574.052-27.574-.047-13.787-.058Z" transform="translate(-764.343 -1715.46)" fill="#fff" style="mix-blend-mode: soft-light;isolation: isolate"/>
            <path id="Trazado_999083" data-name="Trazado 999083" d="M859.148,2226.708l12.685-.1,12.685-.058,25.37-.047,25.37.052,12.685.063,12.685.111a.037.037,0,0,1,0,.074l-12.685.111-12.685.063-25.37.052-25.37-.047-12.685-.058-12.685-.1a.055.055,0,0,1,0-.111Z" transform="translate(-854.685 -2150.879)" fill="#fff" style="mix-blend-mode: soft-light;isolation: isolate"/>
            <path id="Trazado_999084" data-name="Trazado 999084" d="M1283.854,2684.832a.194.194,0,0,1-.194.194h-72.048a.194.194,0,1,1,0-.389h72.048A.194.194,0,0,1,1283.854,2684.832Z" transform="translate(-1190.617 -2587.7)" fill="#fff" style="mix-blend-mode: soft-light;isolation: isolate"/>
          </g>
        </g>
        <g id="Grupo_1180195" data-name="Grupo 1180195" transform="translate(539.302 501.439)">
          <path id="Trazado_999085" data-name="Trazado 999085" d="M2417,1729.81a2.707,2.707,0,1,1-2.917,2.479A2.71,2.71,0,0,1,2417,1729.81Zm-.087,1.071a1.632,1.632,0,1,0,1.495,1.759A1.634,1.634,0,0,0,2416.918,1730.881Z" transform="translate(-2414.079 -1716.93)" fill="#fff"/>
          <g id="Grupo_1180194" data-name="Grupo 1180194" transform="translate(2.18 0)">
            <path id="Trazado_999086" data-name="Trazado 999086" d="M2467.214,1637.121a5.78,5.78,0,0,0-5.288-6.222,5.584,5.584,0,0,0-.584-.016.394.394,0,0,1-.4-.481l.193-.827a.4.4,0,0,1,.39-.3c.176,0,.353.009.531.023a7.393,7.393,0,0,1,6.763,7.958,7.243,7.243,0,0,1-.131.9.4.4,0,0,1-.484.3l-.8-.2a.391.391,0,0,1-.287-.458A5.492,5.492,0,0,0,2467.214,1637.121Z" transform="translate(-2460.932 -1621.076)" fill="#fff"/>
            <path id="Trazado_999087" data-name="Trazado 999087" d="M2491.108,1553.118a9.947,9.947,0,0,0-9.1-10.708h0a.39.39,0,0,1-.353-.476l.189-.812.42-.307a11.533,11.533,0,0,1,10.2,14.045.391.391,0,0,1-.479.287l-.8-.2a.39.39,0,0,1-.287-.461A9.858,9.858,0,0,0,2491.108,1553.118Z" transform="translate(-2480.677 -1536.736)" fill="#fff"/>
            <path id="Trazado_999088" data-name="Trazado 999088" d="M2514.8,1469.866a14.114,14.114,0,0,0-12.312-15.129.394.394,0,0,1-.34-.479l.188-.805a.394.394,0,0,1,.431-.3,15.685,15.685,0,0,1,13.275,19.148.393.393,0,0,1-.48.287l-.8-.2a.393.393,0,0,1-.283-.473A13.965,13.965,0,0,0,2514.8,1469.866Z" transform="translate(-2500.22 -1453.147)" fill="#fff"/>
          </g>
        </g>
        <g id="Grupo_1180396" data-name="Grupo 1180396">
          <g id="Grupo_1180204" data-name="Grupo 1180204" transform="translate(465.66 465.456)">
            <g id="Grupo_1180196" data-name="Grupo 1180196" transform="translate(0 0)">
              <path id="Trazado_999089" data-name="Trazado 999089" d="M901.949,794.114a4.375,4.375,0,0,1-4.458,4.211l-58.954.128a4.458,4.458,0,0,1-4.554-4.208L831.236,684.44a4.563,4.563,0,0,1,4.6-4.71l62.579.3a4.67,4.67,0,0,1,4.638,4.734Z" transform="translate(-831.234 -679.73)" fill="url(#linear-gradient-3)"/>
              <path id="Trazado_999090" data-name="Trazado 999090" d="M1031.336,826.045a4.576,4.576,0,0,0-4.6-4.568l-49.668-.218a4.471,4.471,0,0,0-4.56,4.543l2.042,93.361a4.394,4.394,0,0,0,4.517,4.13l47.187-.075a4.311,4.311,0,0,0,4.428-4.13Z" transform="translate(-965.936 -814.674)" fill="#7d97f4"/>
              <path id="Trazado_999091" data-name="Trazado 999091" d="M1464.127,730.192a.871.871,0,0,1-.874.877l-12.926-.059a.9.9,0,0,1-.889-.886h0a.864.864,0,0,1,.869-.879l12.941.06a.888.888,0,0,1,.88.886Z" transform="translate(-1420.675 -726.941)" fill="url(#linear-gradient-4)"/>
            </g>
            <g id="Grupo_1180197" data-name="Grupo 1180197" transform="translate(10.034 11.174)" opacity="0.27">
              <path id="Trazado_999092" data-name="Trazado 999092" d="M2008.827,2195.983l7.446-7.393-.276,15.6-7.154-8.186Z" transform="translate(-1964.073 -2129.564)" fill="url(#linear-gradient-5)"/>
              <path id="Trazado_999093" data-name="Trazado 999093" d="M1760.7,2424.249l10.524,12.05.107.123-.3,9.548a3.385,3.385,0,0,1-1.291,2.449,4.476,4.476,0,0,1-2.5,1l-14.87-16.892Z" transform="translate(-1719.539 -2354.259)" fill="url(#linear-gradient-5)"/>
              <path id="Trazado_999094" data-name="Trazado 999094" d="M1421.795,1408.119l-8.5,8.473-3.585,3.575-8.337,8.31-13.706-15.566,0,0,8.3-8.418h-.024l-.045-.024v0l3.619-3.625.034,0,.009,0,.006,0,.006,0,8.5-8.612,16.947-17.139-.64,28.115Z" transform="translate(-1371.813 -1353.912)" fill="url(#linear-gradient-5)"/>
              <path id="Trazado_999095" data-name="Trazado 999095" d="M1411.239,2690.96l-25.363.019,13.519-13.424Z" transform="translate(-1370.105 -2595.78)" fill="url(#linear-gradient-5)"/>
              <path id="Trazado_999096" data-name="Trazado 999096" d="M1124.407,2280.346l-17.172,17.119h-1.569a4.425,4.425,0,0,1-2.819-.985,3.288,3.288,0,0,1-1.244-2.394l-.714-19.3,9.815-9.95Z" transform="translate(-1098.377 -2202.261)" fill="url(#linear-gradient-5)"/>
              <path id="Trazado_999097" data-name="Trazado 999097" d="M1091.226,2015.135l-6.744,6.871-.548-15.117,7.285,8.245Z" transform="translate(-1082.212 -1956.317)" fill="#fff"/>
              <path id="Trazado_999098" data-name="Trazado 999098" d="M1553.372,950.674l-13.629-15.849,14.359-14.856,11.852-.076a4.347,4.347,0,0,1,4.433,4.478l-.225,9.216Z" transform="translate(-1516.814 -919.893)" fill="url(#linear-gradient-5)"/>
              <path id="Trazado_999099" data-name="Trazado 999099" d="M1268.327,922.665l19.717-.127-10.47,10.877Z" transform="translate(-1258.026 -922.415)" fill="url(#linear-gradient-5)"/>
              <path id="Trazado_999100" data-name="Trazado 999100" d="M1092.756,1321.4l13.626,15.788-8.494,8.645-3.574,3.639-8.2,8.464-10.982-12.634v0l-.362-5.176-.03-.028Z" transform="translate(-1073.449 -1302.72)" fill="url(#linear-gradient-5)"/>
              <path id="Trazado_999101" data-name="Trazado 999101" d="M1050.432,928.178l12.406,14.377-14.98,15.559-.943-25.422A4.427,4.427,0,0,1,1050.432,928.178Z" transform="translate(-1046.913 -927.793)" fill="url(#linear-gradient-5)"/>
            </g>
            <g id="Grupo_1180198" data-name="Grupo 1180198" transform="translate(13.168 16.076)">
              <rect id="Rectángulo_455548" data-name="Rectángulo 455548" width="22.999" height="1.388" rx="0.694" fill="#fff"/>
              <rect id="Rectángulo_455549" data-name="Rectángulo 455549" width="22.999" height="1.388" rx="0.694" transform="translate(0 3.767)" fill="#fff"/>
              <rect id="Rectángulo_455550" data-name="Rectángulo 455550" width="22.999" height="1.388" rx="0.694" transform="translate(0 7.534)" fill="#fff"/>
            </g>
            <g id="Grupo_1180203" data-name="Grupo 1180203" transform="translate(44.94 5.875)">
              <g id="Grupo_1180201" data-name="Grupo 1180201">
                <g id="Grupo_1180199" data-name="Grupo 1180199">
                  <path id="Trazado_999102" data-name="Trazado 999102" d="M1803.3,823.615a2.08,2.08,0,0,1-1.848-1.094c-1.953-3.563-4.282-8.255-4.282-10.374a6.13,6.13,0,1,1,12.26,0c0,2.119-2.329,6.811-4.283,10.374A2.08,2.08,0,0,1,1803.3,823.615Zm0-16.617a5.154,5.154,0,0,0-5.148,5.148c0,1.469,1.517,5.079,4.161,9.9a1.125,1.125,0,0,0,1.973,0c2.645-4.823,4.161-8.433,4.161-9.9A5.154,5.154,0,0,0,1803.3,807Z" transform="translate(-1797.17 -806.016)" fill="#fff"/>
                </g>
                <g id="Grupo_1180200" data-name="Grupo 1180200" transform="translate(2.413 2.549)">
                  <path id="Trazado_999103" data-name="Trazado 999103" d="M1852.757,868.229a3.717,3.717,0,1,1,3.717-3.717A3.721,3.721,0,0,1,1852.757,868.229Zm0-6.452a2.735,2.735,0,1,0,2.735,2.735A2.738,2.738,0,0,0,1852.757,861.777Z" transform="translate(-1849.04 -860.795)" fill="#fff"/>
                </g>
              </g>
              <g id="Grupo_1180202" data-name="Grupo 1180202" transform="translate(3.289 19.171)">
                <circle id="Elipse_13769" data-name="Elipse 13769" cx="2.333" cy="2.333" r="2.333" transform="translate(0 4.541) rotate(-76.717)" fill="#fff"/>
              </g>
            </g>
            <path id="Trazado_999104" data-name="Trazado 999104" d="M1352.509,1395.1a.549.549,0,0,1-.409-.181l-1.058-1.167a.551.551,0,1,1,.817-.74l1.058,1.167a.551.551,0,0,1-.408.921Zm-2.644-2.918a.549.549,0,0,1-.409-.181l-1.058-1.167a.551.551,0,1,1,.817-.74l1.058,1.167a.551.551,0,0,1-.408.922Zm-2.644-2.918a.55.55,0,0,1-.409-.181l-1.058-1.167a.551.551,0,1,1,.817-.74l1.058,1.167a.551.551,0,0,1-.408.921Zm-2.644-2.918a.549.549,0,0,1-.409-.181L1343.11,1385a.551.551,0,1,1,.817-.74l1.058,1.167a.552.552,0,0,1-.408.922Zm-2.644-2.918a.55.55,0,0,1-.409-.181l-1.058-1.167a.551.551,0,0,1,.817-.74l1.058,1.167a.551.551,0,0,1-.408.921Zm-2.644-2.918a.55.55,0,0,1-.409-.181l-1.057-1.167a.551.551,0,1,1,.817-.74l1.058,1.167a.551.551,0,0,1-.408.922Zm-2.644-2.918a.55.55,0,0,1-.409-.181l-1.057-1.167a.551.551,0,1,1,.817-.74l1.057,1.167a.551.551,0,0,1-.408.922Zm-2.644-2.918a.55.55,0,0,1-.409-.181l-1.058-1.167a.551.551,0,1,1,.817-.74l1.058,1.167a.551.551,0,0,1-.408.922Zm-2.644-2.918a.55.55,0,0,1-.409-.181l-1.058-1.167a.551.551,0,1,1,.817-.74l1.058,1.167a.551.551,0,0,1-.408.921Zm-2.644-2.918a.55.55,0,0,1-.409-.181l-1.058-1.167a.551.551,0,0,1,.817-.74l1.057,1.167a.551.551,0,0,1-.408.922Zm-2.644-2.918a.55.55,0,0,1-.409-.181l-1.057-1.167a.551.551,0,1,1,.817-.74l1.058,1.167a.551.551,0,0,1-.408.921Zm-2.644-2.918a.549.549,0,0,1-.409-.181l-1.058-1.167a.551.551,0,1,1,.817-.74l1.058,1.167a.551.551,0,0,1-.408.922Zm-2.571-2.974a.551.551,0,0,1-.488-.294,3.49,3.49,0,0,1-.4-1.623c0-.061,0-.122,0-.182a.551.551,0,0,1,1.1.056c0,.042,0,.084,0,.126a2.38,2.38,0,0,0,.274,1.108.551.551,0,0,1-.487.809Zm.669-3.593a.551.551,0,0,1-.4-.933l1.091-1.136a.551.551,0,0,1,.8.764l-1.091,1.136A.55.55,0,0,1,1321.523,1356.437Zm2.728-2.84a.551.551,0,0,1-.4-.933l1.091-1.136a.551.551,0,0,1,.8.764l-1.091,1.136A.549.549,0,0,1,1324.251,1353.6Zm2.728-2.84a.551.551,0,0,1-.4-.933l1.091-1.136a.551.551,0,0,1,.8.764l-1.091,1.136A.55.55,0,0,1,1326.979,1350.757Zm2.728-2.84a.551.551,0,0,1-.4-.933l1.091-1.136a.551.551,0,0,1,.8.764l-1.091,1.136A.55.55,0,0,1,1329.707,1347.918Zm2.728-2.84a.551.551,0,0,1-.4-.933l1.091-1.136a.551.551,0,0,1,.8.764l-1.091,1.136A.549.549,0,0,1,1332.435,1345.078Zm2.728-2.84a.551.551,0,0,1-.4-.933l1.091-1.136a.551.551,0,0,1,.8.764l-1.091,1.136A.55.55,0,0,1,1335.163,1342.238Zm2.728-2.84a.551.551,0,0,1-.4-.933l1.091-1.136a.551.551,0,0,1,.8.764l-1.091,1.136A.55.55,0,0,1,1337.891,1339.4Zm2.728-2.84a.551.551,0,0,1-.4-.933l1.091-1.136a.551.551,0,0,1,.8.764l-1.091,1.136A.549.549,0,0,1,1340.619,1336.559Zm2.728-2.84a.551.551,0,0,1-.4-.933l1.091-1.136a.551.551,0,0,1,.8.764l-1.091,1.136A.551.551,0,0,1,1343.346,1333.719Zm2.728-2.84a.551.551,0,0,1-.4-.933l1.091-1.136a.551.551,0,0,1,.8.764l-1.091,1.136A.55.55,0,0,1,1346.074,1330.879Zm2.728-2.84a.551.551,0,0,1-.4-.933l1.091-1.136a.551.551,0,1,1,.8.764l-1.091,1.136A.55.55,0,0,1,1348.8,1328.04Zm2.728-2.84a.551.551,0,0,1-.4-.933l1.033-1.075.047-.051a.551.551,0,0,1,.817.741l-.069.074-1.032,1.074A.549.549,0,0,1,1351.53,1325.2Zm1.845-3.308a.551.551,0,0,1-.549-.515,2.384,2.384,0,0,0-.415-1.194.551.551,0,1,1,.908-.625,3.489,3.489,0,0,1,.607,1.746.551.551,0,0,1-.514.587Zm-2.047-3.263a.55.55,0,0,1-.416-.189l-.735-.844a.551.551,0,0,1,.832-.724l.735.844a.551.551,0,0,1-.416.913Z" transform="translate(-1297.226 -1287.047)" fill="#fff"/>
          </g>
        </g>
        <g id="Grupo_1180207" data-name="Grupo 1180207" transform="translate(462.815 497.243)">
          <path id="Trazado_999105" data-name="Trazado 999105" d="M974.486,1525.145s-1.785.868-2.113,1.865c-.263.8-2.237.9-2.432,2.477a1.806,1.806,0,0,1-1.511,1.587c-2.015.309-5.121,1.355-5.618,4.855-.379,2.671.982,3.684,2.411,4.034a2.024,2.024,0,0,1,1.535,2.338c-.2,1.016.1,2.191,1.861,3.12,3.946,2.082,7.886-4.932,7.886-4.932l.807-12.247Z" transform="translate(-953.785 -1517.6)" fill="url(#linear-gradient-14)"/>
          <path id="Trazado_999106" data-name="Trazado 999106" d="M1323.071,1462.738s-7.878,12.461-17.246,14.868c0,0,1.825,5.2,3.234,5.794,0,0,11.525-9.616,14.487-18.891Z" transform="translate(-1280.9 -1458.096)" fill="url(#linear-gradient-15)"/>
          <path id="Trazado_999107" data-name="Trazado 999107" d="M774.573,3159.294l-.255,2.1a.867.867,0,0,1-.76.759,13.414,13.414,0,0,1-2.809.044.742.742,0,0,1-.624-.963,7.645,7.645,0,0,1,1.408-2.742h2.328A.717.717,0,0,1,774.573,3159.294Z" transform="translate(-770.089 -3074.954)" fill="url(#linear-gradient-16)"/>
          <path id="Trazado_999108" data-name="Trazado 999108" d="M1166.359,2647.277l.393,2.312s-1.316,13.331-1.55,18.663a4.177,4.177,0,0,0,.618,2.375l2.288,3.716-5.816-3.432-.116-.71.952-1.309-1.247-14.934a4.583,4.583,0,0,1,.521-2.534l1.2-2.26Z" transform="translate(-1143.638 -2587.525)" fill="url(#linear-gradient-17)"/>
          <path id="Trazado_999109" data-name="Trazado 999109" d="M1165.481,3127.509h-1.856a1.118,1.118,0,0,1-.887-.435c-.579-.752-1.777-2.219-2.351-2.257-.772-.052-.673,2.692-.673,2.692h-.433l-.548-3.409a2.018,2.018,0,0,1,1.059-2.109,2.854,2.854,0,0,0,1.133,1.882c.957.577,3.892,2.643,3.892,2.643a2.652,2.652,0,0,1,.754.02A.491.491,0,0,1,1165.481,3127.509Z" transform="translate(-1140.628 -3040.153)" fill="url(#linear-gradient-18)"/>
          <path id="Trazado_999110" data-name="Trazado 999110" d="M801.554,2651.188s-7.71,14.625-8.936,17.964a32.082,32.082,0,0,0-1.671,6.388c-.026.412-.538.807-1.951.807a1.356,1.356,0,0,1-1.261-.575.825.825,0,0,1-.031-.8c.446-.9,1.861-3.787,2.385-5.095.626-1.562,1.972-8.641,2.71-11.1s1.573-5.131,4.788-7.59C797.587,2651.188,799.794,2649.026,801.554,2651.188Z" transform="translate(-786.8 -2590.337)" fill="url(#linear-gradient-19)"/>
          <path id="Trazado_999111" data-name="Trazado 999111" d="M1129.41,1794.412c1.989-8.427-3.05-13.194-3.05-13.194,3.179-3.052,8.971-4.44,8.971-4.44s5.527,4.041,4.871,7.2c-.384,1.854-3.885,11.1-3.885,11.1A7.692,7.692,0,0,1,1129.41,1794.412Z" transform="translate(-1109.784 -1757.526)" fill="url(#linear-gradient-20)"/>
          <path id="Trazado_999112" data-name="Trazado 999112" d="M1001.358,2159.972c.809-2.438,4.41-4.172,4.41-4.172a7.692,7.692,0,0,0,6.908.673,13.856,13.856,0,0,1,.225,5.354c-.5,2.578-3.645,19.151-3.645,19.151-4.953,1-12.571-1.01-12.571-1.01C999.84,2174.366,1000.549,2162.411,1001.358,2159.972Z" transform="translate(-986.143 -2118.914)" fill="url(#linear-gradient-21)"/>
          <path id="Trazado_999113" data-name="Trazado 999113" d="M1207.87,1642.883l-1.617,7.263c-.155.64.428.535,1.075.413,1.059-.2,2.424-.611,2.881-1.435a.783.783,0,0,0,.083-.274l.695-5.036a.9.9,0,0,0-.53-.951l-1.341-.594A.9.9,0,0,0,1207.87,1642.883Z" transform="translate(-1185.936 -1629.2)" fill="url(#linear-gradient-22)"/>
          <path id="Trazado_999114" data-name="Trazado 999114" d="M1014.208,1872.213s-11.286,8.074-1.443,16.559a2.542,2.542,0,0,0,1.114.645,12.253,12.253,0,0,1,2.034,1.381.383.383,0,0,0,.56-.1.523.523,0,0,0,.029-.5l-1.4-2.955a1.078,1.078,0,0,0-1.4-.061.532.532,0,0,1-.806-.183c-.761-1.55-2.2-6.107,3.683-11.257a.637.637,0,0,0,.141-.774C1016.31,1874.172,1015.365,1872.6,1014.208,1872.213Z" transform="translate(-997.633 -1848.521)" fill="url(#linear-gradient-23)"/>
          <g id="Grupo_1180205" data-name="Grupo 1180205" transform="translate(18.732 4.262)">
            <path id="Trazado_999115" data-name="Trazado 999115" d="M1221.656,1509.462a7.165,7.165,0,0,1,2.461,4.133c.74,2.968-.462,4.032-1.694,3.967a5.718,5.718,0,0,1-4.567-2.575C1216.307,1512.857,1219.4,1508.038,1221.656,1509.462Z" transform="translate(-1215.357 -1506.662)" fill="url(#linear-gradient-24)"/>
            <path id="Trazado_999116" data-name="Trazado 999116" d="M1176.763,1461.71s-.631-4.252,2.9-3.6l.714.743s1.728-1.946-.184-3.417-4.566-1.094-6.034,1.584-2,4.56-.77,6.224,2.156.237,2.156.237-.564-1.44-.1-2.058,1.072.359,1.072.359Z" transform="translate(-1172.703 -1454.583)" fill="url(#linear-gradient-25)"/>
            <path id="Trazado_999117" data-name="Trazado 999117" d="M1212.133,1581.282s-.311-2.188-1.429-1.562.4,2.044,1.012,2.526Z" transform="translate(-1208.556 -1573.791)" fill="url(#linear-gradient-26)"/>
          </g>
          <g id="Grupo_1180206" data-name="Grupo 1180206" transform="translate(40.881 0)">
            <path id="Trazado_999118" data-name="Trazado 999118" d="M1650.005,1370.18c.024.257-.932.435-1.236-.661.084-.476.232-2.559.6-2.883a38.505,38.505,0,0,1,5.407-3.663.709.709,0,0,1-.121.981l-1.729,1.167a6.994,6.994,0,0,1,.473,1.808,2.025,2.025,0,0,1-.511,1.414c-.344.393-.807.9-1.225,1.286A2,2,0,0,1,1650.005,1370.18Z" transform="translate(-1648.769 -1362.973)" fill="url(#linear-gradient-27)"/>
            <path id="Trazado_999119" data-name="Trazado 999119" d="M1672.463,1426.688l-.264-.109a14.771,14.771,0,0,1,1.266-2.522.608.608,0,0,0,.219-.405.289.289,0,0,0-.089-.178l-1.4.748-.618.968-.241-.154.658-1.031,1.639-.876.074.06a.621.621,0,0,1,.261.445.851.851,0,0,1-.3.621A14.078,14.078,0,0,0,1672.463,1426.688Z" transform="translate(-1670.287 -1420.33)" fill="url(#linear-gradient-28)"/>
          </g>
        </g>
        <g id="Grupo_1180214" data-name="Grupo 1180214" transform="translate(514.915 527.043)">
          <g id="Grupo_1180209" data-name="Grupo 1180209" transform="translate(5.765 23.837)">
            <path id="Trazado_999120" data-name="Trazado 999120" d="M2063.257,2550.21a5.272,5.272,0,0,0,5.372-5.271v-23.456a5.62,5.62,0,0,0-5.558-5.623c-9.249-.1-28.323-.106-43.931,1.209a4.225,4.225,0,0,0-3.864,4.061l-1.459,22.677a5.369,5.369,0,0,0,5.264,5.563Z" transform="translate(-2013.813 -2515.82)" fill="url(#linear-gradient-29)"/>
            <path id="Trazado_999121" data-name="Trazado 999121" d="M2845.4,2655.869c.04,2-.02,5.163-.068,7.208a1.806,1.806,0,0,1-2.017,1.752l-7.611-.892a1.808,1.808,0,0,1-1.577-2.063l.934-6.232a1.807,1.807,0,0,1,1.787-1.54h6.745A1.8,1.8,0,0,1,2845.4,2655.869Z" transform="translate(-2795.941 -2647.668)" fill="#fff"/>
            <path id="Trazado_999122" data-name="Trazado 999122" d="M2486.727,2537.726l-6.349.685a1.431,1.431,0,0,1-1.581-1.528l1.388-18.887c2.662-.084,5.287-.146,7.82-.189v18.5A1.432,1.432,0,0,1,2486.727,2537.726Z" transform="translate(-2457.16 -2517.715)" fill="#fff" opacity="0.37"/>
            <path id="Trazado_999123" data-name="Trazado 999123" d="M2567.247,2535.646a.638.638,0,0,1-.637.6h-.038a.638.638,0,0,1-.6-.675l.958-16.484,1.281-.03Z" transform="translate(-2540.282 -2518.907)" fill="#fff"/>
            <g id="Grupo_1180208" data-name="Grupo 1180208" transform="translate(41.052 8.319)">
              <path id="Trazado_999124" data-name="Trazado 999124" d="M2996.842,2704.822a.213.213,0,0,0,.213-.2l.329-5.192a.212.212,0,0,0-.2-.226.208.208,0,0,0-.226.2l-.329,5.192a.212.212,0,0,0,.2.226Z" transform="translate(-2991.955 -2698.991)" fill="url(#linear-gradient-30)"/>
              <path id="Trazado_999125" data-name="Trazado 999125" d="M2982.272,2702.785a.213.213,0,0,0,.213-.206l.172-5.292a.212.212,0,0,0-.206-.219.2.2,0,0,0-.22.206l-.173,5.291a.214.214,0,0,0,.206.22Z" transform="translate(-2978.063 -2696.954)" fill="url(#linear-gradient-31)"/>
              <path id="Trazado_999126" data-name="Trazado 999126" d="M2962.731,2702.791a.212.212,0,0,1-.2-.222c.085-1.778.246-5.168.248-5.283a.213.213,0,0,1,.426,0c0,.088-.207,4.432-.249,5.3a.212.212,0,0,1-.213.2Zm.042-5.5h0Z" transform="translate(-2959.441 -2696.96)" fill="url(#linear-gradient-32)"/>
              <path id="Trazado_999127" data-name="Trazado 999127" d="M2927.868,2700.674a.426.426,0,0,0,.425-.411c.18-5.126.148-5.242.127-5.319a.426.426,0,0,0-.833.168c.014.308-.082,3.291-.146,5.121a.425.425,0,0,0,.41.44Z" transform="translate(-2925.988 -2694.63)" fill="url(#linear-gradient-33)"/>
              <path id="Trazado_999128" data-name="Trazado 999128" d="M2912.406,2704.828a.213.213,0,0,0,.213-.213v-5.192a.213.213,0,0,0-.426,0v5.192A.213.213,0,0,0,2912.406,2704.828Z" transform="translate(-2911.448 -2698.997)" fill="url(#linear-gradient-34)"/>
              <path id="Trazado_999129" data-name="Trazado 999129" d="M2896.39,2704.578a.213.213,0,0,0,.213-.208c.041-1.8.136-4.751.221-5.1a.213.213,0,0,0-.3-.282c-.116.076-.227.148-.344,5.376a.214.214,0,0,0,.208.218Z" transform="translate(-2896.177 -2698.746)" fill="url(#linear-gradient-35)"/>
              <path id="Trazado_999130" data-name="Trazado 999130" d="M3017.089,2700.927a.426.426,0,0,0,.425-.4l.284-5.452a.426.426,0,0,0-.4-.447.431.431,0,0,0-.447.4l-.284,5.452a.426.426,0,0,0,.4.447Z" transform="translate(-3011.058 -2694.623)" fill="url(#linear-gradient-36)"/>
            </g>
          </g>
          <g id="Grupo_1180211" data-name="Grupo 1180211" transform="translate(18 0)">
            <path id="Trazado_999131" data-name="Trazado 999131" d="M2315.282,2023.926v-16.473a3.947,3.947,0,0,0-3.9-3.949c-6.5-.071-19.891-.074-30.852.849a2.967,2.967,0,0,0-2.713,2.852l-1.024,15.926a3.771,3.771,0,0,0,3.7,3.906l31.023.59A3.7,3.7,0,0,0,2315.282,2023.926Z" transform="translate(-2276.787 -2003.476)" fill="url(#linear-gradient-37)"/>
            <path id="Trazado_999132" data-name="Trazado 999132" d="M2860.79,2101.83c.028,1.4-.014,3.625-.048,5.063a1.269,1.269,0,0,1-1.417,1.23l-5.345-.627a1.269,1.269,0,0,1-1.107-1.449l.656-4.377a1.269,1.269,0,0,1,1.255-1.081h4.737A1.268,1.268,0,0,1,2860.79,2101.83Z" transform="translate(-2826.057 -2096.071)" fill="#fff"/>
            <path id="Trazado_999133" data-name="Trazado 999133" d="M2608.9,2018.86l-4.459.481a1,1,0,0,1-1.11-1.073l.975-13.264c1.869-.059,3.713-.1,5.492-.133v12.99A1,1,0,0,1,2608.9,2018.86Z" transform="translate(-2588.139 -2004.806)" fill="#fff" opacity="0.37"/>
            <path id="Trazado_999134" data-name="Trazado 999134" d="M2665.45,2017.4a.448.448,0,0,1-.447.422h-.026a.448.448,0,0,1-.422-.474l.672-11.576.9-.021Z" transform="translate(-2646.513 -2005.645)" fill="#fff"/>
            <g id="Grupo_1180210" data-name="Grupo 1180210" transform="translate(28.83 5.842)">
              <path id="Trazado_999135" data-name="Trazado 999135" d="M2967.144,2136.208a.15.15,0,0,0,.149-.14l.231-3.646a.149.149,0,0,0-.14-.158.146.146,0,0,0-.159.14l-.231,3.646a.15.15,0,0,0,.14.159Z" transform="translate(-2963.712 -2132.113)" fill="url(#linear-gradient-38)"/>
              <path id="Trazado_999136" data-name="Trazado 999136" d="M2956.912,2134.776a.15.15,0,0,0,.149-.145l.121-3.716a.15.15,0,0,0-.145-.154.142.142,0,0,0-.155.145l-.121,3.716a.15.15,0,0,0,.145.154Z" transform="translate(-2953.956 -2130.681)" fill="url(#linear-gradient-39)"/>
              <path id="Trazado_999137" data-name="Trazado 999137" d="M2943.189,2134.781a.149.149,0,0,1-.142-.156c.059-1.249.172-3.629.174-3.71a.149.149,0,0,1,.3,0c0,.062-.146,3.112-.174,3.723a.15.15,0,0,1-.149.142Zm.029-3.865h0Z" transform="translate(-2940.879 -2130.686)" fill="url(#linear-gradient-40)"/>
              <path id="Trazado_999138" data-name="Trazado 999138" d="M2918.706,2133.294a.3.3,0,0,0,.3-.288c.126-3.6.1-3.682.09-3.735a.3.3,0,0,0-.585.118c.01.216-.057,2.311-.1,3.6a.3.3,0,0,0,.288.309Z" transform="translate(-2917.385 -2129.05)" fill="url(#linear-gradient-41)"/>
              <path id="Trazado_999139" data-name="Trazado 999139" d="M2907.848,2136.211a.149.149,0,0,0,.149-.149v-3.646a.15.15,0,1,0-.3,0v3.646A.149.149,0,0,0,2907.848,2136.211Z" transform="translate(-2907.175 -2132.116)" fill="url(#linear-gradient-42)"/>
              <path id="Trazado_999140" data-name="Trazado 999140" d="M2896.6,2136.036a.15.15,0,0,0,.149-.146c.029-1.267.1-3.337.155-3.585a.15.15,0,0,0-.213-.2c-.081.053-.159.1-.242,3.776a.15.15,0,0,0,.146.153Z" transform="translate(-2896.449 -2131.941)" fill="url(#linear-gradient-43)"/>
              <path id="Trazado_999141" data-name="Trazado 999141" d="M2981.364,2133.472a.3.3,0,0,0,.3-.284l.2-3.829a.3.3,0,0,0-.283-.314.3.3,0,0,0-.314.283l-.2,3.829a.3.3,0,0,0,.283.314Z" transform="translate(-2977.128 -2129.045)" fill="url(#linear-gradient-44)"/>
            </g>
          </g>
          <g id="Grupo_1180213" data-name="Grupo 1180213" transform="translate(0 34.011)">
            <path id="Trazado_999142" data-name="Trazado 999142" d="M1923.178,2754.948v-16.473a3.716,3.716,0,0,0-3.374-3.949c-5.613-.071-17.19-.074-26.663.849a2.815,2.815,0,0,0-2.345,2.852l-.885,15.926a3.577,3.577,0,0,0,3.195,3.906l26.811.59A3.467,3.467,0,0,0,1923.178,2754.948Z" transform="translate(-1889.909 -2734.499)" fill="url(#linear-gradient-45)"/>
            <path id="Trazado_999143" data-name="Trazado 999143" d="M2394.62,2832.852c.024,1.4-.012,3.626-.041,5.063a1.163,1.163,0,0,1-1.224,1.23l-4.62-.626a1.248,1.248,0,0,1-.957-1.449l.567-4.377a1.161,1.161,0,0,1,1.085-1.081h4.094A1.186,1.186,0,0,1,2394.62,2832.852Z" transform="translate(-2364.602 -2827.093)" fill="#fff"/>
            <path id="Trazado_999144" data-name="Trazado 999144" d="M2176.932,2749.883l-3.854.481a.938.938,0,0,1-.959-1.073l.842-13.264c1.615-.059,3.209-.1,4.747-.133v12.989A.963.963,0,0,1,2176.932,2749.883Z" transform="translate(-2158.987 -2735.829)" fill="#fff" opacity="0.37"/>
            <path id="Trazado_999145" data-name="Trazado 999145" d="M2225.8,2748.422a.417.417,0,0,1-.387.423h-.022a.43.43,0,0,1-.365-.474l.581-11.576.777-.021Z" transform="translate(-2209.436 -2736.667)" fill="#fff"/>
            <g id="Grupo_1180212" data-name="Grupo 1180212" transform="translate(24.915 5.842)">
              <path id="Trazado_999146" data-name="Trazado 999146" d="M2486.534,2867.23a.139.139,0,0,0,.129-.14l.2-3.646a.143.143,0,0,0-.121-.159.134.134,0,0,0-.137.14l-.2,3.646a.144.144,0,0,0,.121.158Z" transform="translate(-2483.568 -2863.135)" fill="url(#linear-gradient-46)"/>
              <path id="Trazado_999147" data-name="Trazado 999147" d="M2477.691,2865.8a.14.14,0,0,0,.129-.145l.1-3.716a.142.142,0,0,0-.125-.155c-.082,0-.131.062-.134.145l-.1,3.716a.142.142,0,0,0,.125.154Z" transform="translate(-2475.136 -2861.704)" fill="url(#linear-gradient-47)"/>
              <path id="Trazado_999148" data-name="Trazado 999148" d="M2465.832,2865.8a.142.142,0,0,1-.123-.156c.051-1.248.148-3.629.15-3.711a.13.13,0,1,1,.258,0c0,.062-.126,3.112-.151,3.723a.139.139,0,0,1-.129.143Zm.025-3.865h0Z" transform="translate(-2463.835 -2861.709)" fill="url(#linear-gradient-48)"/>
              <path id="Trazado_999149" data-name="Trazado 999149" d="M2444.672,2864.317a.279.279,0,0,0,.258-.289c.109-3.6.09-3.682.078-3.735a.257.257,0,0,0-.317-.21.3.3,0,0,0-.188.328c.008.216-.05,2.311-.089,3.6a.285.285,0,0,0,.249.31Z" transform="translate(-2443.531 -2860.072)" fill="url(#linear-gradient-49)"/>
              <path id="Trazado_999150" data-name="Trazado 999150" d="M2435.287,2867.234a.14.14,0,0,0,.129-.149v-3.646a.13.13,0,1,0-.258,0v3.646A.14.14,0,0,0,2435.287,2867.234Z" transform="translate(-2434.706 -2863.139)" fill="url(#linear-gradient-50)"/>
              <path id="Trazado_999151" data-name="Trazado 999151" d="M2425.567,2867.058a.14.14,0,0,0,.129-.146c.025-1.267.082-3.336.134-3.585a.169.169,0,0,0,0-.155.119.119,0,0,0-.179-.043c-.07.053-.137.1-.209,3.776a.142.142,0,0,0,.126.153Z" transform="translate(-2425.438 -2862.963)" fill="url(#linear-gradient-51)"/>
              <path id="Trazado_999152" data-name="Trazado 999152" d="M2498.822,2864.495a.279.279,0,0,0,.258-.284l.172-3.829a.286.286,0,0,0-.245-.314.278.278,0,0,0-.271.283l-.172,3.829a.286.286,0,0,0,.245.314Z" transform="translate(-2495.162 -2860.068)" fill="url(#linear-gradient-52)"/>
            </g>
          </g>
        </g>
      </g>
    </g>
  </g>
</svg>
