<svg xmlns="http://www.w3.org/2000/svg" width="98" height="98" viewBox="0 0 98 98">
  <g id="Grupo_1180379" data-name="Grupo 1180379" transform="translate(-1174.127 -3512.381)">
    <g id="Grupo_1102513" data-name="Grupo 1102513" transform="translate(522.355 -3480.619)">
      <rect id="Rectángulo_403454" data-name="Rectángulo 403454" width="98" height="98" rx="18" transform="translate(651.771 6993)" fill="#fff"/>
    </g>
    <g id="_006---Ambulance" data-name="006---Ambulance" transform="translate(1075.536 3419.643)">
      <g id="Icons" transform="translate(114.228 109.366)">
        <path id="Shape" d="M177.385,209.928a17.555,17.555,0,0,0-8.927,7.611h-33.7V202.493h42.63Z" transform="translate(-128.485 -171.147)" fill="#ededed"/>
        <path id="Shape-2" data-name="Shape" d="M138.385,267.833h8.777v5.015a2.507,2.507,0,0,1-2.508,2.508h-3.761a2.508,2.508,0,0,1-2.508-2.508Z" transform="translate(-130.861 -213.918)" fill="#ffeeed"/>
        <path id="Shape-3" data-name="Shape" d="M154.22,163.149H119.113a2.507,2.507,0,0,1-2.508-2.508V114.25a2.507,2.507,0,0,1,2.508-2.508h50.153a2.508,2.508,0,0,1,2.508,2.508v35.108Z" transform="translate(-116.604 -111.742)" fill="#cdbfdc"/>
        <path id="Shape-4" data-name="Shape" d="M154.218,163.149H118.935a2.432,2.432,0,0,1-2.332-2.508V114.25a2.432,2.432,0,0,1,2.332-2.508h46.743a2.432,2.432,0,0,1,2.332,2.508v35.108Z" transform="translate(-116.601 -111.742)" fill="#ededed"/>
        <path id="Shape-5" data-name="Shape" d="M179.63,161.834H142.015l2.244-12.689a1.254,1.254,0,0,1,1.254-1.1h30.619a1.254,1.254,0,0,1,1.254,1.116Z" transform="translate(-133.237 -135.504)" fill="#371138"/>
        <path id="Shape-6" data-name="Shape" d="M175.869,161.834H142.015l2.244-12.689a1.254,1.254,0,0,1,1.254-1.1H172.37a1.254,1.254,0,0,1,1.254,1.116Z" transform="translate(-133.237 -135.504)" fill="#636363"/>
        <path id="Shape-7" data-name="Shape" d="M160.165,138.537l2.207-4.037a1.768,1.768,0,0,1,1.555-.978H170.2v5.015Z" transform="translate(-145.118 -125.999)" fill="#7e6e85"/>
        <path id="Shape-8" data-name="Shape" d="M213.757,138.537H203.726v-5.015H210a1.768,1.768,0,0,1,1.567.978Z" transform="translate(-173.633 -125.999)" fill="#89828f"/>
        <path id="Shape-9" data-name="Shape" d="M210,138.537h-6.269v-5.015h2.508a1.768,1.768,0,0,1,1.567.978Z" transform="translate(-173.633 -125.999)" fill="#482370"/>
        <path id="Shape-10" data-name="Shape" d="M190.46,129.892h2.508a1.254,1.254,0,0,1,1.254,1.254v5.015h-5.015v-5.015A1.254,1.254,0,0,1,190.46,129.892Z" transform="translate(-164.128 -123.623)" fill="#525252"/>
        <path id="Shape-11" data-name="Shape" d="M187.487,218.568l-.577,2.508a1.166,1.166,0,0,1-1.116.953H169.156a1.166,1.166,0,0,1-1.116-.953l-.577-2.508a1.254,1.254,0,0,1,1.116-1.555h17.754a1.254,1.254,0,0,1,1.154,1.555Z" transform="translate(-149.87 -180.652)" fill="#a4a4a6"/>
        <path id="Shape-12" data-name="Shape" d="M183.725,218.568l-.577,2.508a1.166,1.166,0,0,1-1.116.953H169.156a1.166,1.166,0,0,1-1.116-.953l-.577-2.508a1.254,1.254,0,0,1,1.116-1.555h13.993a1.254,1.254,0,0,1,1.154,1.555Z" transform="translate(-149.87 -180.652)" fill="#fff"/>
        <path id="Shape-13" data-name="Shape" d="M239.392,222.027h-1.63a1.254,1.254,0,0,1-1.254-1.555l.665-2.508a1.253,1.253,0,0,1,1.254-.953h5.542v2.42Z" transform="translate(-195.067 -180.651)" fill="#6cac25"/>
        <path id="Shape-14" data-name="Shape" d="M142.278,220.473l-.665-2.508a1.253,1.253,0,0,0-1.254-.953h-5.6v5.015h6.269a1.254,1.254,0,0,0,1.254-1.555Z" transform="translate(-128.485 -180.651)" fill="#6cac25"/>
        <path id="Shape-15" data-name="Shape" d="M177.5,192.988H134.937a46.525,46.525,0,0,1,2.508-5.016H175C177.5,192.988,177.329,192.586,177.5,192.988Z" transform="translate(-128.604 -161.642)"/>
        <path id="Shape-16" data-name="Shape" d="M173.743,192.988H134.937a46.525,46.525,0,0,1,2.508-5.016h33.791C173.743,192.988,173.568,192.586,173.743,192.988Z" transform="translate(-128.604 -161.642)" fill="#525252"/>
        <path id="Shape-17" data-name="Shape" d="M166.082,246.053h-33.7a1.254,1.254,0,0,0-1.254,1.254v5.015a1.254,1.254,0,0,0,1.254,1.254h31.346Z" transform="translate(-126.108 -199.661)" fill="#482370"/>
        <path id="Shape-18" data-name="Shape" d="M260.612,238.2a17.554,17.554,0,1,1-5.817-13.051A17.554,17.554,0,0,1,260.612,238.2Z" transform="translate(-187.888 -183.031)" fill="#6e2370"/>
        <path id="Shape-19" data-name="Shape" d="M256.839,238.386a17.553,17.553,0,0,1-15.673,17.453,17.554,17.554,0,0,1,0-34.907A17.554,17.554,0,0,1,256.839,238.386Z" transform="translate(-187.876 -183.218)" fill="#7f3d81"/>
        <path id="Shape-20" data-name="Shape" d="M267.843,252.322h-5.015a.627.627,0,0,1-.627-.627V246.68a.627.627,0,0,0-.627-.627h-3.762a.627.627,0,0,0-.627.627V251.7a.627.627,0,0,1-.627.627h-5.015a.627.627,0,0,0-.627.627v3.761a.627.627,0,0,0,.627.627h5.015a.627.627,0,0,1,.627.627v5.016a.627.627,0,0,0,.627.627h3.762a.627.627,0,0,0,.627-.627v-5.016a.627.627,0,0,1,.627-.627h5.015a.627.627,0,0,0,.627-.627v-3.761A.627.627,0,0,0,267.843,252.322Z" transform="translate(-204.523 -199.661)" fill="#fff" opacity="0.5"/>
      </g>
      <g id="Layer_2" data-name="Layer 2" transform="translate(112.975 108.112)">
        <path id="Shape-21" data-name="Shape" d="M170.652,145.79V111.873a3.762,3.762,0,0,0-3.762-3.761H116.736a3.761,3.761,0,0,0-3.761,3.761v46.392a3.761,3.761,0,0,0,3.761,3.761h1.254a2.507,2.507,0,0,0,2.508,2.508V168.3a3.762,3.762,0,0,0,3.761,3.762h3.761a3.761,3.761,0,0,0,3.761-3.762v-3.761H150.59a18.808,18.808,0,1,0,20.062-18.745Zm-53.915,13.73a1.254,1.254,0,0,1-1.254-1.254V111.873a1.254,1.254,0,0,1,1.254-1.254H166.89a1.254,1.254,0,0,1,1.254,1.254V145.79a18.718,18.718,0,0,0-3.761.64c0-5.016.125-5.768-.4-6.809l-2.107-4.326-2.106-11.56a3.762,3.762,0,0,0-3.761-3.084h-.928l-1.831-3.385a3.072,3.072,0,0,0-2.658-1.63h-5.367a2.507,2.507,0,0,0-2.156-1.254H140.56a2.507,2.507,0,0,0-2.157,1.254h-5.367a3.06,3.06,0,0,0-2.658,1.63l-1.843,3.385h-.928a3.761,3.761,0,0,0-3.7,3.084l-2.157,11.56c-2.031,4.075-2.508,4.815-2.508,6.006v13.554a2.508,2.508,0,0,0-1.254,2.157v2.508Zm36.775-5.015h-31.76V152h5.015a2.507,2.507,0,0,0,2.508-3.135l-.665-2.508a2.507,2.507,0,0,0-2.508-1.881h-4.351v-2.508h40.123v2.508h-4.3a2.507,2.507,0,0,0-2.508,1.881l-.665,2.508a2.508,2.508,0,0,0,1.254,2.809A19.131,19.131,0,0,0,153.512,154.5Zm-13.98-31.346-7.184,11.284H124.51l1.856-10.256a1.254,1.254,0,0,1,1.254-1.028Zm1.028-6.269h2.508v3.761H140.56Zm5.015,1.254h5.015c.389,0,.4.2,1.668,2.508h-6.683Zm10.444,5.015a1.254,1.254,0,0,1,1.254,1.028l1.843,10.256H144.07l7.184-11.284Zm-20.7,11.284,7.184-11.284h5.805l-7.184,11.284Zm2.734-13.792h-6.671c1.316-2.395,1.254-2.508,1.655-2.508h5.016Zm-14.269,16.3h36.06l1.254,2.508H122.529Zm-2.031,10.031h4.364l.652,2.508h-5.015Zm36.361,2.508h-1.254l.715-2.508h4.3v.326A19.693,19.693,0,0,0,158.113,149.489ZM129.275,168.3a1.254,1.254,0,0,1-1.254,1.254h-3.761a1.254,1.254,0,0,1-1.254-1.254v-3.761h6.269Zm-8.777-6.269v-5.015H152.17a18.7,18.7,0,0,0-1.392,5.015Zm48.9,18.808a16.3,16.3,0,1,1,11.526-4.774,16.3,16.3,0,0,1-11.526,4.774Z" transform="translate(-112.975 -108.112)"/>
        <path id="Shape-22" data-name="Shape" d="M183.942,213.383H166.188a2.508,2.508,0,0,0-2.345,3.1l.577,2.508a2.432,2.432,0,0,0,2.345,1.918h16.6a2.432,2.432,0,0,0,2.345-1.918l.577-2.508a2.508,2.508,0,0,0-2.345-3.1Zm-.677,5.015h-16.4l-.677-2.508h17.654Z" transform="translate(-146.227 -177.022)"/>
        <path id="Shape-23" data-name="Shape" d="M265.467,248.692h-4.388V244.3a1.881,1.881,0,0,0-1.881-1.881h-3.762a1.881,1.881,0,0,0-1.881,1.881v4.388h-4.388a1.881,1.881,0,0,0-1.881,1.881v3.761a1.881,1.881,0,0,0,1.881,1.881h4.388V260.6a1.881,1.881,0,0,0,1.881,1.881H259.2a1.881,1.881,0,0,0,1.881-1.881v-4.389h4.388a1.881,1.881,0,0,0,1.881-1.881v-3.761A1.881,1.881,0,0,0,265.467,248.692Zm-.627,5.015h-4.388a1.881,1.881,0,0,0-1.881,1.881v4.389h-2.508v-4.389a1.881,1.881,0,0,0-1.881-1.881h-4.388V251.2h4.388a1.881,1.881,0,0,0,1.881-1.881v-4.388h2.508v4.388a1.881,1.881,0,0,0,1.881,1.881h4.388Z" transform="translate(-200.894 -196.031)"/>
      </g>
    </g>
  </g>
</svg>
