<svg xmlns="http://www.w3.org/2000/svg" xmlns:xlink="http://www.w3.org/1999/xlink" width="203.416" height="173.632" viewBox="0 0 203.416 173.632">
  <defs>
    <radialGradient id="radial-gradient" cx="0.488" cy="1.177" r="1.286" gradientTransform="translate(0.175) scale(0.65 1)" gradientUnits="objectBoundingBox">
      <stop offset="0" stop-color="#86c4bc"/>
      <stop offset="0.168" stop-color="#7dbfb7"/>
      <stop offset="0.432" stop-color="#67b4aa"/>
      <stop offset="0.757" stop-color="#42a196"/>
      <stop offset="0.999" stop-color="#239185"/>
    </radialGradient>
    <radialGradient id="radial-gradient-2" cx="0.487" cy="1.169" r="1.374" xlink:href="#radial-gradient"/>
    <radialGradient id="radial-gradient-3" cx="0.551" cy="1.573" r="2.254" gradientTransform="matrix(0.391, -0.389, 0.165, 0.921, -0.028, 0.265)" gradientUnits="objectBoundingBox">
      <stop offset="0" stop-color="#86c4bc"/>
      <stop offset="0.251" stop-color="#82c2ba"/>
      <stop offset="0.442" stop-color="#79bdb4"/>
      <stop offset="0.614" stop-color="#68b5ab"/>
      <stop offset="0.775" stop-color="#51a99f"/>
      <stop offset="0.926" stop-color="#34998e"/>
      <stop offset="1" stop-color="#239185"/>
    </radialGradient>
    <radialGradient id="radial-gradient-4" cx="0.395" cy="0.77" r="0.728" gradientTransform="translate(-0.398) scale(1.796 1)" gradientUnits="objectBoundingBox">
      <stop offset="0" stop-color="#f2e367"/>
      <stop offset="0.622" stop-color="#ead14d"/>
      <stop offset="1" stop-color="#e8cb44"/>
    </radialGradient>
    <radialGradient id="radial-gradient-5" cx="0.506" cy="-0.075" r="2.409" gradientTransform="matrix(-0.391, -0.389, 0.165, -0.921, 0.649, 2.219)" xlink:href="#radial-gradient"/>
    <radialGradient id="radial-gradient-6" cx="0.395" cy="0.77" r="0.728" xlink:href="#radial-gradient-4"/>
    <radialGradient id="radial-gradient-7" cx="0.493" cy="1.79" r="1.678" gradientTransform="translate(-0.272) scale(1.545 1)" xlink:href="#radial-gradient-4"/>
    <linearGradient id="linear-gradient" x1="0.034" y1="0.797" x2="1.114" y2="0.109" gradientUnits="objectBoundingBox">
      <stop offset="0" stop-color="#86c4bc"/>
      <stop offset="0.192" stop-color="#79bdb4"/>
      <stop offset="0.547" stop-color="#56aba1"/>
      <stop offset="0.999" stop-color="#239185"/>
    </linearGradient>
    <radialGradient id="radial-gradient-8" cx="0.535" cy="1.005" r="1.608" gradientTransform="translate(23.381 0.379) scale(22.885 0.577)" gradientUnits="objectBoundingBox">
      <stop offset="0" stop-color="#86c4bc"/>
      <stop offset="0.25" stop-color="#82c2ba"/>
      <stop offset="0.442" stop-color="#79bdb4"/>
      <stop offset="0.614" stop-color="#68b5ab"/>
      <stop offset="0.775" stop-color="#51a99f"/>
      <stop offset="0.926" stop-color="#34998e"/>
      <stop offset="0.999" stop-color="#239185"/>
    </radialGradient>
    <radialGradient id="radial-gradient-9" cx="0.498" cy="0.432" r="1.188" gradientTransform="translate(0.285 0.274) scale(0.429 0.365)" gradientUnits="objectBoundingBox">
      <stop offset="0" stop-color="#222232"/>
      <stop offset="0.262" stop-color="#443f35" stop-opacity="0.827"/>
      <stop offset="0.683" stop-color="#a18e3d" stop-opacity="0.357"/>
      <stop offset="0.942" stop-color="#e8cb44" stop-opacity="0"/>
    </radialGradient>
    <radialGradient id="radial-gradient-10" cx="0.982" cy="0.735" r="1.561" gradientTransform="translate(-1.044) scale(3.087 1)" xlink:href="#radial-gradient-4"/>
    <linearGradient id="linear-gradient-2" x1="0.535" y1="0.208" x2="0.397" y2="1.028" gradientUnits="objectBoundingBox">
      <stop offset="0" stop-color="#f2e367" stop-opacity="0"/>
      <stop offset="0.025" stop-color="#f1e063" stop-opacity="0.059"/>
      <stop offset="0.124" stop-color="#eed756" stop-opacity="0.278"/>
      <stop offset="0.229" stop-color="#ebcf4b" stop-opacity="0.471"/>
      <stop offset="0.337" stop-color="#e9c841" stop-opacity="0.635"/>
      <stop offset="0.448" stop-color="#e8c239" stop-opacity="0.769"/>
      <stop offset="0.565" stop-color="#e6be33" stop-opacity="0.871"/>
      <stop offset="0.689" stop-color="#e5bb2f" stop-opacity="0.941"/>
      <stop offset="0.826" stop-color="#e5b92c" stop-opacity="0.988"/>
      <stop offset="0.999" stop-color="#e5b92c"/>
    </linearGradient>
    <radialGradient id="radial-gradient-11" cx="-0.013" cy="0.735" r="1.556" gradientTransform="translate(-1.043) scale(3.087 1)" xlink:href="#radial-gradient-4"/>
    <linearGradient id="linear-gradient-3" x1="3.032" y1="1.159" x2="-1.092" y2="0.055" gradientUnits="objectBoundingBox">
      <stop offset="0" stop-color="#f2e367"/>
      <stop offset="0.001" stop-color="#f1e266"/>
      <stop offset="0.234" stop-color="#ecd04d"/>
      <stop offset="0.474" stop-color="#e8c33a"/>
      <stop offset="0.725" stop-color="#e5bb2f"/>
      <stop offset="0.999" stop-color="#e5b92c"/>
    </linearGradient>
    <radialGradient id="radial-gradient-12" cx="0.249" cy="-0.16" r="0.992" gradientTransform="translate(-0.163) scale(1.327 1)" gradientUnits="objectBoundingBox">
      <stop offset="0" stop-color="#f2e367"/>
      <stop offset="1" stop-color="#e8cb44"/>
    </radialGradient>
    <radialGradient id="radial-gradient-13" cx="0.605" cy="0.308" r="0.73" gradientTransform="translate(-0.185) scale(1.37 1)" xlink:href="#linear-gradient-2"/>
    <radialGradient id="radial-gradient-14" cx="0.5" cy="0.5" r="0.624" gradientTransform="translate(0.088 -0.917) scale(0.825 2.834)" xlink:href="#radial-gradient-8"/>
    <linearGradient id="linear-gradient-4" x1="1.73" y1="1.4" x2="0.572" y2="1.762" gradientUnits="objectBoundingBox">
      <stop offset="0" stop-color="#86c4bc"/>
      <stop offset="0.169" stop-color="#7dbfb7"/>
      <stop offset="0.442" stop-color="#65b3aa"/>
      <stop offset="0.783" stop-color="#3f9f94"/>
      <stop offset="1" stop-color="#239185"/>
    </linearGradient>
    <linearGradient id="linear-gradient-5" x1="0.64" y1="-0.068" x2="0.171" y2="1.124" gradientUnits="objectBoundingBox">
      <stop offset="0" stop-color="#86c4bc"/>
      <stop offset="0.208" stop-color="#82c2b9"/>
      <stop offset="0.407" stop-color="#76bcb3"/>
      <stop offset="0.603" stop-color="#63b2a8"/>
      <stop offset="0.797" stop-color="#48a499"/>
      <stop offset="0.987" stop-color="#259286"/>
      <stop offset="1" stop-color="#239185"/>
    </linearGradient>
    <radialGradient id="radial-gradient-15" cx="0.503" cy="0.507" r="0.489" gradientTransform="matrix(1.024, 0.21, -0.22, 0.978, 0.096, -0.099)" xlink:href="#linear-gradient-5"/>
    <radialGradient id="radial-gradient-16" cx="0.269" cy="0.068" r="0.963" gradientTransform="matrix(1.275, 0.21, -0.274, 0.978, -0.026, -0.035)" xlink:href="#linear-gradient-5"/>
    <linearGradient id="linear-gradient-6" x1="0.836" y1="-0.26" x2="0.253" y2="0.837" gradientUnits="objectBoundingBox">
      <stop offset="0" stop-color="#faf3c1"/>
      <stop offset="1" stop-color="#ceedff"/>
    </linearGradient>
    <radialGradient id="radial-gradient-17" cx="0.548" cy="0.251" r="0.663" gradientTransform="matrix(3.456, 0.236, -0.838, 0.972, 1.17, 0.034)" gradientUnits="objectBoundingBox">
      <stop offset="0" stop-color="#86c4bc"/>
      <stop offset="0.17" stop-color="#7fc0b8"/>
      <stop offset="0.397" stop-color="#6eb8af"/>
      <stop offset="0.657" stop-color="#53a99f"/>
      <stop offset="0.939" stop-color="#2c958a"/>
      <stop offset="1" stop-color="#239185"/>
    </radialGradient>
    <radialGradient id="radial-gradient-18" cx="0.504" cy="0.505" r="0.606" gradientTransform="matrix(0.651, 0.236, -0.158, 0.972, 0.294, -0.108)" xlink:href="#linear-gradient-6"/>
    <radialGradient id="radial-gradient-19" cx="0.026" cy="-0.277" r="3.697" gradientTransform="matrix(0.234, 0.236, -0.057, 0.972, 0.065, -0.034)" xlink:href="#radial-gradient-17"/>
    <radialGradient id="radial-gradient-20" cx="1.01" cy="0.231" r="1.247" gradientTransform="matrix(1.059, 0.236, -0.257, 0.972, -0.005, -0.234)" xlink:href="#linear-gradient-6"/>
    <radialGradient id="radial-gradient-21" cx="0.478" cy="0.078" r="1.01" gradientTransform="matrix(1.932, 0.236, -0.469, 0.972, -0.308, -0.101)" xlink:href="#linear-gradient-6"/>
    <linearGradient id="linear-gradient-7" x1="0.591" y1="9.038" x2="0.591" y2="-2.242" gradientUnits="objectBoundingBox">
      <stop offset="0" stop-color="#fff"/>
      <stop offset="0.12" stop-color="#fff" stop-opacity="0.984"/>
      <stop offset="0.245" stop-color="#fff" stop-opacity="0.933"/>
      <stop offset="0.372" stop-color="#fff" stop-opacity="0.855"/>
      <stop offset="0.501" stop-color="#fff" stop-opacity="0.737"/>
      <stop offset="0.63" stop-color="#fff" stop-opacity="0.592"/>
      <stop offset="0.761" stop-color="#fff" stop-opacity="0.412"/>
      <stop offset="0.89" stop-color="#fff" stop-opacity="0.204"/>
      <stop offset="1" stop-color="#fff" stop-opacity="0"/>
    </linearGradient>
    <linearGradient id="linear-gradient-8" x1="0.837" y1="1.067" x2="0.837" y2="0.163" xlink:href="#linear-gradient-7"/>
    <linearGradient id="linear-gradient-9" x1="1.258" y1="1.269" x2="0.57" y2="0.397" xlink:href="#linear-gradient-7"/>
    <radialGradient id="radial-gradient-22" cx="0.042" cy="-0.309" r="8.08" gradientTransform="matrix(0.147, 0, 0, 1, 0.035, 0)" xlink:href="#radial-gradient-17"/>
    <radialGradient id="radial-gradient-23" cx="-2.261" cy="-0.748" r="3.361" gradientTransform="matrix(0.856, 0.236, -0.208, 0.972, -0.381, 0.551)" xlink:href="#radial-gradient-17"/>
    <radialGradient id="radial-gradient-24" cx="2.069" cy="0.996" r="1.681" gradientTransform="matrix(0.965, -0.045, 0.043, 0.999, 0.03, 0.088)" gradientUnits="objectBoundingBox">
      <stop offset="0" stop-color="#86c4bc"/>
      <stop offset="0.185" stop-color="#7abdb5"/>
      <stop offset="0.52" stop-color="#5aada3"/>
      <stop offset="0.962" stop-color="#279387"/>
      <stop offset="1" stop-color="#239185"/>
    </radialGradient>
    <radialGradient id="radial-gradient-25" cx="0.727" cy="0.025" r="0.949" gradientTransform="matrix(3.078, -0.045, 0.139, 0.999, -0.744, 0.017)" gradientUnits="objectBoundingBox">
      <stop offset="0.272" stop-color="#f2e367"/>
      <stop offset="0.287" stop-color="#f1e165"/>
      <stop offset="0.513" stop-color="#ecd552"/>
      <stop offset="0.746" stop-color="#e9cd47"/>
      <stop offset="1" stop-color="#e8cb44"/>
    </radialGradient>
    <radialGradient id="radial-gradient-26" cx="2.121" cy="-0.409" r="2.022" gradientTransform="matrix(4.26, -0.045, 0.192, 0.999, -5.482, 0.077)" xlink:href="#radial-gradient-24"/>
    <radialGradient id="radial-gradient-27" cx="1.267" cy="0.426" r="0.711" gradientTransform="matrix(1.714, -0.045, 0.077, 0.999, -0.857, 0.053)" xlink:href="#radial-gradient-24"/>
    <radialGradient id="radial-gradient-28" cx="0.378" cy="-0.04" r="1.04" gradientTransform="matrix(1.73, -0.045, 0.078, 0.999, -0.217, 0.014)" gradientUnits="objectBoundingBox">
      <stop offset="0.21" stop-color="#86c4bc"/>
      <stop offset="0.351" stop-color="#7bbeb6"/>
      <stop offset="0.593" stop-color="#5fb0a6"/>
      <stop offset="0.907" stop-color="#31988d"/>
      <stop offset="1" stop-color="#239185"/>
    </radialGradient>
    <radialGradient id="radial-gradient-29" cx="0.872" cy="-0.458" r="2.043" gradientTransform="matrix(0.654, -0.045, 0.029, 0.999, 0.288, 0.034)" xlink:href="#radial-gradient-24"/>
    <radialGradient id="radial-gradient-30" cx="0.579" cy="-0.074" r="1.83" gradientTransform="matrix(0.667, -0.045, 0.03, 0.999, 0.164, 0.02)" xlink:href="#radial-gradient-28"/>
    <radialGradient id="radial-gradient-31" cx="0.181" cy="0.988" r="1.366" gradientTransform="matrix(0.624, -0.045, 0.026, 0.931, -0.012, 0.038)" xlink:href="#linear-gradient-6"/>
    <radialGradient id="radial-gradient-32" cx="0.181" cy="1.043" r="1.967" gradientTransform="matrix(0.588, -0.045, 0.027, 0.999, -0.018, 0)" gradientUnits="objectBoundingBox">
      <stop offset="0" stop-color="#86c4bc"/>
      <stop offset="0.183" stop-color="#81c1b9"/>
      <stop offset="0.393" stop-color="#73bab1"/>
      <stop offset="0.616" stop-color="#5caea4"/>
      <stop offset="0.848" stop-color="#3c9d92"/>
      <stop offset="1" stop-color="#239185"/>
    </radialGradient>
    <radialGradient id="radial-gradient-33" cx="4.737" cy="-6.351" r="21.496" gradientTransform="matrix(0.389, -0.247, 0.101, 0.991, -2.638, -1.622)" xlink:href="#radial-gradient-28"/>
    <radialGradient id="radial-gradient-34" cx="7.103" cy="-2.78" r="8.698" gradientTransform="matrix(1.778, -0.247, 0.464, 0.991, 12.381, -3.277)" xlink:href="#radial-gradient-28"/>
    <radialGradient id="radial-gradient-35" cx="4.461" cy="-8.962" r="21.498" gradientTransform="matrix(0.388, -0.247, 0.101, 0.991, -2.542, -1.713)" xlink:href="#radial-gradient-28"/>
    <radialGradient id="radial-gradient-36" cx="4.186" cy="-11.572" r="21.497" gradientTransform="matrix(0.389, -0.247, 0.101, 0.991, -2.445, -1.804)" xlink:href="#radial-gradient-28"/>
    <radialGradient id="radial-gradient-37" cx="6.593" cy="-3.836" r="8.698" gradientTransform="matrix(1.778, -0.247, 0.464, 0.991, 13.268, -3.412)" xlink:href="#radial-gradient-28"/>
    <radialGradient id="radial-gradient-38" cx="2.563" cy="-11.389" r="21.496" gradientTransform="matrix(0.389, -0.247, 0.101, 0.991, -3.456, -2.203)" xlink:href="#radial-gradient-28"/>
    <radialGradient id="radial-gradient-39" cx="5.563" cy="-3.803" r="8.698" gradientTransform="matrix(1.778, -0.247, 0.464, 0.991, 14.053, -3.666)" xlink:href="#radial-gradient-28"/>
    <radialGradient id="radial-gradient-40" cx="3.605" cy="-3.755" r="8.698" gradientTransform="matrix(1.778, -0.247, 0.464, 0.991, 15.551, -4.15)" xlink:href="#radial-gradient-28"/>
    <radialGradient id="radial-gradient-41" cx="2.839" cy="-8.78" r="21.497" gradientTransform="matrix(0.389, -0.247, 0.101, 0.991, -3.552, -2.112)" xlink:href="#radial-gradient-28"/>
    <radialGradient id="radial-gradient-42" cx="3.115" cy="-6.169" r="21.497" gradientTransform="matrix(0.389, -0.247, 0.101, 0.991, -3.648, -2.022)" xlink:href="#radial-gradient-28"/>
    <radialGradient id="radial-gradient-43" cx="6.074" cy="-2.747" r="8.698" gradientTransform="matrix(1.778, -0.247, 0.464, 0.991, 13.167, -3.531)" xlink:href="#radial-gradient-28"/>
    <radialGradient id="radial-gradient-44" cx="1.232" cy="-8.608" r="21.496" gradientTransform="matrix(0.389, -0.247, 0.101, 0.991, -4.552, -2.508)" xlink:href="#radial-gradient-28"/>
    <radialGradient id="radial-gradient-45" cx="3.098" cy="-2.678" r="8.698" gradientTransform="matrix(1.778, -0.247, 0.464, 0.991, 15.447, -4.266)" xlink:href="#radial-gradient-28"/>
    <radialGradient id="radial-gradient-46" cx="1.14" cy="-2.63" r="8.698" gradientTransform="matrix(1.778, -0.247, 0.464, 0.991, 16.947, -4.749)" xlink:href="#radial-gradient-28"/>
    <radialGradient id="radial-gradient-47" cx="1.507" cy="-5.998" r="21.498" gradientTransform="matrix(0.388, -0.247, 0.101, 0.991, -4.649, -2.417)" xlink:href="#radial-gradient-28"/>
    <clipPath id="clip-path">
      <path id="SVGID" d="M132.937,339.838l-8.485.382a1.065,1.065,0,0,1-1.095-.759l-1.35-5.1a1.029,1.029,0,0,1,1-1.254l8.485-.382a1.065,1.065,0,0,1,1.095.759l1.35,5.1A1.029,1.029,0,0,1,132.937,339.838Z" transform="translate(-121.976 -332.727)" fill="none"/>
    </clipPath>
    <radialGradient id="radial-gradient-48" cx="-2.44" cy="1.725" r="2.2" gradientTransform="matrix(-1.172, -0.045, 0.063, -1.186, -1.098, -46.49)" xlink:href="#radial-gradient-24"/>
    <radialGradient id="radial-gradient-49" cx="-0.442" cy="1.068" r="1.607" gradientTransform="matrix(1.172, -0.045, 0.053, 0.999, 0.135, -0.043)" gradientUnits="objectBoundingBox">
      <stop offset="0" stop-color="#86c4bc"/>
      <stop offset="0.177" stop-color="#7bbeb6"/>
      <stop offset="0.485" stop-color="#5fb0a6"/>
      <stop offset="0.883" stop-color="#31988d"/>
      <stop offset="1" stop-color="#239185"/>
    </radialGradient>
    <linearGradient id="linear-gradient-10" x1="0.915" y1="-0.123" x2="0.137" y2="1.041" xlink:href="#linear-gradient-5"/>
    <linearGradient id="linear-gradient-11" x1="13.582" y1="-1.192" x2="-4.601" y2="0.974" xlink:href="#linear-gradient-5"/>
    <linearGradient id="linear-gradient-12" x1="1.968" y1="-1.416" x2="0.056" y2="1.023" xlink:href="#linear-gradient-5"/>
    <radialGradient id="radial-gradient-50" cx="0.843" cy="0.111" r="1.153" gradientTransform="matrix(0, 1, -1.056, 0, -0.263, 0.379)" xlink:href="#radial-gradient-4"/>
    <linearGradient id="linear-gradient-13" x1="0.577" y1="0.854" x2="0.493" y2="-0.117" xlink:href="#linear-gradient-6"/>
    <linearGradient id="linear-gradient-14" x1="-0.735" y1="-0.408" x2="-0.131" y2="0.405" xlink:href="#linear-gradient-5"/>
    <linearGradient id="linear-gradient-15" x1="0.89" y1="-3.004" x2="-0.229" y2="0.911" xlink:href="#linear-gradient-5"/>
  </defs>
  <g id="Grupo_1180368" data-name="Grupo 1180368" transform="translate(-1058.296 -5360.092)">
    <g id="Grupo_1180367" data-name="Grupo 1180367" transform="translate(1057.83 5331.062)">
      <g id="Grupo_1180339" data-name="Grupo 1180339" transform="translate(86.596 60.007)">
        <path id="Trazado_999701" data-name="Trazado 999701" d="M206.2,135.24c-23.963.432-40.267,85.046.722,93.362C254.186,238.19,254.872,134.363,206.2,135.24Z" transform="translate(-175.932 -124.485)" fill="#eef7fc"/>
        <g id="Grupo_1180338" data-name="Grupo 1180338" transform="translate(0)">
          <rect id="Rectángulo_455551" data-name="Rectángulo 455551" width="11.556" height="7.511" transform="translate(17.999 135.145)" fill="url(#radial-gradient)"/>
          <rect id="Rectángulo_455552" data-name="Rectángulo 455552" width="11.556" height="7.511" transform="translate(41.708 135.145)" fill="url(#radial-gradient-2)"/>
          <g id="Grupo_1180318" data-name="Grupo 1180318" transform="translate(0 26.64)">
            <rect id="Rectángulo_455553" data-name="Rectángulo 455553" width="9.593" height="4.072" transform="translate(1.584 44.503) rotate(22.883)" fill="url(#radial-gradient-3)"/>
            <path id="Trazado_999702" data-name="Trazado 999702" d="M196.384,175.68l-.591,6.636-.552,6.2L186.007,211l-4.689,11.422a2.762,2.762,0,0,1-3.578,1.514l-6.592-2.63a2.761,2.761,0,0,1-1.592-3.444l10.424-31.031a16.371,16.371,0,0,1,15.515-11.155Z" transform="translate(-168.368 -175.68)" fill="url(#radial-gradient-4)"/>
            <g id="Grupo_1180317" data-name="Grupo 1180317" transform="translate(2.67 3.203)">
              <path id="Trazado_999703" data-name="Trazado 999703" d="M173.774,226.3l-.219-.072.058-.177.218.072Zm.273-.833-.218-.072.286-.875.218.072Zm.5-1.531-.218-.072.286-.875.219.071Zm.5-1.531-.218-.072.286-.875.219.072Zm.5-1.531-.218-.071.286-.875.219.072Zm.5-1.53-.218-.072.286-.875.219.072Zm.5-1.531-.218-.072.286-.875.219.071Zm.5-1.531-.219-.071.286-.875.219.072Zm.5-1.53-.219-.072.286-.875.219.072Zm.5-1.531-.219-.072.286-.875.219.071Zm.5-1.531-.219-.071.286-.875.219.071Zm.5-1.53-.219-.072.286-.875.219.072Zm.5-1.531-.219-.072.286-.875.219.072Zm.5-1.531-.219-.071.286-.875.219.071Zm.5-1.531-.219-.071.287-.875.218.071Zm.5-1.531-.219-.071.287-.875.218.071Zm.5-1.53-.219-.072.287-.875.218.072Zm.5-1.531-.219-.072.287-.875.218.071Zm.5-1.531-.219-.072.286-.875.219.071Zm.5-1.531-.218-.072.286-.875.219.071Zm.5-1.531-.218-.072.286-.875.218.072Zm.5-1.531-.218-.072.286-.875.218.071Zm.5-1.531-.219-.072.287-.875.218.071Zm.5-1.531-.219-.072.287-.875.218.071Zm.507-1.524-.216-.08c.108-.29.231-.578.366-.855l.207.1C185.808,189.7,185.688,189.982,185.583,190.265Zm.676-1.437-.2-.115c.154-.268.323-.531.5-.783l.187.134C186.575,188.309,186.41,188.566,186.259,188.827Zm.906-1.3-.178-.147c.2-.238.408-.47.626-.688l.163.163C187.563,187.064,187.358,187.29,187.165,187.523Zm1.111-1.137-.15-.174c.234-.2.48-.4.732-.575l.133.187C188.745,186,188.5,186.188,188.276,186.386Zm1.284-.936-.12-.2c.265-.161.54-.311.818-.446l.1.207C190.088,185.146,189.819,185.293,189.56,185.45Zm1.422-.71-.085-.214c.287-.115.583-.216.88-.3l.064.221C191.552,184.528,191.263,184.628,190.983,184.74Zm1.52-.464-.048-.225c.3-.065.612-.116.919-.152l.027.229C193.1,184.163,192.8,184.213,192.5,184.276Zm1.577-.2-.01-.23c.146-.006.293-.01.44-.01H195v.23h-.485C194.366,184.063,194.223,184.066,194.08,184.073Zm2.526-.009h-.921v-.23h.921Z" transform="translate(-173.555 -183.833)" fill="#e3bf29"/>
            </g>
          </g>
          <g id="Grupo_1180320" data-name="Grupo 1180320" transform="translate(42.565 26.64)">
            <rect id="Rectángulo_455554" data-name="Rectángulo 455554" width="9.593" height="4.072" transform="translate(28.017 48.255) rotate(157.117)" fill="url(#radial-gradient-5)"/>
            <path id="Trazado_999704" data-name="Trazado 999704" d="M300.335,221.311l-6.59,2.63a2.762,2.762,0,0,1-3.578-1.514l-4.39-10.7-9.533-23.212-.582-6.525-.563-6.314h.89A16.373,16.373,0,0,1,291.5,186.835l10.426,31.031A2.76,2.76,0,0,1,300.335,221.311Z" transform="translate(-275.098 -175.68)" fill="url(#radial-gradient-6)"/>
            <g id="Grupo_1180319" data-name="Grupo 1180319" transform="translate(2.296 3.203)">
              <path id="Trazado_999705" data-name="Trazado 999705" d="M303.774,226.3l-.058-.177.219-.072.058.177Zm-.273-.833-.286-.875.219-.072.286.875Zm-.5-1.531-.286-.875.219-.071.286.875Zm-.5-1.531-.286-.875.219-.072.286.875Zm-.5-1.531-.286-.875.219-.072.286.875Zm-.5-1.53-.287-.875.219-.072.287.875Zm-.5-1.531-.287-.875.219-.071.287.875Zm-.5-1.531-.287-.875.219-.072.287.875Zm-.5-1.53-.287-.875.219-.072.287.875Zm-.5-1.531-.287-.875.219-.071.287.875Zm-.5-1.531-.287-.874.219-.071.287.875Zm-.5-1.53-.287-.875.219-.072.286.875Zm-.5-1.531-.287-.875.219-.072.286.875Zm-.5-1.531-.287-.874.219-.071.286.875Zm-.5-1.531-.287-.875.219-.071.286.875Zm-.5-1.53-.286-.875.219-.071.286.875Zm-.5-1.531-.286-.875.219-.072.286.875Zm-.5-1.531-.286-.875.219-.071.286.875Zm-.5-1.531-.286-.875.219-.071.286.875Zm-.5-1.531-.286-.875.219-.071.286.875Zm-.5-1.531-.286-.875.219-.072.286.875Zm-.5-1.531-.286-.875.219-.071.286.875Zm-.5-1.531-.286-.875.219-.071.286.875Zm-.5-1.531-.286-.875.219-.071.286.875Zm-.507-1.524c-.105-.283-.225-.564-.357-.835l.207-.1c.135.278.258.566.365.855Zm-.676-1.438c-.151-.262-.316-.519-.491-.764l.187-.134c.179.251.348.515.5.783Zm-.906-1.3c-.191-.232-.4-.458-.611-.672l.163-.163c.22.219.431.451.626.688Zm-1.111-1.137c-.228-.2-.468-.386-.715-.561l.133-.187c.252.179.5.372.732.575Zm-1.284-.936c-.258-.157-.526-.3-.8-.435l.1-.207c.278.134.553.284.817.445Zm-1.422-.71c-.28-.112-.569-.211-.859-.3l.065-.221c.3.087.593.189.88.3Zm-1.52-.464c-.3-.063-.6-.114-.9-.149l.027-.229c.307.036.616.087.919.152Zm-1.577-.2q-.214-.009-.43-.009h-.485v-.23h.485c.147,0,.294,0,.44.01Zm-1.605-.009h-.921v-.23h.921Z" transform="translate(-280.942 -183.833)" fill="#e3bf29"/>
            </g>
          </g>
          <path id="Trazado_999706" data-name="Trazado 999706" d="M246.985,219.988H210.476l.462-16.325.706-24.839a11.977,11.977,0,0,1,2.993-7.587c.111-.122.221-.244.334-.361a11.876,11.876,0,0,1,3.2-2.382c.134-.069.271-.136.41-.2l10.149-4.708,10.152,4.708c.175.083.35.168.52.26a11.724,11.724,0,0,1,2.485,1.735c.108.1.216.2.32.3a11.953,11.953,0,0,1,3.61,8.233l.727,25.566Z" transform="translate(-193.3 -141.697)" fill="url(#radial-gradient-7)"/>
          <path id="Trazado_999707" data-name="Trazado 999707" d="M279.351,215.516,275.566,217l-3.785-1.485,3.785-1.484Z" transform="translate(-230.519 -172.324)" fill="url(#linear-gradient)"/>
          <g id="Grupo_1180321" data-name="Grupo 1180321" transform="translate(20.538 30.345)">
            <path id="Trazado_999708" data-name="Trazado 999708" d="M233.119,190.943c-.307,0-.618-.017-.924-.035l.014-.23c.3.018.611.03.914.035Zm.694,0,0-.23c.3-.005.611-.018.914-.037l.015.229C234.431,190.924,234.119,190.937,233.813,190.942Zm-2.311-.088c-.305-.029-.614-.065-.919-.108l.032-.228c.3.042.607.078.909.107Zm3.927,0-.022-.229c.3-.029.608-.065.909-.107l.032.228C236.043,190.784,235.735,190.821,235.429,190.85Zm-5.531-.211c-.3-.053-.608-.113-.908-.179l.05-.225c.3.065.6.125.9.177Zm7.136,0-.039-.227c.3-.051.6-.11.9-.174l.049.225C237.64,190.523,237.334,190.583,237.034,190.635Zm1.584-.333-.055-.224c.293-.072.591-.152.884-.238l.064.221C239.214,190.148,238.913,190.229,238.617,190.3Zm-10.3,0c-.3-.076-.6-.16-.891-.249l.066-.22c.292.088.589.171.882.246Zm11.859-.44-.071-.219c.285-.092.577-.192.867-.3l.078.216C240.755,189.666,240.461,189.767,240.173,189.859Zm-13.411-.021c-.292-.1-.585-.2-.87-.315l.083-.215c.283.109.572.214.861.312Zm14.934-.524-.084-.214c.28-.11.565-.228.847-.351l.092.211C242.266,189.084,241.979,189.2,241.7,189.314Zm-16.448-.052c-.284-.12-.568-.248-.845-.378l.1-.208c.274.13.555.256.836.375Zm17.934-.586-.1-.209q.41-.191.825-.4l.1.205Q243.6,188.484,243.183,188.676Zm-19.4-.1c-.273-.14-.548-.287-.816-.438l.113-.2c.265.15.536.3.807.434Zm20.847-.624-.108-.2q.4-.213.8-.444l.114.2Q245.03,187.738,244.628,187.953Zm-22.262-.164c-.264-.16-.527-.327-.782-.5l.127-.192c.252.167.513.332.774.49Zm23.667-.635-.119-.2q.388-.233.779-.484l.124.194Q246.423,186.919,246.033,187.154Zm-25.022-.254c-.255-.181-.505-.367-.744-.553l.141-.182c.236.184.483.367.736.547Zm26.385-.613-.128-.191q.377-.252.756-.52l.133.188Q247.776,186.035,247.4,186.288Zm-27.67-.378c-.449-.378-.684-.616-.694-.625l.164-.161s.238.24.679.611Zm28.992-.55-.136-.185.087-.064.136.186Z" transform="translate(-219.033 -185.111)" fill="#e3bf29"/>
          </g>
          <rect id="Rectángulo_455555" data-name="Rectángulo 455555" width="1.801" height="41.226" transform="translate(34.53 27.714)" fill="url(#radial-gradient-8)"/>
          <path id="Trazado_999709" data-name="Trazado 999709" d="M247.688,169.541a8.247,8.247,0,0,1-.706,1.049,13.637,13.637,0,0,1-5.778,4.061,22.491,22.491,0,0,1-8.281,1.514,22.975,22.975,0,0,1-7.423-1.192,14.949,14.949,0,0,1-6.086-3.737,9.411,9.411,0,0,1-1.072-1.392,16.282,16.282,0,0,1,4.6-1.351c.134-.069.271-.136.41-.2l10.149-4.708,10.152,4.708c.175.083.35.168.52.26A16.256,16.256,0,0,1,247.688,169.541Z" transform="translate(-198.075 -141.697)" fill="url(#radial-gradient-9)" style="mix-blend-mode: multiply;isolation: isolate"/>
          <path id="Trazado_999710" data-name="Trazado 999710" d="M218.295,367.755h-6.308a4.749,4.749,0,0,1-4.748-4.858l1.27-55.755h18.364l-3.839,56.187A4.75,4.75,0,0,1,218.295,367.755Z" transform="translate(-191.334 -228.853)" fill="url(#radial-gradient-10)"/>
          <path id="Trazado_999711" data-name="Trazado 999711" d="M228.129,164.219l-8.785,4.075c-.138.064-.276.131-.41.2a11.877,11.877,0,0,0-3.2,2.382c-.113.117-.224.239-.334.361a11.977,11.977,0,0,0-2.993,7.587l-.706,24.839-.462,16.325-1.27,55.755a4.748,4.748,0,0,0,4.747,4.857h-2.729a4.748,4.748,0,0,1-4.747-4.857l1.27-55.755.462-16.325.706-24.839a11.977,11.977,0,0,1,2.993-7.587c.111-.122.221-.244.334-.361a11.877,11.877,0,0,1,3.2-2.382c.134-.069.271-.136.41-.2l10.149-4.708Z" transform="translate(-191.335 -141.697)" fill="url(#linear-gradient-2)"/>
          <g id="Grupo_1180322" data-name="Grupo 1180322" transform="translate(35.43 78.29)">
            <path id="Trazado_999712" data-name="Trazado 999712" d="M276.571,362.9a4.75,4.75,0,0,1-4.747,4.857h-6.309a4.694,4.694,0,0,1-1.443-.225,4.747,4.747,0,0,1-3.3-4.2l-3.84-56.187H275.3Z" transform="translate(-256.936 -307.143)" fill="url(#radial-gradient-11)"/>
          </g>
          <path id="Trazado_999713" data-name="Trazado 999713" d="M264.072,367.53a4.747,4.747,0,0,1-3.3-4.2l-3.84-56.187h2.743Z" transform="translate(-221.506 -228.853)" fill="url(#linear-gradient-3)"/>
          <g id="Grupo_1180325" data-name="Grupo 1180325" transform="translate(17.605 68.825)">
            <g id="Grupo_1180323" data-name="Grupo 1180323">
              <path id="Trazado_999714" data-name="Trazado 999714" d="M247.209,283.281H247v-.23h.206Zm-.9,0h-.921v-.23h.921Zm-1.611,0h-.921v-.23h.921Zm-1.611,0h-.92v-.23h.92Zm-1.61,0h-.921v-.23h.921Zm-1.611,0h-.92v-.23h.92Zm-1.61,0h-.921v-.23h.921Zm-1.611,0h-.921v-.23h.921Zm-1.611,0h-.92v-.23h.92Zm-1.61,0h-.921v-.23h.921Zm-1.611,0H230.9v-.23h.921Zm-1.611,0h-.92v-.23h.92Zm-1.61,0h-.921v-.23h.921Zm-1.611,0h-.92v-.23h.92Zm-1.61,0h-.921v-.23h.921Zm-1.611,0h-.921v-.23h.921Zm-1.611,0h-.92v-.23h.92Zm-1.61,0h-.921v-.23h.921Zm-1.611,0h-.92v-.23h.92Zm-1.61,0H216.4v-.23h.921Zm-1.611,0h-.921v-.23h.921Zm-1.611,0h-.92v-.23h.92Zm-1.61,0h-.921v-.23h.921Z" transform="translate(-211.568 -283.051)" fill="#e3bf29"/>
            </g>
            <g id="Grupo_1180324" data-name="Grupo 1180324" transform="translate(0 1.863)">
              <path id="Trazado_999715" data-name="Trazado 999715" d="M247.209,288.022H247v-.23h.206Zm-.9,0h-.921v-.23h.921Zm-1.611,0h-.921v-.23h.921Zm-1.611,0h-.92v-.23h.92Zm-1.61,0h-.921v-.23h.921Zm-1.611,0h-.92v-.23h.92Zm-1.61,0h-.921v-.23h.921Zm-1.611,0h-.921v-.23h.921Zm-1.611,0h-.92v-.23h.92Zm-1.61,0h-.921v-.23h.921Zm-1.611,0H230.9v-.23h.921Zm-1.611,0h-.92v-.23h.92Zm-1.61,0h-.921v-.23h.921Zm-1.611,0h-.92v-.23h.92Zm-1.61,0h-.921v-.23h.921Zm-1.611,0h-.921v-.23h.921Zm-1.611,0h-.92v-.23h.92Zm-1.61,0h-.921v-.23h.921Zm-1.611,0h-.92v-.23h.92Zm-1.61,0H216.4v-.23h.921Zm-1.611,0h-.921v-.23h.921Zm-1.611,0h-.92v-.23h.92Zm-1.61,0h-.921v-.23h.921Z" transform="translate(-211.568 -287.792)" fill="#e3bf29"/>
            </g>
          </g>
          <g id="Grupo_1180326" data-name="Grupo 1180326" transform="translate(35.431 78.175)">
            <path id="Trazado_999716" data-name="Trazado 999716" d="M263.958,367.361l-.035-.471.23-.017.035.471Zm-.084-1.16-.067-.918.229-.016.067.918Zm-.117-1.607-.067-.918.23-.016.067.918Zm-.117-1.607-.067-.918.229-.016.067.918Zm-.117-1.606-.067-.918.23-.017.067.918Zm-.117-1.607-.067-.918.23-.016.066.918Zm-.117-1.607-.066-.918.229-.017.067.918Zm-.117-1.607-.067-.918.23-.017.067.918Zm-.117-1.607-.067-.918.229-.017.067.918Zm-.117-1.607-.067-.918.23-.016.067.918Zm-.117-1.606-.067-.918.23-.017.066.918Zm-.117-1.606-.066-.918.229-.017.067.918Zm-.117-1.607-.067-.918.23-.017.067.918Zm-.117-1.607-.067-.918.229-.016.067.918Zm-.117-1.606-.067-.918.23-.017.067.918Zm-.117-1.607-.067-.918.229-.016.067.918Zm-.117-1.607-.066-.918.229-.017.067.918ZM262,340.5l-.067-.918.23-.016.067.918Zm-.117-1.607-.067-.918.229-.017.067.918Zm-.117-1.607-.067-.918.23-.016.067.918Zm-.117-1.606-.067-.918.229-.016.067.918Zm-.117-1.606-.066-.918.229-.016.067.918Zm-.117-1.607-.067-.918.23-.017.067.918Zm-.117-1.607-.067-.918.229-.016.067.918Zm-.117-1.606-.067-.918.23-.017.067.918Zm-.117-1.607-.067-.918.229-.017.067.918Zm-.117-1.607-.066-.918.229-.017.067.918Zm-.117-1.606-.067-.918.23-.016.066.918Zm-.117-1.607-.067-.918.229-.017.067.918Zm-.117-1.607-.067-.918.23-.016.067.918Zm-.117-1.607-.067-.918.229-.017.067.918Zm-.117-1.606-.067-.918.23-.016.067.918Zm-.117-1.607-.067-.918.229-.017.067.918Zm-.117-1.607-.067-.918.23-.016.067.918Zm-.117-1.607-.067-.918.229-.017.067.918Zm-.117-1.607-.067-.918.23-.017.067.918Zm-.117-1.607-.067-.918.23-.016.066.918Zm-.117-1.606-.066-.918.229-.016.067.918Zm-.2-1.289h-.921v-.23h.921Zm-1.611,0h-.92v-.23h.92Z" transform="translate(-256.939 -306.85)" fill="#e3bf29"/>
          </g>
          <g id="Grupo_1180327" data-name="Grupo 1180327" transform="translate(17.896 70.799)">
            <path id="Trazado_999717" data-name="Trazado 999717" d="M212.538,355l-.23-.008.031-.92.23.007Zm.054-1.61-.23-.007.031-.92.23.008Zm.054-1.61-.23-.007.031-.92.23.008Zm.055-1.61-.23-.008.031-.92.23.007Zm.054-1.61-.23-.007.031-.92.23.008Zm.054-1.61-.23-.008.031-.919.23.007Zm.054-1.61-.23-.008.031-.92.23.008Zm.054-1.61-.23-.007.031-.92.23.007Zm.054-1.61-.23-.007.031-.92.23.007Zm.054-1.61-.23-.008.031-.92.23.008Zm.054-1.61-.23-.008.031-.92.23.007Zm.054-1.61-.23-.008.031-.92.23.007Zm.054-1.61-.23-.007.031-.92.23.008Zm.055-1.61-.23-.008.031-.92.23.007Zm.054-1.61-.23-.008.031-.92.23.007Zm.054-1.61-.23-.007.031-.92.23.008Zm.055-1.61-.23-.007.031-.92.23.007Zm.054-1.61-.23-.008.031-.92.23.007Zm.054-1.61-.23-.008.031-.92.23.008Zm.054-1.61-.23-.007.031-.92.23.007Zm.054-1.61-.23-.008.031-.92.23.008Zm.054-1.61-.23-.008.031-.92.23.007Zm.054-1.61-.23-.007.031-.92.23.007Zm.054-1.61-.23-.008.031-.92.23.008Zm.054-1.61-.23-.008.031-.92.23.007Zm.054-1.61-.23-.008.031-.92.23.008Zm.055-1.61-.23-.007.031-.92.23.008Zm.054-1.61-.23-.008.031-.92.23.007Zm.054-1.61-.23-.008.031-.92.23.008Zm.054-1.61-.23-.008.031-.92.23.008Zm.054-1.61-.23-.008.031-.92.23.007Zm.054-1.61-.23-.008.031-.92.23.007Zm.054-1.61-.23-.007.031-.92.23.008Zm.054-1.61-.23-.008.031-.92.23.008Zm.054-1.61-.23-.008.031-.92.23.008Zm.054-1.61-.23-.007.031-.92.23.007Zm.054-1.61-.23-.007.031-.92.23.008Zm.055-1.61-.23-.008.031-.92.23.008Zm.054-1.61-.23-.007.031-.92.23.007Zm.055-1.609-.23-.008.031-.92.23.007Zm.054-1.61-.23-.007.031-.92.23.008Zm.054-1.61-.23-.008.031-.92.23.007Z" transform="translate(-212.308 -288.075)" fill="#e3bf29"/>
          </g>
          <g id="Grupo_1180337" data-name="Grupo 1180337" transform="translate(23.127)">
            <g id="Grupo_1180328" data-name="Grupo 1180328" transform="translate(0.001)">
              <path id="Trazado_999718" data-name="Trazado 999718" d="M237.927,107.874h0A11.287,11.287,0,0,0,226.712,117.9l-1.009,8.949a12.3,12.3,0,0,0,12.224,13.68h0a12.3,12.3,0,0,0,12.224-13.68l-1.009-8.949A11.286,11.286,0,0,0,237.927,107.874Z" transform="translate(-225.624 -107.874)" fill="url(#radial-gradient-12)"/>
            </g>
            <g id="Grupo_1180329" data-name="Grupo 1180329" transform="translate(0 1.765)">
              <path id="Trazado_999719" data-name="Trazado 999719" d="M248.167,137.763a12.3,12.3,0,0,1-22.465-8.191l1.012-8.948a11.252,11.252,0,0,1,5.156-8.258,11.2,11.2,0,0,0-1.692,4.8l-1.012,8.947a12.309,12.309,0,0,0,19,11.651Z" transform="translate(-225.623 -112.366)" fill="url(#radial-gradient-13)"/>
            </g>
            <path id="Trazado_999720" data-name="Trazado 999720" d="M241.287,129.307a13.986,13.986,0,0,1,10.234,4.231s.783,12.573-10.234,12.573-10.113-12.573-10.113-12.573A13.551,13.551,0,0,1,241.287,129.307Z" transform="translate(-228.982 -120.886)" fill="url(#radial-gradient-14)"/>
            <path id="Trazado_999721" data-name="Trazado 999721" d="M243.183,129.871a12.04,12.04,0,0,1,9.006,3.957s.689,10.87-9.006,10.87-8.9-10.87-8.9-10.87A11.676,11.676,0,0,1,243.183,129.871Z" transform="translate(-230.872 -121.229)" fill="#222232"/>
            <g id="Grupo_1180333" data-name="Grupo 1180333" transform="translate(1.19 6.599)">
              <g id="Grupo_1180330" data-name="Grupo 1180330" transform="translate(21.757 3.802)">
                <path id="Trazado_999722" data-name="Trazado 999722" d="M284.308,134.844a3.664,3.664,0,0,0-.279-.345l.172-.153a3.849,3.849,0,0,1,.3.37Z" transform="translate(-284.029 -134.346)" fill="#e5c43b"/>
              </g>
              <g id="Grupo_1180331" data-name="Grupo 1180331" transform="translate(0.801)">
                <path id="Trazado_999723" data-name="Trazado 999723" d="M251.167,128.138a8.911,8.911,0,0,0-.7-.583l.138-.184a9.243,9.243,0,0,1,.721.6Zm-20.32-.007-.156-.169a9.312,9.312,0,0,1,.721-.6l.138.184A9.012,9.012,0,0,0,230.847,128.132Zm19.055-.97c-.251-.163-.516-.321-.788-.468l.11-.2c.277.15.547.31.8.477Zm-17.789-.006-.125-.193c.257-.167.527-.327.8-.477l.109.2C232.63,126.835,232.365,126.992,232.113,127.156Zm16.387-.772c-.271-.128-.554-.249-.843-.361l.084-.215c.293.114.582.238.857.368Zm-14.985,0-.1-.208c.277-.13.565-.254.858-.367l.084.215C234.071,126.13,233.787,126.251,233.515,126.379Zm13.494-.591c-.286-.1-.582-.185-.88-.264l.06-.222c.3.081.6.171.893.269Zm-12,0-.073-.218c.29-.1.59-.187.893-.268l.06.222C235.588,125.6,235.292,125.69,235.006,125.785Zm10.455-.426c-.293-.066-.6-.125-.9-.177l.039-.227c.309.052.616.113.913.18Zm-8.906,0-.05-.224c.3-.067.606-.127.914-.179l.039.227C237.154,125.232,236.85,125.291,236.555,125.357Zm7.322-.278c-.3-.04-.608-.073-.915-.1l.02-.229c.31.027.622.061.925.1Zm-5.738,0-.03-.228c.3-.04.614-.073.925-.1l.02.229C238.746,125,238.439,125.038,238.14,125.077Zm4.134-.147c-.3-.016-.61-.027-.92-.031l0-.23c.313,0,.625.015.929.032Zm-2.531,0-.012-.23c.3-.016.618-.027.929-.031l0,.23C240.354,124.9,240.045,124.914,239.743,124.93Z" transform="translate(-230.691 -124.669)" fill="#e5c43b"/>
              </g>
              <g id="Grupo_1180332" data-name="Grupo 1180332" transform="translate(0 3.802)">
                <path id="Trazado_999724" data-name="Trazado 999724" d="M228.843,134.844l-.191-.128a3.82,3.82,0,0,1,.3-.37l.172.153A3.534,3.534,0,0,0,228.843,134.844Z" transform="translate(-228.652 -134.346)" fill="#e5c43b"/>
              </g>
            </g>
            <g id="Grupo_1180336" data-name="Grupo 1180336" transform="translate(11.748 0.625)">
              <g id="Grupo_1180334" data-name="Grupo 1180334" transform="translate(0.881)">
                <path id="Trazado_999725" data-name="Trazado 999725" d="M258,116.828h-.23v-.921H258Zm0-1.611h-.23v-.92H258Zm0-1.61h-.23v-.921H258ZM258,112h-.23v-.921H258Zm0-1.611h-.23v-.92H258Z" transform="translate(-257.767 -109.465)" fill="#e5c43b"/>
              </g>
              <g id="Grupo_1180335" data-name="Grupo 1180335">
                <path id="Trazado_999726" data-name="Trazado 999726" d="M255.754,116.828h-.23v-.921h.23Zm0-1.611h-.23v-.92h.23Zm0-1.61h-.23v-.921h.23Zm0-1.611h-.23v-.921h.23Zm0-1.611h-.23v-.92h.23Z" transform="translate(-255.524 -109.465)" fill="#e5c43b"/>
              </g>
            </g>
          </g>
        </g>
      </g>
      <g id="Grupo_1180343" data-name="Grupo 1180343" transform="translate(34.72 81.551)">
        <path id="Trazado_999727" data-name="Trazado 999727" d="M81.682,194.455c-19.235-12.73-36.465,20.971-23.252,33.336S123.176,221.917,81.682,194.455Z" transform="translate(-46.293 -180.267)" fill="#eef7fc"/>
        <g id="Grupo_1180342" data-name="Grupo 1180342">
          <g id="Grupo_1180340" data-name="Grupo 1180340" transform="translate(25.162)">
            <path id="Trazado_999728" data-name="Trazado 999728" d="M120.72,188.145a18.9,18.9,0,0,0,2.087-4.13l3.563-9.905a4.207,4.207,0,0,0-4.807,2.323l-.949,2.053a7.174,7.174,0,0,1-2.175,2.7,4.51,4.51,0,0,1-.152-2.829l1.807-6.63,1.624-3a2.669,2.669,0,0,0-.8-3.6l-4.349,4.928-2.306,5.3.409-4.562,1.667-4.339a2.669,2.669,0,0,0-1.424-3.4l-4.009,6.72-.948,3.986-.054-3.332,1.2-4.491a2.669,2.669,0,0,0-1.775-3.234l-3.279,7.1-.618,4.8-.488-1.385-.288-4.64a2.669,2.669,0,0,0-2.709-2.5l-.854,7.778-.594,7.293a19.644,19.644,0,0,0,.689,6.982l-2.419,12.183c9.1,8.893,20.766,2.058,20.766,2.058l-3.172-9.638A18.916,18.916,0,0,0,120.72,188.145Z" transform="translate(-98.765 -162.709)" fill="url(#linear-gradient-4)"/>
            <line id="Línea_3546" data-name="Línea 3546" y1="4.969" x2="8.229" transform="translate(6.708 18.675)" fill="none" stroke="#abd1cb" stroke-miterlimit="10" stroke-width="0.25"/>
            <line id="Línea_3547" data-name="Línea 3547" y1="2.071" x2="2.895" transform="translate(10.844 21.575)" fill="none" stroke="#abd1cb" stroke-miterlimit="10" stroke-width="0.25"/>
            <path id="Trazado_999729" data-name="Trazado 999729" d="M110.341,179.83l-.6.489h0a9.975,9.975,0,0,1-.63-3.277l-.051-2.316a3.892,3.892,0,0,0-2.207-3.423h0" transform="translate(-103.677 -167.926)" fill="none" stroke="#abd1cb" stroke-miterlimit="10" stroke-width="0.25"/>
            <path id="Trazado_999730" data-name="Trazado 999730" d="M125.328,162.709h0a3.859,3.859,0,0,1,.986,3.945l-1.191,3.717.028,3.865.8-.611" transform="translate(-114.767 -162.709)" fill="none" stroke="#abd1cb" stroke-miterlimit="10" stroke-width="0.25"/>
            <path id="Trazado_999731" data-name="Trazado 999731" d="M137.932,163.6h0a3.638,3.638,0,0,1,.727,4.1l-1.613,3.474-.363,4.691.635-.115" transform="translate(-121.786 -163.251)" fill="none" stroke="#abd1cb" stroke-miterlimit="10" stroke-width="0.25"/>
            <path id="Trazado_999732" data-name="Trazado 999732" d="M149.118,168.884h0a3.654,3.654,0,0,1-.058,4.267l-1.447,1.954-2.393,7.665.607,2.8.861-.744" transform="translate(-126.968 -166.458)" fill="none" stroke="#abd1cb" stroke-miterlimit="10" stroke-width="0.25"/>
            <path id="Trazado_999733" data-name="Trazado 999733" d="M152.129,191.378h0a1.737,1.737,0,0,0-1.2,1.145l-2.15,6.7a22.8,22.8,0,0,1-7.133,10.568h0l3.253,10.338" transform="translate(-124.801 -180.114)" fill="none" stroke="#abd1cb" stroke-miterlimit="10" stroke-width="0.25"/>
            <path id="Trazado_999734" data-name="Trazado 999734" d="M99.212,256.189s7.487,8.3,20.359,2.241" transform="translate(-99.036 -219.462)" fill="none" stroke="#abd1cb" stroke-miterlimit="10" stroke-width="0.25"/>
          </g>
          <g id="Grupo_1180341" data-name="Grupo 1180341" transform="translate(0 6.53)">
            <path id="Trazado_999735" data-name="Trazado 999735" d="M63.442,196.553a18.9,18.9,0,0,0-1.223-4.462l-4-9.736A4.206,4.206,0,0,0,56.21,187.3l.673,2.159a7.177,7.177,0,0,1,.2,3.465,4.508,4.508,0,0,1-2.01-2L51.967,184.8l-.806-3.312a2.668,2.668,0,0,0-3.011-2.13l.081,6.571,1.847,5.478-2.758-3.658-1.676-4.336a2.669,2.669,0,0,0-3.339-1.568l1.535,7.673,1.972,3.592-2.275-2.434-2.124-4.135a2.669,2.669,0,0,0-3.485-1.207l2.335,7.468,2.762,3.973-1.292-.7-3.326-3.247a2.669,2.669,0,0,0-3.688-.039l4.585,6.341,4.453,5.806a19.641,19.641,0,0,0,5.2,4.715l6.379,10.657c12.717.487,16.78-12.407,16.78-12.407l-8.819-5.019A18.911,18.911,0,0,0,63.442,196.553Z" transform="translate(-34.72 -179.331)" fill="url(#linear-gradient-5)"/>
            <path id="Trazado_999736" data-name="Trazado 999736" d="M43.026,217.331l-.115.763h0a9.975,9.975,0,0,1-2.666-2.007L38.652,214.4a3.891,3.891,0,0,0-3.932-1.058h0" transform="translate(-34.72 -199.884)" fill="none" stroke="#cbd8be" stroke-miterlimit="10" stroke-width="0.25"/>
            <path id="Trazado_999737" data-name="Trazado 999737" d="M42.886,194.616h0a3.86,3.86,0,0,1,3.378,2.264l1.611,3.556,2.613,2.848.186-.992" transform="translate(-39.678 -188.611)" fill="none" stroke="#cbd8be" stroke-miterlimit="10" stroke-width="0.25"/>
            <path id="Trazado_999738" data-name="Trazado 999738" d="M54.027,185.738h0a3.638,3.638,0,0,1,3.293,2.555l1.135,3.659,2.878,3.722.394-.511" transform="translate(-46.442 -183.221)" fill="none" stroke="#cbd8be" stroke-miterlimit="10" stroke-width="0.25"/>
            <path id="Trazado_999739" data-name="Trazado 999739" d="M68.9,179.4h0a3.653,3.653,0,0,1,2.82,3.2l.238,2.42,3.368,7.289,2.326,1.667.139-1.129" transform="translate(-55.472 -179.376)" fill="none" stroke="#cbd8be" stroke-miterlimit="10" stroke-width="0.25"/>
            <path id="Trazado_999740" data-name="Trazado 999740" d="M93.344,187.241h0a1.738,1.738,0,0,0-.118,1.652l2.9,6.413a22.8,22.8,0,0,1,1.8,12.622h0l9.349,5.483" transform="translate(-70.146 -184.133)" fill="none" stroke="#cbd8be" stroke-miterlimit="10" stroke-width="0.25"/>
            <path id="Trazado_999741" data-name="Trazado 999741" d="M86,263.127s11.12,1.13,16.6-12" transform="translate(-65.855 -222.92)" fill="none" stroke="#cbd8be" stroke-miterlimit="10" stroke-width="0.25"/>
            <line id="Línea_3548" data-name="Línea 3548" y1="1.528" x2="8.473" transform="translate(15.474 22.208)" fill="none" stroke="#cbd8be" stroke-miterlimit="10" stroke-width="0.25"/>
            <line id="Línea_3549" data-name="Línea 3549" y1="0.221" x2="3.578" transform="translate(18.562 24.546)" fill="none" stroke="#cbd8be" stroke-miterlimit="10" stroke-width="0.25"/>
          </g>
        </g>
      </g>
      <g id="Grupo_1180345" data-name="Grupo 1180345" transform="translate(146.607 48.201)">
        <path id="Trazado_999742" data-name="Trazado 999742" d="M325.492,113.082c-12.541,5.887-4.176,24,13.835,25.041s32.6-14.379,14.921-26.2C343.763,104.906,333.216,109.456,325.492,113.082Z" transform="translate(-319.502 -96.295)" fill="#eef7fc"/>
        <g id="Grupo_1180344" data-name="Grupo 1180344" transform="translate(0.264)">
          <path id="Trazado_999743" data-name="Trazado 999743" d="M389.246,127.4c2.933,6.933,8.359-1.034,15.564,3.126,9.957,5.749-3.309,23.981-19.874,10.061" transform="translate(-359.492 -107.919)" fill="none" stroke="#cbd8be" stroke-miterlimit="10" stroke-width="1"/>
          <path id="Trazado_999744" data-name="Trazado 999744" d="M331.381,90.761c-3.4-4.6-1.256-13.612,4.376-12.9s.953,6.988-10.663,7.793.981,15.309.981,15.309" transform="translate(-320.175 -77.824)" fill="none" stroke="#cbd8be" stroke-miterlimit="10" stroke-width="1"/>
          <path id="Trazado_999745" data-name="Trazado 999745" d="M357.745,113.966,355.914,118a9.456,9.456,0,0,1-6.787,5.365l-5.4,1.059a9.454,9.454,0,0,1-9.951-4.469l-3.29-5.577a9.452,9.452,0,0,1-.717-8.108l1.486-3.969a9.447,9.447,0,0,1,5.474-5.517l7.522-2.877a1.89,1.89,0,0,1,1.974.392l9.405,8.9A9.442,9.442,0,0,1,357.745,113.966Z" transform="translate(-325.639 -87.514)" fill="url(#radial-gradient-15)"/>
          <path id="Trazado_999746" data-name="Trazado 999746" d="M366.833,114.158,365,118.193a9.456,9.456,0,0,1-6.787,5.365l-5.4,1.059a9.433,9.433,0,0,1-6.36-.99A21.167,21.167,0,0,1,345.1,107.7a25.524,25.524,0,0,1,.936-2.58,33.96,33.96,0,0,1,7.589-10.7,1.168,1.168,0,0,1,1.61,0l9.481,8.968A9.442,9.442,0,0,1,366.833,114.158Z" transform="translate(-334.727 -87.706)" fill="url(#radial-gradient-16)"/>
          <path id="Trazado_999747" data-name="Trazado 999747" d="M346.557,104.822l5.7-2.084,8.959,7.338" transform="translate(-336.192 -92.95)" fill="none" stroke="#fff" stroke-miterlimit="10" stroke-width="0.75"/>
          <path id="Trazado_999748" data-name="Trazado 999748" d="M357.111,114.864,355.4,118.64a8.85,8.85,0,0,1-6.351,5.021l-5.053.991a8.847,8.847,0,0,1-9.312-4.181l-3.079-5.22a8.844,8.844,0,0,1-.672-7.587l1.39-3.714a8.841,8.841,0,0,1,5.122-5.163l7.218-2.76a1.466,1.466,0,0,1,1.53.3l8.941,8.457A8.837,8.837,0,0,1,357.111,114.864Z" transform="translate(-326.367 -88.816)" fill="none" stroke="#cbd8be" stroke-miterlimit="10" stroke-width="0.25" stroke-dasharray="2 1"/>
          <path id="Trazado_999749" data-name="Trazado 999749" d="M357.745,131.444l-1.831,4.035a9.456,9.456,0,0,1-6.787,5.365l-5.4,1.059a9.454,9.454,0,0,1-9.951-4.469l-3.29-5.577a9.452,9.452,0,0,1-.717-8.108l.438-1.176,2.031,3.444a10.848,10.848,0,0,0,11.416,5.125l6.191-1.215a10.834,10.834,0,0,0,7.785-6.155l.086-.192A9.419,9.419,0,0,1,357.745,131.444Z" transform="translate(-325.639 -104.992)" opacity="0.5" fill="url(#linear-gradient-6)" style="mix-blend-mode: multiply;isolation: isolate"/>
        </g>
      </g>
      <g id="Grupo_1180348" data-name="Grupo 1180348" transform="translate(64.169 29.03)">
        <path id="Trazado_999750" data-name="Trazado 999750" d="M128.723,29.076c21.322,1.1,31.866,29.773,14.421,30.377s-34.8,7.1-33.388-10.026S118.612,28.555,128.723,29.076Z" transform="translate(-109.675 -29.03)" fill="#eef7fc"/>
        <g id="Grupo_1180347" data-name="Grupo 1180347" transform="translate(3.146 1.822)">
          <path id="Trazado_999751" data-name="Trazado 999751" d="M136.769,33.668a5.914,5.914,0,0,0,.32.669l-1.073,4.425q-.182-.246-.359-.507Z" transform="translate(-128.595 -33.668)" fill="url(#radial-gradient-17)"/>
          <path id="Trazado_999752" data-name="Trazado 999752" d="M163.372,49.949l-.816,3.363c-10.958-1.854-20.6-6.105-25.985-13.517l1.073-4.425C138.959,37.835,144.786,46.421,163.372,49.949Z" transform="translate(-129.15 -34.701)" fill="url(#radial-gradient-18)" style="mix-blend-mode: multiply;isolation: isolate"/>
          <path id="Trazado_999753" data-name="Trazado 999753" d="M221.415,74.006l-3.2,2.972A86.2,86.2,0,0,1,202.71,75.84l.816-3.363A96.227,96.227,0,0,0,221.415,74.006Z" transform="translate(-169.304 -57.229)" fill="url(#radial-gradient-19)"/>
          <path id="Trazado_999754" data-name="Trazado 999754" d="M153.95,40.652,148.482,63.2a13.394,13.394,0,0,1-8.878,9.592,13.01,13.01,0,0,1-3.083.615,11.7,11.7,0,0,1-2.079,0,12.948,12.948,0,0,1-2.157-.337l-14.6-3.541,8.629-35.583Z" transform="translate(-117.683 -33.839)" opacity="0.5" fill="url(#radial-gradient-20)" style="mix-blend-mode: multiply;isolation: isolate"/>
          <g id="Grupo_1180346" data-name="Grupo 1180346" transform="translate(0.02 0.11)">
            <path id="Trazado_999755" data-name="Trazado 999755" d="M135.629,36.2,129.568,61.2a10.893,10.893,0,0,1-9.946,8.312,10.65,10.65,0,0,1-1.888-.059l8.609-35.5Z" transform="translate(-117.734 -33.949)" opacity="0.5" fill="url(#radial-gradient-21)" style="mix-blend-mode: multiply;isolation: isolate"/>
            <path id="Trazado_999756" data-name="Trazado 999756" d="M117.734,72.928a10.65,10.65,0,0,0,1.888.059,10.893,10.893,0,0,0,9.946-8.312l6.061-24.995" transform="translate(-117.734 -37.429)" fill="none" stroke="#707070" stroke-miterlimit="10" stroke-width="1" opacity="0.2"/>
          </g>
          <rect id="Rectángulo_455556" data-name="Rectángulo 455556" width="36.614" height="2.851" transform="translate(0 35.693) rotate(-76.368)" opacity="0.6" fill="url(#linear-gradient-7)" style="mix-blend-mode: overlay;isolation: isolate"/>
          <path id="Trazado_999757" data-name="Trazado 999757" d="M176.873,46.152l-8.158,33.639a13.008,13.008,0,0,1-3.083.615L174.1,45.48Z" transform="translate(-146.793 -40.839)" opacity="0.6" fill="url(#linear-gradient-8)" style="mix-blend-mode: overlay;isolation: isolate"/>
          <path id="Trazado_999758" data-name="Trazado 999758" d="M157.469,41.506l-8.587,35.407a12.95,12.95,0,0,1-2.157-.337L141.467,75.3l8.63-35.583Z" transform="translate(-132.122 -37.341)" opacity="0.6" fill="url(#linear-gradient-9)" style="mix-blend-mode: overlay;isolation: isolate"/>
          <path id="Trazado_999759" data-name="Trazado 999759" d="M153.95,51.01l-5.468,22.547a13.394,13.394,0,0,1-8.878,9.592,13.009,13.009,0,0,1-3.083.615,11.7,11.7,0,0,1-2.079,0,12.948,12.948,0,0,1-2.157-.337l-14.6-3.541" transform="translate(-117.683 -44.197)" fill="none" stroke="#707070" stroke-miterlimit="10" stroke-width="1"/>
          <rect id="Rectángulo_455557" data-name="Rectángulo 455557" width="32.134" height="4.719" transform="matrix(0.972, 0.236, -0.236, 0.972, 8.175, 0.002)" fill="url(#radial-gradient-22)"/>
          <path id="Trazado_999760" data-name="Trazado 999760" d="M207.97,55.465a1.056,1.056,0,1,1-.777-1.275A1.056,1.056,0,0,1,207.97,55.465Z" transform="translate(-171.233 -46.109)" fill="#fff"/>
          <path id="Trazado_999761" data-name="Trazado 999761" d="M216.256,52.949c7.054,1.711,11.189,6.2,12.705,9.2l-3.2,2.971s-2.441-5.6-10.621-7.589Z" transform="translate(-176.853 -45.374)" fill="url(#radial-gradient-23)"/>
        </g>
      </g>
      <g id="Grupo_1180358" data-name="Grupo 1180358" transform="translate(41.198 141.16)">
        <path id="Trazado_999762" data-name="Trazado 999762" d="M76.456,317.859c-22.546-12.5-35.858,12.3-14.395,24.316,9.694,5.428,3.615,25.253,25.637,20.444C101.171,359.676,102.053,332.051,76.456,317.859Z" transform="translate(-51.208 -314.429)" fill="#eef7fc"/>
        <g id="Grupo_1180357" data-name="Grupo 1180357" transform="translate(6.983 3.562)">
          <path id="Trazado_999763" data-name="Trazado 999763" d="M72.863,340.366l14.417,1.811-.8-17.667-13.734.618a3.939,3.939,0,0,0-3.758,4.112l.332,7.384A3.938,3.938,0,0,0,72.863,340.366Z" transform="translate(-68.986 -324.112)" fill="url(#radial-gradient-24)"/>
          <path id="Trazado_999764" data-name="Trazado 999764" d="M73.978,341.367l-1.123-.114a3.941,3.941,0,0,1-3.538-3.742l-.332-7.384a3.938,3.938,0,0,1,3.757-4.112l1.021-.046a4.421,4.421,0,0,0-2.175,4l.355,7.881A4.43,4.43,0,0,0,73.978,341.367Z" transform="translate(-68.981 -324.997)" fill="url(#radial-gradient-25)"/>
          <g id="Grupo_1180349" data-name="Grupo 1180349" transform="translate(2.603 0.917)">
            <path id="Trazado_999765" data-name="Trazado 999765" d="M76.385,337.751l-.355-7.881A3.994,3.994,0,0,1,79,325.83l-1.218.055a4.421,4.421,0,0,0-2.175,4l.355,7.881A4.43,4.43,0,0,0,78,341.282l1.259.125A4.028,4.028,0,0,1,76.385,337.751Z" transform="translate(-75.606 -325.83)" fill="url(#radial-gradient-26)"/>
          </g>
          <path id="Trazado_999766" data-name="Trazado 999766" d="M101.877,323.973l-9.151.412a5.36,5.36,0,0,0-4.922,6.8l2.506,8.964a11.6,11.6,0,0,1,.033,6.123l-3.42,12.759a5.361,5.361,0,0,0,5.419,6.744l8.909-.4a5.361,5.361,0,0,0,4.937-3.967l4.741-17.689a5.359,5.359,0,0,0-.015-2.831l-3.633-13A5.362,5.362,0,0,0,101.877,323.973Z" transform="translate(-79.76 -323.782)" fill="url(#radial-gradient-27)"/>
          <path id="Trazado_999767" data-name="Trazado 999767" d="M112.352,323.5l-9.15.412a5.361,5.361,0,0,0-4.922,6.8l2.506,8.963a11.591,11.591,0,0,1,.033,6.123L97.4,358.557a5.361,5.361,0,0,0,5.419,6.743l8.909-.4a5.361,5.361,0,0,0,4.937-3.967l4.3-16.04a11.6,11.6,0,0,0-.033-6.123l-3.174-11.355A5.36,5.36,0,0,0,112.352,323.5Z" transform="translate(-86.12 -323.496)" fill="url(#radial-gradient-28)"/>
          <path id="Trazado_999768" data-name="Trazado 999768" d="M130.288,340l-1.818-.981-1.272-5.093a1.639,1.639,0,0,0-1.663-1.24l-8.126.366-1.93-1.041-1.368,1.716.007,0a1.625,1.625,0,0,0-.345,1.451l1.607,6.433a1.638,1.638,0,0,0,1.663,1.24l10.248-.461a1.616,1.616,0,0,0,1.111-.519l.008,0Z" transform="translate(-96.144 -328.665)" fill="url(#radial-gradient-29)"/>
          <g id="Grupo_1180350" data-name="Grupo 1180350" transform="translate(19.076 2.283)">
            <path id="Trazado_999769" data-name="Trazado 999769" d="M131.495,339.011l-10.787.486a1.374,1.374,0,0,1-1.395-1.04l-1.737-6.957a1.374,1.374,0,0,1,1.271-1.706l10.786-.486a1.374,1.374,0,0,1,1.395,1.04l1.738,6.957A1.374,1.374,0,0,1,131.495,339.011Z" transform="translate(-117.534 -329.307)" fill="url(#radial-gradient-30)"/>
          </g>
          <path id="Trazado_999770" data-name="Trazado 999770" d="M132.937,339.838l-8.485.382a1.065,1.065,0,0,1-1.095-.759l-1.35-5.1a1.029,1.029,0,0,1,1-1.254l8.485-.382a1.065,1.065,0,0,1,1.095.759l1.35,5.1A1.029,1.029,0,0,1,132.937,339.838Z" transform="translate(-101.155 -329.1)" fill="url(#radial-gradient-31)"/>
          <path id="Trazado_999771" data-name="Trazado 999771" d="M133.268,339.783a.88.88,0,0,0-.015-.416l-1.351-5.1a1.065,1.065,0,0,0-1.094-.759l-8.486.382a1.047,1.047,0,0,0-.3.055,1.066,1.066,0,0,1,1.018-.838l8.486-.382a1.065,1.065,0,0,1,1.094.759l1.351,5.1A1.012,1.012,0,0,1,133.268,339.783Z" transform="translate(-101.181 -329.1)" fill="url(#radial-gradient-32)"/>
          <g id="Grupo_1180352" data-name="Grupo 1180352" transform="translate(23.408 6.052)">
            <path id="Trazado_999772" data-name="Trazado 999772" d="M129.971,339.657l-.2.277-.881.04-.332-.249.2-.277.881-.04Z" transform="translate(-128.56 -339.209)" fill="url(#radial-gradient-33)"/>
            <path id="Trazado_999773" data-name="Trazado 999773" d="M132.363,341.553l-.337-.253-.23-.872.195-.273.337.253.23.872Z" transform="translate(-130.525 -339.662)" fill="url(#radial-gradient-34)"/>
            <path id="Trazado_999774" data-name="Trazado 999774" d="M130.961,343.415l-.2.277-.881.04-.332-.249.2-.277.881-.04Z" transform="translate(-129.162 -341.49)" fill="url(#radial-gradient-35)"/>
            <path id="Trazado_999775" data-name="Trazado 999775" d="M131.952,347.172l-.2.277-.881.04-.332-.249.2-.277.881-.04Z" transform="translate(-129.763 -343.771)" fill="url(#radial-gradient-36)"/>
            <path id="Trazado_999776" data-name="Trazado 999776" d="M133.353,345.311l-.337-.253-.23-.872.195-.273.337.253.23.872Z" transform="translate(-131.126 -341.944)" fill="url(#radial-gradient-37)"/>
            <g id="Grupo_1180351" data-name="Grupo 1180351" transform="translate(2.055 0.097)">
              <path id="Trazado_999777" data-name="Trazado 999777" d="M136.366,346.978l.2-.277.881-.04.332.249-.2.277-.881.04Z" transform="translate(-135.355 -343.709)" fill="url(#radial-gradient-38)"/>
              <path id="Trazado_999778" data-name="Trazado 999778" d="M134.976,343.8l.337.253.23.872-.195.273-.337-.253-.23-.872Z" transform="translate(-134.393 -341.969)" fill="url(#radial-gradient-39)"/>
              <path id="Trazado_999779" data-name="Trazado 999779" d="M138.773,343.625l.337.253.23.872-.195.273-.337-.253-.23-.872Z" transform="translate(-136.698 -341.865)" fill="url(#radial-gradient-40)"/>
              <path id="Trazado_999780" data-name="Trazado 999780" d="M135.376,343.22l.2-.277.881-.04.332.249-.2.277-.881.04Z" transform="translate(-134.753 -341.427)" fill="url(#radial-gradient-41)"/>
              <path id="Trazado_999781" data-name="Trazado 999781" d="M134.385,339.463l.2-.277.881-.04.332.249-.2.277-.881.04Z" transform="translate(-134.152 -339.146)" fill="url(#radial-gradient-42)"/>
              <path id="Trazado_999782" data-name="Trazado 999782" d="M133.986,340.038l.337.253.23.872-.195.273-.337-.253-.23-.872Z" transform="translate(-133.791 -339.688)" fill="url(#radial-gradient-43)"/>
            </g>
            <path id="Trazado_999783" data-name="Trazado 999783" d="M141.147,342.974l.2-.277.881-.04.332.249-.2.277-.881.04Z" transform="translate(-136.202 -341.181)" fill="url(#radial-gradient-44)"/>
            <path id="Trazado_999784" data-name="Trazado 999784" d="M139.757,339.792l.337.253.23.872-.195.273-.337-.253-.23-.872Z" transform="translate(-135.24 -339.442)" fill="url(#radial-gradient-45)"/>
            <path id="Trazado_999785" data-name="Trazado 999785" d="M143.554,339.621l.337.253.23.872-.195.273-.337-.253-.23-.872Z" transform="translate(-137.545 -339.338)" fill="url(#radial-gradient-46)"/>
            <path id="Trazado_999786" data-name="Trazado 999786" d="M140.157,339.217l.2-.277.881-.04.332.249-.2.277-.881.04Z" transform="translate(-135.601 -338.9)" fill="url(#radial-gradient-47)"/>
          </g>
          <g id="Grupo_1180355" data-name="Grupo 1180355" transform="translate(20.821 3.627)" opacity="0.6" style="mix-blend-mode: overlay;isolation: isolate">
            <g id="Grupo_1180354" data-name="Grupo 1180354" clip-path="url(#clip-path)">
              <g id="Grupo_1180353" data-name="Grupo 1180353" transform="translate(-2.906 -2.916)">
                <rect id="Rectángulo_455558" data-name="Rectángulo 455558" width="3.89" height="14.233" transform="translate(12.013 0.687) rotate(42.423)" fill="#fff"/>
                <rect id="Rectángulo_455559" data-name="Rectángulo 455559" width="2.222" height="14.233" transform="translate(16.739 1.839) rotate(42.423)" fill="#fff"/>
                <rect id="Rectángulo_455560" data-name="Rectángulo 455560" width="1.053" height="14.233" transform="matrix(0.738, 0.675, -0.675, 0.738, 9.602, 0)" fill="#fff"/>
              </g>
            </g>
          </g>
          <g id="Grupo_1180356" data-name="Grupo 1180356" transform="translate(16.391 22.015)">
            <path id="Trazado_999787" data-name="Trazado 999787" d="M124.055,395.432a4.038,4.038,0,0,1,3.423-3.718c1.674-.075,2.856,1.467,2.639,3.446a4.038,4.038,0,0,1-3.423,3.718C125.02,398.953,123.839,397.411,124.055,395.432Z" transform="translate(-118.793 -386.925)" fill="url(#radial-gradient-48)"/>
            <path id="Trazado_999788" data-name="Trazado 999788" d="M122.42,395.506a4.04,4.04,0,0,1,3.423-3.719c1.674-.075,2.855,1.467,2.639,3.446a4.039,4.039,0,0,1-3.423,3.719C123.385,399.026,122.2,397.484,122.42,395.506Z" transform="translate(-117.8 -386.97)" fill="url(#radial-gradient-49)"/>
            <ellipse id="Elipse_13773" data-name="Elipse 13773" cx="6.826" cy="5.414" rx="6.826" ry="5.414" transform="translate(0 12.565) rotate(-66.985)" fill="none" stroke="#707070" stroke-miterlimit="10" stroke-width="1"/>
          </g>
          <line id="Línea_3550" data-name="Línea 3550" y1="0.907" x2="20.15" transform="translate(15.089 18.169)" fill="none" stroke="#707070" stroke-miterlimit="10" stroke-width="1"/>
        </g>
      </g>
      <g id="Grupo_1180366" data-name="Grupo 1180366" transform="translate(165.222 104.543)">
        <path id="Trazado_999789" data-name="Trazado 999789" d="M374.466,249.844c12.02-14.531,39.164-7.277,28.739,8.953s-1.105,23.382-12.766,29.976S354.575,273.89,374.466,249.844Z" transform="translate(-366.882 -233.847)" fill="#eef7fc"/>
        <g id="Grupo_1180365" data-name="Grupo 1180365" transform="translate(3.104 0)">
          <g id="Grupo_1180360" data-name="Grupo 1180360" transform="translate(0 12.574)">
            <path id="Trazado_999790" data-name="Trazado 999790" d="M399.978,264.1l-6.833,39.442a4.876,4.876,0,0,1-5.637,3.972l-8.681-1.5a4.873,4.873,0,0,1-3.972-5.637l6.833-39.442a9.281,9.281,0,0,1,18.29,3.169Z" transform="translate(-374.782 -253.232)" fill="url(#linear-gradient-10)"/>
            <rect id="Rectángulo_455561" data-name="Rectángulo 455561" width="2.367" height="38.689" transform="translate(16.254 1.17) rotate(9.827)" fill="url(#linear-gradient-11)"/>
            <path id="Trazado_999791" data-name="Trazado 999791" d="M398.046,304.376l-4.9,28.292a4.876,4.876,0,0,1-5.637,3.972l-8.681-1.5a4.873,4.873,0,0,1-3.972-5.637l4.9-28.292Z" transform="translate(-374.782 -282.359)" fill="url(#linear-gradient-12)"/>
            <g id="Grupo_1180359" data-name="Grupo 1180359" transform="translate(5.125 21.451)">
              <path id="Trazado_999792" data-name="Trazado 999792" d="M394.655,307.846a.835.835,0,0,0-.285,1.645A.835.835,0,0,0,394.655,307.846Z" transform="translate(-391.395 -307.832)" fill="#55c2ba"/>
              <path id="Trazado_999793" data-name="Trazado 999793" d="M403.443,314.506a.468.468,0,0,0-.16.922A.468.468,0,0,0,403.443,314.506Z" transform="translate(-396.984 -311.879)" fill="#55c2ba"/>
              <path id="Trazado_999794" data-name="Trazado 999794" d="M415.53,309.142a.55.55,0,0,0-.188,1.084A.55.55,0,0,0,415.53,309.142Z" transform="translate(-404.265 -308.622)" fill="#55c2ba"/>
              <path id="Trazado_999795" data-name="Trazado 999795" d="M409.252,376.644a.375.375,0,0,0-.128.738A.375.375,0,0,0,409.252,376.644Z" transform="translate(-400.575 -349.605)" fill="#55c2ba"/>
              <path id="Trazado_999796" data-name="Trazado 999796" d="M401.19,362.983a.65.65,0,0,0-.222,1.279A.65.65,0,0,0,401.19,362.983Z" transform="translate(-395.491 -341.308)" fill="#55c2ba"/>
              <path id="Trazado_999797" data-name="Trazado 999797" d="M388.869,367.544a.485.485,0,0,0-.087-.238l-.088-.1a.488.488,0,0,0-.225-.1l-.073-.013a.363.363,0,0,0-.186.008.438.438,0,0,0-.306.216.362.362,0,0,0-.07.172c0,.041,0,.082-.005.124a.481.481,0,0,0,.087.238l.088.1a.487.487,0,0,0,.226.1l.073.013a.365.365,0,0,0,.185-.008.5.5,0,0,0,.376-.388Z" transform="translate(-387.828 -343.805)" fill="#55c2ba"/>
              <path id="Trazado_999798" data-name="Trazado 999798" d="M393.3,378.8a.729.729,0,0,0-.249,1.436A.729.729,0,0,0,393.3,378.8Z" transform="translate(-390.648 -350.911)" fill="#55c2ba"/>
            </g>
          </g>
          <path id="Trazado_999799" data-name="Trazado 999799" d="M399.978,264.1l-6.833,39.442a4.876,4.876,0,0,1-5.637,3.972l-8.681-1.5a4.873,4.873,0,0,1-3.972-5.637l6.833-39.442a9.281,9.281,0,0,1,18.29,3.169Z" transform="translate(-374.782 -240.659)" fill="none" stroke="#707070" stroke-miterlimit="10" stroke-width="3" opacity="0.56" style="mix-blend-mode: overlay;isolation: isolate"/>
          <rect id="Rectángulo_455562" data-name="Rectángulo 455562" width="17.581" height="20.048" transform="matrix(0.171, -0.985, 0.985, 0.171, 0.411, 53.41)" fill="url(#radial-gradient-50)"/>
          <path id="Trazado_999800" data-name="Trazado 999800" d="M409.526,264.1l-6.833,39.442a4.876,4.876,0,0,1-5.637,3.973l-6.547-1.134a4.876,4.876,0,0,0,5.637-3.973l6.833-39.442a9.277,9.277,0,0,0-4.393-9.554,9.187,9.187,0,0,1,3.378-.041A9.284,9.284,0,0,1,409.526,264.1Z" transform="translate(-384.331 -240.66)" opacity="0.5" fill="url(#linear-gradient-13)" style="mix-blend-mode: multiply;isolation: isolate"/>
          <g id="Grupo_1180361" data-name="Grupo 1180361" transform="translate(3.778 41.194)">
            <rect id="Rectángulo_455563" data-name="Rectángulo 455563" width="2.829" height="9.03" transform="matrix(0.985, 0.171, -0.171, 0.985, 4.067, 0)" fill="#fff"/>
            <rect id="Rectángulo_455564" data-name="Rectángulo 455564" width="2.829" height="9.029" transform="translate(0 5.313) rotate(-80.173)" fill="#fff"/>
          </g>
          <g id="Grupo_1180364" data-name="Grupo 1180364" transform="translate(12.071 0)">
            <rect id="Rectángulo_455565" data-name="Rectángulo 455565" width="6.999" height="11.343" rx="1.159" transform="translate(4.213 0) rotate(9.828)" fill="url(#linear-gradient-14)"/>
            <rect id="Rectángulo_455566" data-name="Rectángulo 455566" width="10.815" height="6.017" rx="1.159" transform="translate(1.027 7.213) rotate(9.828)" fill="url(#linear-gradient-15)"/>
            <g id="Grupo_1180362" data-name="Grupo 1180362" transform="translate(4.161 3.28)">
              <path id="Trazado_999801" data-name="Trazado 999801" d="M418.146,230.954a1.042,1.042,0,1,1-.808-1.364A1.128,1.128,0,0,1,418.146,230.954Z" transform="translate(-416.098 -229.578)" fill="#fff"/>
              <path id="Trazado_999802" data-name="Trazado 999802" d="M418.422,231.747a.551.551,0,1,1-.427-.721A.6.6,0,0,1,418.422,231.747Z" transform="translate(-416.851 -230.453)" fill="#222232"/>
            </g>
            <g id="Grupo_1180363" data-name="Grupo 1180363" transform="translate(1.273 7.434)">
              <line id="Línea_3551" data-name="Línea 3551" x1="1.027" y2="5.929" fill="none" stroke="#5ac4bb" stroke-miterlimit="10" stroke-width="1"/>
              <line id="Línea_3552" data-name="Línea 3552" x1="1.027" y2="5.929" transform="translate(2.028 0.351)" fill="none" stroke="#5ac4bb" stroke-miterlimit="10" stroke-width="1"/>
              <line id="Línea_3553" data-name="Línea 3553" x1="1.027" y2="5.929" transform="translate(4.056 0.703)" fill="none" stroke="#5ac4bb" stroke-miterlimit="10" stroke-width="1"/>
              <line id="Línea_3554" data-name="Línea 3554" x1="1.027" y2="5.929" transform="translate(6.084 1.054)" fill="none" stroke="#5ac4bb" stroke-miterlimit="10" stroke-width="1"/>
              <line id="Línea_3555" data-name="Línea 3555" x1="1.027" y2="5.929" transform="translate(8.111 1.405)" fill="none" stroke="#5ac4bb" stroke-miterlimit="10" stroke-width="1"/>
            </g>
          </g>
        </g>
      </g>
    </g>
    <g id="Grupo_1177285" data-name="Grupo 1177285" transform="translate(1058.296 5457.725)" opacity="0.37">
      <g id="Grupo_1177267" data-name="Grupo 1177267" transform="translate(43.778 0)">
        <path id="Polígono_14" data-name="Polígono 14" d="M20.92,0l6.973,12.785L20.92,25.569H6.973L0,12.785,6.973,0Z" transform="translate(0 39.516)" fill="#2c2e8c" opacity="0.36"/>
        <path id="Polígono_15" data-name="Polígono 15" d="M20.92,0l6.973,12.785L20.92,25.569H6.973L0,12.785,6.973,0Z" transform="translate(0 13.172)" fill="#2c2e8c" opacity="0.36"/>
        <g id="Grupo_1177266" data-name="Grupo 1177266" transform="translate(22.083)" opacity="0.36">
          <path id="Polígono_16" data-name="Polígono 16" d="M20.92,0l6.973,12.785L20.92,25.569H6.973L0,12.785,6.973,0Z" transform="translate(0 26.344)" fill="#2c2e8c" opacity="0.56"/>
          <path id="Polígono_17" data-name="Polígono 17" d="M20.92,0l6.973,12.785L20.92,25.569H6.973L0,12.785,6.973,0Z" transform="translate(0)" fill="#2c2e8c" opacity="0.56"/>
        </g>
      </g>
      <g id="Grupo_1177268" data-name="Grupo 1177268" transform="translate(0 0)">
        <path id="Polígono_14-2" data-name="Polígono 14" d="M20.92,0l6.973,12.785L20.92,25.569H6.973L0,12.785,6.973,0Z" transform="translate(0 39.516)" fill="#2c2e8c" opacity="0.36"/>
        <path id="Polígono_15-2" data-name="Polígono 15" d="M20.92,0l6.973,12.785L20.92,25.569H6.973L0,12.785,6.973,0Z" transform="translate(0 13.172)" fill="#2c2e8c" opacity="0.36"/>
        <g id="Grupo_1177266-2" data-name="Grupo 1177266" transform="translate(22.083)" opacity="0.36">
          <path id="Polígono_16-2" data-name="Polígono 16" d="M20.92,0l6.973,12.785L20.92,25.569H6.973L0,12.785,6.973,0Z" transform="translate(0 26.344)" fill="#2c2e8c" opacity="0.56"/>
          <path id="Polígono_17-2" data-name="Polígono 17" d="M20.92,0l6.973,12.785L20.92,25.569H6.973L0,12.785,6.973,0Z" transform="translate(0)" fill="#2c2e8c" opacity="0.56"/>
        </g>
      </g>
    </g>
  </g>
</svg>
