<svg xmlns="http://www.w3.org/2000/svg" width="84" height="84" viewBox="0 0 84 84">
  <g id="Grupo_1180398" data-name="Grupo 1180398" transform="translate(-698.902 -15014.192)">
    <g id="Grupo_1177666" data-name="Grupo 1177666" transform="translate(698.902 15014.192)" style="isolation: isolate">
      <g id="Grupo_1119665" data-name="Grupo 1119665">
        <rect id="Rectángulo_402006" data-name="Rectángulo 402006" width="84" height="84" rx="5" fill="#6cac25"/>
      </g>
    </g>
    <g id="Grupo_1179631" data-name="Grupo 1179631" transform="translate(701.609 15017.231)">
      <path id="Trazado_998165" data-name="Trazado 998165" d="M48.339,34.19a1.331,1.331,0,0,0-1.978,1.465,9.6,9.6,0,0,1-.511,6.531,5.876,5.876,0,0,1-1.557-3.145,1.332,1.332,0,0,0-2.167-.724C41.917,38.494,37,42.777,37,48.649a9.322,9.322,0,0,0,18.644,0C55.644,42.034,51.968,36.368,48.339,34.19ZM44.99,53.975a4.5,4.5,0,0,1,1.332-2.841,4.5,4.5,0,0,1,1.332,2.841,1.332,1.332,0,0,1-2.663,0Zm5.323-.031c-.02-3.275-3.062-5.6-3.192-5.7a1.334,1.334,0,0,0-1.6,0c-.131.1-3.172,2.421-3.192,5.7a6.631,6.631,0,0,1-2.667-5.3,11.219,11.219,0,0,1,2.767-6.785c1.31,2.845,3.34,3.368,3.613,3.426a1.342,1.342,0,0,0,1.318-.47,10.932,10.932,0,0,0,1.994-6.236A16.02,16.02,0,0,1,52.98,48.649,6.631,6.631,0,0,1,50.313,53.945Z" transform="translate(9.951 8.624)" fill="#0f1031"/>
      <path id="Trazado_998166" data-name="Trazado 998166" d="M56.273,37.3a17.178,17.178,0,0,0-4,.479V22.649a4.007,4.007,0,0,0-4-4h-1v-2.7A3.966,3.966,0,0,0,50.946,12a4.007,4.007,0,0,0-4-4h-7.99a4.007,4.007,0,0,0-4,4,3.966,3.966,0,0,0,3.662,3.955v2.7H34.153a1.341,1.341,0,0,1-1.252-.866l-2.7-7.2A3.974,3.974,0,0,0,26.456,8H11a4.007,4.007,0,0,0-4,4V35.966a1.332,1.332,0,0,0,2.663,0V12A1.336,1.336,0,0,1,11,10.663H26.456a1.341,1.341,0,0,1,1.252.866l2.7,7.2a3.974,3.974,0,0,0,3.742,2.583H48.283a1.336,1.336,0,0,1,1.332,1.332v15.98a18.8,18.8,0,0,0-2.663,1.412V25.312a1.336,1.336,0,0,0-1.332-1.332H13.658a1.336,1.336,0,0,0-1.332,1.332V57.273A1.336,1.336,0,0,0,13.658,58.6H39.44a17.744,17.744,0,0,0,.852,2.663H11a1.336,1.336,0,0,1-1.332-1.332V46.619a1.332,1.332,0,0,0-2.663,0V59.936a4.007,4.007,0,0,0,4,4H41.7A17.305,17.305,0,1,0,56.273,37.3ZM44.621,18.654H41.291V15.99h3.329Zm-5.66-5.327a1.332,1.332,0,1,1,0-2.663h7.99a1.332,1.332,0,1,1,0,2.663ZM42.41,26.644l-9.322,9.322h-6.9l-9.322-9.322ZM32.3,38.629v5.327H26.975V38.629ZM14.99,28.521l9.322,9.322v6.9L14.99,54.063Zm24.037,27.42H16.868l9.322-9.322h6.9l5.993,6.006a19.362,19.362,0,0,0-.12,1.984C38.961,55.062,39,55.5,39.027,55.941Zm.706-6.445-4.767-4.754v-6.9l9.322-9.322V42.145A17.37,17.37,0,0,0,39.733,49.5Zm16.54,19.762A14.649,14.649,0,1,1,70.922,54.609,14.657,14.657,0,0,1,56.273,69.258Z" fill="#0f1031"/>
      <path id="Trazado_998167" data-name="Trazado 998167" d="M12.332,19.99H25.29a1.334,1.334,0,0,0,1.246-1.8l-2-5.327A1.333,1.333,0,0,0,23.292,12H12.332A1.331,1.331,0,0,0,11,13.332v5.327A1.331,1.331,0,0,0,12.332,19.99Zm1.332-5.327h8.705l1,2.663h-9.7Z" transform="translate(1.327 1.327)" fill="#0f1031"/>
      <circle id="Elipse_13721" data-name="Elipse 13721" cx="1.5" cy="1.5" r="1.5" transform="translate(7 40)" fill="#0f1031"/>
    </g>
  </g>
</svg>
