<svg xmlns="http://www.w3.org/2000/svg" width="396" height="263.797" viewBox="0 0 396 263.797">
  <g id="Grupo_1180395" data-name="Grupo 1180395" transform="translate(-184.526 -13958.843)">
    <g id="Grupo_1179630" data-name="Grupo 1179630" transform="translate(-1.474 -124.002)">
      <rect id="Rectángulo_455529" data-name="Rectángulo 455529" width="396" height="263.777" transform="translate(186 14082.845)" fill="#6cac25"/>
      <path id="Trazado_998164" data-name="Trazado 998164" d="M82.054.073c49.825,4.541,93.9,48.681,98.453,98.589s-32.155,86.685-81.98,82.144S4.623,132.125.074,82.217,32.229-4.468,82.054.073Z" transform="translate(256.1 14214.487) rotate(-45)" fill="#d2eaec" opacity="0.3"/>
      <g id="Grupo_1179575" data-name="Grupo 1179575" transform="translate(186.001 14226.903)">
        <g id="Grupo_1179574" data-name="Grupo 1179574" transform="translate(0)">
          <path id="Trazado_997964" data-name="Trazado 997964" d="M.008,988.506s39.516-7.97,58.143,19.128c0,0,24.214-7.97,23.283,14.344,0,0,35.391-8.871,33.528,15.143,0,0,26.077-15.143,32.6,7.97,0,0,19.558-10.361,26.077,0,0,0,12.107-17.534,33.528-8.767,0,0,8.382-21.518,40.979-8.766,0,0,25.146-31.878,47.5-3.985,0,0,34.46-16.737,40.047,12.751,0,0,22.85-38.254,60.32-32.675v72.523l-396,5.579Z" transform="translate(-0.008 -987.413)" fill="#d2eaec" opacity="0.6"/>
          <path id="Trazado_997965" data-name="Trazado 997965" d="M.008,1261.026s19.336-12.441,33.617,7.056c0,0,23.594-14.877,31.045,5.313,0,0,14.9-15.408,32.285-5.844,0,0,33.528-12.22,36.633,10.627,0,0,3.725-28.31,33.528-21.062,0,0,36.011-11.88,37.253,14.154,0,0,34.771-12.221,36.632,6.907,0,0,3.724-21.783,31.042-7.968,0,0,28.561-20.721,36.633,4.25,0,0,29.8-10.626,33.527,6.907,0,0,5.588-20.19,27.941-16.47,0,0,3.3-15.408,25.863-14.346v47.287H.008Z" transform="translate(-0.008 -1213.857)" fill="#d2eaec"/>
        </g>
      </g>
      <rect id="Rectángulo_455530" data-name="Rectángulo 455530" width="396" height="38.938" transform="translate(186 14307.704)" fill="#88adb5"/>
      <path id="Trazado_997966" data-name="Trazado 997966" d="M322.191,1604.888c0,2.11,20.648,3.82,46.117,3.82s46.117-1.71,46.117-3.82-20.647-3.819-46.117-3.819S322.191,1602.779,322.191,1604.888Z" transform="translate(-91.319 12711.299)" fill="#65949a"/>
      <path id="Trazado_997967" data-name="Trazado 997967" d="M1015.488,1711.877c0,2.109,40.066,3.819,89.49,3.819s89.491-1.71,89.491-3.819-40.067-3.819-89.491-3.819S1015.488,1709.768,1015.488,1711.877Z" transform="translate(-631.349 12619.21)" fill="#65949a"/>
      <g id="Grupo_1179598" data-name="Grupo 1179598" transform="translate(255.918 14180.854)">
        <g id="Grupo_1179594" data-name="Grupo 1179594" transform="translate(0)">
          <g id="Grupo_1179593" data-name="Grupo 1179593">
            <g id="Grupo_1179582" data-name="Grupo 1179582" transform="translate(0 25.376)">
              <path id="Trazado_997968" data-name="Trazado 997968" d="M545.736,1554.492s-.342,3.02-.513,3.532c0,0,2.336,1.822,4.615.513a39.158,39.158,0,0,1-1.083-4.045Z" transform="translate(-526.785 -1456.744)" fill="#b3c0cd"/>
              <path id="Trazado_997969" data-name="Trazado 997969" d="M546.191,1557.534a15.639,15.639,0,0,0,2.479,1.045s.01.164.018.376a4.9,4.9,0,0,1-3.466-.931c.171-.512.513-3.532.513-3.532h2.546c.167.011.328.02.478.027.1.564.267,1.231.437,1.859a24.011,24.011,0,0,1-3.219.373A.59.59,0,0,0,546.191,1557.534Z" transform="translate(-526.785 -1456.744)" fill="#8495a3"/>
              <path id="Trazado_997970" data-name="Trazado 997970" d="M539.453,1576.771s-1.339,3.091-.618,5.355c0,0,6.911,2.172,13.3.73a2.257,2.257,0,0,0-1.236-2.369c-1.493-.619-1.651-.138-3.866-1.324l-2.169-1.208-.36-1.6c-.619-.155-1.185.309-1.906.207s-.463,1.1-.463,1.1A8.427,8.427,0,0,1,539.453,1576.771Z" transform="translate(-521.104 -1475.537)" fill="#c20012"/>
              <path id="Trazado_997971" data-name="Trazado 997971" d="M538.835,1584.875c-.721-2.265.618-5.355.618-5.355a4.959,4.959,0,0,0,.99.463,10.77,10.77,0,0,1,.465,1.984,3.615,3.615,0,0,0,1.937,2.568c.627.1,4.973.355,5.791,0,.688-.3.923,1.034.98,1.463A31.017,31.017,0,0,1,538.835,1584.875Z" transform="translate(-521.104 -1478.286)" fill="#a90011"/>
              <g id="Grupo_1179577" data-name="Grupo 1179577" transform="translate(20.732 101.963)">
                <path id="Trazado_997972" data-name="Trazado 997972" d="M564.721,1585.21l.15.083a4.506,4.506,0,0,1-1.483.46,9,9,0,0,1-1.606-.722.481.481,0,0,1-.087-.167c.183.037.3.054.3.054s-.013-.067-.026-.163a5.279,5.279,0,0,0,1.41.618,2.557,2.557,0,0,0,1.314-.3Z" transform="translate(-561.695 -1584.754)" fill="#900810"/>
                <path id="Trazado_997973" data-name="Trazado 997973" d="M586.348,1595.55a9.028,9.028,0,0,0-1.62,1.865c-.228.256-.6,0-.6,0-.232-.28,1.16-1.653,1.687-2.156l.361.2Z" transform="translate(-580.983 -1593.795)" fill="#900810"/>
                <path id="Trazado_997974" data-name="Trazado 997974" d="M593.04,1601.126c-.455.512-.655.626-1.083.514-.329-.086,1.048-1.539,1.7-2.2a7.332,7.332,0,0,0,.845.336A6.8,6.8,0,0,0,593.04,1601.126Z" transform="translate(-587.7 -1597.393)" fill="#900810"/>
                <path id="Trazado_997975" data-name="Trazado 997975" d="M576.582,1592.679c-.342-.172.142-.706.142-.706l1.32-1.489,1.053.587C578.27,1591.47,576.878,1592.827,576.582,1592.679Z" transform="translate(-574.403 -1589.686)" fill="#900810"/>
              </g>
              <path id="Trazado_997976" data-name="Trazado 997976" d="M548.279,1603.059a3.218,3.218,0,0,0-1.387,2.557s-4.123-.021-4.807-.191-4.464-1.468-4.463-1.43l0,.039s-.177.1-.177.2a3.47,3.47,0,0,0,.164,1.086s7.549,1.986,13.767.7A2.947,2.947,0,0,0,548.279,1603.059Z" transform="translate(-520.094 -1498.546)" fill="#b3c0cd"/>
              <path id="Trazado_997977" data-name="Trazado 997977" d="M537.626,1609.815l0-.039a5.363,5.363,0,0,1,.56.171c-.163.749.035.874,4.322,1.686s7.635-.087,8.019-.384c.228-.178.186-.9.113-1.452a3.426,3.426,0,0,1,.742,2.007c-6.218,1.281-13.767-.7-13.767-.7a3.47,3.47,0,0,1-.164-1.086C537.449,1609.911,537.626,1609.815,537.626,1609.815Z" transform="translate(-520.094 -1504.328)" fill="#8495a3"/>
              <path id="Trazado_997978" data-name="Trazado 997978" d="M593.308,1597.889a3,3,0,0,0-1.539,1.584.36.36,0,0,1-.577.107c-.234-.2.563-1.6,1.371-2.037a.529.529,0,0,1,.285-.058C593.1,1597.508,593.411,1597.645,593.308,1597.889Z" transform="translate(-566.316 -1493.748)" fill="#b3c0cd"/>
              <path id="Trazado_997979" data-name="Trazado 997979" d="M585.491,1593.665a3,3,0,0,0-1.539,1.583.36.36,0,0,1-.577.108c-.235-.2.563-1.6,1.371-2.038a.53.53,0,0,1,.285-.058C585.28,1593.282,585.595,1593.419,585.491,1593.665Z" transform="translate(-559.589 -1490.111)" fill="#b3c0cd"/>
              <path id="Trazado_997980" data-name="Trazado 997980" d="M577.673,1589.586a2.99,2.99,0,0,0-1.539,1.581.36.36,0,0,1-.577.108c-.235-.2.563-1.6,1.371-2.037a.527.527,0,0,1,.285-.058C577.462,1589.2,577.777,1589.34,577.673,1589.586Z" transform="translate(-552.859 -1486.599)" fill="#b3c0cd"/>
              <path id="Trazado_997981" data-name="Trazado 997981" d="M476.052,1552.191s.341,3.019.513,3.532c0,0-2.336,1.824-4.615.512a39.042,39.042,0,0,0,1.083-4.044Z" transform="translate(-463.716 -1454.763)" fill="#b3c0cd"/>
              <path id="Trazado_997982" data-name="Trazado 997982" d="M479.553,1555.232a15.515,15.515,0,0,1-2.479,1.047s-.01.164-.018.375a4.906,4.906,0,0,0,3.466-.931c-.171-.513-.513-3.532-.513-3.532h-2.547c-.166.01-.328.02-.478.027-.1.565-.267,1.232-.437,1.86a23.573,23.573,0,0,0,3.22.372A.59.59,0,0,1,479.553,1555.232Z" transform="translate(-467.674 -1454.763)" fill="#8495a3"/>
              <path id="Trazado_997983" data-name="Trazado 997983" d="M462.844,1156.531h-23s-1.606,4.729,0,7.357a7.279,7.279,0,0,0,.6.817c.308,3.849,1.126,13.627,1.914,19.223v28.1c2.71,2.71,7.174,0,7.174,0-.269-8.253-.355-27.11-.363-29,.429-3.021,1.116-7.807,1.647-11.491a2.445,2.445,0,0,0,.378-.012c.531,3.686,1.219,8.479,1.649,11.5-.008,1.891-.095,20.748-.363,29,0,0,4.464,2.71,7.174,0v-28.1c.736-5.228,1.5-14.109,1.847-18.392a10.322,10.322,0,0,0,1.345-1.648C464.45,1161.26,462.844,1156.531,462.844,1156.531Z" transform="translate(-435.471 -1114.207)" fill="#135775"/>
              <path id="Trazado_997984" data-name="Trazado 997984" d="M449.531,1212.029c-.019-.573-.036-1.2-.053-1.864-1.392.734-4.106,1.943-4.717.559-.83-1.881-.367-16.751,0-18.289s4.472.685,4.459-1.023c0-.046,0-.09,0-.136-.009-1.279-.018-2.473-.025-3.534,0-.059,0-.091,0-.091s-3.846,2.224-4.9,0,.536-4.1,0-6.667,1.339-12.649-.368-14.7c-1.565-1.881-2.5-5.444-2.173-9.753h-1.908s-1.606,4.729,0,7.357a7.279,7.279,0,0,0,.6.817c.308,3.849,1.126,13.627,1.914,19.223v28.1C445.067,1214.738,449.531,1212.029,449.531,1212.029Z" transform="translate(-435.471 -1114.207)" fill="#114559"/>
              <path id="Trazado_997985" data-name="Trazado 997985" d="M643.749,1000.257c-3.5.748-6.439,1.372-6.439,1.372l-4.817-6.608-3.851,3.874s5.623,6.438,6.512,7.236,1.617.74,2.964.512c.472-.08,2.8-.949,5.632-2.045Z" transform="translate(-598.585 -975.19)" fill="#d7936b"/>
              <path id="Trazado_997986" data-name="Trazado 997986" d="M590.38,933.89a3.664,3.664,0,0,0-2.051,4.155c.4,2.14,4.441,9.8,5.183,10.6l6.873-5.244S593.458,932.245,590.38,933.89Z" transform="translate(-563.818 -922.432)" fill="#6f478b"/>
              <path id="Trazado_997987" data-name="Trazado 997987" d="M439.258,1160.221a28.041,28.041,0,0,0,24.383-.117,15.673,15.673,0,0,0-.69-3.573h-23A15.657,15.657,0,0,0,439.258,1160.221Z" transform="translate(-435.578 -1114.207)" fill="#114559"/>
              <path id="Trazado_997988" data-name="Trazado 997988" d="M456.562,957.473c-1.312-9.255-1.873-14.182-1.873-14.182a36.425,36.425,0,0,1,.955-5.355c.956-2.051,2.228-11.566,1.317-12.421s-10.249-2.05-10.249-2.05l-2.863.758-2.863-.758s-9.338,1.2-10.249,2.05.361,10.37,1.317,12.421a36.411,36.411,0,0,1,.956,5.355s-.561,4.927-1.874,14.182c0,0,7.168,2.687,12.713,2.621C449.394,960.159,456.562,957.473,456.562,957.473Z" transform="translate(-427.974 -913.601)" fill="#865b9f"/>
              <path id="Trazado_997989" data-name="Trazado 997989" d="M454.692,957.856a20.893,20.893,0,0,1,.509-3.379l-13.845,2.862-7.395-11.109a45.029,45.029,0,0,0-3.381-5.843c-.573,1.855.588,10.208,1.477,12.114a36.413,36.413,0,0,1,.956,5.355s-.561,4.927-1.874,14.182c0,0,1.1.413,2.775.911.508-3.942,1.727-13.442,1.853-14.925a15.491,15.491,0,0,0,2.8,3.7h0a1.5,1.5,0,0,0,.179.15,4.015,4.015,0,0,0,1,.615c1.636.882,5.4,2.527,13.786,4.936.813.234-6.681-2.815-11.11-5.175,3.351-.913,9.9-3.093,12.328-3.91C454.71,958.02,454.692,957.856,454.692,957.856Z" transform="translate(-427.977 -928.166)" fill="#6f478b"/>
              <path id="Trazado_997990" data-name="Trazado 997990" d="M531.845,1294.53c-1.519.359-4.272.821-5.124-.273-1.2-1.538-.317-12.478.867-14.187.774-1.118,2.944-.774,4.257-.927v-6.39c-1.234,1.234-2.972,3.89-4.257,2.36-1.721-2.052.525-5.811,0-8.375s1.07-12.135-1.437-11.964-3.144,1.321-3.144,1.321a2.46,2.46,0,0,0,.378-.012c.531,3.686,1.219,8.479,1.649,11.5-.008,1.891-.095,20.748-.363,29,0,0,4.464,2.71,7.174,0Z" transform="translate(-507.664 -1198.766)" fill="#114559"/>
              <path id="Trazado_997991" data-name="Trazado 997991" d="M748.158,1062.365a.462.462,0,0,0,.234.61h0a.462.462,0,0,0,.61-.233l.079-.177a.462.462,0,0,0-.234-.61h0a.462.462,0,0,0-.61.233Z" transform="translate(-701.423 -1032.768)" fill="#eab389"/>
              <path id="Trazado_997992" data-name="Trazado 997992" d="M751.943,1053.894a.462.462,0,0,0,.233.61h0a.463.463,0,0,0,.611-.233l.079-.177a.463.463,0,0,0-.234-.61h0a.462.462,0,0,0-.61.233Z" transform="translate(-704.68 -1025.477)" fill="#eab389"/>
              <path id="Trazado_997993" data-name="Trazado 997993" d="M754.818,1042.938a.463.463,0,0,0,.234.611h0a.462.462,0,0,0,.61-.233l.079-.177a.462.462,0,0,0-.234-.61h0a.461.461,0,0,0-.61.232Z" transform="translate(-707.155 -1016.047)" fill="#eab389"/>
              <path id="Trazado_997994" data-name="Trazado 997994" d="M756.225,1031.81a.464.464,0,0,0,.307.577h0a.462.462,0,0,0,.577-.307l.056-.185a.462.462,0,0,0-.307-.577h0a.463.463,0,0,0-.577.308Z" transform="translate(-708.384 -1006.415)" fill="#eab389"/>
              <path id="Trazado_997995" data-name="Trazado 997995" d="M427.254,1574.472s1.339,3.09.618,5.358c0,0-6.91,2.172-13.3.728a2.258,2.258,0,0,1,1.236-2.369c1.494-.618,1.652-.139,3.866-1.321l2.169-1.21.36-1.6c.619-.155,1.185.309,1.907.206s.463,1.1.463,1.1A8.407,8.407,0,0,0,427.254,1574.472Z" transform="translate(-414.318 -1473.56)" fill="#c20012"/>
              <path id="Trazado_997996" data-name="Trazado 997996" d="M443.52,1582.569c.721-2.268-.618-5.358-.618-5.358a4.849,4.849,0,0,1-.99.464,10.852,10.852,0,0,0-.466,1.986,3.61,3.61,0,0,1-1.937,2.567c-.627.1-4.973.354-5.791,0-.689-.3-.923,1.034-.98,1.464A31.037,31.037,0,0,0,443.52,1582.569Z" transform="translate(-429.966 -1476.298)" fill="#a90011"/>
              <g id="Grupo_1179578" data-name="Grupo 1179578" transform="translate(3.752 101.643)">
                <path id="Trazado_997997" data-name="Trazado 997997" d="M465.959,1582.912l-.15.084a4.519,4.519,0,0,0,1.484.46,8.93,8.93,0,0,0,1.606-.724.474.474,0,0,0,.087-.166c-.184.036-.3.054-.3.054s.014-.067.026-.163a5.215,5.215,0,0,1-1.41.616,2.544,2.544,0,0,1-1.314-.3Z" transform="translate(-462.183 -1582.457)" fill="#900810"/>
                <path id="Trazado_997998" data-name="Trazado 997998" d="M450.094,1593.251a9.027,9.027,0,0,1,1.62,1.865c.227.257.6,0,.6,0,.231-.278-1.16-1.652-1.687-2.155l-.361.2C450.205,1593.193,450.149,1593.222,450.094,1593.251Z" transform="translate(-448.657 -1591.498)" fill="#900810"/>
                <path id="Trazado_997999" data-name="Trazado 997999" d="M441.238,1598.828c.455.513.655.627,1.083.514.329-.087-1.048-1.539-1.7-2.2a7.646,7.646,0,0,1-.846.336A6.777,6.777,0,0,1,441.238,1598.828Z" transform="translate(-439.777 -1595.096)" fill="#900810"/>
                <path id="Trazado_998000" data-name="Trazado 998000" d="M457.422,1590.375c.342-.171-.143-.7-.143-.7l-1.32-1.49-1.053.588C455.734,1589.166,457.126,1590.522,457.422,1590.375Z" transform="translate(-452.799 -1587.383)" fill="#900810"/>
              </g>
              <path id="Trazado_998001" data-name="Trazado 998001" d="M415.936,1600.758a3.221,3.221,0,0,1,1.387,2.558s4.123-.022,4.807-.191,4.464-1.468,4.462-1.431l0,.04s.176.1.176.2a3.472,3.472,0,0,1-.163,1.085s-7.55,1.987-13.767.706A2.947,2.947,0,0,1,415.936,1600.758Z" transform="translate(-412.836 -1496.566)" fill="#b3c0cd"/>
              <path id="Trazado_998002" data-name="Trazado 998002" d="M426.59,1607.512l0-.04c0-.009-.219.06-.56.17.163.749-.035.875-4.323,1.687s-7.634-.086-8.018-.385c-.229-.177-.185-.9-.113-1.452a3.427,3.427,0,0,0-.741,2.008c6.217,1.282,13.767-.706,13.767-.706a3.471,3.471,0,0,0,.163-1.085C426.766,1607.608,426.59,1607.512,426.59,1607.512Z" transform="translate(-412.836 -1502.345)" fill="#8495a3"/>
              <path id="Trazado_998003" data-name="Trazado 998003" d="M443.539,1595.587a3,3,0,0,1,1.539,1.583.36.36,0,0,0,.577.107c.234-.2-.563-1.6-1.371-2.037a.517.517,0,0,0-.284-.057C443.752,1595.2,443.436,1595.341,443.539,1595.587Z" transform="translate(-439.246 -1491.766)" fill="#b3c0cd"/>
              <path id="Trazado_998004" data-name="Trazado 998004" d="M451.358,1591.367a3,3,0,0,1,1.539,1.583.36.36,0,0,0,.577.106c.235-.2-.562-1.6-1.371-2.037a.53.53,0,0,0-.285-.057C451.57,1590.984,451.254,1591.121,451.358,1591.367Z" transform="translate(-445.976 -1488.133)" fill="#b3c0cd"/>
              <path id="Trazado_998005" data-name="Trazado 998005" d="M459.177,1587.285a3,3,0,0,1,1.539,1.582.36.36,0,0,0,.577.107c.235-.2-.563-1.6-1.371-2.037a.528.528,0,0,0-.285-.057C459.389,1586.9,459.074,1587.039,459.177,1587.285Z" transform="translate(-452.706 -1484.619)" fill="#b3c0cd"/>
              <g id="Grupo_1179581" data-name="Grupo 1179581" transform="translate(0.631)">
                <g id="Grupo_1179580" data-name="Grupo 1179580" transform="translate(25.483)">
                  <path id="Trazado_998006" data-name="Trazado 998006" d="M704.34,883.047s-4.953.54-5.793,1.008l-.371,1.309,6.571-1.038Z" transform="translate(-684.55 -878.812)" fill="#4f9dc4"/>
                  <path id="Trazado_998007" data-name="Trazado 998007" d="M709.346,856.656s-3.412-3.63-4.292-4.019l-1.269.491,4.784,4.623Z" transform="translate(-689.378 -852.637)" fill="#4f9dc4"/>
                  <path id="Trazado_998008" data-name="Trazado 998008" d="M763.5,891.563l4.382,1.547-.342.971a25.057,25.057,0,0,0-4.537-.446Z" transform="translate(-740.346 -886.142)" fill="#4f9dc4"/>
                  <path id="Trazado_998009" data-name="Trazado 998009" d="M732.8,881.677l1.45-4.1a1.182,1.182,0,0,0-.72-1.506l-2.435-.86a1.18,1.18,0,0,0-1.506.72l-1.449,4.1Z" transform="translate(-710.342 -872.005)" fill="#91d4f5"/>
                  <g id="Grupo_1179579" data-name="Grupo 1179579" transform="translate(0 7.894)">
                    <path id="Trazado_998010" data-name="Trazado 998010" d="M628.758,911.179l-5.278-1.863a7.748,7.748,0,0,0-7.07,5.164l-9.516,26.951,14.608,5.157,9.517-26.951A7.75,7.75,0,0,0,628.758,911.179Z" transform="translate(-605.981 -909.316)" fill="#e0301d"/>
                    <path id="Trazado_998011" data-name="Trazado 998011" d="M621.679,910.766a20.916,20.916,0,0,0,8.31,1.752,7.726,7.726,0,0,0-1.231-1.339l-5.277-1.863a7.748,7.748,0,0,0-7.07,5.164l-9.516,26.951,14.608,5.157,1.31-3.71C607.6,935.119,621.679,910.766,621.679,910.766Z" transform="translate(-605.981 -909.316)" fill="#bf1b13"/>
                    <path id="Trazado_998012" data-name="Trazado 998012" d="M600.379,1136.073a.666.666,0,0,0,.4.848l15.027,5.3a.663.663,0,0,0,.847-.405h0a.666.666,0,0,0-.4-.848l-15.027-5.305a.665.665,0,0,0-.847.406Z" transform="translate(-600.341 -1104.111)" fill="#e0301d"/>
                  </g>
                  <path id="Trazado_998013" data-name="Trazado 998013" d="M718.945,904.783h0l6.866,2.424h0l.361-1.021h0l-6.866-2.424h0Z" transform="translate(-702.427 -896.641)" fill="#78c3ef"/>
                </g>
                <path id="Trazado_998014" data-name="Trazado 998014" d="M461.61,999.926l4.817,6.61s17.692-3.761,18.035-3.875l.633,1.992s-16.512,6.668-17.86,6.9-2.073.286-2.963-.512-6.513-7.236-6.513-7.236Z" transform="translate(-452.132 -979.413)" fill="#eab389"/>
                <path id="Trazado_998015" data-name="Trazado 998015" d="M487.5,1033.173s-16.09,5.053-17.811,4.825-5.311-5.228-5.311-5.228l-2.454-.262c1.459,1.662,5.218,5.932,5.933,6.572.891.8,1.616.74,2.963.513,1.128-.19,12.88-4.893,16.68-6.42Z" transform="translate(-455.717 -1007.457)" fill="#db986b"/>
                <path id="Trazado_998016" data-name="Trazado 998016" d="M463.826,1002.966l-2.216-3.04-3.852,3.875s1.329,1.522,2.8,3.178Z" transform="translate(-452.132 -979.413)" fill="#db986b"/>
                <path id="Trazado_998017" data-name="Trazado 998017" d="M419.5,937.16a3.664,3.664,0,0,0-2.051,4.156c.4,2.14,4.441,9.8,5.183,10.6l6.874-5.243S422.575,935.515,419.5,937.16Z" transform="translate(-417.366 -925.246)" fill="#9a73af"/>
                <path id="Trazado_998018" data-name="Trazado 998018" d="M639.536,997.4a11.645,11.645,0,0,1,2.242-2.1,25.054,25.054,0,0,0,2.3-1.817.261.261,0,0,1,.139.381c-.139.277-1.212,1.591-1.28,1.8s.32.053.735-.086,2.882-1.713,3.054-1.73c0,0,.375-.072.427.1s-.014.21-.141.328a29.289,29.289,0,0,0-2.6,1.834c.052.1.182.156.441.052s3.583-1.531,3.583-1.531.466-.13.493.13c0,0,.026.156-.207.363s-3.634,1.688-3.66,1.816.26.235.441.182,3.3-1.194,3.427-1.194.414.052.389.181a.606.606,0,0,1-.208.312c-.1.1-3.374,1.3-3.5,1.349,0,0-.26.208-.1.261s2.47.3,2.543.337.249.107.154.253a.268.268,0,0,1-.2.146c-.744.1-2.728.042-2.86.042-.156,0-4.281.6-5.191.285S639.536,997.4,639.536,997.4Z" transform="translate(-608.48 -973.868)" fill="#eab389"/>
              </g>
            </g>
            <g id="Grupo_1179592" data-name="Grupo 1179592" transform="translate(5.115 6.254)">
              <g id="Grupo_1179591" data-name="Grupo 1179591">
                <g id="Grupo_1179588" data-name="Grupo 1179588">
                  <path id="Trazado_998019" data-name="Trazado 998019" d="M503.814,881.308a12.973,12.973,0,0,1-2.737-7.179h-4.41a12.975,12.975,0,0,1-2.736,7.179c1,1.249,4.328,1.642,4.9,1.7v.009l.043,0,.042,0v-.009C499.486,882.95,502.818,882.557,503.814,881.308Z" transform="translate(-487.751 -852.013)" fill="#d7936b"/>
                  <path id="Trazado_998020" data-name="Trazado 998020" d="M514.28,874.129h-4.41a12.221,12.221,0,0,1-.6,3.167c1.816,1.268,4.647,2.753,5.9.794A12.438,12.438,0,0,1,514.28,874.129Z" transform="translate(-500.953 -852.013)" fill="#c37244"/>
                  <g id="Grupo_1179587" data-name="Grupo 1179587">
                    <path id="Trazado_998021" data-name="Trazado 998021" d="M452.84,799.986c.334,1.238-.1,2.434-.979,2.669s-1.855-.578-2.189-1.817.106-2.435.98-2.671S452.508,798.746,452.84,799.986Z" transform="translate(-449.561 -786.596)" fill="#d7936b"/>
                    <g id="Grupo_1179583" data-name="Grupo 1179583" transform="translate(0.62 12.643)">
                      <path id="Trazado_998022" data-name="Trazado 998022" d="M454.069,807.478s-.23-1.3.272-1.363a1.222,1.222,0,0,1,1.273,1.363c-.075.977-.34,1.39-.806,1.043" transform="translate(-454.016 -806.108)" fill="none" stroke="#985631" stroke-linecap="round" stroke-miterlimit="10" stroke-width="1.109"/>
                      <path id="Trazado_998023" data-name="Trazado 998023" d="M458.607,809.262s-.611-1.352.371-1.163" transform="translate(-457.805 -807.806)" fill="none" stroke="#985631" stroke-linecap="round" stroke-miterlimit="10" stroke-width="1.109"/>
                    </g>
                    <path id="Trazado_998024" data-name="Trazado 998024" d="M583.954,799.986c-.333,1.238.106,2.434.98,2.669s1.854-.578,2.188-1.817-.1-2.435-.98-2.671S584.288,798.746,583.954,799.986Z" transform="translate(-565.141 -786.596)" fill="#d7936b"/>
                    <g id="Grupo_1179584" data-name="Grupo 1179584" transform="translate(19.669 12.643)">
                      <path id="Trazado_998025" data-name="Trazado 998025" d="M592.335,807.478s.231-1.3-.271-1.363a1.222,1.222,0,0,0-1.274,1.363c.076.977.341,1.39.807,1.043" transform="translate(-590.786 -806.108)" fill="none" stroke="#985631" stroke-linecap="round" stroke-miterlimit="10" stroke-width="1.109"/>
                      <path id="Trazado_998026" data-name="Trazado 998026" d="M594.25,809.262s.612-1.352-.37-1.163" transform="translate(-593.448 -807.806)" fill="none" stroke="#985631" stroke-linecap="round" stroke-miterlimit="10" stroke-width="1.109"/>
                    </g>
                    <path id="Trazado_998027" data-name="Trazado 998027" d="M474.3,715.332c-11.463,0-8.526,14.427-8.231,17.086.346,3.117,6.209,7.446,6.209,7.446a3.594,3.594,0,0,0,1.964.52,3.642,3.642,0,0,0,1.94-.52s6.165-4.214,6.4-7.446C482.773,729.749,485.214,715.333,474.3,715.332Z" transform="translate(-463.299 -715.332)" fill="#eab389"/>
                    <path id="Trazado_998028" data-name="Trazado 998028" d="M474.3,715.332c-11.463,0-8.526,14.427-8.231,17.086.346,3.117,6.209,7.446,6.209,7.446a3.594,3.594,0,0,0,1.964.52,3.642,3.642,0,0,0,1.94-.52s6.165-4.214,6.4-7.446C482.773,729.749,485.214,715.333,474.3,715.332Z" transform="translate(-463.299 -715.332)" fill="#eab389"/>
                    <path id="Trazado_998029" data-name="Trazado 998029" d="M470.084,730.836a25.056,25.056,0,0,0-2.454.738c-3.33,4.357-1.766,12.285-1.555,14.188.346,3.117,6.209,7.446,6.209,7.446a3.594,3.594,0,0,0,1.964.52,3.642,3.642,0,0,0,1.94-.52,30.261,30.261,0,0,0,3.007-2.416h0s-3.308,2.264-4.628,2.121-5.32-4.1-6.311-5.411-.653-5.845-.78-6.314a20.141,20.141,0,0,0,.78-2.777c.206-1.2.137-5.127,1.24-5.127s3.933,1.026,5.85.769,4.077-1.69,5.135-1.187-1.48-2.031-1.48-2.031Z" transform="translate(-463.302 -728.677)" fill="#db986b"/>
                    <g id="Grupo_1179585" data-name="Grupo 1179585" transform="translate(5.007 10.332)">
                      <path id="Trazado_998030" data-name="Trazado 998030" d="M547.522,790.914s-.308.567.213.606a10.285,10.285,0,0,1,2.924.527s.518-.093.238-.481C550.9,791.565,548.411,790.242,547.522,790.914Z" transform="translate(-538.809 -790.556)" fill="#6d4121"/>
                      <path id="Trazado_998031" data-name="Trazado 998031" d="M488.974,789.712s.308.566-.213.605a10.208,10.208,0,0,0-2.924.527s-.518-.094-.239-.482C485.6,790.363,488.086,789.039,488.974,789.712Z" transform="translate(-485.516 -789.521)" fill="#6d4121"/>
                    </g>
                    <g id="Grupo_1179586" data-name="Grupo 1179586" transform="translate(9.787 16.48)">
                      <path id="Trazado_998032" data-name="Trazado 998032" d="M519.836,833.66l.42.119c.115.03.241.057.362.083a1.824,1.824,0,0,0,.361.026,2.05,2.05,0,0,0,.36-.029c.121-.031.247-.054.362-.09s.218-.066.3-.082.131-.027.131-.027a1.112,1.112,0,0,1-.036.127.973.973,0,0,1-.159.3,1.187,1.187,0,0,1-.367.334,1.27,1.27,0,0,1-.586.156,1.2,1.2,0,0,1-.959-.482A.9.9,0,0,1,519.836,833.66Z" transform="translate(-519.836 -833.66)" fill="#b5724b"/>
                    </g>
                    <path id="Trazado_998033" data-name="Trazado 998033" d="M549.039,803.249a2.175,2.175,0,0,1,2.433.377" transform="translate(-535.185 -790.815)" fill="none" stroke="#b5724b" stroke-linecap="round" stroke-miterlimit="10" stroke-width="1.243"/>
                    <path id="Trazado_998034" data-name="Trazado 998034" d="M490.764,803.277a2.174,2.174,0,0,0-2.432.377" transform="translate(-482.932 -790.84)" fill="none" stroke="#b5724b" stroke-linecap="round" stroke-miterlimit="10" stroke-width="1.243"/>
                  </g>
                </g>
                <g id="Grupo_1179589" data-name="Grupo 1179589" transform="translate(5.9 12.667)">
                  <path id="Trazado_998035" data-name="Trazado 998035" d="M491.922,807.121a.84.84,0,1,0,.841-.84A.841.841,0,0,0,491.922,807.121Z" transform="translate(-491.922 -806.281)" fill="#130c09"/>
                  <path id="Trazado_998036" data-name="Trazado 998036" d="M495.1,808.143s-.448-.764-1.047,0c0,0-.064.285.171.29a3.313,3.313,0,0,1,.662,0C495.032,808.48,495.211,808.289,495.1,808.143Z" transform="translate(-493.746 -807.591)" fill="#f6e4dd"/>
                </g>
                <g id="Grupo_1179590" data-name="Grupo 1179590" transform="translate(14.019 12.667)">
                  <path id="Trazado_998037" data-name="Trazado 998037" d="M550.219,807.121a.841.841,0,1,0,.841-.84A.841.841,0,0,0,550.219,807.121Z" transform="translate(-550.219 -806.281)" fill="#130c09"/>
                  <path id="Trazado_998038" data-name="Trazado 998038" d="M553.389,808.143s-.449-.764-1.047,0c0,0-.064.285.171.29a3.318,3.318,0,0,1,.663,0C553.324,808.48,553.5,808.289,553.389,808.143Z" transform="translate(-552.039 -807.591)" fill="#f6e4dd"/>
                </g>
                <path id="Trazado_998039" data-name="Trazado 998039" d="M516.277,846.4c-.1-1.369-2.245-1.37-2.245-1.37s-2.148-.058-2.281,1.308c-.107,1.105,1.2.538,1.425.477a3.051,3.051,0,0,1,1.664.022C515.065,846.9,516.354,847.508,516.277,846.4Z" transform="translate(-503.084 -826.965)" fill="#591614"/>
                <path id="Trazado_998040" data-name="Trazado 998040" d="M518.7,845.514a3.46,3.46,0,0,0-1.736-.485,3.347,3.347,0,0,0-1.813.485A5.537,5.537,0,0,0,518.7,845.514Z" transform="translate(-506.017 -826.966)" fill="#f6e4dd"/>
                <path id="Trazado_998041" data-name="Trazado 998041" d="M522.288,855.007a.9.9,0,0,0-1.066-.571s-.888-.235-1.16.535c.125-.039.224-.076.273-.089A3.051,3.051,0,0,1,522,854.9C522.05,854.92,522.156,854.963,522.288,855.007Z" transform="translate(-510.243 -835.034)" fill="#ee8280"/>
              </g>
            </g>
            <path id="Trazado_998042" data-name="Trazado 998042" d="M461.4,689.493a2.623,2.623,0,0,0,1.1-1.816c.183-1.267.809-7.163,2.8-7.676s4.4,1.2,8.665,0c0,0,1.363-.171,1.79.427s1.66,8.939,2.979,8.921c0,0,2.377-6.54.017-9.562-2.124-2.72-7.164-6.025-7.6-8.589v.855a10.21,10.21,0,0,0-.924-1.624s-.966,2.179-1.222,2.522a5.992,5.992,0,0,0-.214-1.624,13.855,13.855,0,0,1-4.285,5.679S458.631,679.962,461.4,689.493Z" transform="translate(-454 -670.43)" fill="#884e2d"/>
          </g>
          <path id="Trazado_998043" data-name="Trazado 998043" d="M461.337,741.661c-.556-.185.1-3.3.632-5.462-1.152,1.923-1.974,5.066-.566,9.9a2.623,2.623,0,0,0,1.1-1.816,32.9,32.9,0,0,1,.919-4.831C462.791,740.271,461.89,741.844,461.337,741.661Z" transform="translate(-453.999 -727.039)" fill="#6a391d"/>
          <path id="Trazado_998044" data-name="Trazado 998044" d="M577.751,730.836a13.673,13.673,0,0,1,.824,6.185c-.081,1.3-1.174.43-1.95-.362.546,2.31,1.227,4.694,1.932,4.685,0,0,2.377-6.54.017-9.562C578.334,731.473,578.055,731.158,577.751,730.836Z" transform="translate(-553.814 -722.423)" fill="#6a391d"/>
          <path id="Trazado_998045" data-name="Trazado 998045" d="M489.314,694.012s-2.27,3.406-3.735,3.931c0,0-.629.855-.392.969s2.441-2.55,2.279-1.93-2.586,2.276-1.887,2.159,2.105-2.276,1.887-1.509-2.1,2.719-1.387,2.256,2.241-2.514,1.932-1.831-1.152,2.293-.788,1.831,3.5-4.223,3.442-4.508-1.107,1.424-1.351,1.368,1.465-2.564,1.066-2.222-1.693,2.222-1.645,1.823,1.729-2.393,1.231-2.108-1.467,2.392-1.694,1.937S490,694.038,489.314,694.012Z" transform="translate(-475.064 -690.728)" fill="#a46643"/>
          <path id="Trazado_998046" data-name="Trazado 998046" d="M539.18,701.324s4.017,3.522,4.1,3.961-.982-.713-1.154-.585,1.378,2.094,1.158,1.881-1.329-1.282-1.329-1.069,1.531,2.265.915,1.71-5.786-4.829-5.445-4.871,1.881,1.581,1.711,1.2-1.711-1.923-1.368-1.837,1.624,1.539,1.453,1.111-1.709-1.623-1.2-1.5,2.008,1.623,1.752,1.2S538.429,700.658,539.18,701.324Z" transform="translate(-520.061 -696.872)" fill="#a46643"/>
        </g>
        <g id="Grupo_1179597" data-name="Grupo 1179597" transform="translate(38.574 74.081)">
          <path id="Trazado_998047" data-name="Trazado 998047" d="M696.817,1261.093s-6.243-4.217-6.491-10.064-1.331-7.13.621-12,2.715-7.109,1.18-7.915-2.567-3.9,0-6.839c0,0-1.541,2.959,0,3.729s4.045,2.05,4.844,4.358.286,6.41,1.312,6.667c0,0-1.795-4.545,1.282-7.915s-2.11-5.185-2.593-6.839,1.712-6.27,3.563-8.834.969-3.467,0-5.836,2.108-7.257,2.108-7.257-1.539,5.524,0,7.257,4.615,3.785,3.845,5.836-3.845,4.615-2.05,6.409,5.639,5.384,6.153,7.948c0,0,2.562-1.282,1.281-3.332s-5.9-4.1-4.1-6.666,6.1-4.871,4.461-6.153a9.037,9.037,0,0,1-2.41-4.042s5.9,2.247,5.64,4.3-4.359,5.128-2.564,6.666,7.948,7.178,6.153,12.817c0,0-1.795,6.667-1.282,8.205,0,0,4.871-10.255,3.333-13.844s-2.733-8.2.3-10a5.953,5.953,0,0,0,1.494,6.526c3.076,2.7,3.845,16.035,0,21.93,0,0,4.1-3.845,5.128-8.715,0,0,.512,22.4-11.793,24.017a86.862,86.862,0,0,1-9.229-.093C704.692,1261.075,696.817,1261.093,696.817,1261.093Z" transform="translate(-689.803 -1202.348)" fill="#fac82d"/>
          <g id="Grupo_1179595" data-name="Grupo 1179595" transform="translate(2.958 15.743)">
            <path id="Trazado_998048" data-name="Trazado 998048" d="M925.253,1401.585a13.483,13.483,0,0,0-.183-2.128S925.17,1400.27,925.253,1401.585Z" transform="translate(-895.261 -1387.748)" fill="#fac82d"/>
            <path id="Trazado_998049" data-name="Trazado 998049" d="M743.573,1342.99a41,41,0,0,1-5.02,3.178c2.866-4.611,2.763-12.564,2.523-16.322.071,7.359-5.591,14.147-5.591,14.147-2.4-2.008-3.456-8.7-.78-14.1s-2.4-8.484-2.4-8.484a8.09,8.09,0,0,1-3.957-4.015c-.638,2.093.167,3.179,2.343,4.965s2.341,5.074-.67,7.534-3.681,7-3.681,7c-1.672-.578.67-7.119,0-9.292s-3.848-4.686-5.521-6.024.5-6.19.5-6.19a24.31,24.31,0,0,0-2.678,5.354c-.669,2.343,1.673,3.179,3.012,4.35s.5,2.845-1.84,4.8-.5,8.75-1,10.589-1.171,2.677-2.51,2.008-1.506-3.011-1.376-5.521a16.885,16.885,0,0,0-1.095-5.689l-.708,3.012s-1.506,5.521-2.008,7.026,1.673,2.51,1.273,4.016-.1,3.679,1.443,6.5a43.639,43.639,0,0,0,4.981,6.562l.021.018c2.4.03,5.521.1,6.824.294a52.515,52.515,0,0,0,6.266.159C741.739,1356.32,743.573,1342.99,743.573,1342.99Z" transform="translate(-711.039 -1315.383)" fill="#d56f0f"/>
          </g>
          <g id="Grupo_1179596" data-name="Grupo 1179596" transform="translate(4.19 30.869)">
            <path id="Trazado_998050" data-name="Trazado 998050" d="M917.5,1545.568l.029-.064C917.52,1545.526,917.509,1545.547,917.5,1545.568Z" transform="translate(-889.978 -1528.581)" fill="#c6440f"/>
            <path id="Trazado_998051" data-name="Trazado 998051" d="M916.836,1546.166c.034-.065.064-.132.092-.2C916.908,1546.011,916.877,1546.079,916.836,1546.166Z" transform="translate(-889.407 -1528.978)" fill="#c6440f"/>
            <path id="Trazado_998052" data-name="Trazado 998052" d="M747.318,1441.184c-1.2,2.338-5.69,2.881-5.69,2.881,1.367-.785,3.76-6.906,3.76-6.906-1.025,1.539-4.957,3.075-4.957,3.075a81.17,81.17,0,0,0-2.051-9.613c-.683-1.923,1.2-6.625,1.2-6.625-3.089,1.411-3.932,6.837-4.654,9.23a18.256,18.256,0,0,1-1.671,3.932c0-1.879-1.709-5.469-2.906-7.692s0-5.47,0-5.47L728.3,1426.9c-1.025,2.564-.171,8.034-.342,10.6s-1.539,3.419-1.539,3.419c-.342-1.368-3.419-3.589-4.444-4.445a4.192,4.192,0,0,1-1.157-2.564s-2.083.892,0,2.906a5.892,5.892,0,0,1,1.5,4.991c1.368,6.7,7.3,10.158,7.3,10.158l.031.008c1.346.048,2.555.118,3.253.22a34.929,34.929,0,0,0,4.12.18c3.589-.513,7.176-4.258,7.176-4.258l-2.735.273C744.71,1446.421,746.81,1442.271,747.318,1441.184Z" transform="translate(-719.889 -1423.996)" fill="#c6440f"/>
          </g>
        </g>
      </g>
      <g id="Grupo_1179629" data-name="Grupo 1179629" transform="translate(392.342 14149.977)">
        <g id="Grupo_1179611" data-name="Grupo 1179611" transform="translate(73.63)">
          <path id="Trazado_998053" data-name="Trazado 998053" d="M1628.39,516.86s2.21,1.183,2.784,0,.248-12.24-.4-14.028-12.114-4.228-12.846-2.927.325,7.114,2.277,7.988,5.772,1.687,6.1,1.931S1628.39,516.86,1628.39,516.86Z" transform="translate(-1615.655 -490.558)" fill="#ccdfe5"/>
          <path id="Trazado_998054" data-name="Trazado 998054" d="M1658.083,557.908c.287-1.608-8.038-1.01-9.5.941s1.022,11.265,1.022,11.265h3.773c1.864-2.16,1.006-5.928,1.006-5.928s3.691.086,3.7-.592c.012-.994-3.537-.994-3.537-.994s3.537-.148,3.537-1.219c0,0-.123-.448-.528-.448s-2.927-.081-3.089-.081a.322.322,0,0,1,.122-.369c.2-.119,3.74-.4,3.78-.973,0,0,.041-.447-.284-.487s-3.333.041-3.5-.04-.39-.326-.187-.448S1658.015,558.29,1658.083,557.908Z" transform="translate(-1641.845 -540.002)" fill="#25887c"/>
          <path id="Trazado_998055" data-name="Trazado 998055" d="M1653.393,589.193a5.932,5.932,0,0,0,1.2-3.81c-2.012-.682-5.772-2.446-6.4-6.235-.411,3.175,1.421,10.045,1.421,10.045Z" transform="translate(-1641.859 -559.081)" fill="#1f7365"/>
          <path id="Trazado_998056" data-name="Trazado 998056" d="M2145.409,1149.627a14.7,14.7,0,0,0-2.976,3.444s-2.35,5.358-2.8,5.976c0,0-.559.832-.25,1.212a1.476,1.476,0,0,0,1.436-.494c.7-.725,2.63-3.957,3.29-4.1a2.854,2.854,0,0,1,1.318,1.652c.251,1.078-2.1,9.434-1.221,9.772a.865.865,0,0,0,1-.661c.141-.468,1.076-4.988,1.522-4.975l.218.007s-1.428,6.138-.7,6.051a.9.9,0,0,0,.745-.557,3.52,3.52,0,0,1,.395-.8s.542.45.88-.428l.338-.876s.724.535,1.365-1.621a52.6,52.6,0,0,0,.683-8.306,45.691,45.691,0,0,0-1.369-5.885Z" transform="translate(-2064.608 -1049.599)" fill="#25887c"/>
          <path id="Trazado_998057" data-name="Trazado 998057" d="M2169.661,1149.035l-3.878.592a16.6,16.6,0,0,0-2.822,3.141,33.342,33.342,0,0,1,8.076,3.753,13.141,13.141,0,0,0-.006-1.6A45.734,45.734,0,0,0,2169.661,1149.035Z" transform="translate(-2084.982 -1049.599)" fill="#1f7365"/>
          <path id="Trazado_998058" data-name="Trazado 998058" d="M1857.956,495.383s-2.387,18.869-.754,21.633,24.692,3.37,27.45,1.277,1.555-13.8-1.187-17.87S1857.956,495.383,1857.956,495.383Z" transform="translate(-1821.316 -486.982)" fill="#c25d10"/>
          <path id="Trazado_998059" data-name="Trazado 998059" d="M1783.28,1583.344a51.943,51.943,0,0,0,.833,7.614c.6,2.177-.155,6.724-.155,6.724s-17.97,3.387-22.136.652c0,0-.342-4.229,1.683-4.936s9.959-1.515,10.493-3.133c0,0,.473-7.288,1.165-7.6S1783.28,1583.344,1783.28,1583.344Z" transform="translate(-1739.692 -1422.787)" fill="#171d27"/>
          <path id="Trazado_998060" data-name="Trazado 998060" d="M1976.694,1576.339a51.939,51.939,0,0,1-.832,7.611c-.6,2.18.155,6.726.155,6.726s17.969,3.387,22.135.653c0,0,.343-4.229-1.683-4.938s-9.959-1.513-10.493-3.131c0,0-.474-7.289-1.165-7.6S1976.694,1576.339,1976.694,1576.339Z" transform="translate(-1923.741 -1416.757)" fill="#171d27"/>
          <g id="Grupo_1179603" data-name="Grupo 1179603" transform="translate(29.375 14.291)">
            <path id="Trazado_998061" data-name="Trazado 998061" d="M1852.834,707.86c-1.3-1.219-14.625-2.926-14.625-2.926l-4.085,1.081-4.085-1.081s-13.325,1.707-14.625,2.926-1.812,15.538-.447,18.465c0,0-1,19.077-.964,29.506a36.9,36.9,0,0,0,.343,6.976c.068.411,2.871,27.041,3.547,37.141L1817.868,830c3.777,3.957,12.327.583,12.327.583-.11-11.782,1.819-38.956,1.807-41.655.613-4.311.607-11,1.363-16.261a3.815,3.815,0,0,0,.54-.017c.219,7.43-.187,13.236.507,17.538.038,2.7,1.169,26.323,2.367,40.343,0,0,8.026,3.652,11.82-.288,0,0,4.265-66.459,4.386-67.24a37.53,37.53,0,0,0,.421-4.243h.033C1853.439,744.1,1854.135,709.081,1852.834,707.86Z" transform="translate(-1813.973 -681.639)" fill="#fdb12a"/>
            <path id="Trazado_998062" data-name="Trazado 998062" d="M1870.781,757.27s-1.855.813-2.15,2.277.492,1.62.587,2.761-2.935,5.6-1.908,5.647,2.443-3.042,2.222-1.416-3.9,6.829-2.222,6.341,3.313-4.228,3.47-2.765-.158,3.479.976,2.8,2.843-2.979,3.452-1.912.807,4.97,1.521,4.319-1.527-3.383,0-5.2,1.227-4.48,2.179-3.784,1.91,5.248,2.5,5.9,1.768-3.922,1.584-1.229-2.192,10.5-.944,10.823,1.093-4.391,1.983-3.252,1.813,5.691,2,4.065,1.059-5.366,1.6-3.74.121,6.385,1.306,4.087,1.511-1.81,2.812-2.786.146-1.951-.74-4.554-1.992-5.04-.3-6.5,5.135-1.626,1.624-3.414-1.166-5.2-3.4-6.5-3.762.65-5.515,0-1.313.062-2.509,1.495-2-1.007-2.007-1.82-2.2,0-3.7-.65-2.8,4.29-3.452,2.47A26.542,26.542,0,0,1,1870.781,757.27Z" transform="translate(-1859.505 -726.686)" fill="#ffe2ac" opacity="0.5"/>
            <path id="Trazado_998063" data-name="Trazado 998063" d="M1879.686,825.1h.033c0-10.546.36-31.635.078-43.09-.644,1.945-3.729,1.49-6.307,2.118-3,.732,2.272,2.926,3.722,6.386s-1.449,2.759-3.794,2.759.984,5.346,3.484,8.028-3.334,6.971-5.144,9.165,5.468,7.317,6.13,9.071-1.028,12.149-2.109,15.307.349,8.548,1.123,12.573-.11,19.478-2.907,24.828,1.735,11.115-.5,15.78-4.678,7.681-6.416,7.315-1.555-6.219-1.815-9.145-.472-10.975-1.089-13.949a25.263,25.263,0,0,1,1.089-12.277,17.143,17.143,0,0,0,0-11.454c-.992-2.562.992-5.123,2.146-9.146s3.968-9.146,1.305-10.031-11.605.154-13.18,0-.254,7.1.424,10.4a24.763,24.763,0,0,1-.424,10.609c-.843,2.927.843,8.414,1.683,13.17s-1.937,9.512-3.074,14.634-.692,13.17-1.636,15.855c-.634,1.8-5.124,2.449-8,2.678,3.931,3.415,11.971.245,11.971.245-.11-11.782,1.819-38.956,1.807-41.655.613-4.311.606-11,1.363-16.261a3.818,3.818,0,0,0,.54-.017c.219,7.43-.187,13.236.507,17.538.038,2.7,1.169,26.323,2.366,40.343,0,0,8.026,3.652,11.82-.288,0,0,4.265-66.459,4.386-67.24A37.505,37.505,0,0,0,1879.686,825.1Z" transform="translate(-1840.252 -747.982)" fill="#ad5115" opacity="0.3"/>
            <g id="Grupo_1179599" data-name="Grupo 1179599" transform="translate(0.002 25.537)" opacity="0.4">
              <path id="Trazado_998064" data-name="Trazado 998064" d="M1814.312,969.4c-.173,4.925-.308,10.116-.3,14.065-.022.636-.031,1.3-.028,1.975.015-.048.025-.1.041-.145,1.811-5.853,2.7-4.756,3.537-7.683C1818.147,975.571,1815.62,971.864,1814.312,969.4Z" transform="translate(-1813.986 -934.811)" fill="#ad5115"/>
              <path id="Trazado_998065" data-name="Trazado 998065" d="M1816.82,1121.828c.275,2.415,2.877,27.273,3.524,36.953l-.019,24.308c.65-1.583,1.558-3.927,2.243-6.233,1.2-4.023,2.421-42.148-.2-47.23C1820.714,1126.427,1818.088,1124.371,1816.82,1121.828Z" transform="translate(-1816.425 -1066.008)" fill="#ad5115"/>
              <path id="Trazado_998066" data-name="Trazado 998066" d="M1816.122,740.181s-.288,5.513-.548,12.232a22.538,22.538,0,0,0,2.626-2.846c.976-1.463,4.442-1.976,3.44-5.378s-1.607-5.6-.368-6.161.52-7.118.676-9.679c.083-1.37-1.859-4.586-3.685-7.318a4.959,4.959,0,0,0-1.694.684C1815.268,722.936,1814.758,737.254,1816.122,740.181Z" transform="translate(-1815.13 -721.031)" fill="#ad5115"/>
            </g>
            <g id="Grupo_1179602" data-name="Grupo 1179602" transform="translate(5.37)">
              <g id="Grupo_1179600" data-name="Grupo 1179600">
                <path id="Trazado_998067" data-name="Trazado 998067" d="M1852.608,539.623s-.329-1.855.387-1.947a1.746,1.746,0,0,1,1.818,1.947c-.108,1.393-.487,1.982-1.153,1.487" transform="translate(-1852.532 -537.668)" fill="none" stroke="#985631" stroke-linecap="round" stroke-miterlimit="10" stroke-width="1.582"/>
              </g>
              <g id="Grupo_1179601" data-name="Grupo 1179601" transform="translate(27.795 0.393)">
                <path id="Trazado_998068" data-name="Trazado 998068" d="M2052.638,542.175s.873-1.929-.529-1.659" transform="translate(-2052.109 -540.49)" fill="none" stroke="#985631" stroke-linecap="round" stroke-miterlimit="10" stroke-width="1.582"/>
              </g>
            </g>
          </g>
          <path id="Trazado_998069" data-name="Trazado 998069" d="M1875.963,441.671c-7.295-10.029-28.506-8.24-29.468,2.6a154.992,154.992,0,0,0,.463,30.072s13.058,9.609,30.568.25C1877.526,474.6,1879.762,446.9,1875.963,441.671Zm-3.277,20.856c-3.512,3.74-21.235,3.279-22.86-2.182s-.391-12.459.423-12.947,16.543-3.9,22.987,1.951C1873.235,449.35,1876.2,458.788,1872.687,462.528Z" transform="translate(-1812.141 -435.059)" fill="#ecbc00"/>
          <path id="Trazado_998070" data-name="Trazado 998070" d="M1878.169,461.342c-.02-1.367-.061-2.72-.129-4.023a11.126,11.126,0,0,0-1.956-.684c-1.947-.521-.042-2.224,0-3.2a8.04,8.04,0,0,1,1.3-2.39,10.823,10.823,0,0,0-1.417-4.167,14.847,14.847,0,0,0-5.718-4.592,7.7,7.7,0,0,1,.7,1.555c.325,1.373.21,4.39-1.306,4.066a33.927,33.927,0,0,0-5.586-.651,17.387,17.387,0,0,1-5.318-.975c-1.853-.651-4.49,1.951-5.948,1.3-1.088-.485,1.172-4.012,1.986-6.473a12.369,12.369,0,0,0-6.954,4.612c.478,1.571,1.769,3.311,1.35,4.823-.566,2.04-2.026.027-2.808.538q-.088,1.157-.153,2.3a4.418,4.418,0,0,0,2.346,1.6c-1.4-.27-.529,1.659-.529,1.659.682,2.069-.015,1.365-1.887,2.817-.055.042-.105.085-.152.129-.01.691-.015,1.375-.016,2.046a10.582,10.582,0,0,1,1.687,2.454c.222.844-.722,1.757-1.62,2.41.185,6.451.7,11.215.865,12.628.554.483,1.119.965,1.676,1.427a27.792,27.792,0,0,0,7.374,2.7c.386-.108.777-.213,1.263-.347,1.263-.346,7.437-.361,9.3-.361.872,0,2.119.176,3.475.282a34.816,34.816,0,0,0,5.638-2.076,7.2,7.2,0,0,0-2.615-3.33c-1.065-.571-.3-2.329,1.66-4.683s1.356-6.454,1.4-7.64C1876.115,464.233,1877.2,462.767,1878.169,461.342Zm-5.478,6.393c-3.512,3.74-21.235,3.279-22.861-2.182s-.391-12.459.423-12.947,16.543-3.9,22.987,1.951C1873.24,454.557,1876.2,464,1872.691,467.735Z" transform="translate(-1812.145 -440.266)" fill="#ad5115" opacity="0.4"/>
          <path id="Trazado_998071" data-name="Trazado 998071" d="M1948.357,763.35h-1.077l-.826-45.725h1.9Z" transform="translate(-1898.628 -678.272)" fill="#ad5115"/>
          <g id="Grupo_1179610" data-name="Grupo 1179610" transform="translate(32.447 8.401)">
            <path id="Trazado_998072" data-name="Trazado 998072" d="M1867.035,500.227c1.834-4.977,12.576-4.846,12.576-4.846s10.742-.131,12.575,4.846c1.422,3.858.655,17.161-3.93,20.044,0,0-2.881,1.965-8.645-.132-5.764,2.1-8.646.132-8.646.132C1866.38,517.388,1865.614,504.085,1867.035,500.227Z" transform="translate(-1862.163 -495.381)" fill="#0e0e13"/>
            <path id="Trazado_998073" data-name="Trazado 998073" d="M1894.821,503.562c-1.763-4.787-12.1-4.662-12.1-4.662s-10.333-.126-12.1,4.662c-1.367,3.711-.63,16.507,3.78,19.279,0,0,2.772,1.89,8.317-.126,5.544,2.016,8.316.126,8.316.126C1895.451,520.069,1896.188,507.273,1894.821,503.562Z" transform="translate(-1865.276 -498.41)" fill="#353b45"/>
            <path id="Trazado_998074" data-name="Trazado 998074" d="M1896.46,513.329s7.045-.085,10.493,2.581a11.48,11.48,0,0,0-.491-3.2c-1.458-3.959-10-3.855-10-3.855s-8.544-.1-10,3.855a11.46,11.46,0,0,0-.492,3.2C1889.414,513.244,1896.46,513.329,1896.46,513.329Z" transform="translate(-1879.011 -506.977)" fill="#171c22"/>
            <path id="Trazado_998075" data-name="Trazado 998075" d="M1897.456,512.668c-1.836.416-3.712,1.159-4.679,2.48l14.85,17.332a4.4,4.4,0,0,0,1.572-.547,6.248,6.248,0,0,0,2.18-3.012Z" transform="translate(-1884.874 -510.26)" fill="#fff" opacity="0.2"/>
            <path id="Trazado_998076" data-name="Trazado 998076" d="M1885.9,544.387l10.646,12.426a12.023,12.023,0,0,0,3.255.7l-13.6-15.876A15.315,15.315,0,0,0,1885.9,544.387Z" transform="translate(-1878.953 -535.195)" fill="#fff" opacity="0.2"/>
            <path id="Trazado_998077" data-name="Trazado 998077" d="M1906.334,512.708c-1.458-3.959-10-3.855-10-3.855s-8.544-.1-10,3.855c-1.13,3.068-.521,13.649,3.126,15.941,0,0,2.292,1.563,6.877-.1,4.583,1.667,6.876.1,6.876.1C1906.855,526.357,1907.464,515.776,1906.334,512.708Zm-3.675,15.177s-2.109,1.438-6.327-.1c-4.218,1.535-6.328.1-6.328.1-3.355-2.11-3.916-11.845-2.876-14.668,1.342-3.644,9.2-3.548,9.2-3.548s7.861-.1,9.2,3.548C1906.575,516.041,1906.014,525.776,1902.659,527.886Z" transform="translate(-1878.884 -506.977)" fill="#0e0e13"/>
            <path id="Trazado_998078" data-name="Trazado 998078" d="M1920.658,607.347a3.687,3.687,0,0,0-7.2,0c-.934,2.264-4.54,10.094-2.818,12.525,1.377,1.945,5.009,2.616,6.418,2.478,1.409.138,5.04-.533,6.417-2.478C1925.2,617.441,1921.592,609.611,1920.658,607.347Z" transform="translate(-1899.854 -589.266)" fill="#353b45"/>
            <path id="Trazado_998079" data-name="Trazado 998079" d="M1923.475,621.241c.652-.921.54-2.616.1-4.49a11.336,11.336,0,0,0-4.422-.762c-4.932-.164-5.689-6.521-2.764-9.943a5.162,5.162,0,0,0-2.929,2.669c-.934,2.264-4.54,10.094-2.818,12.525,1.377,1.945,5.009,2.616,6.418,2.478C1918.467,623.857,1922.1,623.187,1923.475,621.241Z" transform="translate(-1899.854 -590.634)" fill="#171c22" opacity="0.3"/>
            <path id="Trazado_998080" data-name="Trazado 998080" d="M1918.985,656.383c-2.6.84-8.269-2.345-7.059-5.306.022-.054.04-.1.058-.151-1.234,3.19-2.5,7.3-1.341,8.944,1.378,1.945,5.009,2.616,6.418,2.478,1.409.138,5.041-.533,6.417-2.478a4.187,4.187,0,0,0,.4-2.828A6.205,6.205,0,0,0,1918.985,656.383Z" transform="translate(-1899.857 -629.263)" fill="#171c22"/>
            <path id="Trazado_998081" data-name="Trazado 998081" d="M1918.839,666.765c0,1.637-.682,2.963-1.521,2.963s-1.521-1.326-1.521-2.963.681-2.964,1.521-2.964S1918.839,665.128,1918.839,666.765Z" transform="translate(-1904.688 -640.345)" fill="#0e0e13"/>
            <path id="Trazado_998082" data-name="Trazado 998082" d="M1953.626,613.345s-1.764.507-1.092,2.019a17.737,17.737,0,0,0,4.489,5.124c.8.336.635-1.008.467-1.68S1955.263,612.933,1953.626,613.345Z" transform="translate(-1936.177 -596.896)" fill="#48525e"/>
            <path id="Trazado_998083" data-name="Trazado 998083" d="M1960.312,618.121s-.743.375-.749.944,2.177,3.2,2.26,1.967S1960.75,617.8,1960.312,618.121Z" transform="translate(-1942.359 -600.997)" fill="#7f8c98"/>
            <g id="Grupo_1179606" data-name="Grupo 1179606" transform="translate(0 20.007)">
              <g id="Grupo_1179604" data-name="Grupo 1179604" transform="translate(8.202 3.746)">
                <path id="Trazado_998084" data-name="Trazado 998084" d="M1898.8,671.265c1.005,0,1.819-1.194,1.819-2.667s-.813-2.668-1.819-2.668h-3.867v5.335h3.867Z" transform="translate(-1894.93 -665.93)" fill="#526a81"/>
              </g>
              <path id="Trazado_998085" data-name="Trazado 998085" d="M1894.93,671.265h2.161a10.581,10.581,0,0,0,.2-5.335h-2.365Z" transform="translate(-1886.728 -662.184)" fill="#3a4759"/>
              <g id="Grupo_1179605" data-name="Grupo 1179605">
                <path id="Trazado_998086" data-name="Trazado 998086" d="M1860.832,651.861c1.864,0,3.376-2.87,3.376-6.413s-1.512-6.414-3.376-6.414h-2.742v12.826h2.742Z" transform="translate(-1855.018 -639.035)" fill="#526a81"/>
                <path id="Trazado_998087" data-name="Trazado 998087" d="M1870.56,688.715h-5.077v1.824h4.857A11.442,11.442,0,0,0,1870.56,688.715Z" transform="translate(-1861.383 -681.796)" fill="#8d9bae"/>
                <path id="Trazado_998088" data-name="Trazado 998088" d="M1862.945,651.273v4.709h5.442a9.76,9.76,0,0,0-1.085-4.709Z" transform="translate(-1859.197 -649.569)" fill="#3a4e5f" opacity="0.5"/>
                <path id="Trazado_998089" data-name="Trazado 998089" d="M1836.035,645.449c0,3.542,1.512,6.413,3.376,6.413s3.376-2.87,3.376-6.413-1.511-6.414-3.376-6.414S1836.035,641.907,1836.035,645.449Z" transform="translate(-1836.035 -639.035)" fill="#8d9bae"/>
                <path id="Trazado_998090" data-name="Trazado 998090" d="M1838.336,649.207c0,3.206,1.368,5.805,3.055,5.805s3.056-2.6,3.056-5.805-1.368-5.805-3.056-5.805S1838.336,646,1838.336,649.207Z" transform="translate(-1838.016 -642.794)" fill="#3a4759"/>
              </g>
            </g>
            <path id="Trazado_998091" data-name="Trazado 998091" d="M1982.6,666.765c0,1.637.681,2.963,1.521,2.963s1.521-1.326,1.521-2.963-.681-2.964-1.521-2.964S1982.6,665.128,1982.6,666.765Z" transform="translate(-1962.192 -640.345)" fill="#0e0e13"/>
            <g id="Grupo_1179609" data-name="Grupo 1179609" transform="translate(20.674 20.007)">
              <g id="Grupo_1179607" data-name="Grupo 1179607" transform="translate(0 3.746)">
                <path id="Trazado_998092" data-name="Trazado 998092" d="M1986.3,671.265c-1.005,0-1.82-1.194-1.82-2.667s.814-2.668,1.82-2.668h3.868v5.335H1986.3Z" transform="translate(-1984.477 -665.93)" fill="#526a81"/>
              </g>
              <path id="Trazado_998093" data-name="Trazado 998093" d="M2009.168,671.265h-2.16a10.57,10.57,0,0,1-.206-5.335h2.366Z" transform="translate(-2003.481 -662.184)" fill="#3a4759"/>
              <g id="Grupo_1179608" data-name="Grupo 1179608" transform="translate(4.7)">
                <path id="Trazado_998094" data-name="Trazado 998094" d="M2021.6,651.861c-1.864,0-3.375-2.87-3.375-6.413s1.511-6.414,3.375-6.414h2.742v12.826H2021.6Z" transform="translate(-2018.227 -639.035)" fill="#526a81"/>
                <path id="Trazado_998095" data-name="Trazado 998095" d="M2018.309,688.715h5.076v1.824h-4.856A11.513,11.513,0,0,1,2018.309,688.715Z" transform="translate(-2018.298 -681.796)" fill="#8d9bae"/>
                <path id="Trazado_998096" data-name="Trazado 998096" d="M2023.669,651.273v4.709h-5.442a9.767,9.767,0,0,1,1.084-4.709Z" transform="translate(-2018.227 -649.569)" fill="#3a4e5f" opacity="0.5"/>
                <path id="Trazado_998097" data-name="Trazado 998097" d="M2042.484,645.449c0,3.542-1.511,6.413-3.375,6.413s-3.376-2.87-3.376-6.413,1.511-6.414,3.376-6.414S2042.484,641.907,2042.484,645.449Z" transform="translate(-2033.296 -639.035)" fill="#8d9bae"/>
                <path id="Trazado_998098" data-name="Trazado 998098" d="M2044.142,649.207c0,3.206-1.369,5.805-3.055,5.805s-3.056-2.6-3.056-5.805,1.368-5.805,3.056-5.805S2044.142,646,2044.142,649.207Z" transform="translate(-2035.273 -642.794)" fill="#3a4759"/>
              </g>
            </g>
          </g>
          <path id="Trazado_998099" data-name="Trazado 998099" d="M1851.479,1088.754s-10.133,5.528-8.319,5.366,4.194-1.132,3.248,0-2.409,3.086-1.27,3.249,2.521-.448,2.073,1.32-1.666,3.233,0,3.72,1.666,2.439,1.5,3.415-1.464,4.552-.325,5.366,4.066,1.789,4.066-.813-1.627-6.178-1.138-7.317,2.114-1.727,1.138-2.652-3.09,1.087-3.09,0,3.74-3.527,2.276-3.2-2.764.326-2.114-.813,4.84-3.658,3.233-3.211-4.209,2.073-3.884,1.26S1854,1087.348,1851.479,1088.754Z" transform="translate(-1809.533 -997.537)" fill="#ffe2ac"/>
          <path id="Trazado_998100" data-name="Trazado 998100" d="M1871.264,1318.29s-5.1,3.9-4.421,4.39,2.864-1.138,2.179,0-2.985,4.066-2.242,4.227,3.594.977,2.168,1.951-3.2,4.715-2.314,4.065,2.525-3.089,2.2-1.788-3.075,4.552-2.434,4.227,3.155-1.626,2.386-.65-2.733,3.088-2.482,3.9,1.326,2.764.543,3.9-2.956,3.577-1.625,4.227,4.258,2.277,4.42-1.137-.649-5.2,0-6.5,3.292-5.644,2.3-5.506-2.134.938-1.321-.6,3.789-4.3,2.382-3.488-2.707,1.463-2.22.488,3.463-4.39,2.22-3.74-2.707.325-2.382-.65,1.666-2.277,1.321-3.089S1873.112,1316.8,1871.264,1318.29Z" transform="translate(-1828.343 -1195.041)" fill="#ffe2ac"/>
          <path id="Trazado_998101" data-name="Trazado 998101" d="M2011.013,1128.917s-2.926,2.15-2.764,4.083,1.945-.164,1.379,1.616-1.554,3.446-1.386,3.751,3.559-2.418,1.376,0-6.085,6.646-4.3,5.508,4.878-3.9,4.064-2.6-4.552,5.488-3.414,5.1,3.252-1.85,2.926-.712-1.626,3.74.163,3.252,5.691-3.252,4.065-3.9-3.578-.163-2.764-1.463,2.593-4.228,1.7-3.414-.086-.774,0-1.769.565-3.109,0-2.622-1.7-1.588-.728-2.745S2014.428,1126.817,2011.013,1128.917Z" transform="translate(-1948.906 -1031.846)" fill="#ffe2ac"/>
          <path id="Trazado_998102" data-name="Trazado 998102" d="M2005.6,1299.213s-10.407,9.106-8.618,8.618,5-5.163,4.205-2.825-3.978,3.8-3.522,4.939,3.057.65,2.406,1.788-2.213,2.277-2.406,3.577,4.314-.132,3.522,1.234-5.919,5.27-4.412,4.62,4.11-2.277,3.459-1.464-4.327,3.577-2.569,3.252,7.447-6.3,5.984-5.669-2.508.171-1.66-.739,4.253-3.835,2.876-4.161-2.842-1.3-2.029-2.113,5.365-3.9,2.764-3.74-4.4,2.114-4.153,1.139,3.82-4.878,3.418-5.042S2006.745,1298.2,2005.6,1299.213Z" transform="translate(-1941.705 -1178.728)" fill="#ffe2ac"/>
          <path id="Trazado_998103" data-name="Trazado 998103" d="M2079.17,725.945s-2.523,9.648-2.213,12.981,2.99,11.819,2.99,11.819,3.825,8.814,4.313,9.107.732,6.478,1.707,8.02a35.12,35.12,0,0,1,2.683,6.419c.244.976-1.22,5.53,0,6.789s-1.9,5.121.028,5.507,8.752,3.516,10.459,0a9.882,9.882,0,0,0,1.464-5.507c-.245-2.887.048-4.595.023-8.009a60.859,60.859,0,0,0-1.488-11.219c-.731-3.415.732-4.361-.243-7.547s-2.927-6.6-3.414-9.77S2086.761,726.623,2079.17,725.945Z" transform="translate(-2010.934 -685.433)" fill="#fdb12a"/>
          <path id="Trazado_998104" data-name="Trazado 998104" d="M2097.672,817.947c.244,1.17.732,5.9,1.22,9.318s.731,4.633,0,6.722,0,2.546,0,5.189-.732,3.21-1.463,5.507-5.836.873-6.1,0a10.241,10.241,0,0,1,.488-4.591c.488-1.318-.244-2.583-.488-3.559s1.951-.977,3.415-1.993-3.9-3.13-4.391-4.828,2.439-.253,4.878-.009-5.122-4.634-6.458-7.317,2.067.244,4.019,0-3.9-1.463-5.853-2.927,0-3.9,0-7.059-.488-2.209-1.579-4.16.115-4.878-1.836-9.153a11.321,11.321,0,0,0-6.335-5.647h0a16.982,16.982,0,0,0-.236,3.58c.31,3.332,2.99,11.819,2.99,11.819s3.825,8.814,4.313,9.107.732,6.478,1.707,8.02a35.14,35.14,0,0,1,2.683,6.419c.244.976-1.22,5.53,0,6.79s-1.9,5.121.028,5.507,8.752,3.516,10.459,0a9.884,9.884,0,0,0,1.464-5.507c-.245-2.887.047-4.595.023-8.009a60.881,60.881,0,0,0-1.488-11.219c-.731-3.415.732-4.361-.243-7.547C2098.892,812.4,2097.428,816.778,2097.672,817.947Z" transform="translate(-2010.931 -743.529)" fill="#ad5115" opacity="0.3"/>
          <path id="Trazado_998105" data-name="Trazado 998105" d="M2100.367,782.012s10.245,3.709,8.049,3.952-6.033,0-3.87.976,8.992,5.122,7.04,5.122-6.573,0-4.75.975,5.687,4.39,5.1,4.634-3.273.732-2.3,1.464,3.5,3.687,2.358,3.428-6-.258-5.157-1.233,1.348-1.22,0-2.683-3.785-2.311-2.811-2.74,3.427.919,2.811,0a54.575,54.575,0,0,0-4.562-4.807c.046.16,6.107.474,4.051-.745s-5.958-3.9-5.958-4.878,2.439-2.771,1.219-1.873-3.676-1.592-3.676-1.592Z" transform="translate(-2028.991 -733.691)" fill="#ffe2ac"/>
          <path id="Trazado_998106" data-name="Trazado 998106" d="M1846.5,886.812c-.547.479,1.616,2.793-.631,5.624s-3.678,4.2-2.717,5.546,2.091,1.187,1.687,3.464-1.541,6.5-.89,5.853,1.727-6.179,1.92-4.39-4.652,9.105-2.717,7.967,3.458-4.878,3.347-3.414-3.251,5.69-1.356,5.039,6.58-.163,7.733-.812-1.875-2.277-3.206-1.626-2.734,1.946-3.17.325,4.827-9.431,3.17-8.13-3.547,4.064-3.17,2.6,4.664-9.105,3.17-7.967-3.343,4.3-3.475,2.8,2.606-3.474,2.213-4.924-2.285.975-1.908.006,2.563-4.384,2.2-6.172S1847.612,885.837,1846.5,886.812Z" transform="translate(-1809.319 -823.564)" fill="#ffe2ac" opacity="0.4"/>
          <path id="Trazado_998107" data-name="Trazado 998107" d="M1633.873,648.713s3.043,17.574-.637,22.351c0,0-12.082,3.674-17.583,3.8s-8.813-.775-11.252-3.865-1.009-15.81,0-17.924c0,0,2.471-2.677,1.74-3.371s-1.22-.68-1.22-2.15,1.464-2.5.976-3.57-.976-3.018-.73-3.63,1.463-3.221,2.682-3.746,9.733-.7,11.208.608.5,5.643,1.231,6.767,1.22,3.7,0,4.729-1.73,2.446-1.231,2.47,3.182-.429,2.207.651-3.194,3.907-2.207,3.712,1.231.975,1.231.975a31.432,31.432,0,0,1,4.878-5.339C1627.6,649.255,1633.873,648.713,1633.873,648.713Z" transform="translate(-1603.056 -608.201)" fill="#fdb12a"/>
          <path id="Trazado_998108" data-name="Trazado 998108" d="M1711.723,728.415a31.427,31.427,0,0,0-4.878,5.339s-.51,1.27-1.231,2.976.476,3.32,0,4.222a11.324,11.324,0,0,0-1.451,4.072c0,1.219-1.22,2.569,0,2.626s.731-.057,2.682,0a18.922,18.922,0,0,0,8.049-1.651c2.195-1.22,4.1,1.651,4.1,1.651l.124.849.681-.2c3.68-4.777.637-22.351.637-22.351S1714.161,726.487,1711.723,728.415Z" transform="translate(-1689.614 -685.433)" fill="#ad5115" opacity="0.3"/>
          <path id="Trazado_998109" data-name="Trazado 998109" d="M1711.727,734.948a31.432,31.432,0,0,0-4.878,5.339s-.51,1.27-1.231,2.976.476,3.32,0,4.222a11.321,11.321,0,0,0-1.452,4.072c0,1.077-.95,2.254-.333,2.555a9.048,9.048,0,0,0,3.626-3.54c1.463-2.917,1.219-4.259,2.073-4.624s2.2-.853,1.951-1.463-1.341-1.22-.854-1.83,1.666,0,1.991-1.342-1.058-3.536,0-3.9a3.839,3.839,0,0,0,1.912-2.462c.053-.257.177-.825.247-1.413A9.49,9.49,0,0,0,1711.727,734.948Z" transform="translate(-1689.619 -691.966)" fill="#953f0f" opacity="0.3"/>
          <path id="Trazado_998110" data-name="Trazado 998110" d="M1613.214,673.574c-1.342-.367-4.147-.122-5-1.647s.244-3.6.61-5.026-1.463-5.034-1.317-6.25,1.8-2.565,2.658-3.468-1.22-1.292-1.463-2.511,3.415,0,4.878,0-3.9-4.268-4.635-5.3,1.586-.434,2.684-1.159-3.292-4.885-4.024-6.806c-.486-1.274.961-3.243,1.991-4.425a7.174,7.174,0,0,0-1.747.286c-1.219.525-2.44,3.134-2.682,3.746s.242,2.559.73,3.63-.976,2.1-.976,3.57.488,1.456,1.22,2.15-1.74,3.371-1.74,3.371c-1.009,2.114-2.439,14.834,0,17.924s5.75,3.991,11.252,3.865a24.5,24.5,0,0,0,2.923-.282,11.713,11.713,0,0,0-2.436-.937A17.2,17.2,0,0,1,1613.214,673.574Z" transform="translate(-1603.056 -608.862)" fill="#ad5115" opacity="0.4"/>
        </g>
        <g id="Grupo_1179628" data-name="Grupo 1179628" transform="translate(0 1.497)">
          <g id="Grupo_1179627" data-name="Grupo 1179627">
            <g id="Grupo_1179626" data-name="Grupo 1179626">
              <path id="Trazado_998111" data-name="Trazado 998111" d="M1091.747,679.329s-9.579-.138-11.082,3.04,1.253,39.9,2.756,41.283,36.83,3.575,42.842.507c0,0,5.01-36.768,1.5-40.718S1095.633,679.133,1091.747,679.329Z" transform="translate(-1079.416 -646.77)" fill="#fdb12a"/>
              <path id="Trazado_998112" data-name="Trazado 998112" d="M1101.983,709.972s-9.075-.124-10.5,2.741,1.187,35.967,2.611,37.219,34.891,3.221,40.589.456c0,0,4.747-33.149,1.424-36.709S1105.664,709.8,1101.983,709.972Z" transform="translate(-1088.747 -673.149)" fill="#ad5115"/>
              <path id="Trazado_998113" data-name="Trazado 998113" d="M1160.154,485.152s-2.7,26.743-1.113,29.433,24.03,3.281,26.714,1.244,1.891-21.814-.775-25.77S1160.154,485.152,1160.154,485.152Z" transform="translate(-1146.819 -479.672)" fill="#c25d10"/>
              <g id="Grupo_1179612" data-name="Grupo 1179612" transform="translate(38.161 44.731)">
                <path id="Trazado_998114" data-name="Trazado 998114" d="M1365,794.291l18.049,5.2,1.265-5.812-14.913-6.677s-13.779-22.139-18.052-19.853a5.085,5.085,0,0,0-2.848,5.769c.456,2.461,9.306,14.307,12.928,18.948A8.083,8.083,0,0,0,1365,794.291Z" transform="translate(-1348.384 -766.987)" fill="#f58f17"/>
                <path id="Trazado_998115" data-name="Trazado 998115" d="M1607.348,959.145s-4.921-1-5.3-1.089-.485-.25-.463-.408a40.558,40.558,0,0,1,4.413-.038c.238-.032.346-.028.42-.262s-.41-.447-.41-.447c-.209-.118-4.271-.274-4.854-.444s-1.151-.3-.907-.484,2.509-.833,2.885-1.039a.361.361,0,0,0,.144-.543,35.426,35.426,0,0,1-4.064.251,12.657,12.657,0,0,0-3.141.356l-8.812-4.395s-2.624,1.931-1.693,7.6l9.993.455c1.808,1.167,4.588,2.56,4.717,2.65.15.1,2.373,1.736,3.3,2.216a.371.371,0,0,0,.345-.009c.224-.091.082-.311.025-.41s-2.5-2.216-2.635-2.4.324-.214.324-.214c.189.043,4.865,1.27,5.066,1.234a.839.839,0,0,0,.484-.191c.132-.126-.153-.413-.3-.514s-4.606-1.267-4.854-1.351-.492-.429-.36-.557,5.182.876,5.613.824.526-.25.526-.25C1607.984,959.367,1607.348,959.145,1607.348,959.145Z" transform="translate(-1552.364 -925.03)" fill="#171d27"/>
              </g>
              <g id="Grupo_1179615" data-name="Grupo 1179615" transform="translate(51.198 71.55)">
                <g id="Grupo_1179614" data-name="Grupo 1179614">
                  <path id="Trazado_998116" data-name="Trazado 998116" d="M1512.018,1655.059c0,2.822-14.8,5.11-33.054,5.11s-33.054-2.288-33.054-5.11,14.8-5.106,33.054-5.106S1512.018,1652.239,1512.018,1655.059Z" transform="translate(-1445.365 -1553.8)" fill="#5a8187"/>
                  <path id="Trazado_998117" data-name="Trazado 998117" d="M1514.863,1096.211c0,1.54-14.552,4.964-32.5,4.964s-32.5-3.424-32.5-4.964V999.171l65.008-1.64Z" transform="translate(-1448.76 -992.241)" fill="#253d3e"/>
                  <path id="Trazado_998118" data-name="Trazado 998118" d="M1770.791,1481.1c.661.712.763,20.8,0,21.32s-9.071,2.095-11.207,0,5.221-7.489,6.883-10.131S1770.791,1481.1,1770.791,1481.1Z" transform="translate(-1715.02 -1408.465)" fill="#385f5f"/>
                  <path id="Trazado_998119" data-name="Trazado 998119" d="M1861.684,1449.836s-3.561.321-4.035,1.744-2.136,23.891,0,23.931,3.086-1.279,4.035-1.806.237-20.7,0-22.837" transform="translate(-1798.844 -1381.553)" fill="#385f5f"/>
                  <path id="Trazado_998120" data-name="Trazado 998120" d="M1850.454,1105.375s-2.136,1.743-4.035,1.465-6.091-34.22-2.7-35.3,5.788-3.625,6.737-1.75S1850.454,1105.375,1850.454,1105.375Z" transform="translate(-1786.665 -1053.862)" fill="#385f5f"/>
                  <path id="Trazado_998121" data-name="Trazado 998121" d="M1455.117,1049.354s-.885-35.233,1.085-39.169c0,0,45.2,2.9,58.661-6v-6.652l-65.008,1.64v97.041c0,1.54,14.553,4.964,32.5,4.964s32.5-3.424,32.5-4.964v-8.284c-14.343,2.753-54.574,7.054-56.909-30.678,0,0,39.376,8.954,56.909-1.019v-9.582C1505.761,1049.919,1484.7,1055.288,1455.117,1049.354Z" transform="translate(-1448.76 -992.241)" fill="#1a2e2e"/>
                  <path id="Trazado_998122" data-name="Trazado 998122" d="M1478.964,1691.661c-18.255,0-33.054-3.481-33.054-5.048v3.5c0,1.566,14.8,5.046,33.054,5.046s33.054-3.481,33.054-5.046v-3.5C1512.018,1688.18,1497.219,1691.661,1478.964,1691.661Z" transform="translate(-1445.365 -1585.354)" fill="#426969"/>
                  <path id="Trazado_998123" data-name="Trazado 998123" d="M1445.91,1352.957c0,1.563,14.8,5.043,33.054,5.043s33.054-3.48,33.054-5.043" transform="translate(-1445.365 -1298.167)" fill="none" stroke="#426969" stroke-linecap="round" stroke-linejoin="round" stroke-width="18.86"/>
                  <g id="Grupo_1179613" data-name="Grupo 1179613">
                    <path id="Trazado_998124" data-name="Trazado 998124" d="M1442,965.57c0,3.325,15.043,6.02,33.6,6.02s33.6-2.7,33.6-6.02-15.042-6.019-33.6-6.019S1442,962.247,1442,965.57Z" transform="translate(-1441.996 -959.551)" fill="#5a8187"/>
                    <path id="Trazado_998125" data-name="Trazado 998125" d="M1453,970.435c0,2.541,14.357,4.6,32.067,4.6s32.067-2.058,32.067-4.6-14.358-4.6-32.067-4.6S1453,967.9,1453,970.435Z" transform="translate(-1451.468 -964.964)" fill="#416467"/>
                    <path id="Trazado_998126" data-name="Trazado 998126" d="M1514.445,985.617c-3.734,1.945-16.155,3.375-30.911,3.375-13.138,0-24.424-1.133-29.38-2.755-.747.389-1.154.8-1.154,1.221,0,2.541,14.357,4.6,32.067,4.6s32.067-2.057,32.067-4.6C1517.134,986.8,1516.171,986.182,1514.445,985.617Z" transform="translate(-1451.468 -981.987)" fill="#253d3e" opacity="0.3"/>
                    <path id="Trazado_998127" data-name="Trazado 998127" d="M1485.067,966.935c16.417,0,29.944,1.77,31.832,4.048a.865.865,0,0,0,.235-.547c0-2.536-14.358-4.6-32.067-4.6S1453,967.9,1453,970.435a.866.866,0,0,0,.234.547C1455.123,968.7,1468.65,966.935,1485.067,966.935Z" transform="translate(-1451.468 -964.964)" fill="#253d3e"/>
                  </g>
                </g>
                <path id="Trazado_998128" data-name="Trazado 998128" d="M1613.278,1162.838c1.339,2.807-.109,5.1-3.22,5.1h-19.491c-3.11,0-4.476-2.255-3.035-5.012l10.866-20.777c1.441-2.756,3.716-2.716,5.056.093Z" transform="translate(-1566.769 -1114.965)" fill="#fecb2e"/>
              </g>
              <path id="Trazado_998129" data-name="Trazado 998129" d="M1095.284,1610.936a50.381,50.381,0,0,0,.811,7.408c.583,2.12-.152,6.545-.152,6.545s-17.487,3.3-21.54.634c0,0-.335-4.115,1.637-4.8s9.693-1.474,10.211-3.048c0,0,.461-7.094,1.134-7.394S1095.284,1610.936,1095.284,1610.936Z" transform="translate(-1074.381 -1448.049)" fill="#171d27"/>
              <path id="Trazado_998130" data-name="Trazado 998130" d="M1272.452,1610.936a50.454,50.454,0,0,1-.812,7.408c-.584,2.12.152,6.545.152,6.545s17.487,3.3,21.541.634c0,0,.334-4.115-1.638-4.8s-9.692-1.474-10.211-3.048c0,0-.461-7.094-1.134-7.394S1272.452,1610.936,1272.452,1610.936Z" transform="translate(-1243.974 -1448.049)" fill="#171d27"/>
              <g id="Grupo_1179622" data-name="Grupo 1179622" transform="translate(6.065 2.034)">
                <path id="Trazado_998131" data-name="Trazado 998131" d="M1165.009,1072.72a31.64,31.64,0,0,0,0-10.761l-16.627.841-17.123-1.639a47.924,47.924,0,0,0-.159,12.509c.065.4.829,26.689,1.487,36.519l2.032,28.737c3.676,3.851,9.94,1.075,9.94,1.075-.108-11.464,1.771-37.911,1.759-40.537.6-4.195.591-10.71,1.328-15.825a3.517,3.517,0,0,0,.524-.017c.213,7.231-.181,12.881.495,17.069.037,2.626,1.137,25.619,2.3,39.262,0,0,5.183,3.564,8.876-.27C1159.842,1139.681,1164.89,1073.481,1165.009,1072.72Z" transform="translate(-1128.952 -977.493)" fill="#f58f17"/>
                <g id="Grupo_1179616" data-name="Grupo 1179616" transform="translate(1.784 85.446)" opacity="0.5">
                  <path id="Trazado_998132" data-name="Trazado 998132" d="M1131.1,1084.66c.065.4.829,26.689,1.487,36.519l2.032,28.737c3.676,3.851,9.94,1.075,9.94,1.075-.01-1.1,0-2.333.021-3.669-16.047,6.915-8.907-62.188-8.907-62.188,8.465-.2,24.41-2.679,29.6-3.52a32.958,32.958,0,0,0-.1-7.683c-10.247.667-25.479,1.723-34.35,2.649A38.566,38.566,0,0,0,1131.1,1084.66Z" transform="translate(-1130.737 -1073.93)" fill="#ad5115"/>
                </g>
                <path id="Trazado_998133" data-name="Trazado 998133" d="M1154.428,800.12c0-14.264,2.407-46.834,1.14-48.021s-14.233-2.849-14.233-2.849l-3.975,1.053-3.975-1.053s-12.967,1.662-14.233,2.849-1.763,15.122-.436,17.97c0,0,1,18.2,1.028,28.344a112.353,112.353,0,0,0,17.617,1.706C1145.062,800.21,1154.428,800.12,1154.428,800.12Z" transform="translate(-1117.931 -709.023)" fill="#fdb12a"/>
                <rect id="Rectángulo_455531" data-name="Rectángulo 455531" width="1.852" height="44.499" transform="translate(17.774 42.697)" fill="#ad5115"/>
                <path id="Trazado_998134" data-name="Trazado 998134" d="M1223.3,690.907a18.013,18.013,0,0,1-3.8-9.969h-6.126a18.015,18.015,0,0,1-3.8,9.969c1.383,1.735,6.01,2.281,6.8,2.363v.011l.059-.005.059.005v-.011C1217.29,693.188,1221.918,692.642,1223.3,690.907Z" transform="translate(-1196.811 -650.225)" fill="#d7936b"/>
                <path id="Trazado_998135" data-name="Trazado 998135" d="M1237.842,680.938h-6.126a16.968,16.968,0,0,1-.833,4.4c2.52,1.761,6.453,3.823,8.193,1.1A17.249,17.249,0,0,1,1237.842,680.938Z" transform="translate(-1215.152 -650.225)" fill="#c37244"/>
                <g id="Grupo_1179621" data-name="Grupo 1179621" transform="translate(4.183)">
                  <path id="Trazado_998136" data-name="Trazado 998136" d="M1152.518,577.973c.463,1.721-.146,3.382-1.361,3.708s-2.574-.8-3.037-2.524.146-3.38,1.36-3.708S1152.055,576.253,1152.518,577.973Z" transform="translate(-1147.964 -559.38)" fill="#d7936b"/>
                  <g id="Grupo_1179617" data-name="Grupo 1179617" transform="translate(0.862 17.557)">
                    <path id="Trazado_998137" data-name="Trazado 998137" d="M1154.223,588.376s-.32-1.8.377-1.893a1.7,1.7,0,0,1,1.769,1.893c-.105,1.357-.473,1.93-1.121,1.448" transform="translate(-1154.15 -586.475)" fill="none" stroke="#985631" stroke-linecap="round" stroke-miterlimit="10" stroke-width="1.54"/>
                    <path id="Trazado_998138" data-name="Trazado 998138" d="M1160.526,590.856s-.849-1.877.514-1.614" transform="translate(-1159.413 -588.835)" fill="none" stroke="#985631" stroke-linecap="round" stroke-miterlimit="10" stroke-width="1.54"/>
                  </g>
                  <path id="Trazado_998139" data-name="Trazado 998139" d="M1334.6,577.973c-.463,1.721.146,3.382,1.361,3.708s2.576-.8,3.038-2.524-.146-3.38-1.36-3.708S1335.064,576.253,1334.6,577.973Z" transform="translate(-1308.474 -559.38)" fill="#d7936b"/>
                  <g id="Grupo_1179618" data-name="Grupo 1179618" transform="translate(27.315 17.557)">
                    <path id="Trazado_998140" data-name="Trazado 998140" d="M1346.241,588.376s.319-1.8-.377-1.893a1.7,1.7,0,0,0-1.768,1.893c.1,1.357.472,1.93,1.12,1.448" transform="translate(-1344.09 -586.475)" fill="none" stroke="#985631" stroke-linecap="round" stroke-miterlimit="10" stroke-width="1.54"/>
                    <path id="Trazado_998141" data-name="Trazado 998141" d="M1348.9,590.856s.849-1.877-.514-1.614" transform="translate(-1347.785 -588.835)" fill="none" stroke="#985631" stroke-linecap="round" stroke-miterlimit="10" stroke-width="1.54"/>
                  </g>
                  <path id="Trazado_998142" data-name="Trazado 998142" d="M1182.324,460.41c-15.919,0-11.841,20.036-11.43,23.727.481,4.329,8.622,10.34,8.622,10.34.734.724,2.728.721,2.728.721a5.066,5.066,0,0,0,2.695-.721s8.561-5.852,8.882-10.34C1194.084,480.432,1197.474,460.411,1182.324,460.41Z" transform="translate(-1167.041 -460.41)" fill="#eab389"/>
                  <path id="Trazado_998143" data-name="Trazado 998143" d="M1182.324,460.41c-15.919,0-11.841,20.036-11.43,23.727.481,4.329,8.622,10.34,8.622,10.34.734.724,2.728.721,2.728.721a5.066,5.066,0,0,0,2.695-.721s8.561-5.852,8.882-10.34C1194.084,480.432,1197.474,460.411,1182.324,460.41Z" transform="translate(-1167.041 -460.41)" fill="#eab389"/>
                  <g id="Grupo_1179619" data-name="Grupo 1179619" transform="translate(6.954 14.349)">
                    <path id="Trazado_998144" data-name="Trazado 998144" d="M1284.006,565.378s-.429.786.295.84a14.237,14.237,0,0,1,4.062.731s.719-.13.33-.668C1288.693,566.281,1285.24,564.443,1284.006,565.378Z" transform="translate(-1271.905 -564.88)" fill="#6d4121"/>
                    <path id="Trazado_998145" data-name="Trazado 998145" d="M1202.7,563.706s.428.786-.3.84a14.225,14.225,0,0,0-4.061.732s-.719-.13-.331-.668C1198.013,564.61,1201.466,562.772,1202.7,563.706Z" transform="translate(-1197.899 -563.441)" fill="#6d4121"/>
                  </g>
                  <g id="Grupo_1179620" data-name="Grupo 1179620" transform="translate(13.592 22.886)">
                    <path id="Trazado_998146" data-name="Trazado 998146" d="M1245.555,624.734l.584.165c.161.042.333.082.5.113a2.841,2.841,0,0,0,.5.039c.082.015.163-.017.246-.009.082-.014.166-.028.252-.034a2,2,0,0,1,.256-.053c.083-.024.165-.051.247-.069.165-.035.3-.092.414-.114s.182-.037.182-.037a1.408,1.408,0,0,1-.05.176,1.341,1.341,0,0,1-.22.422,1.6,1.6,0,0,1-1.325.681,1.5,1.5,0,0,1-.432-.057,1.633,1.633,0,0,1-.382-.152,1.707,1.707,0,0,1-.518-.46A1.245,1.245,0,0,1,1245.555,624.734Z" transform="translate(-1245.555 -624.734)" fill="#b5724b"/>
                  </g>
                  <path id="Trazado_998147" data-name="Trazado 998147" d="M1286.113,582.505a3.02,3.02,0,0,1,3.378.523" transform="translate(-1266.873 -565.239)" fill="none" stroke="#b5724b" stroke-linecap="round" stroke-miterlimit="10" stroke-width="1.727"/>
                  <path id="Trazado_998148" data-name="Trazado 998148" d="M1205.179,582.547a3.018,3.018,0,0,0-3.378.522" transform="translate(-1194.303 -565.274)" fill="none" stroke="#b5724b" stroke-linecap="round" stroke-miterlimit="10" stroke-width="1.727"/>
                </g>
              </g>
              <g id="Grupo_1179623" data-name="Grupo 1179623" transform="translate(5.926 43.401)">
                <path id="Trazado_998149" data-name="Trazado 998149" d="M1133.539,784.736l18.049,5.2,1.266-5.812-14.913-6.677s-13.779-22.139-18.052-19.853a5.087,5.087,0,0,0-2.848,5.77c.456,2.46,9.306,14.306,12.929,18.948A8.078,8.078,0,0,0,1133.539,784.736Z" transform="translate(-1116.928 -757.432)" fill="#ffd282"/>
                <path id="Trazado_998150" data-name="Trazado 998150" d="M1375.9,949.594s-4.92-1-5.3-1.089-.486-.249-.463-.409a40.8,40.8,0,0,1,4.414-.038c.238-.031.345-.027.419-.261s-.41-.448-.41-.448c-.209-.116-4.271-.273-4.854-.444s-1.15-.3-.907-.484,2.509-.833,2.886-1.039a.361.361,0,0,0,.143-.544,35.306,35.306,0,0,1-4.063.25,12.66,12.66,0,0,0-3.141.357l-8.811-4.4s-2.623,1.931-1.693,7.6l9.994.455c1.808,1.167,4.587,2.56,4.717,2.65.15.1,2.373,1.736,3.3,2.216a.377.377,0,0,0,.345-.009c.224-.091.082-.312.025-.41s-2.5-2.216-2.635-2.4.323-.213.323-.213c.19.044,4.866,1.271,5.067,1.234a.831.831,0,0,0,.484-.191c.132-.127-.151-.413-.3-.515s-4.606-1.267-4.855-1.351-.492-.429-.359-.557,5.182.877,5.614.825.524-.25.524-.25C1376.534,949.815,1375.9,949.594,1375.9,949.594Z" transform="translate(-1320.913 -915.478)" fill="#171d27"/>
              </g>
              <g id="Grupo_1179624" data-name="Grupo 1179624" transform="translate(18.441 19.625)">
                <path id="Trazado_998151" data-name="Trazado 998151" d="M1206.793,587.882a1.167,1.167,0,1,0,1.167-1.167A1.168,1.168,0,0,0,1206.793,587.882Z" transform="translate(-1206.793 -586.715)" fill="#130c09"/>
                <path id="Trazado_998152" data-name="Trazado 998152" d="M1211.2,589.3s-.624-1.061-1.454,0c0,0-.089.4.238.4a4.566,4.566,0,0,1,.92,0C1211.109,589.769,1211.358,589.5,1211.2,589.3Z" transform="translate(-1209.324 -588.534)" fill="#f6e4dd"/>
              </g>
              <g id="Grupo_1179625" data-name="Grupo 1179625" transform="translate(29.716 19.625)">
                <path id="Trazado_998153" data-name="Trazado 998153" d="M1287.75,587.882a1.167,1.167,0,1,0,1.167-1.167A1.167,1.167,0,0,0,1287.75,587.882Z" transform="translate(-1287.75 -586.715)" fill="#130c09"/>
                <path id="Trazado_998154" data-name="Trazado 998154" d="M1292.153,589.3s-.623-1.061-1.453,0c0,0-.09.4.237.4a4.557,4.557,0,0,1,.919,0C1292.064,589.769,1292.314,589.5,1292.153,589.3Z" transform="translate(-1290.28 -588.534)" fill="#f6e4dd"/>
              </g>
              <path id="Trazado_998155" data-name="Trazado 998155" d="M1240.615,642.43c-.132-1.9-3.118-1.9-3.118-1.9s-2.983-.081-3.167,1.817c-.149,1.536,1.664.747,1.979.661a4.253,4.253,0,0,1,2.311.033C1238.931,643.132,1240.722,643.969,1240.615,642.43Z" transform="translate(-1212.046 -613.408)" fill="#591614"/>
              <path id="Trazado_998156" data-name="Trazado 998156" d="M1243.983,641.2a4.8,4.8,0,0,0-2.411-.672,4.65,4.65,0,0,0-2.517.671A7.681,7.681,0,0,0,1243.983,641.2Z" transform="translate(-1216.12 -613.409)" fill="#f6e4dd"/>
              <path id="Trazado_998157" data-name="Trazado 998157" d="M1248.963,654.384a1.243,1.243,0,0,0-1.481-.793s-1.233-.327-1.612.741c.173-.053.311-.1.379-.123a4.254,4.254,0,0,1,2.311.033C1248.631,654.262,1248.778,654.323,1248.963,654.384Z" transform="translate(-1221.987 -624.612)" fill="#ee8280"/>
              <path id="Trazado_998158" data-name="Trazado 998158" d="M1176.023,449.545c-4.3-4.589-27.234-6.212-28.678,2.533-2.518,15.255.071,37.645.071,37.645s12.708,9.351,29.748.244C1177.164,489.967,1180.318,454.134,1176.023,449.545Zm-3.567,28.676c-3.418,3.64-20.666,3.191-22.249-2.124s0-20.5.792-20.979,16.1-3.8,22.37,1.9C1173.368,457.018,1175.873,474.582,1172.455,478.222Z" transform="translate(-1136.235 -445.806)" fill="#f58f17"/>
              <path id="Trazado_998159" data-name="Trazado 998159" d="M1192.762,527.164c-3.418,3.64-20.666,3.191-22.249-2.124s0-20.5.792-20.979,16.1-3.8,22.371,1.9C1193.675,505.96,1196.179,523.525,1192.762,527.164Z" transform="translate(-1156.542 -494.748)" fill="#57c0eb" opacity="0.2"/>
              <path id="Trazado_998160" data-name="Trazado 998160" d="M1186.256,504.691l-16.4,15.621a26,26,0,0,0,.673,6.47,3.408,3.408,0,0,0,.9,1.43l21.875-20.84A14.442,14.442,0,0,0,1186.256,504.691Z" transform="translate(-1156.562 -496.49)" fill="#e4f4fb" opacity="0.3"/>
              <path id="Trazado_998161" data-name="Trazado 998161" d="M1199.544,563.6l17.1-16.294c-.118-1.705-.27-3.247-.4-4.426l-20.517,19.545A16.949,16.949,0,0,0,1199.544,563.6Z" transform="translate(-1178.829 -529.363)" fill="#e4f4fb" opacity="0.3"/>
            </g>
            <path id="Trazado_998162" data-name="Trazado 998162" d="M1227.766,1210.811c-1.494-1.425-10.277-2.136-12.413,0s2.2,36.537,2.2,36.544c.5-9.685,1.1-18.761,1.09-20.244.6-4.2.591-10.71,1.328-15.825a3.535,3.535,0,0,0,.524-.017c.213,7.231-.181,12.881.494,17.069.037,2.626,1.137,25.619,2.3,39.262,0,0,5.183,3.564,8.877-.27,0,0,.047-.618.132-1.729-1.8.516-5.364,1.43-6.737.991C1223.688,1265.993,1229.26,1212.234,1227.766,1210.811Z" transform="translate(-1195.21 -1103.106)" fill="#ad5115" opacity="0.3"/>
          </g>
          <path id="Trazado_998163" data-name="Trazado 998163" d="M1656.491,1188.82s-5.2,11.808-4.465,15.784c.613,3.324,8.974,3.956,8.862-.633C1660.8,1200.211,1656.491,1188.82,1656.491,1188.82Z" transform="translate(-1571.516 -1085.339)" fill="#151719"/>
        </g>
      </g>
    </g>
  </g>
</svg>
